%TF.GenerationSoftware,KiCad,Pcbnew,9.0.7*%
%TF.CreationDate,2026-08-13T23:42:52-07:00*%
%TF.ProjectId,Atlas,41746c61-732e-46b6-9963-61645f706362,1.0*%
%TF.SameCoordinates,Original*%
%TF.FileFunction,Soldermask,Bot*%
%TF.FilePolarity,Negative*%
%FSLAX46Y46*%
G04 Gerber Fmt 4.6, Leading zero omitted, Abs format (unit mm)*
G04 Created by KiCad (PCBNEW 9.0.7) date 2026-08-13 23:42:52*
%MOMM*%
%LPD*%
G01*
G04 APERTURE LIST*
G04 Aperture macros list*
%AMRoundRect*
0 Rectangle with rounded corners*
0 $1 Rounding radius*
0 $2 $3 $4 $5 $6 $7 $8 $9 X,Y pos of 4 corners*
0 Add a 4 corners polygon primitive as box body*
4,1,4,$2,$3,$4,$5,$6,$7,$8,$9,$2,$3,0*
0 Add four circle primitives for the rounded corners*
1,1,$1+$1,$2,$3*
1,1,$1+$1,$4,$5*
1,1,$1+$1,$6,$7*
1,1,$1+$1,$8,$9*
0 Add four rect primitives between the rounded corners*
20,1,$1+$1,$2,$3,$4,$5,0*
20,1,$1+$1,$4,$5,$6,$7,0*
20,1,$1+$1,$6,$7,$8,$9,0*
20,1,$1+$1,$8,$9,$2,$3,0*%
G04 Aperture macros list end*
%ADD10C,1.600200*%
%ADD11RoundRect,1.500000X1.500000X-1.500000X1.500000X1.500000X-1.500000X1.500000X-1.500000X-1.500000X0*%
%ADD12C,6.000000*%
%ADD13R,1.700000X1.700000*%
%ADD14C,1.700000*%
%ADD15C,5.600000*%
%ADD16C,0.650000*%
%ADD17O,1.000000X2.100000*%
%ADD18O,1.000000X1.600000*%
%ADD19C,2.050000*%
%ADD20C,2.250000*%
%ADD21O,3.500000X2.200000*%
%ADD22R,2.500000X1.500000*%
%ADD23O,2.500000X1.500000*%
%ADD24R,0.558800X1.473200*%
%ADD25RoundRect,0.135000X0.135000X0.185000X-0.135000X0.185000X-0.135000X-0.185000X0.135000X-0.185000X0*%
%ADD26RoundRect,0.135000X0.185000X-0.135000X0.185000X0.135000X-0.185000X0.135000X-0.185000X-0.135000X0*%
%ADD27RoundRect,0.250000X0.250000X0.475000X-0.250000X0.475000X-0.250000X-0.475000X0.250000X-0.475000X0*%
%ADD28RoundRect,0.135000X-0.135000X-0.185000X0.135000X-0.185000X0.135000X0.185000X-0.135000X0.185000X0*%
%ADD29RoundRect,0.150000X-0.587500X-0.150000X0.587500X-0.150000X0.587500X0.150000X-0.587500X0.150000X0*%
%ADD30RoundRect,0.150000X0.150000X0.200000X-0.150000X0.200000X-0.150000X-0.200000X0.150000X-0.200000X0*%
%ADD31RoundRect,0.140000X0.140000X0.170000X-0.140000X0.170000X-0.140000X-0.170000X0.140000X-0.170000X0*%
%ADD32RoundRect,0.150000X-0.150000X0.512500X-0.150000X-0.512500X0.150000X-0.512500X0.150000X0.512500X0*%
%ADD33RoundRect,0.135000X-0.185000X0.135000X-0.185000X-0.135000X0.185000X-0.135000X0.185000X0.135000X0*%
%ADD34RoundRect,0.062500X-0.117500X-0.062500X0.117500X-0.062500X0.117500X0.062500X-0.117500X0.062500X0*%
%ADD35RoundRect,0.250000X-0.900000X1.000000X-0.900000X-1.000000X0.900000X-1.000000X0.900000X1.000000X0*%
%ADD36RoundRect,0.075000X0.075000X0.200000X-0.075000X0.200000X-0.075000X-0.200000X0.075000X-0.200000X0*%
%ADD37RoundRect,0.250000X0.325000X0.650000X-0.325000X0.650000X-0.325000X-0.650000X0.325000X-0.650000X0*%
G04 APERTURE END LIST*
D10*
%TO.C,J5*%
X265546200Y-127740800D03*
X265546200Y-124240798D03*
%TD*%
%TO.C,J23*%
X204953800Y-110395800D03*
X204953800Y-113895802D03*
%TD*%
D11*
%TO.C,J1*%
X264600000Y-143150000D03*
D12*
X264600000Y-135950000D03*
%TD*%
D10*
%TO.C,J14*%
X265546200Y-81617800D03*
X265546200Y-78117798D03*
%TD*%
D13*
%TO.C,J6*%
X239270000Y-151650000D03*
D14*
X239270000Y-154190000D03*
X239270000Y-156730000D03*
%TD*%
D10*
%TO.C,J13*%
X265546200Y-90842400D03*
X265546200Y-87342398D03*
%TD*%
%TO.C,J26*%
X204953800Y-85743097D03*
X204953800Y-89243100D03*
X204953800Y-92743101D03*
X204953800Y-96243102D03*
X204953800Y-99743102D03*
X204953800Y-103243103D03*
%TD*%
%TO.C,J12*%
X265546200Y-100067000D03*
X265546200Y-96566998D03*
%TD*%
D13*
%TO.C,J17*%
X219003333Y-151650000D03*
D14*
X219003333Y-154190000D03*
X219003333Y-156730000D03*
%TD*%
D13*
%TO.C,J18*%
X212890000Y-151650000D03*
D14*
X212890000Y-154190000D03*
X212890000Y-156730000D03*
%TD*%
D13*
%TO.C,J21*%
X245383333Y-151650000D03*
D14*
X245383333Y-154190000D03*
X245383333Y-156730000D03*
%TD*%
D13*
%TO.C,J15*%
X231230000Y-151650000D03*
D14*
X231230000Y-154190000D03*
X231230000Y-156730000D03*
%TD*%
D10*
%TO.C,J24*%
X204953800Y-54250899D03*
X204953800Y-57750900D03*
X204953800Y-61250900D03*
%TD*%
%TO.C,J7*%
X204953800Y-142240800D03*
X204953800Y-145740802D03*
%TD*%
D15*
%TO.C,H4*%
X206250000Y-153250000D03*
%TD*%
D10*
%TO.C,J10*%
X265546200Y-118516200D03*
X265546200Y-115016198D03*
%TD*%
D15*
%TO.C,H2*%
X264257359Y-25492641D03*
%TD*%
%TO.C,H1*%
X206250000Y-25500000D03*
%TD*%
D10*
%TO.C,J8*%
X204953800Y-131625800D03*
X204953800Y-135125802D03*
%TD*%
%TO.C,J25*%
X204953800Y-68248300D03*
X204953800Y-71748301D03*
X204953800Y-75248301D03*
X204953800Y-78748302D03*
%TD*%
D13*
%TO.C,J20*%
X251496667Y-151650000D03*
D14*
X251496667Y-154190000D03*
X251496667Y-156730000D03*
%TD*%
D10*
%TO.C,J22*%
X204953800Y-121010800D03*
X204953800Y-124510802D03*
%TD*%
D16*
%TO.C,J2*%
X238120000Y-26250000D03*
X232340000Y-26250000D03*
D17*
X239550000Y-26780000D03*
D18*
X239550000Y-22600000D03*
D17*
X230910000Y-26780000D03*
D18*
X230910000Y-22600000D03*
%TD*%
D13*
%TO.C,J16*%
X225116667Y-151650000D03*
D14*
X225116667Y-154190000D03*
X225116667Y-156730000D03*
%TD*%
D10*
%TO.C,J11*%
X265546200Y-109291600D03*
X265546200Y-105791598D03*
%TD*%
D13*
%TO.C,J19*%
X257610000Y-151650000D03*
D14*
X257610000Y-154190000D03*
X257610000Y-156730000D03*
%TD*%
D19*
%TO.C,J27*%
X205960000Y-35330000D03*
D20*
X203420000Y-32790000D03*
X203420000Y-37870000D03*
X208500000Y-32790000D03*
X208500000Y-37870000D03*
%TD*%
D15*
%TO.C,H3*%
X264250000Y-153378700D03*
%TD*%
D21*
%TO.C,SW2*%
X262550000Y-73900000D03*
X262550000Y-65700000D03*
D22*
X262550000Y-71800000D03*
D23*
X262550000Y-69800000D03*
X262550000Y-67800000D03*
%TD*%
D24*
%TO.C,U20*%
X212478001Y-115009400D03*
X211528000Y-115009400D03*
X210577999Y-115009400D03*
X210577999Y-112774200D03*
X211528000Y-112774200D03*
X212478001Y-112774200D03*
%TD*%
D25*
%TO.C,R74*%
X259830000Y-89470000D03*
X258810000Y-89470000D03*
%TD*%
D26*
%TO.C,R140*%
X256882500Y-41880000D03*
X256882500Y-40860000D03*
%TD*%
D25*
%TO.C,R63*%
X259745700Y-108367800D03*
X258725700Y-108367800D03*
%TD*%
D27*
%TO.C,C84*%
X212348800Y-121009400D03*
X210448800Y-121009400D03*
%TD*%
D28*
%TO.C,R117*%
X210629199Y-149250000D03*
X211649199Y-149250000D03*
%TD*%
D29*
%TO.C,Q5*%
X258298200Y-78770000D03*
X258298200Y-76870000D03*
X260173200Y-77820000D03*
%TD*%
D30*
%TO.C,D4*%
X210248800Y-118200000D03*
X211648800Y-118200000D03*
%TD*%
D26*
%TO.C,R96*%
X248440000Y-156560000D03*
X248440000Y-155540000D03*
%TD*%
%TO.C,R143*%
X210400000Y-51260000D03*
X210400000Y-50240000D03*
%TD*%
%TO.C,R122*%
X213948800Y-112769400D03*
X213948800Y-111749400D03*
%TD*%
D28*
%TO.C,R124*%
X211458001Y-116759400D03*
X212478001Y-116759400D03*
%TD*%
D26*
%TO.C,R131*%
X267680000Y-38410000D03*
X267680000Y-37390000D03*
%TD*%
D25*
%TO.C,R47*%
X259745700Y-117617800D03*
X258725700Y-117617800D03*
%TD*%
D31*
%TO.C,C85*%
X211088800Y-119509400D03*
X210128800Y-119509400D03*
%TD*%
D28*
%TO.C,R116*%
X213500000Y-92736197D03*
X214520000Y-92736197D03*
%TD*%
%TO.C,R42*%
X211920000Y-75250000D03*
X212940000Y-75250000D03*
%TD*%
D26*
%TO.C,R89*%
X222060000Y-154590000D03*
X222060000Y-153570000D03*
%TD*%
%TO.C,R58*%
X243900000Y-92310000D03*
X243900000Y-91290000D03*
%TD*%
D32*
%TO.C,U16*%
X234300000Y-34112500D03*
X235250000Y-34112500D03*
X236200000Y-34112500D03*
X236200000Y-36387500D03*
X235250000Y-36387500D03*
X234300000Y-36387500D03*
%TD*%
D33*
%TO.C,R68*%
X256673200Y-86472000D03*
X256673200Y-87492000D03*
%TD*%
%TO.C,R64*%
X256673200Y-95696600D03*
X256673200Y-96716600D03*
%TD*%
D25*
%TO.C,R73*%
X260940000Y-82720000D03*
X259920000Y-82720000D03*
%TD*%
D34*
%TO.C,D6*%
X210920000Y-140250000D03*
X210080000Y-140250000D03*
%TD*%
D35*
%TO.C,D3*%
X258500000Y-123850000D03*
X258500000Y-128150000D03*
%TD*%
D26*
%TO.C,R86*%
X234286667Y-156560000D03*
X234286667Y-155540000D03*
%TD*%
D27*
%TO.C,C86*%
X212348800Y-110509400D03*
X210448800Y-110509400D03*
%TD*%
D25*
%TO.C,R49*%
X257510000Y-121750000D03*
X256490000Y-121750000D03*
%TD*%
D26*
%TO.C,R91*%
X215946667Y-154590000D03*
X215946667Y-153570000D03*
%TD*%
D31*
%TO.C,C73*%
X259820000Y-81460000D03*
X258860000Y-81460000D03*
%TD*%
D25*
%TO.C,R72*%
X255683200Y-78280000D03*
X254663200Y-78280000D03*
%TD*%
%TO.C,R71*%
X260940000Y-91970000D03*
X259920000Y-91970000D03*
%TD*%
%TO.C,R75*%
X259830000Y-80220000D03*
X258810000Y-80220000D03*
%TD*%
D24*
%TO.C,U18*%
X212529201Y-136867600D03*
X211579200Y-136867600D03*
X210629199Y-136867600D03*
X210629199Y-134632400D03*
X211579200Y-134632400D03*
X212529201Y-134632400D03*
%TD*%
D25*
%TO.C,R52*%
X239010000Y-95900000D03*
X237990000Y-95900000D03*
%TD*%
D33*
%TO.C,R69*%
X256673200Y-77310000D03*
X256673200Y-78330000D03*
%TD*%
D36*
%TO.C,U10*%
X212000000Y-89250000D03*
X211500000Y-89250000D03*
X211000000Y-89250000D03*
X210500000Y-89250000D03*
X210000000Y-89250000D03*
X210000000Y-88480000D03*
X210500000Y-88480000D03*
X211000000Y-88480000D03*
X211500000Y-88480000D03*
X212000000Y-88480000D03*
%TD*%
D26*
%TO.C,R119*%
X214000000Y-135010000D03*
X214000000Y-133990000D03*
%TD*%
D28*
%TO.C,R29*%
X215090000Y-43100000D03*
X216110000Y-43100000D03*
%TD*%
%TO.C,R30*%
X215090000Y-44100000D03*
X216110000Y-44100000D03*
%TD*%
D26*
%TO.C,R83*%
X236213333Y-154590000D03*
X236213333Y-153570000D03*
%TD*%
D25*
%TO.C,R66*%
X260910000Y-101600000D03*
X259890000Y-101600000D03*
%TD*%
D26*
%TO.C,R118*%
X214000000Y-145760000D03*
X214000000Y-144740000D03*
%TD*%
D25*
%TO.C,R70*%
X255683200Y-87442000D03*
X254663200Y-87442000D03*
%TD*%
D31*
%TO.C,C72*%
X259820000Y-90710000D03*
X258860000Y-90710000D03*
%TD*%
D25*
%TO.C,R61*%
X255683200Y-105891200D03*
X254663200Y-105891200D03*
%TD*%
%TO.C,R67*%
X259745700Y-99117800D03*
X258725700Y-99117800D03*
%TD*%
D28*
%TO.C,R55*%
X237990000Y-97000000D03*
X239010000Y-97000000D03*
%TD*%
D26*
%TO.C,R92*%
X215946667Y-156560000D03*
X215946667Y-155540000D03*
%TD*%
%TO.C,R59*%
X242800000Y-92310000D03*
X242800000Y-91290000D03*
%TD*%
%TO.C,R84*%
X236213333Y-156560000D03*
X236213333Y-155540000D03*
%TD*%
%TO.C,R137*%
X260130000Y-41880000D03*
X260130000Y-40860000D03*
%TD*%
D37*
%TO.C,C88*%
X213525000Y-143000000D03*
X210575000Y-143000000D03*
%TD*%
D26*
%TO.C,R88*%
X228173333Y-156560000D03*
X228173333Y-155540000D03*
%TD*%
D37*
%TO.C,C91*%
X213525000Y-132250000D03*
X210575000Y-132250000D03*
%TD*%
D26*
%TO.C,R94*%
X254553333Y-156560000D03*
X254553333Y-155540000D03*
%TD*%
%TO.C,R121*%
X213948800Y-123269400D03*
X213948800Y-122249400D03*
%TD*%
D28*
%TO.C,R13*%
X212000000Y-61250899D03*
X213020000Y-61250899D03*
%TD*%
D26*
%TO.C,R111*%
X205320000Y-51260000D03*
X205320000Y-50240000D03*
%TD*%
%TO.C,R132*%
X265140000Y-38410000D03*
X265140000Y-37390000D03*
%TD*%
%TO.C,R36*%
X215520000Y-103293103D03*
X215520000Y-102273103D03*
%TD*%
D28*
%TO.C,R53*%
X237990000Y-94800000D03*
X239010000Y-94800000D03*
%TD*%
D31*
%TO.C,C90*%
X211140000Y-130500000D03*
X210180000Y-130500000D03*
%TD*%
D26*
%TO.C,R136*%
X257520000Y-38410000D03*
X257520000Y-37390000D03*
%TD*%
D24*
%TO.C,U19*%
X212478001Y-125509400D03*
X211528000Y-125509400D03*
X210577999Y-125509400D03*
X210577999Y-123274200D03*
X211528000Y-123274200D03*
X212478001Y-123274200D03*
%TD*%
D26*
%TO.C,R90*%
X222060000Y-156560000D03*
X222060000Y-155540000D03*
%TD*%
D31*
%TO.C,C71*%
X259715700Y-100367800D03*
X258755700Y-100367800D03*
%TD*%
D25*
%TO.C,R46*%
X260910000Y-120000000D03*
X259890000Y-120000000D03*
%TD*%
D26*
%TO.C,R87*%
X228173333Y-154590000D03*
X228173333Y-153570000D03*
%TD*%
D28*
%TO.C,R114*%
X213500000Y-99743102D03*
X214520000Y-99743102D03*
%TD*%
D31*
%TO.C,C70*%
X259715700Y-109617800D03*
X258755700Y-109617800D03*
%TD*%
D25*
%TO.C,R43*%
X212940000Y-78748302D03*
X211920000Y-78748302D03*
%TD*%
D36*
%TO.C,U17*%
X212000000Y-53475000D03*
X211500000Y-53475000D03*
X211000000Y-53475000D03*
X210500000Y-53475000D03*
X210000000Y-53475000D03*
X210000000Y-52705000D03*
X210500000Y-52705000D03*
X211000000Y-52705000D03*
X211500000Y-52705000D03*
X212000000Y-52705000D03*
%TD*%
D25*
%TO.C,R65*%
X255683200Y-96666600D03*
X254663200Y-96666600D03*
%TD*%
D28*
%TO.C,R113*%
X213500000Y-103243103D03*
X214520000Y-103243103D03*
%TD*%
D26*
%TO.C,R138*%
X259047500Y-41880000D03*
X259047500Y-40860000D03*
%TD*%
D28*
%TO.C,R115*%
X213500000Y-96243102D03*
X214520000Y-96243102D03*
%TD*%
D26*
%TO.C,R135*%
X260060000Y-38410000D03*
X260060000Y-37390000D03*
%TD*%
D33*
%TO.C,R45*%
X256673200Y-114145800D03*
X256673200Y-115165800D03*
%TD*%
D28*
%TO.C,R112*%
X209920000Y-75250000D03*
X210940000Y-75250000D03*
%TD*%
D26*
%TO.C,R141*%
X255800000Y-41880000D03*
X255800000Y-40860000D03*
%TD*%
%TO.C,R93*%
X254553333Y-154590000D03*
X254553333Y-153570000D03*
%TD*%
D25*
%TO.C,R54*%
X239010000Y-98100000D03*
X237990000Y-98100000D03*
%TD*%
D31*
%TO.C,C87*%
X211088800Y-109009400D03*
X210128800Y-109009400D03*
%TD*%
D26*
%TO.C,R85*%
X234286667Y-154590000D03*
X234286667Y-153570000D03*
%TD*%
D29*
%TO.C,Q2*%
X258298200Y-106381200D03*
X258298200Y-104481200D03*
X260173200Y-105431200D03*
%TD*%
D25*
%TO.C,R44*%
X255683200Y-115115800D03*
X254663200Y-115115800D03*
%TD*%
D26*
%TO.C,R95*%
X248440000Y-154590000D03*
X248440000Y-153570000D03*
%TD*%
D31*
%TO.C,C89*%
X211140000Y-141250000D03*
X210180000Y-141250000D03*
%TD*%
D26*
%TO.C,R98*%
X242326667Y-156560000D03*
X242326667Y-155540000D03*
%TD*%
%TO.C,R139*%
X257965000Y-41880000D03*
X257965000Y-40860000D03*
%TD*%
D33*
%TO.C,R48*%
X258500000Y-120740000D03*
X258500000Y-121760000D03*
%TD*%
D26*
%TO.C,R97*%
X242326667Y-154590000D03*
X242326667Y-153570000D03*
%TD*%
D29*
%TO.C,Q4*%
X258298200Y-87932000D03*
X258298200Y-86032000D03*
X260173200Y-86982000D03*
%TD*%
D28*
%TO.C,R14*%
X212000000Y-57750899D03*
X213020000Y-57750899D03*
%TD*%
D25*
%TO.C,R62*%
X260910000Y-110800000D03*
X259890000Y-110800000D03*
%TD*%
D29*
%TO.C,Q1*%
X258298200Y-115605800D03*
X258298200Y-113705800D03*
X260173200Y-114655800D03*
%TD*%
D26*
%TO.C,R109*%
X202780000Y-51260000D03*
X202780000Y-50240000D03*
%TD*%
D24*
%TO.C,U15*%
X212529201Y-147750000D03*
X211579200Y-147750000D03*
X210629199Y-147750000D03*
X210629199Y-145514800D03*
X211579200Y-145514800D03*
X212529201Y-145514800D03*
%TD*%
D33*
%TO.C,R60*%
X256673200Y-104921200D03*
X256673200Y-105941200D03*
%TD*%
D28*
%TO.C,R120*%
X210629199Y-138500000D03*
X211649199Y-138500000D03*
%TD*%
D26*
%TO.C,R142*%
X207860000Y-51260000D03*
X207860000Y-50240000D03*
%TD*%
D30*
%TO.C,D7*%
X210248800Y-107700000D03*
X211648800Y-107700000D03*
%TD*%
D28*
%TO.C,R24*%
X209920000Y-78748302D03*
X210940000Y-78748302D03*
%TD*%
D26*
%TO.C,R134*%
X262600000Y-38410000D03*
X262600000Y-37390000D03*
%TD*%
D34*
%TO.C,D8*%
X210920000Y-129500000D03*
X210080000Y-129500000D03*
%TD*%
D28*
%TO.C,R123*%
X211458001Y-127259400D03*
X212478001Y-127259400D03*
%TD*%
D29*
%TO.C,Q3*%
X258298200Y-97156600D03*
X258298200Y-95256600D03*
X260173200Y-96206600D03*
%TD*%
D31*
%TO.C,C69*%
X259715700Y-118867800D03*
X258755700Y-118867800D03*
%TD*%
M02*
