%TF.GenerationSoftware,KiCad,Pcbnew,9.0.7*%
%TF.CreationDate,2026-08-13T23:42:51-07:00*%
%TF.ProjectId,Atlas,41746c61-732e-46b6-9963-61645f706362,1.0*%
%TF.SameCoordinates,Original*%
%TF.FileFunction,Copper,L3,Inr*%
%TF.FilePolarity,Positive*%
%FSLAX46Y46*%
G04 Gerber Fmt 4.6, Leading zero omitted, Abs format (unit mm)*
G04 Created by KiCad (PCBNEW 9.0.7) date 2026-08-13 23:42:51*
%MOMM*%
%LPD*%
G01*
G04 APERTURE LIST*
G04 Aperture macros list*
%AMRoundRect*
0 Rectangle with rounded corners*
0 $1 Rounding radius*
0 $2 $3 $4 $5 $6 $7 $8 $9 X,Y pos of 4 corners*
0 Add a 4 corners polygon primitive as box body*
4,1,4,$2,$3,$4,$5,$6,$7,$8,$9,$2,$3,0*
0 Add four circle primitives for the rounded corners*
1,1,$1+$1,$2,$3*
1,1,$1+$1,$4,$5*
1,1,$1+$1,$6,$7*
1,1,$1+$1,$8,$9*
0 Add four rect primitives between the rounded corners*
20,1,$1+$1,$2,$3,$4,$5,0*
20,1,$1+$1,$4,$5,$6,$7,0*
20,1,$1+$1,$6,$7,$8,$9,0*
20,1,$1+$1,$8,$9,$2,$3,0*%
G04 Aperture macros list end*
%TA.AperFunction,HeatsinkPad*%
%ADD10C,0.600000*%
%TD*%
%TA.AperFunction,ComponentPad*%
%ADD11C,1.600200*%
%TD*%
%TA.AperFunction,ComponentPad*%
%ADD12RoundRect,1.500000X1.500000X-1.500000X1.500000X1.500000X-1.500000X1.500000X-1.500000X-1.500000X0*%
%TD*%
%TA.AperFunction,ComponentPad*%
%ADD13C,6.000000*%
%TD*%
%TA.AperFunction,ComponentPad*%
%ADD14R,1.700000X1.700000*%
%TD*%
%TA.AperFunction,ComponentPad*%
%ADD15C,1.700000*%
%TD*%
%TA.AperFunction,ComponentPad*%
%ADD16C,0.600000*%
%TD*%
%TA.AperFunction,ComponentPad*%
%ADD17C,5.600000*%
%TD*%
%TA.AperFunction,HeatsinkPad*%
%ADD18O,1.000000X2.100000*%
%TD*%
%TA.AperFunction,HeatsinkPad*%
%ADD19O,1.000000X1.600000*%
%TD*%
%TA.AperFunction,ComponentPad*%
%ADD20C,2.050000*%
%TD*%
%TA.AperFunction,ComponentPad*%
%ADD21C,2.250000*%
%TD*%
%TA.AperFunction,ComponentPad*%
%ADD22O,3.500000X2.200000*%
%TD*%
%TA.AperFunction,ComponentPad*%
%ADD23R,2.500000X1.500000*%
%TD*%
%TA.AperFunction,ComponentPad*%
%ADD24O,2.500000X1.500000*%
%TD*%
%TA.AperFunction,ViaPad*%
%ADD25C,1.000000*%
%TD*%
%TA.AperFunction,ViaPad*%
%ADD26C,0.800000*%
%TD*%
%TA.AperFunction,ViaPad*%
%ADD27C,0.600000*%
%TD*%
%TA.AperFunction,ViaPad*%
%ADD28C,1.200000*%
%TD*%
%TA.AperFunction,Conductor*%
%ADD29C,0.200000*%
%TD*%
%TA.AperFunction,Conductor*%
%ADD30C,0.170000*%
%TD*%
G04 APERTURE END LIST*
D10*
%TO.N,GND*%
%TO.C,U4*%
X217730000Y-120450000D03*
X218730000Y-120450000D03*
X219730000Y-120450000D03*
X220730000Y-120450000D03*
X221730000Y-120450000D03*
X217730000Y-119800000D03*
X218730000Y-119800000D03*
X219730000Y-119800000D03*
X220730000Y-119800000D03*
X221730000Y-119800000D03*
X217730000Y-119150000D03*
X218730000Y-119150000D03*
X219730000Y-119150000D03*
X220730000Y-119150000D03*
X221730000Y-119150000D03*
%TD*%
D11*
%TO.N,/01_power_input/VIN_RAW*%
%TO.C,J5*%
X265546200Y-127740800D03*
%TO.N,/07_pyro/PYRO_VBAT_ARMED*%
X265546200Y-124240798D03*
%TD*%
%TO.N,GND*%
%TO.C,J23*%
X204953800Y-110395800D03*
%TO.N,Net-(D7-K)*%
X204953800Y-113895802D03*
%TD*%
D12*
%TO.N,GND*%
%TO.C,J1*%
X264600000Y-143150000D03*
D13*
%TO.N,/01_power_input/VIN_RAW*%
X264600000Y-135950000D03*
%TD*%
D11*
%TO.N,/07_pyro/PYRO_VBAT_ARMED*%
%TO.C,J14*%
X265546200Y-81617800D03*
%TO.N,Net-(J14-Pin_2)*%
X265546200Y-78117798D03*
%TD*%
D14*
%TO.N,GND*%
%TO.C,J6*%
X239270000Y-151650000D03*
D15*
%TO.N,/02_power_regulators/8V4_PWM*%
X239270000Y-154190000D03*
%TO.N,Net-(J6-Pin_3)*%
X239270000Y-156730000D03*
%TD*%
D11*
%TO.N,/07_pyro/PYRO_VBAT_ARMED*%
%TO.C,J13*%
X265546200Y-90842400D03*
%TO.N,Net-(J13-Pin_2)*%
X265546200Y-87342398D03*
%TD*%
%TO.N,/02_power_regulators/3V3_SYS*%
%TO.C,J26*%
X204953800Y-85743097D03*
%TO.N,GND*%
X204953800Y-89243100D03*
%TO.N,Net-(J26-Pin_3)*%
X204953800Y-92743101D03*
%TO.N,Net-(J26-Pin_4)*%
X204953800Y-96243102D03*
%TO.N,Net-(J26-Pin_5)*%
X204953800Y-99743102D03*
%TO.N,Net-(J26-Pin_6)*%
X204953800Y-103243103D03*
%TD*%
%TO.N,/07_pyro/PYRO_VBAT_ARMED*%
%TO.C,J12*%
X265546200Y-100067000D03*
%TO.N,Net-(J12-Pin_2)*%
X265546200Y-96566998D03*
%TD*%
D14*
%TO.N,GND*%
%TO.C,J17*%
X219003333Y-151650000D03*
D15*
%TO.N,/02_power_regulators/8V4_PWM*%
X219003333Y-154190000D03*
%TO.N,Net-(J17-Pin_3)*%
X219003333Y-156730000D03*
%TD*%
D14*
%TO.N,GND*%
%TO.C,J18*%
X212890000Y-151650000D03*
D15*
%TO.N,/02_power_regulators/8V4_PWM*%
X212890000Y-154190000D03*
%TO.N,Net-(J18-Pin_3)*%
X212890000Y-156730000D03*
%TD*%
D14*
%TO.N,GND*%
%TO.C,J21*%
X245383333Y-151650000D03*
D15*
%TO.N,/02_power_regulators/8V4_PWM*%
X245383333Y-154190000D03*
%TO.N,Net-(J21-Pin_3)*%
X245383333Y-156730000D03*
%TD*%
D14*
%TO.N,GND*%
%TO.C,J15*%
X231230000Y-151650000D03*
D15*
%TO.N,/02_power_regulators/8V4_PWM*%
X231230000Y-154190000D03*
%TO.N,Net-(J15-Pin_3)*%
X231230000Y-156730000D03*
%TD*%
D11*
%TO.N,GND*%
%TO.C,J24*%
X204953800Y-54250899D03*
%TO.N,Net-(J24-Pin_2)*%
X204953800Y-57750900D03*
%TO.N,Net-(J24-Pin_3)*%
X204953800Y-61250900D03*
%TD*%
%TO.N,GND*%
%TO.C,J7*%
X204953800Y-142240800D03*
%TO.N,Net-(D6-A2)*%
X204953800Y-145740802D03*
%TD*%
D16*
%TO.N,/01_power_input/VIN_RAW*%
%TO.C,U11*%
X252409998Y-140290000D03*
X252409998Y-139430000D03*
X252409998Y-138250000D03*
X252409998Y-137390000D03*
X253209998Y-140290000D03*
X253209998Y-139430000D03*
X253209998Y-138250000D03*
X253209998Y-137390000D03*
X254009998Y-140290000D03*
X254009998Y-139430000D03*
X254009998Y-138250000D03*
X254009998Y-137390000D03*
%TD*%
D17*
%TO.N,N/C*%
%TO.C,H4*%
X206250000Y-153250000D03*
%TD*%
D11*
%TO.N,/07_pyro/PYRO_VBAT_ARMED*%
%TO.C,J10*%
X265546200Y-118516200D03*
%TO.N,Net-(J10-Pin_2)*%
X265546200Y-115016198D03*
%TD*%
D17*
%TO.N,N/C*%
%TO.C,H2*%
X264257359Y-25492641D03*
%TD*%
%TO.N,N/C*%
%TO.C,H1*%
X206250000Y-25500000D03*
%TD*%
D11*
%TO.N,GND*%
%TO.C,J8*%
X204953800Y-131625800D03*
%TO.N,Net-(D8-A2)*%
X204953800Y-135125802D03*
%TD*%
%TO.N,/02_power_regulators/3V3_SYS*%
%TO.C,J25*%
X204953800Y-68248300D03*
%TO.N,GND*%
X204953800Y-71748301D03*
%TO.N,Net-(J25-Pin_3)*%
X204953800Y-75248301D03*
%TO.N,Net-(J25-Pin_4)*%
X204953800Y-78748302D03*
%TD*%
D14*
%TO.N,GND*%
%TO.C,J20*%
X251496667Y-151650000D03*
D15*
%TO.N,/02_power_regulators/8V4_PWM*%
X251496667Y-154190000D03*
%TO.N,Net-(J20-Pin_3)*%
X251496667Y-156730000D03*
%TD*%
D10*
%TO.N,GND*%
%TO.C,U3*%
X227975000Y-138012500D03*
X228975000Y-138012500D03*
X229975000Y-138012500D03*
X230975000Y-138012500D03*
X231975000Y-138012500D03*
X227975000Y-137362500D03*
X228975000Y-137362500D03*
X229975000Y-137362500D03*
X230975000Y-137362500D03*
X231975000Y-137362500D03*
X227975000Y-136712500D03*
X228975000Y-136712500D03*
X229975000Y-136712500D03*
X230975000Y-136712500D03*
X231975000Y-136712500D03*
%TD*%
D11*
%TO.N,GND*%
%TO.C,J22*%
X204953800Y-121010800D03*
%TO.N,Net-(D4-K)*%
X204953800Y-124510802D03*
%TD*%
D18*
%TO.N,GND*%
%TO.C,J2*%
X239550000Y-26780000D03*
D19*
X239550000Y-22600000D03*
D18*
X230910000Y-26780000D03*
D19*
X230910000Y-22600000D03*
%TD*%
D14*
%TO.N,GND*%
%TO.C,J16*%
X225116667Y-151650000D03*
D15*
%TO.N,/02_power_regulators/8V4_PWM*%
X225116667Y-154190000D03*
%TO.N,Net-(J16-Pin_3)*%
X225116667Y-156730000D03*
%TD*%
D11*
%TO.N,/07_pyro/PYRO_VBAT_ARMED*%
%TO.C,J11*%
X265546200Y-109291600D03*
%TO.N,Net-(J11-Pin_2)*%
X265546200Y-105791598D03*
%TD*%
D14*
%TO.N,GND*%
%TO.C,J19*%
X257610000Y-151650000D03*
D15*
%TO.N,/02_power_regulators/8V4_PWM*%
X257610000Y-154190000D03*
%TO.N,Net-(J19-Pin_3)*%
X257610000Y-156730000D03*
%TD*%
D20*
%TO.N,Net-(D1-A2)*%
%TO.C,J27*%
X205960000Y-35330000D03*
D21*
%TO.N,GND*%
X203420000Y-32790000D03*
X203420000Y-37870000D03*
X208500000Y-32790000D03*
X208500000Y-37870000D03*
%TD*%
D17*
%TO.N,N/C*%
%TO.C,H3*%
X264250000Y-153378700D03*
%TD*%
D22*
%TO.N,*%
%TO.C,SW2*%
X262550000Y-73900000D03*
X262550000Y-65700000D03*
D23*
%TO.N,Net-(SW2-A)*%
X262550000Y-71800000D03*
D24*
%TO.N,Net-(SW2-B)*%
X262550000Y-69800000D03*
%TO.N,GND*%
X262550000Y-67800000D03*
%TD*%
D25*
%TO.N,/02_power_regulators/5V_SYS*%
X242790000Y-116000000D03*
X264200000Y-45395000D03*
D26*
X215500000Y-140600000D03*
X214100000Y-139300000D03*
X215500000Y-136900000D03*
D27*
X238000000Y-94800000D03*
D26*
X215500000Y-138100000D03*
X215500000Y-139300000D03*
X214100000Y-140600000D03*
D25*
X228900000Y-147200000D03*
D26*
X214100000Y-136900000D03*
X214100000Y-138100000D03*
D27*
X236200000Y-138000000D03*
%TO.N,GND*%
X214000000Y-134000000D03*
X248250000Y-128450000D03*
X235770000Y-104275000D03*
X247025000Y-28770000D03*
X251850000Y-66100000D03*
X258350000Y-146400000D03*
X219348000Y-66240000D03*
X217700000Y-68400000D03*
X212950000Y-40100000D03*
X247913909Y-74486091D03*
X242500000Y-105700000D03*
D25*
X250000000Y-125425000D03*
D27*
X222000000Y-156600000D03*
X211000000Y-87600000D03*
X256700000Y-114100000D03*
X211000000Y-35000000D03*
D25*
X216300000Y-115800000D03*
D27*
X221200000Y-100500000D03*
X252900000Y-27800000D03*
X211100000Y-130500000D03*
X256500000Y-121800000D03*
X224100000Y-119500000D03*
X241520000Y-102900000D03*
X223100000Y-132300000D03*
X247025000Y-26470000D03*
X249700000Y-71050000D03*
X213650000Y-38250000D03*
X249000000Y-79500000D03*
X254500000Y-23700000D03*
X201300000Y-36133333D03*
X247700000Y-79800000D03*
X222300000Y-135000000D03*
X258300000Y-76900000D03*
X254750000Y-144000000D03*
X245250000Y-100990000D03*
D28*
X218200000Y-82600000D03*
D27*
X249050000Y-66300000D03*
X205166667Y-39900000D03*
X249759998Y-135770000D03*
X248175000Y-29920000D03*
X256673200Y-77310000D03*
X215600000Y-67200000D03*
X249150000Y-72300000D03*
X205166667Y-30700000D03*
X267100000Y-61900000D03*
D25*
X225750000Y-123050000D03*
D27*
X211640600Y-118208200D03*
X203500000Y-30700000D03*
X258009998Y-138524999D03*
X206833333Y-30700000D03*
X229000000Y-102890000D03*
X244975000Y-132655000D03*
X252100000Y-52925000D03*
X258755700Y-100367800D03*
X257250000Y-53750000D03*
X264200000Y-41645000D03*
X232800000Y-36700000D03*
D25*
X234450000Y-143250000D03*
X244500000Y-141800000D03*
D27*
X238000000Y-97000000D03*
D25*
X244500000Y-144300000D03*
D27*
X236650000Y-30460000D03*
X211600000Y-136900000D03*
X211600000Y-115500000D03*
X210900000Y-140300000D03*
X249325000Y-26470000D03*
X225600000Y-38300000D03*
X233000000Y-147800000D03*
X250475000Y-26470000D03*
X211528000Y-125509400D03*
D25*
X245400000Y-131100000D03*
X259100000Y-128850000D03*
D27*
X203500000Y-39900000D03*
X250000000Y-122000000D03*
X256673200Y-95696600D03*
X201300000Y-34466667D03*
X249325000Y-28770000D03*
X206833333Y-39900000D03*
X248250000Y-126900000D03*
X223000000Y-99275000D03*
D25*
X234450000Y-145750000D03*
D27*
X235250000Y-34100000D03*
X258725700Y-99117800D03*
X258000000Y-27600000D03*
X258810000Y-89470000D03*
X254500000Y-156600000D03*
X216200000Y-61500000D03*
X237750000Y-104250000D03*
X235650000Y-105650000D03*
X225675000Y-22100000D03*
X227500000Y-27250000D03*
X248800000Y-58500000D03*
X258300000Y-113700000D03*
X258700000Y-108400000D03*
D28*
X226500000Y-131000000D03*
D25*
X255250000Y-125425000D03*
D27*
X247260000Y-133905000D03*
X258298200Y-86032000D03*
X247750000Y-23775000D03*
X211600000Y-147800000D03*
X248175000Y-28770000D03*
X248175000Y-27620000D03*
X258700000Y-117600000D03*
X211648800Y-107700000D03*
D25*
X213600000Y-143000000D03*
D27*
X233450000Y-30450000D03*
X233730000Y-77130000D03*
D25*
X216300000Y-113200000D03*
D27*
X232750000Y-141500000D03*
X259260000Y-140480000D03*
X212400000Y-121000000D03*
X207450000Y-36350000D03*
X249325000Y-29920000D03*
X258800000Y-80200000D03*
X232980000Y-104275000D03*
D25*
X257900000Y-128850000D03*
D27*
X239500000Y-120000000D03*
X217600000Y-62900000D03*
D25*
X244500000Y-139400000D03*
D27*
X254500000Y-26600000D03*
X254750000Y-145000000D03*
X213600000Y-36000000D03*
X247710000Y-86480000D03*
X250750000Y-32625000D03*
X208100000Y-34500000D03*
X208500000Y-39900000D03*
X216000000Y-156500000D03*
X247710000Y-91525000D03*
X232300000Y-109450000D03*
X222790000Y-86025000D03*
X234200000Y-137000000D03*
X236200000Y-156600000D03*
X249750000Y-23775000D03*
X213900000Y-110600000D03*
X231980000Y-27695000D03*
X242300000Y-156600000D03*
X255250000Y-143000000D03*
X218850000Y-69350000D03*
X221810000Y-95275000D03*
X246750000Y-32625000D03*
X258860000Y-90710000D03*
X221000000Y-86000000D03*
X211100000Y-119500000D03*
X239250000Y-77040000D03*
D25*
X257900000Y-127450000D03*
D28*
X223500000Y-130500000D03*
D27*
X222450000Y-123950000D03*
X241750000Y-24700000D03*
X238580000Y-29480000D03*
X254000000Y-147000000D03*
D25*
X213500000Y-132200000D03*
D27*
X256673200Y-104921200D03*
X250500000Y-67870000D03*
X219800000Y-62900000D03*
X248000000Y-112000000D03*
D28*
X224600000Y-128300000D03*
D27*
X228000000Y-104275000D03*
X214000000Y-144800000D03*
X211100000Y-109000000D03*
X260000000Y-27250000D03*
X238000000Y-95900000D03*
D28*
X226500000Y-133500000D03*
D25*
X259100000Y-127450000D03*
D27*
X227500000Y-24250000D03*
X248440000Y-156560000D03*
X207900000Y-44200000D03*
X225700000Y-24250000D03*
X208500000Y-30700000D03*
X210900000Y-129500000D03*
X218900000Y-85900000D03*
X245600000Y-125900000D03*
X258298200Y-104481200D03*
X221000000Y-123950000D03*
X242800000Y-91300000D03*
X250730000Y-134800000D03*
X247710000Y-98025000D03*
X233860000Y-101960000D03*
X249700000Y-133800000D03*
X258800000Y-118900000D03*
X228100000Y-156600000D03*
X231100000Y-141450000D03*
X253550000Y-53320000D03*
D25*
X234400000Y-141300000D03*
D27*
X225450000Y-75750000D03*
X213900000Y-122300000D03*
X239000000Y-122500000D03*
X216500000Y-85900000D03*
X251750000Y-144000000D03*
X258298200Y-95256600D03*
X249325000Y-27620000D03*
X248175000Y-26470000D03*
D25*
X252400000Y-125425000D03*
D27*
X217600000Y-61700000D03*
X211550000Y-51850000D03*
X218770000Y-83900000D03*
X223100000Y-133800000D03*
X234300000Y-156600000D03*
X248759998Y-135740000D03*
D25*
X244500000Y-136800000D03*
D27*
X211100000Y-141300000D03*
D28*
X224600000Y-125800000D03*
D27*
X226730000Y-77040000D03*
D25*
X246200000Y-147350000D03*
D27*
X217900000Y-73300000D03*
X256250000Y-144000000D03*
X222790000Y-91110000D03*
X201300000Y-37800000D03*
X258860000Y-81460000D03*
X253700000Y-134800000D03*
X247500000Y-114500000D03*
X238172500Y-108202500D03*
X250400000Y-119500000D03*
X256673200Y-86472000D03*
X249070901Y-65500000D03*
X254000000Y-146000000D03*
X212900000Y-45100000D03*
X250475000Y-28770000D03*
X201300000Y-32800000D03*
X250700001Y-73900000D03*
X241500000Y-101940000D03*
X258800000Y-109600000D03*
X242150000Y-65800000D03*
X212400000Y-110500000D03*
X213650000Y-30850000D03*
D26*
%TO.N,/02_power_regulators/VIN_PROT*%
X256900000Y-141900000D03*
X256900000Y-139700000D03*
D25*
X223700000Y-116100000D03*
D26*
X254000000Y-131600000D03*
D25*
X232300000Y-134000000D03*
X235200000Y-131600000D03*
D26*
X257700000Y-130500000D03*
D25*
X221400000Y-116100000D03*
D26*
X256300000Y-130250000D03*
X252900000Y-130250000D03*
X258100000Y-140800000D03*
X250950000Y-131650000D03*
X259200000Y-141900000D03*
X256900000Y-140800000D03*
X249550000Y-131650000D03*
D25*
X235200000Y-128900000D03*
D26*
X256900000Y-138600000D03*
X249550000Y-130250000D03*
D25*
X233800000Y-130300000D03*
X223700000Y-112900000D03*
D26*
X250950000Y-130250000D03*
D27*
X243900000Y-91300000D03*
D26*
X258100000Y-141900000D03*
D25*
X235200000Y-130300000D03*
D26*
X252900000Y-131600000D03*
D25*
X231200000Y-133000000D03*
D26*
X256300000Y-131600000D03*
X255100000Y-130250000D03*
D25*
X233800000Y-128900000D03*
X221400000Y-114500000D03*
D26*
X255100000Y-131600000D03*
X258100000Y-139700000D03*
X251900000Y-130900000D03*
D25*
X223700000Y-114500000D03*
D26*
X254000000Y-130250000D03*
D25*
X221400000Y-112900000D03*
D27*
%TO.N,Net-(C11-Pad2)*%
X243000000Y-127900000D03*
X244730000Y-133905000D03*
%TO.N,Net-(U5-SW)*%
X248300000Y-130200000D03*
X244610000Y-124900000D03*
%TO.N,Net-(U5-FB)*%
X245759319Y-126711337D03*
X243000000Y-126895000D03*
%TO.N,/02_power_regulators/3V3_SYS*%
X202800000Y-44200000D03*
X243500000Y-124645000D03*
X218500000Y-68600000D03*
D25*
X254600000Y-55200000D03*
D27*
X240510000Y-103000000D03*
X225770000Y-77040000D03*
X262300000Y-63600000D03*
X225000000Y-121500000D03*
D25*
X213500000Y-116800000D03*
D26*
X218800000Y-74300000D03*
D27*
X217400000Y-65200000D03*
D26*
X244000000Y-105700000D03*
D25*
X213600000Y-127300000D03*
D27*
X247710000Y-80755000D03*
D25*
X247700000Y-61000000D03*
D27*
X258200000Y-71800000D03*
D26*
X215600000Y-74200000D03*
X219800000Y-81400000D03*
D25*
X252150000Y-68200000D03*
D27*
X215500000Y-102300000D03*
X231800000Y-121500000D03*
D26*
X216400000Y-59500000D03*
D27*
X247710000Y-85520000D03*
X222790000Y-92070000D03*
D25*
X253850000Y-64450000D03*
D27*
X217300000Y-88200000D03*
X213000000Y-78800000D03*
X222790000Y-86985000D03*
X216500000Y-84900000D03*
D26*
X214600000Y-72400000D03*
D27*
X247280000Y-124950000D03*
X238290000Y-77040000D03*
X244950001Y-74550000D03*
X234820000Y-101960000D03*
X232770000Y-77100000D03*
X241130704Y-98300001D03*
X244450000Y-63900000D03*
X229000000Y-101930000D03*
D25*
X253850000Y-66050000D03*
D27*
X247710000Y-90565000D03*
X247710000Y-97065000D03*
D26*
X219700000Y-98600000D03*
D27*
X212900000Y-75200000D03*
%TO.N,/03_mcu_core/GPIO_IN2*%
X207860000Y-51260000D03*
X225871715Y-101076814D03*
%TO.N,/03_mcu_core/UART_RX_EXT*%
X213020000Y-57750899D03*
%TO.N,/03_mcu_core/CS_ADXL375*%
X244820000Y-64850000D03*
X247700000Y-63360000D03*
X226368360Y-89570024D03*
%TO.N,/03_mcu_core/PWM8*%
X248440000Y-153600000D03*
X243976848Y-94400372D03*
%TO.N,/03_mcu_core/SDMMC_CLK*%
X252200000Y-58400000D03*
X256200000Y-55000000D03*
X226945301Y-82542026D03*
X247650000Y-58050000D03*
%TO.N,/03_mcu_core/SDMMC_D2*%
X255000000Y-59800000D03*
X248434419Y-56400000D03*
X251985783Y-56109742D03*
X225823000Y-81402063D03*
%TO.N,/03_mcu_core/PWM6*%
X233800000Y-84250000D03*
X233800000Y-83150000D03*
X215946667Y-153600000D03*
%TO.N,/03_mcu_core/BLE_RX*%
X225754540Y-88127734D03*
X232800000Y-69900000D03*
%TO.N,/03_mcu_core/I2C1_SCL*%
X219800000Y-59200000D03*
X225798603Y-95526095D03*
X219868000Y-73230000D03*
X219094689Y-70200904D03*
%TO.N,/03_mcu_core/LED_G*%
X245980000Y-120500000D03*
X226368360Y-94570024D03*
%TO.N,/03_mcu_core/LORA_TX*%
X241000000Y-70950000D03*
X241097915Y-61750000D03*
%TO.N,/03_mcu_core/PWM4*%
X228173333Y-153600000D03*
X242400000Y-85250000D03*
%TO.N,/03_mcu_core/EXT_SWITCH*%
X252400000Y-71000000D03*
X244775612Y-91675000D03*
%TO.N,/03_mcu_core/PWM7*%
X244726847Y-94398105D03*
X254553333Y-153600000D03*
%TO.N,/03_mcu_core/PWM5*%
X234448663Y-82773519D03*
X222060000Y-153570000D03*
X234548823Y-84190497D03*
%TO.N,Net-(U21-VCC)*%
X254510000Y-25650000D03*
X254510000Y-28640000D03*
X241750000Y-27950000D03*
%TO.N,/03_mcu_core/I2C1_SDA*%
X221118000Y-73240000D03*
X226315659Y-96136552D03*
%TO.N,/03_mcu_core/GPIO_IN1*%
X225900000Y-100200000D03*
X210400000Y-51260000D03*
%TO.N,/03_mcu_core/PYRO_FIRE4*%
X240315350Y-81979439D03*
X249900000Y-84800000D03*
%TO.N,/03_mcu_core/SWCLK*%
X216110000Y-44100000D03*
%TO.N,/03_mcu_core/PYRO_CONT4*%
X259920000Y-91970000D03*
%TO.N,/03_mcu_core/USB_D+*%
X234825000Y-38500000D03*
%TO.N,/03_mcu_core/PYRO_CONT3*%
X259890000Y-101600000D03*
%TO.N,/03_mcu_core/LED_R*%
X252000000Y-113500000D03*
X225805461Y-94001563D03*
%TO.N,/03_mcu_core/BNO085_H_INTN*%
X244274000Y-80914482D03*
X243700000Y-71051470D03*
X217700000Y-71000000D03*
X242975735Y-69075735D03*
%TO.N,/03_mcu_core/SPI2_MISO*%
X246950000Y-75350000D03*
X246329099Y-67900000D03*
X246300000Y-77200000D03*
X243036767Y-80454658D03*
%TO.N,/03_mcu_core/SDMMC_D3*%
X252110263Y-56900000D03*
X247650433Y-56852287D03*
X226373203Y-81982822D03*
X255800000Y-58848527D03*
X252000000Y-60450000D03*
X253804368Y-56895632D03*
%TO.N,/03_mcu_core/PYRO_FIRE5*%
X248800000Y-84899000D03*
X239944602Y-82688347D03*
%TO.N,/03_mcu_core/SPI3_MOSI*%
X225966872Y-87066872D03*
X218684471Y-92136197D03*
X241500000Y-92911000D03*
X218600000Y-93336197D03*
X227274265Y-88974265D03*
X220200000Y-87900000D03*
X223124265Y-88175000D03*
%TO.N,/03_mcu_core/GPIO_OUT1*%
X202800000Y-51250000D03*
X231500000Y-102250000D03*
X213920000Y-102000000D03*
%TO.N,/03_mcu_core/SDMMC_D0*%
X251100000Y-60500000D03*
X256000000Y-52600000D03*
%TO.N,/03_mcu_core/LED_B*%
X239412000Y-93900000D03*
X240090000Y-104100000D03*
%TO.N,/03_mcu_core/BLE_TX*%
X225800000Y-80500000D03*
X233400000Y-66900000D03*
%TO.N,/03_mcu_core/LSM6DSV16BTR_INT1*%
X221100000Y-85200000D03*
X229366872Y-83666872D03*
D25*
%TO.N,/02_power_regulators/3V3_AUX*%
X243600000Y-102800000D03*
X256000000Y-27300000D03*
X228900000Y-28100000D03*
D27*
%TO.N,/03_mcu_core/SPI3_SCK*%
X221600000Y-92736197D03*
X219284265Y-88175000D03*
%TO.N,/03_mcu_core/PYRO_CONT1*%
X259745700Y-117617800D03*
%TO.N,/03_mcu_core/CS_MMC5983*%
X244950001Y-75570000D03*
X225805461Y-89001563D03*
%TO.N,/03_mcu_core/GPIO_OUT2*%
X205320000Y-51260000D03*
X226525473Y-101826000D03*
%TO.N,/03_mcu_core/PWM2*%
X236213333Y-153600000D03*
X244189911Y-86798796D03*
%TO.N,/03_mcu_core/I2C2_SCL*%
X216556166Y-92136197D03*
X231244593Y-98800334D03*
%TO.N,/03_mcu_core/PYRO_CONT5*%
X259920000Y-82720000D03*
%TO.N,/03_mcu_core/PWM1*%
X244250000Y-88000000D03*
X242326667Y-153600000D03*
%TO.N,/03_mcu_core/PYRO_FIRE1*%
X254663200Y-115115800D03*
X241780539Y-80082197D03*
%TO.N,/03_mcu_core/USB_BUS*%
X232780000Y-35680000D03*
X232811765Y-42211765D03*
%TO.N,/03_mcu_core/PYRO_FIRE3*%
X250500000Y-96100000D03*
X240795428Y-81339494D03*
%TO.N,/03_mcu_core/SWITCH1*%
X236321710Y-69121710D03*
X236248915Y-66648915D03*
%TO.N,/03_mcu_core/UART_TX_EXT*%
X213020000Y-61250899D03*
%TO.N,/03_mcu_core/SPI2_MOSI*%
X247100000Y-74450000D03*
X244274000Y-80065955D03*
X246750002Y-72300000D03*
X245200000Y-71800000D03*
%TO.N,/03_mcu_core/GNSS_PPS*%
X224000000Y-54524265D03*
X224007815Y-52192185D03*
%TO.N,Net-(U6-PC0)*%
X239010000Y-98100000D03*
%TO.N,/03_mcu_core/GNSS_RX*%
X231218831Y-41471242D03*
X241800000Y-70000000D03*
X237000000Y-45800003D03*
X237373180Y-65524650D03*
%TO.N,/03_mcu_core/USB_D-*%
X235675000Y-38500000D03*
%TO.N,/03_mcu_core/SWITCH2*%
X236200000Y-70200000D03*
X234600000Y-65600000D03*
%TO.N,/03_mcu_core/BLE_DSR*%
X234900000Y-70600000D03*
X235148915Y-67748915D03*
%TO.N,/03_mcu_core/NRST*%
X232200000Y-98800000D03*
X212940000Y-48640002D03*
%TO.N,/03_mcu_core/SD_DET*%
X226368360Y-84570024D03*
X256500000Y-63600000D03*
%TO.N,/03_mcu_core/PYRO_FIRE2*%
X241251108Y-80681953D03*
X251100000Y-105400000D03*
%TO.N,/03_mcu_core/GNSS_TX*%
X237000000Y-45000000D03*
X231845037Y-40845037D03*
X238000000Y-64897833D03*
X241945466Y-68900000D03*
%TO.N,/03_mcu_core/PYRO_ARM_SENSE*%
X257520000Y-121760000D03*
X248205025Y-102194975D03*
X257100000Y-112300000D03*
%TO.N,/03_mcu_core/PYRO_CONT2*%
X259890000Y-110800000D03*
%TO.N,/03_mcu_core/SPI3_MISO*%
X223365465Y-93565906D03*
X221100000Y-87700000D03*
%TO.N,/03_mcu_core/BLE_RESET*%
X230948915Y-71948915D03*
X226935139Y-85134618D03*
%TO.N,/03_mcu_core/SDMMC_D1*%
X245921710Y-59600000D03*
X249800000Y-60500000D03*
X244173180Y-59573180D03*
X250598000Y-55600000D03*
%TO.N,/03_mcu_core/PWM3*%
X234286667Y-153600000D03*
X244250000Y-85830409D03*
%TO.N,/03_mcu_core/SDMMC_CMD*%
X225805461Y-84001563D03*
X246600000Y-57500000D03*
%TO.N,Net-(U6-PC1)*%
X239010000Y-95900000D03*
%TO.N,/03_mcu_core/SWDIO*%
X216110000Y-43100000D03*
%TO.N,Net-(U6-PF11)*%
X243900000Y-92310000D03*
%TO.N,/03_mcu_core/I2C2_SDA*%
X230297865Y-98702135D03*
X215600000Y-92136197D03*
%TO.N,/03_mcu_core/SPI_CS_EXT*%
X214520000Y-103243103D03*
%TO.N,/03_mcu_core/BLE_RTS*%
X233421710Y-72021710D03*
X232198915Y-70698915D03*
%TO.N,/03_mcu_core/BLE_CTS*%
X226769926Y-80378604D03*
X231600000Y-69599360D03*
%TO.N,/03_mcu_core/BLE_DTR*%
X235800000Y-64800000D03*
X227893474Y-80389596D03*
%TO.N,/04_usb_sd/D+*%
X234825000Y-31800000D03*
%TO.N,/04_usb_sd/D-*%
X235675000Y-31800000D03*
%TO.N,/02_power_regulators/8V4_PWM*%
X238000000Y-98100000D03*
%TO.N,/01_power_input/PGOOD*%
X249800000Y-137500000D03*
X248250000Y-125895000D03*
X246481792Y-126510000D03*
%TO.N,/03_mcu_core/GPIO_IN6*%
X256882500Y-41880000D03*
X252692461Y-73587650D03*
%TO.N,/03_mcu_core/GPIO_OUT5*%
X256300000Y-73526298D03*
%TO.N,/03_mcu_core/GPIO_OUT4*%
X253974265Y-88574265D03*
X256900000Y-74216667D03*
X255500000Y-85351473D03*
D26*
%TO.N,Net-(J24-Pin_3)*%
X211999550Y-61250450D03*
%TO.N,Net-(J24-Pin_2)*%
X212000000Y-57750000D03*
%TO.N,Net-(J25-Pin_4)*%
X209920000Y-78748302D03*
X210700000Y-62500000D03*
%TO.N,Net-(J26-Pin_4)*%
X213500000Y-96243102D03*
%TO.N,Net-(J26-Pin_3)*%
X213500000Y-92736197D03*
%TO.N,Net-(J26-Pin_6)*%
X213486197Y-103243103D03*
%TO.N,Net-(J26-Pin_5)*%
X213500000Y-99743102D03*
D27*
%TO.N,/03_mcu_core/BNO085_NRST*%
X242400000Y-67300000D03*
X218200000Y-70300000D03*
%TO.N,/03_mcu_core/GPIO_IN5*%
X257965000Y-41880000D03*
X253300000Y-74216667D03*
%TO.N,/03_mcu_core/GPIO_OUT3*%
X256100000Y-84751473D03*
X257500000Y-73500000D03*
X252300000Y-92570000D03*
%TO.N,/03_mcu_core/GPIO_IN7*%
X255800000Y-41880000D03*
X252342000Y-77400000D03*
%TO.N,/03_mcu_core/GPIO_OUT6*%
X244720499Y-89577895D03*
X255700000Y-74216667D03*
X248600000Y-89100000D03*
%TO.N,/03_mcu_core/GPIO_IN4*%
X253893461Y-73484819D03*
X259047500Y-41880000D03*
%TO.N,/03_mcu_core/GPIO_OUT7*%
X255094461Y-73500000D03*
X244774914Y-90376044D03*
X249900000Y-88100000D03*
%TO.N,/03_mcu_core/GPIO_IN3*%
X260130000Y-41880000D03*
X254500000Y-74237414D03*
%TO.N,Net-(J28-PadA4)*%
X210390000Y-44300000D03*
%TO.N,Net-(J28-PadA2)*%
X205320000Y-44200000D03*
%TO.N,Net-(J28-PadB1)*%
X202780000Y-48640002D03*
%TO.N,Net-(J28-PadB3)*%
X207860000Y-48640002D03*
%TO.N,Net-(J28-PadB4)*%
X210400000Y-48640002D03*
%TO.N,Net-(J28-PadB2)*%
X205320000Y-48640002D03*
%TO.N,Net-(J29-PadB3)*%
X257965000Y-40860000D03*
X262666600Y-31495850D03*
%TO.N,Net-(J29-PadB4)*%
X256882500Y-40860000D03*
X260126600Y-31495850D03*
%TO.N,Net-(J29-PadA1)*%
X267680000Y-35935852D03*
%TO.N,Net-(J29-PadA5)*%
X257520000Y-35935852D03*
%TO.N,Net-(J29-PadB2)*%
X265206600Y-31495850D03*
X259047500Y-40860000D03*
%TO.N,Net-(J29-PadB1)*%
X267746600Y-31495850D03*
X260130000Y-40860000D03*
%TO.N,Net-(J29-PadA3)*%
X262600000Y-35935852D03*
%TO.N,Net-(J29-PadA4)*%
X260060000Y-35935852D03*
%TO.N,Net-(J29-PadB5)*%
X255800000Y-40860000D03*
X257586600Y-31495850D03*
%TO.N,Net-(J29-PadA2)*%
X265140000Y-35935852D03*
%TO.N,Net-(U16-VBUS)*%
X235250000Y-36400000D03*
%TD*%
D29*
%TO.N,Net-(U5-SW)*%
X244700000Y-124990000D02*
X244700000Y-125500000D01*
D30*
X244700000Y-128400000D02*
X245600000Y-129300000D01*
D29*
X244610000Y-124900000D02*
X244700000Y-124990000D01*
X248300000Y-129300000D02*
X248300000Y-130200000D01*
D30*
X245600000Y-129300000D02*
X248300000Y-129300000D01*
X244700000Y-125500000D02*
X244700000Y-128400000D01*
D29*
%TO.N,/03_mcu_core/GPIO_IN2*%
X208800000Y-96601566D02*
X208800000Y-53150000D01*
X219300000Y-101000000D02*
X213198434Y-101000000D01*
X208800000Y-53150000D02*
X207860000Y-52210000D01*
X220100000Y-101800000D02*
X219300000Y-101000000D01*
X225148529Y-101800000D02*
X220100000Y-101800000D01*
X225871715Y-101076814D02*
X225148529Y-101800000D01*
X207860000Y-52210000D02*
X207860000Y-51260000D01*
X213198434Y-101000000D02*
X208800000Y-96601566D01*
%TO.N,/03_mcu_core/PWM8*%
X243976848Y-94400372D02*
X243976848Y-98776848D01*
X236900000Y-123100000D02*
X232604000Y-127396000D01*
X232604000Y-127396000D02*
X232604000Y-130960030D01*
X252600000Y-120900000D02*
X250400000Y-123100000D01*
X243976848Y-98776848D02*
X246000000Y-100800000D01*
X238204000Y-146707612D02*
X240696388Y-149200000D01*
X238204000Y-136560030D02*
X238204000Y-146707612D01*
X248400000Y-150500000D02*
X248400000Y-153560000D01*
X246000000Y-106500000D02*
X252600000Y-113100000D01*
X250400000Y-123100000D02*
X236900000Y-123100000D01*
X252600000Y-113100000D02*
X252600000Y-120900000D01*
X246000000Y-100800000D02*
X246000000Y-106500000D01*
X240696388Y-149200000D02*
X247100000Y-149200000D01*
X232604000Y-130960030D02*
X238204000Y-136560030D01*
X247100000Y-149200000D02*
X248400000Y-150500000D01*
X248400000Y-153560000D02*
X248440000Y-153600000D01*
%TO.N,/03_mcu_core/SDMMC_CLK*%
X240146915Y-61333872D02*
X244581787Y-56899000D01*
X247000000Y-57050000D02*
X247650000Y-57700000D01*
X246848943Y-56899000D02*
X246999943Y-57050000D01*
X233167800Y-74298000D02*
X236034900Y-74298000D01*
X247650000Y-58050000D02*
X247472768Y-58050000D01*
X231198000Y-79067800D02*
X231198000Y-76267800D01*
X240146915Y-70185985D02*
X240146915Y-61333872D01*
X247650000Y-57700000D02*
X247650000Y-58050000D01*
X227723774Y-82542026D02*
X231198000Y-79067800D01*
X226945301Y-82542026D02*
X227723774Y-82542026D01*
X246999943Y-57050000D02*
X247000000Y-57050000D01*
X231198000Y-76267800D02*
X233167800Y-74298000D01*
X244581787Y-56899000D02*
X246848943Y-56899000D01*
X236034900Y-74298000D02*
X240146915Y-70185985D01*
%TO.N,/03_mcu_core/SDMMC_D2*%
X230396000Y-75935600D02*
X232835600Y-73496000D01*
X225843241Y-81381822D02*
X227749778Y-81381822D01*
X225823000Y-81402063D02*
X225843241Y-81381822D01*
X232835600Y-73496000D02*
X235702700Y-73496000D01*
X230396000Y-78735600D02*
X230396000Y-75935600D01*
X239344915Y-61001672D02*
X244249587Y-56097000D01*
X239344915Y-69853785D02*
X239344915Y-61001672D01*
X244249587Y-56097000D02*
X248131419Y-56097000D01*
X248131419Y-56097000D02*
X248434419Y-56400000D01*
X235702700Y-73496000D02*
X239344915Y-69853785D01*
X227749778Y-81381822D02*
X230396000Y-78735600D01*
%TO.N,/03_mcu_core/PWM6*%
X226700000Y-109800000D02*
X229100000Y-107400000D01*
X232500000Y-102700000D02*
X232500000Y-99600000D01*
X229100000Y-107400000D02*
X232900000Y-107400000D01*
X215946667Y-142853333D02*
X224600000Y-134200000D01*
X224600000Y-130400000D02*
X226700000Y-128300000D01*
X233600000Y-103800000D02*
X232500000Y-102700000D01*
X215946667Y-153600000D02*
X215946667Y-142853333D01*
X232500000Y-99600000D02*
X233800000Y-98300000D01*
X233600000Y-106700000D02*
X233600000Y-103800000D01*
X232900000Y-107400000D02*
X233600000Y-106700000D01*
X226700000Y-128300000D02*
X226700000Y-109800000D01*
X224600000Y-134200000D02*
X224600000Y-130400000D01*
X233800000Y-98300000D02*
X233800000Y-84250000D01*
%TO.N,/03_mcu_core/I2C1_SCL*%
X220500000Y-73862000D02*
X219868000Y-73230000D01*
X226262232Y-95526095D02*
X226969360Y-94818967D01*
X226969360Y-94818967D02*
X226969360Y-93469360D01*
X225798603Y-95526095D02*
X226262232Y-95526095D01*
X221399000Y-75699000D02*
X220500000Y-74800000D01*
X221700000Y-84700000D02*
X221399000Y-84399000D01*
X221399000Y-84399000D02*
X221399000Y-75699000D01*
X221700000Y-88200000D02*
X221700000Y-84700000D01*
X226969360Y-93469360D02*
X221700000Y-88200000D01*
X220500000Y-74800000D02*
X220500000Y-73862000D01*
%TO.N,/03_mcu_core/LORA_TX*%
X241000000Y-61847915D02*
X241097915Y-61750000D01*
X241000000Y-70950000D02*
X241000000Y-61847915D01*
%TO.N,/03_mcu_core/PWM4*%
X234302000Y-106990777D02*
X233141778Y-108151000D01*
X234502000Y-87298000D02*
X234502000Y-98598000D01*
X242400000Y-85250000D02*
X239200000Y-85250000D01*
X236550000Y-85250000D02*
X234502000Y-87298000D01*
X228200000Y-153573333D02*
X228173333Y-153600000D01*
X236800000Y-137200000D02*
X236800000Y-146600000D01*
X233141778Y-108151000D02*
X229341776Y-108151000D01*
X239200000Y-85250000D02*
X236550000Y-85250000D01*
X231200000Y-130500000D02*
X231200000Y-131600000D01*
X227402000Y-110090776D02*
X227402000Y-126702000D01*
X233202000Y-99898000D02*
X233202000Y-102409222D01*
X233800000Y-149600000D02*
X228700000Y-149600000D01*
X234502000Y-98598000D02*
X233202000Y-99898000D01*
X228700000Y-149600000D02*
X228200000Y-150100000D01*
X231200000Y-131600000D02*
X236800000Y-137200000D01*
X233202000Y-102409222D02*
X234302000Y-103509223D01*
X227402000Y-126702000D02*
X231200000Y-130500000D01*
X228200000Y-150100000D02*
X228200000Y-153573333D01*
X236800000Y-146600000D02*
X233800000Y-149600000D01*
X234302000Y-103509223D02*
X234302000Y-106990777D01*
X229341776Y-108151000D02*
X227402000Y-110090776D01*
%TO.N,/03_mcu_core/PWM7*%
X246400000Y-100703612D02*
X246400000Y-106403612D01*
X252949000Y-148849000D02*
X254550000Y-150450000D01*
X237045388Y-123451000D02*
X232955000Y-127541388D01*
X252951000Y-121049000D02*
X250549000Y-123451000D01*
X244726847Y-94398105D02*
X244726847Y-94701001D01*
X252951000Y-112954612D02*
X252951000Y-121049000D01*
X238600000Y-146607224D02*
X240841776Y-148849000D01*
X254550000Y-150450000D02*
X254553333Y-150446667D01*
X238600000Y-136459642D02*
X238600000Y-146607224D01*
X250549000Y-123451000D02*
X237045388Y-123451000D01*
X240841776Y-148849000D02*
X252949000Y-148849000D01*
X232955000Y-127541388D02*
X232955000Y-130814642D01*
X244327848Y-95100000D02*
X244327848Y-98631460D01*
X254553333Y-150446667D02*
X254553333Y-153600000D01*
X244327848Y-98631460D02*
X246400000Y-100703612D01*
X232955000Y-130814642D02*
X238600000Y-136459642D01*
X246400000Y-106403612D02*
X252951000Y-112954612D01*
X244726847Y-94701001D02*
X244327848Y-95100000D01*
%TO.N,/03_mcu_core/PWM5*%
X233951000Y-106845388D02*
X232996389Y-107800000D01*
X232851000Y-99749000D02*
X232851000Y-102554611D01*
X220900000Y-138400000D02*
X220900000Y-147400000D01*
X234548823Y-85451177D02*
X234151000Y-85849000D01*
X224951000Y-134349000D02*
X220900000Y-138400000D01*
X227051000Y-128449000D02*
X224951000Y-130549000D01*
X224951000Y-130549000D02*
X224951000Y-134349000D01*
X233951000Y-103654612D02*
X233951000Y-106845388D01*
X220900000Y-147400000D02*
X222060000Y-148560000D01*
X229196388Y-107800000D02*
X227051000Y-109945388D01*
X234548823Y-84190497D02*
X234548823Y-85451177D01*
X222060000Y-148560000D02*
X222060000Y-153570000D01*
X232851000Y-102554611D02*
X233951000Y-103654612D01*
X234151000Y-85849000D02*
X234151000Y-98449000D01*
X234151000Y-98449000D02*
X232851000Y-99749000D01*
X232996389Y-107800000D02*
X229196388Y-107800000D01*
X227051000Y-109945388D02*
X227051000Y-128449000D01*
%TO.N,/03_mcu_core/I2C1_SDA*%
X221800000Y-73800000D02*
X221240000Y-73240000D01*
X221240000Y-73240000D02*
X221118000Y-73240000D01*
X221800000Y-84232900D02*
X221800000Y-73800000D01*
X227400000Y-95052211D02*
X227400000Y-93300000D01*
X222101000Y-84533900D02*
X221800000Y-84232900D01*
X227400000Y-93300000D02*
X222101000Y-88001000D01*
X226315659Y-96136552D02*
X227400000Y-95052211D01*
X222101000Y-88001000D02*
X222101000Y-84533900D01*
%TO.N,/03_mcu_core/GPIO_IN1*%
X213082767Y-100317233D02*
X213165534Y-100400000D01*
X220300000Y-101400000D02*
X224700000Y-101400000D01*
X224700000Y-101400000D02*
X225900000Y-100200000D01*
X219400000Y-100500000D02*
X220300000Y-101400000D01*
X213082767Y-100317233D02*
X209200000Y-96434466D01*
X213165534Y-100400000D02*
X213200000Y-100400000D01*
X213265534Y-100500000D02*
X219400000Y-100500000D01*
X209200000Y-96434466D02*
X209200000Y-52460000D01*
X209200000Y-52460000D02*
X210400000Y-51260000D01*
X213082767Y-100317233D02*
X213265534Y-100500000D01*
%TO.N,/03_mcu_core/PYRO_FIRE4*%
X249400000Y-84300000D02*
X249900000Y-84800000D01*
X249400000Y-84299000D02*
X249400000Y-84300000D01*
X242634911Y-84299000D02*
X249400000Y-84299000D01*
X240315350Y-81979439D02*
X242634911Y-84299000D01*
%TO.N,/03_mcu_core/SPI2_MISO*%
X246291425Y-77200000D02*
X243036767Y-80454658D01*
X246300000Y-77200000D02*
X246291425Y-77200000D01*
%TO.N,/03_mcu_core/SDMMC_D3*%
X226373203Y-81982822D02*
X226414999Y-81941026D01*
X239745915Y-61167772D02*
X244415687Y-56498000D01*
X233001700Y-73897000D02*
X235868800Y-73897000D01*
X227757674Y-81941026D02*
X230797000Y-78901700D01*
X230797000Y-78901700D02*
X230797000Y-76101700D01*
X244415687Y-56498000D02*
X247296146Y-56498000D01*
X226414999Y-81941026D02*
X227757674Y-81941026D01*
X235868800Y-73897000D02*
X239745915Y-70019885D01*
X239745915Y-70019885D02*
X239745915Y-61167772D01*
X230797000Y-76101700D02*
X233001700Y-73897000D01*
X247296146Y-56498000D02*
X247650433Y-56852287D01*
%TO.N,/03_mcu_core/PYRO_FIRE5*%
X241956255Y-84700000D02*
X248601000Y-84700000D01*
X239944602Y-82688347D02*
X241956255Y-84700000D01*
X248601000Y-84700000D02*
X248800000Y-84899000D01*
%TO.N,/03_mcu_core/GPIO_OUT1*%
X207998000Y-53502000D02*
X207998000Y-96933766D01*
X202800000Y-51250000D02*
X203850000Y-52300000D01*
X206796000Y-52300000D02*
X207998000Y-53502000D01*
X213064234Y-102000000D02*
X213920000Y-102000000D01*
X207998000Y-96933766D02*
X213064234Y-102000000D01*
X203850000Y-52300000D02*
X206796000Y-52300000D01*
%TO.N,/03_mcu_core/CS_MMC5983*%
X225938366Y-88728734D02*
X226003483Y-88728734D01*
X225805461Y-88861639D02*
X225938366Y-88728734D01*
X226003483Y-88728734D02*
X226355540Y-88376677D01*
X238750000Y-75550000D02*
X244950000Y-75550000D01*
X226355540Y-88376677D02*
X226355540Y-87944460D01*
X244950001Y-75550001D02*
X244950001Y-75570000D01*
X244950000Y-75550000D02*
X244950001Y-75550001D01*
X226355540Y-87944460D02*
X238750000Y-75550000D01*
X225805461Y-89001563D02*
X225805461Y-88861639D01*
%TO.N,/03_mcu_core/GPIO_OUT2*%
X208400000Y-53407612D02*
X206252388Y-51260000D01*
X208400000Y-54150000D02*
X208400000Y-53407612D01*
X208399000Y-96767666D02*
X208399000Y-54151000D01*
X213031334Y-101400000D02*
X208399000Y-96767666D01*
X206252388Y-51260000D02*
X205320000Y-51260000D01*
X226525473Y-101826000D02*
X226150473Y-102201000D01*
X226150473Y-102201000D02*
X219901000Y-102201000D01*
X208399000Y-54151000D02*
X208400000Y-54150000D01*
X219901000Y-102201000D02*
X219100000Y-101400000D01*
X219100000Y-101400000D02*
X213031334Y-101400000D01*
%TO.N,/03_mcu_core/PWM2*%
X230941776Y-129249000D02*
X230945389Y-129249000D01*
X237502000Y-146898000D02*
X236213333Y-148186667D01*
X235004001Y-103600000D02*
X235004001Y-107295999D01*
X235851000Y-102753001D02*
X235004001Y-103600000D01*
X237502000Y-136909223D02*
X237502000Y-146898000D01*
X230945389Y-129249000D02*
X231902000Y-130205612D01*
X228104000Y-126411224D02*
X230941776Y-129249000D01*
X236600000Y-86400000D02*
X235204000Y-87796000D01*
X235204000Y-87796000D02*
X235204000Y-98407612D01*
X233400000Y-108900000D02*
X229585552Y-108900000D01*
X235851000Y-99054611D02*
X235851000Y-102753001D01*
X228104000Y-110381552D02*
X228104000Y-126411224D01*
X231902000Y-130205612D02*
X231902000Y-131309223D01*
X229585552Y-108900000D02*
X228104000Y-110381552D01*
X235004001Y-107295999D02*
X233400000Y-108900000D01*
X244189911Y-86798796D02*
X243791115Y-86400000D01*
X236213333Y-148186667D02*
X236213333Y-153600000D01*
X231902000Y-131309223D02*
X237502000Y-136909223D01*
X235204000Y-98407612D02*
X235851000Y-99054611D01*
X243791115Y-86400000D02*
X236600000Y-86400000D01*
%TO.N,/03_mcu_core/I2C2_SCL*%
X216556166Y-92142306D02*
X216556166Y-92136197D01*
X231045673Y-98601414D02*
X231045673Y-98600000D01*
X229644673Y-97199000D02*
X221612860Y-97199000D01*
X231244593Y-98800334D02*
X231045673Y-98601414D01*
X231045673Y-98600000D02*
X229644673Y-97199000D01*
X221612860Y-97199000D02*
X216556166Y-92142306D01*
%TO.N,/03_mcu_core/PWM1*%
X232253000Y-130060224D02*
X232253000Y-131105418D01*
X237300000Y-103700000D02*
X239100000Y-103700000D01*
X237853000Y-136705418D02*
X237853000Y-146853000D01*
X237200000Y-110000000D02*
X228981940Y-110000000D01*
X244000000Y-88000000D02*
X243000000Y-87000000D01*
X236300000Y-99007223D02*
X236300000Y-102700000D01*
X243000000Y-87000000D02*
X236600000Y-87000000D01*
X236300000Y-102700000D02*
X237300000Y-103700000D01*
X228981940Y-110000000D02*
X228455000Y-110526940D01*
X228455000Y-110526940D02*
X228455000Y-126265835D01*
X244250000Y-88000000D02*
X244000000Y-88000000D01*
X228455000Y-126265835D02*
X228458614Y-126265835D01*
X237853000Y-146853000D02*
X242326667Y-151326667D01*
X239300000Y-107900000D02*
X237200000Y-110000000D01*
X239100000Y-103700000D02*
X239300000Y-103900000D01*
X242326667Y-151326667D02*
X242326667Y-153600000D01*
X228458614Y-126265835D02*
X232253000Y-130060224D01*
X232253000Y-131105418D02*
X237853000Y-136705418D01*
X239300000Y-103900000D02*
X239300000Y-107900000D01*
X235555000Y-88045000D02*
X235555000Y-98262223D01*
X235555000Y-98262223D02*
X236300000Y-99007223D01*
X236600000Y-87000000D02*
X235555000Y-88045000D01*
%TO.N,/03_mcu_core/PYRO_FIRE1*%
X254600000Y-113400000D02*
X254600000Y-115052600D01*
X250180143Y-83096000D02*
X251700000Y-84615857D01*
X251700000Y-84615857D02*
X251700000Y-110500000D01*
X251700000Y-110500000D02*
X254600000Y-113400000D01*
X254600000Y-115052600D02*
X254663200Y-115115800D01*
X244515098Y-83096000D02*
X250180143Y-83096000D01*
X241780539Y-80082197D02*
X241780539Y-80361441D01*
X241780539Y-80361441D02*
X244515098Y-83096000D01*
%TO.N,/03_mcu_core/PYRO_FIRE3*%
X243353934Y-83898000D02*
X240795428Y-81339494D01*
X249847943Y-83898000D02*
X243353934Y-83898000D01*
X250500000Y-96100000D02*
X250500000Y-84550057D01*
X250500000Y-84550057D02*
X249847943Y-83898000D01*
%TO.N,/03_mcu_core/SPI2_MOSI*%
X245450000Y-72050000D02*
X246500002Y-72050000D01*
X246500002Y-72050000D02*
X246750002Y-72300000D01*
X245200000Y-71800000D02*
X245450000Y-72050000D01*
%TO.N,/03_mcu_core/NRST*%
X213900000Y-49600002D02*
X212940000Y-48640002D01*
X221778960Y-96798000D02*
X219440480Y-94459520D01*
X213900000Y-86501783D02*
X213900000Y-49600002D01*
X230198000Y-96798000D02*
X221778960Y-96798000D01*
X219440480Y-94459520D02*
X219440480Y-92042263D01*
X232200000Y-98800000D02*
X230198000Y-96798000D01*
X219440480Y-92042263D02*
X213900000Y-86501783D01*
%TO.N,/03_mcu_core/SD_DET*%
X226649790Y-84570024D02*
X226686196Y-84533618D01*
X232000000Y-76600000D02*
X233500000Y-75100000D01*
X226368360Y-84570024D02*
X226649790Y-84570024D01*
X232000000Y-79400000D02*
X232000000Y-76600000D01*
X226686196Y-84533618D02*
X226866382Y-84533618D01*
X237800000Y-75100000D02*
X249300000Y-63600000D01*
X249300000Y-63600000D02*
X256500000Y-63600000D01*
X226866382Y-84533618D02*
X232000000Y-79400000D01*
X233500000Y-75100000D02*
X237800000Y-75100000D01*
%TO.N,/03_mcu_core/PYRO_FIRE2*%
X251100000Y-100200000D02*
X251101000Y-100199000D01*
X251101000Y-84583957D02*
X250014043Y-83497000D01*
X251100000Y-105400000D02*
X251100000Y-100200000D01*
X244066155Y-83497000D02*
X249000000Y-83497000D01*
X250014043Y-83497000D02*
X249000000Y-83497000D01*
X241251108Y-80681953D02*
X244066155Y-83497000D01*
X251101000Y-100199000D02*
X251101000Y-84583957D01*
%TO.N,/03_mcu_core/PWM3*%
X234853000Y-87547000D02*
X236569591Y-85830409D01*
X231551000Y-131454612D02*
X237148194Y-137051805D01*
X237151000Y-137054612D02*
X237151000Y-146745388D01*
X234286667Y-153600000D02*
X234286667Y-149609721D01*
X235500000Y-99200000D02*
X234853000Y-98553000D01*
X234653001Y-107136165D02*
X234653001Y-103446999D01*
X227753000Y-126556612D02*
X230796387Y-129600000D01*
X234286667Y-149609721D02*
X237151000Y-146745388D01*
X227753000Y-110236164D02*
X229487164Y-108502000D01*
X231551000Y-130351000D02*
X231551000Y-131454612D01*
X234653001Y-103446999D02*
X235500000Y-102600000D01*
X237148194Y-137051805D02*
X237151000Y-137054612D01*
X235500000Y-102600000D02*
X235500000Y-99200000D01*
X233287167Y-108502000D02*
X234653001Y-107136165D01*
X234853000Y-98553000D02*
X234853000Y-87547000D01*
X230800000Y-129600000D02*
X231551000Y-130351000D01*
X230796387Y-129600000D02*
X230800000Y-129600000D01*
X229487164Y-108502000D02*
X233287167Y-108502000D01*
X236569591Y-85830409D02*
X244250000Y-85830409D01*
X227753000Y-126556612D02*
X227753000Y-110236164D01*
%TO.N,/03_mcu_core/SDMMC_CMD*%
X226863876Y-83969024D02*
X225838000Y-83969024D01*
X240547915Y-61499972D02*
X240547915Y-70352085D01*
X225838000Y-83969024D02*
X225805461Y-84001563D01*
X236201000Y-74699000D02*
X233333900Y-74699000D01*
X231599000Y-79233900D02*
X226863876Y-83969024D01*
X246600000Y-57500000D02*
X244547887Y-57500000D01*
X244547887Y-57500000D02*
X240547915Y-61499972D01*
X240547915Y-70352085D02*
X236201000Y-74699000D01*
X233333900Y-74699000D02*
X231599000Y-76433900D01*
X231599000Y-76433900D02*
X231599000Y-79233900D01*
%TO.N,/03_mcu_core/I2C2_SDA*%
X221063803Y-97600000D02*
X215600000Y-92136197D01*
X230297865Y-98702135D02*
X229195730Y-97600000D01*
X229195730Y-97600000D02*
X221063803Y-97600000D01*
%TO.N,/03_mcu_core/BLE_DTR*%
X238815800Y-69815800D02*
X238815800Y-67815800D01*
X229995000Y-75769500D02*
X232669500Y-73095000D01*
X238815800Y-67815800D02*
X235800000Y-64800000D01*
X233700000Y-73095000D02*
X235536600Y-73095000D01*
X235536600Y-73095000D02*
X238815800Y-69815800D01*
X227893474Y-80389596D02*
X228010404Y-80389596D01*
X229995000Y-78000000D02*
X229995000Y-75769500D01*
X232669500Y-73095000D02*
X233700000Y-73095000D01*
X228010404Y-80389596D02*
X229995000Y-78405000D01*
X229995000Y-78405000D02*
X229995000Y-78000000D01*
%TO.N,/03_mcu_core/GPIO_IN6*%
X259200000Y-65700000D02*
X259200000Y-44197500D01*
X252692461Y-72174639D02*
X256297000Y-68570100D01*
X252692461Y-73587650D02*
X252692461Y-72174639D01*
X256329900Y-68570100D02*
X259200000Y-65700000D01*
X259200000Y-44197500D02*
X256882500Y-41880000D01*
X256297000Y-68570100D02*
X256329900Y-68570100D01*
%TO.N,/03_mcu_core/GPIO_OUT4*%
X253974265Y-88574265D02*
X253974265Y-86877208D01*
X253974265Y-86877208D02*
X255500000Y-85351473D01*
%TO.N,/03_mcu_core/GPIO_IN5*%
X259600000Y-43515000D02*
X257965000Y-41880000D01*
X253292461Y-73837593D02*
X253293461Y-73836593D01*
X256698000Y-68736200D02*
X256713800Y-68736200D01*
X256713800Y-68736200D02*
X259600000Y-65850000D01*
X253300000Y-74216667D02*
X253292461Y-74209128D01*
X253292461Y-73337707D02*
X253292461Y-72141739D01*
X253293461Y-73338707D02*
X253292461Y-73337707D01*
X253292461Y-72141739D02*
X256698000Y-68736200D01*
X253293461Y-73836593D02*
X253293461Y-73338707D01*
X253292461Y-74209128D02*
X253292461Y-73837593D01*
X259600000Y-65850000D02*
X259600000Y-43515000D01*
%TO.N,/03_mcu_core/GPIO_OUT3*%
X252300000Y-92570000D02*
X254575265Y-90294735D01*
X254575265Y-90294735D02*
X254575265Y-87126151D01*
X254575265Y-87126151D02*
X256100000Y-85601416D01*
X256100000Y-85601416D02*
X256100000Y-84751473D01*
%TO.N,/03_mcu_core/GPIO_IN7*%
X252091461Y-74733108D02*
X252091461Y-72208539D01*
X252342000Y-77400000D02*
X252342000Y-74983647D01*
X258800000Y-65500000D02*
X258800000Y-44880000D01*
X252342000Y-74983647D02*
X252091461Y-74733108D01*
X258800000Y-44880000D02*
X255800000Y-41880000D01*
X252091461Y-72208539D02*
X258800000Y-65500000D01*
%TO.N,/03_mcu_core/GPIO_IN4*%
X260000000Y-42832500D02*
X259047500Y-41880000D01*
X253893461Y-72107839D02*
X260000000Y-66001300D01*
X253893461Y-73484819D02*
X253893461Y-72107839D01*
X260000000Y-66001300D02*
X260000000Y-42832500D01*
%TO.N,/03_mcu_core/GPIO_IN3*%
X254493461Y-72074939D02*
X260400000Y-66168400D01*
X260400000Y-66168400D02*
X260400000Y-42150000D01*
X260400000Y-42150000D02*
X260130000Y-41880000D01*
X254494461Y-73733762D02*
X254494461Y-73235876D01*
X254493461Y-73234876D02*
X254493461Y-72074939D01*
X254493461Y-73734762D02*
X254494461Y-73733762D01*
X254493461Y-74230875D02*
X254493461Y-73734762D01*
X254500000Y-74237414D02*
X254493461Y-74230875D01*
X254494461Y-73235876D02*
X254493461Y-73234876D01*
%TO.N,Net-(J28-PadB4)*%
X210359998Y-48640002D02*
X210400000Y-48640002D01*
%TO.N,Net-(J29-PadB3)*%
X262666600Y-31562450D02*
X262600000Y-31495850D01*
X262666600Y-31495850D02*
X258100000Y-36062450D01*
X258100000Y-36062450D02*
X258100000Y-40725000D01*
X258100000Y-40725000D02*
X257965000Y-40860000D01*
%TO.N,Net-(J29-PadB4)*%
X260060000Y-31562450D02*
X260060000Y-31495850D01*
X256882500Y-34739950D02*
X256882500Y-40860000D01*
X260126600Y-31495850D02*
X256882500Y-34739950D01*
%TO.N,Net-(J29-PadB2)*%
X265206600Y-31495850D02*
X265206600Y-31672150D01*
X259047500Y-37831250D02*
X259047500Y-40860000D01*
X265206600Y-31562450D02*
X265140000Y-31495850D01*
X265206600Y-31672150D02*
X259047500Y-37831250D01*
%TO.N,Net-(J29-PadB1)*%
X267746600Y-31562450D02*
X267680000Y-31495850D01*
X267746600Y-31495850D02*
X267746600Y-31853400D01*
X267746600Y-31853400D02*
X260130000Y-39470000D01*
X267746600Y-31753400D02*
X267746600Y-31562450D01*
X260130000Y-39470000D02*
X260130000Y-40860000D01*
X267746600Y-31635084D02*
X267746600Y-31562450D01*
%TO.N,Net-(J29-PadB5)*%
X257586600Y-31562450D02*
X257520000Y-31495850D01*
X257586600Y-31495850D02*
X255800000Y-33282450D01*
X255800000Y-33282450D02*
X255800000Y-40860000D01*
%TD*%
M02*
