%TF.GenerationSoftware,KiCad,Pcbnew,9.0.7*%
%TF.CreationDate,2026-08-13T23:42:52-07:00*%
%TF.ProjectId,Atlas,41746c61-732e-46b6-9963-61645f706362,1.0*%
%TF.SameCoordinates,Original*%
%TF.FileFunction,Paste,Top*%
%TF.FilePolarity,Positive*%
%FSLAX46Y46*%
G04 Gerber Fmt 4.6, Leading zero omitted, Abs format (unit mm)*
G04 Created by KiCad (PCBNEW 9.0.7) date 2026-08-13 23:42:52*
%MOMM*%
%LPD*%
G01*
G04 APERTURE LIST*
G04 Aperture macros list*
%AMRoundRect*
0 Rectangle with rounded corners*
0 $1 Rounding radius*
0 $2 $3 $4 $5 $6 $7 $8 $9 X,Y pos of 4 corners*
0 Add a 4 corners polygon primitive as box body*
4,1,4,$2,$3,$4,$5,$6,$7,$8,$9,$2,$3,0*
0 Add four circle primitives for the rounded corners*
1,1,$1+$1,$2,$3*
1,1,$1+$1,$4,$5*
1,1,$1+$1,$6,$7*
1,1,$1+$1,$8,$9*
0 Add four rect primitives between the rounded corners*
20,1,$1+$1,$2,$3,$4,$5,0*
20,1,$1+$1,$4,$5,$6,$7,0*
20,1,$1+$1,$6,$7,$8,$9,0*
20,1,$1+$1,$8,$9,$2,$3,0*%
%AMFreePoly0*
4,1,7,0.012710,0.101600,0.444500,0.101600,0.444500,-0.101600,-0.444500,-0.101600,-0.444500,1.701599,0.012710,1.701599,0.012710,0.101600,0.012710,0.101600,$1*%
%AMFreePoly1*
4,1,9,0.012710,0.101600,0.444500,0.101600,0.444500,-0.101600,0.012710,-0.101600,0.012710,-0.501597,-0.444500,-0.501599,-0.444500,1.301600,0.012710,1.301600,0.012710,0.101600,0.012710,0.101600,$1*%
%AMFreePoly2*
4,1,9,0.012710,0.101600,0.444500,0.101600,0.444500,-0.101600,0.012710,-0.101600,0.012710,-0.901599,-0.444500,-0.901601,-0.444500,0.901598,0.012710,0.901598,0.012710,0.101600,0.012710,0.101600,$1*%
%AMFreePoly3*
4,1,9,0.012710,0.101600,0.444500,0.101600,0.444500,-0.101600,0.012710,-0.101600,0.012710,-1.301598,-0.444500,-1.301600,-0.444500,0.501599,0.012710,0.501599,0.012710,0.101600,0.012710,0.101600,$1*%
%AMFreePoly4*
4,1,7,0.444500,-0.101600,0.012710,-0.101600,0.012710,-1.701597,-0.444500,-1.701599,-0.444500,0.101600,0.444500,0.101600,0.444500,-0.101600,0.444500,-0.101600,$1*%
G04 Aperture macros list end*
%ADD10C,0.010000*%
%ADD11C,0.000000*%
%ADD12R,0.965200X1.397000*%
%ADD13RoundRect,0.200000X-0.200000X0.300000X-0.200000X-0.300000X0.200000X-0.300000X0.200000X0.300000X0*%
%ADD14RoundRect,0.075000X0.075000X-0.662500X0.075000X0.662500X-0.075000X0.662500X-0.075000X-0.662500X0*%
%ADD15RoundRect,0.075000X0.662500X-0.075000X0.662500X0.075000X-0.662500X0.075000X-0.662500X-0.075000X0*%
%ADD16RoundRect,0.245000X1.455000X-0.245000X1.455000X0.245000X-1.455000X0.245000X-1.455000X-0.245000X0*%
%ADD17R,3.403600X1.854200*%
%ADD18RoundRect,0.250000X-0.340000X-2.100000X0.340000X-2.100000X0.340000X2.100000X-0.340000X2.100000X0*%
%ADD19R,1.150000X0.700000*%
%ADD20R,0.700000X1.150000*%
%ADD21R,0.700000X0.700000*%
%ADD22RoundRect,0.140000X-0.170000X0.140000X-0.170000X-0.140000X0.170000X-0.140000X0.170000X0.140000X0*%
%ADD23RoundRect,0.135000X0.135000X0.185000X-0.135000X0.185000X-0.135000X-0.185000X0.135000X-0.185000X0*%
%ADD24RoundRect,0.195000X0.290000X-0.195000X0.290000X0.195000X-0.290000X0.195000X-0.290000X-0.195000X0*%
%ADD25RoundRect,0.062500X0.062500X-0.450000X0.062500X0.450000X-0.062500X0.450000X-0.062500X-0.450000X0*%
%ADD26RoundRect,0.062500X0.325000X-0.062500X0.325000X0.062500X-0.325000X0.062500X-0.325000X-0.062500X0*%
%ADD27RoundRect,0.050000X-0.325000X-0.050000X0.325000X-0.050000X0.325000X0.050000X-0.325000X0.050000X0*%
%ADD28RoundRect,0.135000X-0.185000X0.135000X-0.185000X-0.135000X0.185000X-0.135000X0.185000X0.135000X0*%
%ADD29RoundRect,0.250000X-0.325000X-0.650000X0.325000X-0.650000X0.325000X0.650000X-0.325000X0.650000X0*%
%ADD30RoundRect,0.225000X0.250000X-0.225000X0.250000X0.225000X-0.250000X0.225000X-0.250000X-0.225000X0*%
%ADD31RoundRect,0.147500X0.172500X-0.147500X0.172500X0.147500X-0.172500X0.147500X-0.172500X-0.147500X0*%
%ADD32RoundRect,0.140000X-0.140000X-0.170000X0.140000X-0.170000X0.140000X0.170000X-0.140000X0.170000X0*%
%ADD33RoundRect,0.135000X0.185000X-0.135000X0.185000X0.135000X-0.185000X0.135000X-0.185000X-0.135000X0*%
%ADD34RoundRect,0.150000X0.700000X-0.150000X0.700000X0.150000X-0.700000X0.150000X-0.700000X-0.150000X0*%
%ADD35RoundRect,0.250000X1.100000X-0.250000X1.100000X0.250000X-1.100000X0.250000X-1.100000X-0.250000X0*%
%ADD36RoundRect,0.140000X0.170000X-0.140000X0.170000X0.140000X-0.170000X0.140000X-0.170000X-0.140000X0*%
%ADD37RoundRect,0.250000X0.650000X-0.325000X0.650000X0.325000X-0.650000X0.325000X-0.650000X-0.325000X0*%
%ADD38RoundRect,0.250000X-0.650000X-0.350000X0.650000X-0.350000X0.650000X0.350000X-0.650000X0.350000X0*%
%ADD39RoundRect,0.135000X-0.135000X-0.185000X0.135000X-0.185000X0.135000X0.185000X-0.135000X0.185000X0*%
%ADD40R,0.685800X0.254000*%
%ADD41R,0.254000X0.685800*%
%ADD42RoundRect,0.140000X0.140000X0.170000X-0.140000X0.170000X-0.140000X-0.170000X0.140000X-0.170000X0*%
%ADD43RoundRect,0.200000X-0.275000X0.200000X-0.275000X-0.200000X0.275000X-0.200000X0.275000X0.200000X0*%
%ADD44R,1.270000X3.683000*%
%ADD45RoundRect,0.200000X-0.700000X-0.200000X0.700000X-0.200000X0.700000X0.200000X-0.700000X0.200000X0*%
%ADD46RoundRect,0.250000X-0.475000X0.250000X-0.475000X-0.250000X0.475000X-0.250000X0.475000X0.250000X0*%
%ADD47RoundRect,0.250000X0.325000X0.650000X-0.325000X0.650000X-0.325000X-0.650000X0.325000X-0.650000X0*%
%ADD48RoundRect,0.225000X0.225000X0.250000X-0.225000X0.250000X-0.225000X-0.250000X0.225000X-0.250000X0*%
%ADD49RoundRect,0.250000X-1.000000X-0.650000X1.000000X-0.650000X1.000000X0.650000X-1.000000X0.650000X0*%
%ADD50RoundRect,0.225000X-0.225000X-0.250000X0.225000X-0.250000X0.225000X0.250000X-0.225000X0.250000X0*%
%ADD51RoundRect,0.250000X1.100000X-0.325000X1.100000X0.325000X-1.100000X0.325000X-1.100000X-0.325000X0*%
%ADD52RoundRect,0.250000X0.250000X0.475000X-0.250000X0.475000X-0.250000X-0.475000X0.250000X-0.475000X0*%
%ADD53R,0.950000X0.550000*%
%ADD54RoundRect,0.050000X-0.250000X0.100000X-0.250000X-0.100000X0.250000X-0.100000X0.250000X0.100000X0*%
%ADD55R,1.117800X0.449200*%
%ADD56R,0.500000X0.813000*%
%ADD57RoundRect,0.250000X0.475000X-0.250000X0.475000X0.250000X-0.475000X0.250000X-0.475000X-0.250000X0*%
%ADD58RoundRect,0.050000X0.075000X-0.275000X0.075000X0.275000X-0.075000X0.275000X-0.075000X-0.275000X0*%
%ADD59RoundRect,0.050000X0.075000X-0.300000X0.075000X0.300000X-0.075000X0.300000X-0.075000X-0.300000X0*%
%ADD60RoundRect,0.050000X0.325000X-0.075000X0.325000X0.075000X-0.325000X0.075000X-0.325000X-0.075000X0*%
%ADD61RoundRect,0.050000X0.250000X-0.075000X0.250000X0.075000X-0.250000X0.075000X-0.250000X-0.075000X0*%
%ADD62RoundRect,0.050000X0.075000X-0.600000X0.075000X0.600000X-0.075000X0.600000X-0.075000X-0.600000X0*%
%ADD63RoundRect,0.150000X-0.587500X-0.150000X0.587500X-0.150000X0.587500X0.150000X-0.587500X0.150000X0*%
%ADD64R,0.457200X0.304800*%
%ADD65R,0.304800X0.457200*%
%ADD66RoundRect,0.150000X0.587500X0.150000X-0.587500X0.150000X-0.587500X-0.150000X0.587500X-0.150000X0*%
%ADD67R,1.100000X0.850000*%
%ADD68R,1.100000X0.750000*%
%ADD69R,1.000000X1.200000*%
%ADD70R,1.350000X1.550000*%
%ADD71R,1.350000X1.900000*%
%ADD72R,1.800000X1.170000*%
%ADD73R,0.600000X1.450000*%
%ADD74R,0.300000X1.450000*%
%ADD75R,0.203200X0.889000*%
%ADD76R,2.590800X0.254000*%
%ADD77FreePoly0,270.000000*%
%ADD78FreePoly1,270.000000*%
%ADD79FreePoly2,270.000000*%
%ADD80FreePoly3,270.000000*%
%ADD81FreePoly4,270.000000*%
%ADD82R,5.500000X1.430000*%
%ADD83RoundRect,0.200000X0.275000X-0.200000X0.275000X0.200000X-0.275000X0.200000X-0.275000X-0.200000X0*%
%ADD84RoundRect,0.225000X-0.250000X0.225000X-0.250000X-0.225000X0.250000X-0.225000X0.250000X0.225000X0*%
%ADD85RoundRect,0.150000X-0.512500X-0.150000X0.512500X-0.150000X0.512500X0.150000X-0.512500X0.150000X0*%
%ADD86RoundRect,0.250000X-1.100000X0.325000X-1.100000X-0.325000X1.100000X-0.325000X1.100000X0.325000X0*%
G04 APERTURE END LIST*
D10*
%TO.C,U11*%
X253067998Y-137171000D02*
X253069998Y-137171000D01*
X253072998Y-137172000D01*
X253074998Y-137172000D01*
X253077998Y-137173000D01*
X253079998Y-137174000D01*
X253082998Y-137175000D01*
X253084998Y-137177000D01*
X253086998Y-137178000D01*
X253088998Y-137180000D01*
X253090998Y-137181000D01*
X253092998Y-137183000D01*
X253094998Y-137185000D01*
X253096998Y-137187000D01*
X253098998Y-137189000D01*
X253099998Y-137191000D01*
X253101998Y-137193000D01*
X253102998Y-137195000D01*
X253104998Y-137197000D01*
X253105998Y-137200000D01*
X253106998Y-137202000D01*
X253107998Y-137205000D01*
X253107998Y-137207000D01*
X253108998Y-137210000D01*
X253108998Y-137212000D01*
X253109998Y-137215000D01*
X253109998Y-137217000D01*
X253109998Y-137220000D01*
X253109998Y-138100000D01*
X253109998Y-138103000D01*
X253109998Y-138105000D01*
X253108998Y-138108000D01*
X253108998Y-138110000D01*
X253107998Y-138113000D01*
X253107998Y-138115000D01*
X253106998Y-138118000D01*
X253105998Y-138120000D01*
X253104998Y-138123000D01*
X253102998Y-138125000D01*
X253101998Y-138127000D01*
X253099998Y-138129000D01*
X253098998Y-138131000D01*
X253096998Y-138133000D01*
X253094998Y-138135000D01*
X253092998Y-138137000D01*
X253090998Y-138139000D01*
X253088998Y-138140000D01*
X253086998Y-138142000D01*
X253084998Y-138143000D01*
X253082998Y-138145000D01*
X253079998Y-138146000D01*
X253077998Y-138147000D01*
X253074998Y-138148000D01*
X253072998Y-138148000D01*
X253069998Y-138149000D01*
X253067998Y-138149000D01*
X253064998Y-138150000D01*
X253062998Y-138150000D01*
X253059998Y-138150000D01*
X252119998Y-138150000D01*
X252116998Y-138150000D01*
X252114998Y-138150000D01*
X252111998Y-138149000D01*
X252109998Y-138149000D01*
X252106998Y-138148000D01*
X252104998Y-138148000D01*
X252101998Y-138147000D01*
X252099998Y-138146000D01*
X252096998Y-138145000D01*
X252094998Y-138143000D01*
X252092998Y-138142000D01*
X252090998Y-138140000D01*
X252088998Y-138139000D01*
X252086998Y-138137000D01*
X252084998Y-138135000D01*
X252082998Y-138133000D01*
X252080998Y-138131000D01*
X252079998Y-138129000D01*
X252077998Y-138127000D01*
X252076998Y-138125000D01*
X252074998Y-138123000D01*
X252073998Y-138120000D01*
X252072998Y-138118000D01*
X252071998Y-138115000D01*
X252071998Y-138113000D01*
X252070998Y-138110000D01*
X252070998Y-138108000D01*
X252069998Y-138105000D01*
X252069998Y-138103000D01*
X252069998Y-138100000D01*
X252069998Y-137220000D01*
X252069998Y-137217000D01*
X252069998Y-137215000D01*
X252070998Y-137212000D01*
X252070998Y-137210000D01*
X252071998Y-137207000D01*
X252071998Y-137205000D01*
X252072998Y-137202000D01*
X252073998Y-137200000D01*
X252074998Y-137197000D01*
X252076998Y-137195000D01*
X252077998Y-137193000D01*
X252079998Y-137191000D01*
X252080998Y-137189000D01*
X252082998Y-137187000D01*
X252084998Y-137185000D01*
X252086998Y-137183000D01*
X252088998Y-137181000D01*
X252090998Y-137180000D01*
X252092998Y-137178000D01*
X252094998Y-137177000D01*
X252096998Y-137175000D01*
X252099998Y-137174000D01*
X252101998Y-137173000D01*
X252104998Y-137172000D01*
X252106998Y-137172000D01*
X252109998Y-137171000D01*
X252111998Y-137171000D01*
X252114998Y-137170000D01*
X252116998Y-137170000D01*
X252119998Y-137170000D01*
X253059998Y-137170000D01*
X253062998Y-137170000D01*
X253064998Y-137170000D01*
X253067998Y-137171000D01*
G36*
X253067998Y-137171000D02*
G01*
X253069998Y-137171000D01*
X253072998Y-137172000D01*
X253074998Y-137172000D01*
X253077998Y-137173000D01*
X253079998Y-137174000D01*
X253082998Y-137175000D01*
X253084998Y-137177000D01*
X253086998Y-137178000D01*
X253088998Y-137180000D01*
X253090998Y-137181000D01*
X253092998Y-137183000D01*
X253094998Y-137185000D01*
X253096998Y-137187000D01*
X253098998Y-137189000D01*
X253099998Y-137191000D01*
X253101998Y-137193000D01*
X253102998Y-137195000D01*
X253104998Y-137197000D01*
X253105998Y-137200000D01*
X253106998Y-137202000D01*
X253107998Y-137205000D01*
X253107998Y-137207000D01*
X253108998Y-137210000D01*
X253108998Y-137212000D01*
X253109998Y-137215000D01*
X253109998Y-137217000D01*
X253109998Y-137220000D01*
X253109998Y-138100000D01*
X253109998Y-138103000D01*
X253109998Y-138105000D01*
X253108998Y-138108000D01*
X253108998Y-138110000D01*
X253107998Y-138113000D01*
X253107998Y-138115000D01*
X253106998Y-138118000D01*
X253105998Y-138120000D01*
X253104998Y-138123000D01*
X253102998Y-138125000D01*
X253101998Y-138127000D01*
X253099998Y-138129000D01*
X253098998Y-138131000D01*
X253096998Y-138133000D01*
X253094998Y-138135000D01*
X253092998Y-138137000D01*
X253090998Y-138139000D01*
X253088998Y-138140000D01*
X253086998Y-138142000D01*
X253084998Y-138143000D01*
X253082998Y-138145000D01*
X253079998Y-138146000D01*
X253077998Y-138147000D01*
X253074998Y-138148000D01*
X253072998Y-138148000D01*
X253069998Y-138149000D01*
X253067998Y-138149000D01*
X253064998Y-138150000D01*
X253062998Y-138150000D01*
X253059998Y-138150000D01*
X252119998Y-138150000D01*
X252116998Y-138150000D01*
X252114998Y-138150000D01*
X252111998Y-138149000D01*
X252109998Y-138149000D01*
X252106998Y-138148000D01*
X252104998Y-138148000D01*
X252101998Y-138147000D01*
X252099998Y-138146000D01*
X252096998Y-138145000D01*
X252094998Y-138143000D01*
X252092998Y-138142000D01*
X252090998Y-138140000D01*
X252088998Y-138139000D01*
X252086998Y-138137000D01*
X252084998Y-138135000D01*
X252082998Y-138133000D01*
X252080998Y-138131000D01*
X252079998Y-138129000D01*
X252077998Y-138127000D01*
X252076998Y-138125000D01*
X252074998Y-138123000D01*
X252073998Y-138120000D01*
X252072998Y-138118000D01*
X252071998Y-138115000D01*
X252071998Y-138113000D01*
X252070998Y-138110000D01*
X252070998Y-138108000D01*
X252069998Y-138105000D01*
X252069998Y-138103000D01*
X252069998Y-138100000D01*
X252069998Y-137220000D01*
X252069998Y-137217000D01*
X252069998Y-137215000D01*
X252070998Y-137212000D01*
X252070998Y-137210000D01*
X252071998Y-137207000D01*
X252071998Y-137205000D01*
X252072998Y-137202000D01*
X252073998Y-137200000D01*
X252074998Y-137197000D01*
X252076998Y-137195000D01*
X252077998Y-137193000D01*
X252079998Y-137191000D01*
X252080998Y-137189000D01*
X252082998Y-137187000D01*
X252084998Y-137185000D01*
X252086998Y-137183000D01*
X252088998Y-137181000D01*
X252090998Y-137180000D01*
X252092998Y-137178000D01*
X252094998Y-137177000D01*
X252096998Y-137175000D01*
X252099998Y-137174000D01*
X252101998Y-137173000D01*
X252104998Y-137172000D01*
X252106998Y-137172000D01*
X252109998Y-137171000D01*
X252111998Y-137171000D01*
X252114998Y-137170000D01*
X252116998Y-137170000D01*
X252119998Y-137170000D01*
X253059998Y-137170000D01*
X253062998Y-137170000D01*
X253064998Y-137170000D01*
X253067998Y-137171000D01*
G37*
X253067998Y-138351000D02*
X253069998Y-138351000D01*
X253072998Y-138352000D01*
X253074998Y-138352000D01*
X253077998Y-138353000D01*
X253079998Y-138354000D01*
X253082998Y-138355000D01*
X253084998Y-138357000D01*
X253086998Y-138358000D01*
X253088998Y-138360000D01*
X253090998Y-138361000D01*
X253092998Y-138363000D01*
X253094998Y-138365000D01*
X253096998Y-138367000D01*
X253098998Y-138369000D01*
X253099998Y-138371000D01*
X253101998Y-138373000D01*
X253102998Y-138375000D01*
X253104998Y-138377000D01*
X253105998Y-138380000D01*
X253106998Y-138382000D01*
X253107998Y-138385000D01*
X253107998Y-138387000D01*
X253108998Y-138390000D01*
X253108998Y-138392000D01*
X253109998Y-138395000D01*
X253109998Y-138397000D01*
X253109998Y-138400000D01*
X253109998Y-139280000D01*
X253109998Y-139283000D01*
X253109998Y-139285000D01*
X253108998Y-139288000D01*
X253108998Y-139290000D01*
X253107998Y-139293000D01*
X253107998Y-139295000D01*
X253106998Y-139298000D01*
X253105998Y-139300000D01*
X253104998Y-139303000D01*
X253102998Y-139305000D01*
X253101998Y-139307000D01*
X253099998Y-139309000D01*
X253098998Y-139311000D01*
X253096998Y-139313000D01*
X253094998Y-139315000D01*
X253092998Y-139317000D01*
X253090998Y-139319000D01*
X253088998Y-139320000D01*
X253086998Y-139322000D01*
X253084998Y-139323000D01*
X253082998Y-139325000D01*
X253079998Y-139326000D01*
X253077998Y-139327000D01*
X253074998Y-139328000D01*
X253072998Y-139328000D01*
X253069998Y-139329000D01*
X253067998Y-139329000D01*
X253064998Y-139330000D01*
X253062998Y-139330000D01*
X253059998Y-139330000D01*
X252119998Y-139330000D01*
X252116998Y-139330000D01*
X252114998Y-139330000D01*
X252111998Y-139329000D01*
X252109998Y-139329000D01*
X252106998Y-139328000D01*
X252104998Y-139328000D01*
X252101998Y-139327000D01*
X252099998Y-139326000D01*
X252096998Y-139325000D01*
X252094998Y-139323000D01*
X252092998Y-139322000D01*
X252090998Y-139320000D01*
X252088998Y-139319000D01*
X252086998Y-139317000D01*
X252084998Y-139315000D01*
X252082998Y-139313000D01*
X252080998Y-139311000D01*
X252079998Y-139309000D01*
X252077998Y-139307000D01*
X252076998Y-139305000D01*
X252074998Y-139303000D01*
X252073998Y-139300000D01*
X252072998Y-139298000D01*
X252071998Y-139295000D01*
X252071998Y-139293000D01*
X252070998Y-139290000D01*
X252070998Y-139288000D01*
X252069998Y-139285000D01*
X252069998Y-139283000D01*
X252069998Y-139280000D01*
X252069998Y-138400000D01*
X252069998Y-138397000D01*
X252069998Y-138395000D01*
X252070998Y-138392000D01*
X252070998Y-138390000D01*
X252071998Y-138387000D01*
X252071998Y-138385000D01*
X252072998Y-138382000D01*
X252073998Y-138380000D01*
X252074998Y-138377000D01*
X252076998Y-138375000D01*
X252077998Y-138373000D01*
X252079998Y-138371000D01*
X252080998Y-138369000D01*
X252082998Y-138367000D01*
X252084998Y-138365000D01*
X252086998Y-138363000D01*
X252088998Y-138361000D01*
X252090998Y-138360000D01*
X252092998Y-138358000D01*
X252094998Y-138357000D01*
X252096998Y-138355000D01*
X252099998Y-138354000D01*
X252101998Y-138353000D01*
X252104998Y-138352000D01*
X252106998Y-138352000D01*
X252109998Y-138351000D01*
X252111998Y-138351000D01*
X252114998Y-138350000D01*
X252116998Y-138350000D01*
X252119998Y-138350000D01*
X253059998Y-138350000D01*
X253062998Y-138350000D01*
X253064998Y-138350000D01*
X253067998Y-138351000D01*
G36*
X253067998Y-138351000D02*
G01*
X253069998Y-138351000D01*
X253072998Y-138352000D01*
X253074998Y-138352000D01*
X253077998Y-138353000D01*
X253079998Y-138354000D01*
X253082998Y-138355000D01*
X253084998Y-138357000D01*
X253086998Y-138358000D01*
X253088998Y-138360000D01*
X253090998Y-138361000D01*
X253092998Y-138363000D01*
X253094998Y-138365000D01*
X253096998Y-138367000D01*
X253098998Y-138369000D01*
X253099998Y-138371000D01*
X253101998Y-138373000D01*
X253102998Y-138375000D01*
X253104998Y-138377000D01*
X253105998Y-138380000D01*
X253106998Y-138382000D01*
X253107998Y-138385000D01*
X253107998Y-138387000D01*
X253108998Y-138390000D01*
X253108998Y-138392000D01*
X253109998Y-138395000D01*
X253109998Y-138397000D01*
X253109998Y-138400000D01*
X253109998Y-139280000D01*
X253109998Y-139283000D01*
X253109998Y-139285000D01*
X253108998Y-139288000D01*
X253108998Y-139290000D01*
X253107998Y-139293000D01*
X253107998Y-139295000D01*
X253106998Y-139298000D01*
X253105998Y-139300000D01*
X253104998Y-139303000D01*
X253102998Y-139305000D01*
X253101998Y-139307000D01*
X253099998Y-139309000D01*
X253098998Y-139311000D01*
X253096998Y-139313000D01*
X253094998Y-139315000D01*
X253092998Y-139317000D01*
X253090998Y-139319000D01*
X253088998Y-139320000D01*
X253086998Y-139322000D01*
X253084998Y-139323000D01*
X253082998Y-139325000D01*
X253079998Y-139326000D01*
X253077998Y-139327000D01*
X253074998Y-139328000D01*
X253072998Y-139328000D01*
X253069998Y-139329000D01*
X253067998Y-139329000D01*
X253064998Y-139330000D01*
X253062998Y-139330000D01*
X253059998Y-139330000D01*
X252119998Y-139330000D01*
X252116998Y-139330000D01*
X252114998Y-139330000D01*
X252111998Y-139329000D01*
X252109998Y-139329000D01*
X252106998Y-139328000D01*
X252104998Y-139328000D01*
X252101998Y-139327000D01*
X252099998Y-139326000D01*
X252096998Y-139325000D01*
X252094998Y-139323000D01*
X252092998Y-139322000D01*
X252090998Y-139320000D01*
X252088998Y-139319000D01*
X252086998Y-139317000D01*
X252084998Y-139315000D01*
X252082998Y-139313000D01*
X252080998Y-139311000D01*
X252079998Y-139309000D01*
X252077998Y-139307000D01*
X252076998Y-139305000D01*
X252074998Y-139303000D01*
X252073998Y-139300000D01*
X252072998Y-139298000D01*
X252071998Y-139295000D01*
X252071998Y-139293000D01*
X252070998Y-139290000D01*
X252070998Y-139288000D01*
X252069998Y-139285000D01*
X252069998Y-139283000D01*
X252069998Y-139280000D01*
X252069998Y-138400000D01*
X252069998Y-138397000D01*
X252069998Y-138395000D01*
X252070998Y-138392000D01*
X252070998Y-138390000D01*
X252071998Y-138387000D01*
X252071998Y-138385000D01*
X252072998Y-138382000D01*
X252073998Y-138380000D01*
X252074998Y-138377000D01*
X252076998Y-138375000D01*
X252077998Y-138373000D01*
X252079998Y-138371000D01*
X252080998Y-138369000D01*
X252082998Y-138367000D01*
X252084998Y-138365000D01*
X252086998Y-138363000D01*
X252088998Y-138361000D01*
X252090998Y-138360000D01*
X252092998Y-138358000D01*
X252094998Y-138357000D01*
X252096998Y-138355000D01*
X252099998Y-138354000D01*
X252101998Y-138353000D01*
X252104998Y-138352000D01*
X252106998Y-138352000D01*
X252109998Y-138351000D01*
X252111998Y-138351000D01*
X252114998Y-138350000D01*
X252116998Y-138350000D01*
X252119998Y-138350000D01*
X253059998Y-138350000D01*
X253062998Y-138350000D01*
X253064998Y-138350000D01*
X253067998Y-138351000D01*
G37*
X253067998Y-139531000D02*
X253069998Y-139531000D01*
X253072998Y-139532000D01*
X253074998Y-139532000D01*
X253077998Y-139533000D01*
X253079998Y-139534000D01*
X253082998Y-139535000D01*
X253084998Y-139537000D01*
X253086998Y-139538000D01*
X253088998Y-139540000D01*
X253090998Y-139541000D01*
X253092998Y-139543000D01*
X253094998Y-139545000D01*
X253096998Y-139547000D01*
X253098998Y-139549000D01*
X253099998Y-139551000D01*
X253101998Y-139553000D01*
X253102998Y-139555000D01*
X253104998Y-139557000D01*
X253105998Y-139560000D01*
X253106998Y-139562000D01*
X253107998Y-139565000D01*
X253107998Y-139567000D01*
X253108998Y-139570000D01*
X253108998Y-139572000D01*
X253109998Y-139575000D01*
X253109998Y-139577000D01*
X253109998Y-139580000D01*
X253109998Y-140460000D01*
X253109998Y-140463000D01*
X253109998Y-140465000D01*
X253108998Y-140468000D01*
X253108998Y-140470000D01*
X253107998Y-140473000D01*
X253107998Y-140475000D01*
X253106998Y-140478000D01*
X253105998Y-140480000D01*
X253104998Y-140483000D01*
X253102998Y-140485000D01*
X253101998Y-140487000D01*
X253099998Y-140489000D01*
X253098998Y-140491000D01*
X253096998Y-140493000D01*
X253094998Y-140495000D01*
X253092998Y-140497000D01*
X253090998Y-140499000D01*
X253088998Y-140500000D01*
X253086998Y-140502000D01*
X253084998Y-140503000D01*
X253082998Y-140505000D01*
X253079998Y-140506000D01*
X253077998Y-140507000D01*
X253074998Y-140508000D01*
X253072998Y-140508000D01*
X253069998Y-140509000D01*
X253067998Y-140509000D01*
X253064998Y-140510000D01*
X253062998Y-140510000D01*
X253059998Y-140510000D01*
X252119998Y-140510000D01*
X252116998Y-140510000D01*
X252114998Y-140510000D01*
X252111998Y-140509000D01*
X252109998Y-140509000D01*
X252106998Y-140508000D01*
X252104998Y-140508000D01*
X252101998Y-140507000D01*
X252099998Y-140506000D01*
X252096998Y-140505000D01*
X252094998Y-140503000D01*
X252092998Y-140502000D01*
X252090998Y-140500000D01*
X252088998Y-140499000D01*
X252086998Y-140497000D01*
X252084998Y-140495000D01*
X252082998Y-140493000D01*
X252080998Y-140491000D01*
X252079998Y-140489000D01*
X252077998Y-140487000D01*
X252076998Y-140485000D01*
X252074998Y-140483000D01*
X252073998Y-140480000D01*
X252072998Y-140478000D01*
X252071998Y-140475000D01*
X252071998Y-140473000D01*
X252070998Y-140470000D01*
X252070998Y-140468000D01*
X252069998Y-140465000D01*
X252069998Y-140463000D01*
X252069998Y-140460000D01*
X252069998Y-139580000D01*
X252069998Y-139577000D01*
X252069998Y-139575000D01*
X252070998Y-139572000D01*
X252070998Y-139570000D01*
X252071998Y-139567000D01*
X252071998Y-139565000D01*
X252072998Y-139562000D01*
X252073998Y-139560000D01*
X252074998Y-139557000D01*
X252076998Y-139555000D01*
X252077998Y-139553000D01*
X252079998Y-139551000D01*
X252080998Y-139549000D01*
X252082998Y-139547000D01*
X252084998Y-139545000D01*
X252086998Y-139543000D01*
X252088998Y-139541000D01*
X252090998Y-139540000D01*
X252092998Y-139538000D01*
X252094998Y-139537000D01*
X252096998Y-139535000D01*
X252099998Y-139534000D01*
X252101998Y-139533000D01*
X252104998Y-139532000D01*
X252106998Y-139532000D01*
X252109998Y-139531000D01*
X252111998Y-139531000D01*
X252114998Y-139530000D01*
X252116998Y-139530000D01*
X252119998Y-139530000D01*
X253059998Y-139530000D01*
X253062998Y-139530000D01*
X253064998Y-139530000D01*
X253067998Y-139531000D01*
G36*
X253067998Y-139531000D02*
G01*
X253069998Y-139531000D01*
X253072998Y-139532000D01*
X253074998Y-139532000D01*
X253077998Y-139533000D01*
X253079998Y-139534000D01*
X253082998Y-139535000D01*
X253084998Y-139537000D01*
X253086998Y-139538000D01*
X253088998Y-139540000D01*
X253090998Y-139541000D01*
X253092998Y-139543000D01*
X253094998Y-139545000D01*
X253096998Y-139547000D01*
X253098998Y-139549000D01*
X253099998Y-139551000D01*
X253101998Y-139553000D01*
X253102998Y-139555000D01*
X253104998Y-139557000D01*
X253105998Y-139560000D01*
X253106998Y-139562000D01*
X253107998Y-139565000D01*
X253107998Y-139567000D01*
X253108998Y-139570000D01*
X253108998Y-139572000D01*
X253109998Y-139575000D01*
X253109998Y-139577000D01*
X253109998Y-139580000D01*
X253109998Y-140460000D01*
X253109998Y-140463000D01*
X253109998Y-140465000D01*
X253108998Y-140468000D01*
X253108998Y-140470000D01*
X253107998Y-140473000D01*
X253107998Y-140475000D01*
X253106998Y-140478000D01*
X253105998Y-140480000D01*
X253104998Y-140483000D01*
X253102998Y-140485000D01*
X253101998Y-140487000D01*
X253099998Y-140489000D01*
X253098998Y-140491000D01*
X253096998Y-140493000D01*
X253094998Y-140495000D01*
X253092998Y-140497000D01*
X253090998Y-140499000D01*
X253088998Y-140500000D01*
X253086998Y-140502000D01*
X253084998Y-140503000D01*
X253082998Y-140505000D01*
X253079998Y-140506000D01*
X253077998Y-140507000D01*
X253074998Y-140508000D01*
X253072998Y-140508000D01*
X253069998Y-140509000D01*
X253067998Y-140509000D01*
X253064998Y-140510000D01*
X253062998Y-140510000D01*
X253059998Y-140510000D01*
X252119998Y-140510000D01*
X252116998Y-140510000D01*
X252114998Y-140510000D01*
X252111998Y-140509000D01*
X252109998Y-140509000D01*
X252106998Y-140508000D01*
X252104998Y-140508000D01*
X252101998Y-140507000D01*
X252099998Y-140506000D01*
X252096998Y-140505000D01*
X252094998Y-140503000D01*
X252092998Y-140502000D01*
X252090998Y-140500000D01*
X252088998Y-140499000D01*
X252086998Y-140497000D01*
X252084998Y-140495000D01*
X252082998Y-140493000D01*
X252080998Y-140491000D01*
X252079998Y-140489000D01*
X252077998Y-140487000D01*
X252076998Y-140485000D01*
X252074998Y-140483000D01*
X252073998Y-140480000D01*
X252072998Y-140478000D01*
X252071998Y-140475000D01*
X252071998Y-140473000D01*
X252070998Y-140470000D01*
X252070998Y-140468000D01*
X252069998Y-140465000D01*
X252069998Y-140463000D01*
X252069998Y-140460000D01*
X252069998Y-139580000D01*
X252069998Y-139577000D01*
X252069998Y-139575000D01*
X252070998Y-139572000D01*
X252070998Y-139570000D01*
X252071998Y-139567000D01*
X252071998Y-139565000D01*
X252072998Y-139562000D01*
X252073998Y-139560000D01*
X252074998Y-139557000D01*
X252076998Y-139555000D01*
X252077998Y-139553000D01*
X252079998Y-139551000D01*
X252080998Y-139549000D01*
X252082998Y-139547000D01*
X252084998Y-139545000D01*
X252086998Y-139543000D01*
X252088998Y-139541000D01*
X252090998Y-139540000D01*
X252092998Y-139538000D01*
X252094998Y-139537000D01*
X252096998Y-139535000D01*
X252099998Y-139534000D01*
X252101998Y-139533000D01*
X252104998Y-139532000D01*
X252106998Y-139532000D01*
X252109998Y-139531000D01*
X252111998Y-139531000D01*
X252114998Y-139530000D01*
X252116998Y-139530000D01*
X252119998Y-139530000D01*
X253059998Y-139530000D01*
X253062998Y-139530000D01*
X253064998Y-139530000D01*
X253067998Y-139531000D01*
G37*
X254307998Y-137171000D02*
X254309998Y-137171000D01*
X254312998Y-137172000D01*
X254314998Y-137172000D01*
X254317998Y-137173000D01*
X254319998Y-137174000D01*
X254322998Y-137175000D01*
X254324998Y-137177000D01*
X254326998Y-137178000D01*
X254328998Y-137180000D01*
X254330998Y-137181000D01*
X254332998Y-137183000D01*
X254334998Y-137185000D01*
X254336998Y-137187000D01*
X254338998Y-137189000D01*
X254339998Y-137191000D01*
X254341998Y-137193000D01*
X254342998Y-137195000D01*
X254344998Y-137197000D01*
X254345998Y-137200000D01*
X254346998Y-137202000D01*
X254347998Y-137205000D01*
X254347998Y-137207000D01*
X254348998Y-137210000D01*
X254348998Y-137212000D01*
X254349998Y-137215000D01*
X254349998Y-137217000D01*
X254349998Y-137220000D01*
X254349998Y-138100000D01*
X254349998Y-138103000D01*
X254349998Y-138105000D01*
X254348998Y-138108000D01*
X254348998Y-138110000D01*
X254347998Y-138113000D01*
X254347998Y-138115000D01*
X254346998Y-138118000D01*
X254345998Y-138120000D01*
X254344998Y-138123000D01*
X254342998Y-138125000D01*
X254341998Y-138127000D01*
X254339998Y-138129000D01*
X254338998Y-138131000D01*
X254336998Y-138133000D01*
X254334998Y-138135000D01*
X254332998Y-138137000D01*
X254330998Y-138139000D01*
X254328998Y-138140000D01*
X254326998Y-138142000D01*
X254324998Y-138143000D01*
X254322998Y-138145000D01*
X254319998Y-138146000D01*
X254317998Y-138147000D01*
X254314998Y-138148000D01*
X254312998Y-138148000D01*
X254309998Y-138149000D01*
X254307998Y-138149000D01*
X254304998Y-138150000D01*
X254302998Y-138150000D01*
X254299998Y-138150000D01*
X253359998Y-138150000D01*
X253356998Y-138150000D01*
X253354998Y-138150000D01*
X253351998Y-138149000D01*
X253349998Y-138149000D01*
X253346998Y-138148000D01*
X253344998Y-138148000D01*
X253341998Y-138147000D01*
X253339998Y-138146000D01*
X253336998Y-138145000D01*
X253334998Y-138143000D01*
X253332998Y-138142000D01*
X253330998Y-138140000D01*
X253328998Y-138139000D01*
X253326998Y-138137000D01*
X253324998Y-138135000D01*
X253322998Y-138133000D01*
X253320998Y-138131000D01*
X253319998Y-138129000D01*
X253317998Y-138127000D01*
X253316998Y-138125000D01*
X253314998Y-138123000D01*
X253313998Y-138120000D01*
X253312998Y-138118000D01*
X253311998Y-138115000D01*
X253311998Y-138113000D01*
X253310998Y-138110000D01*
X253310998Y-138108000D01*
X253309998Y-138105000D01*
X253309998Y-138103000D01*
X253309998Y-138100000D01*
X253309998Y-137220000D01*
X253309998Y-137217000D01*
X253309998Y-137215000D01*
X253310998Y-137212000D01*
X253310998Y-137210000D01*
X253311998Y-137207000D01*
X253311998Y-137205000D01*
X253312998Y-137202000D01*
X253313998Y-137200000D01*
X253314998Y-137197000D01*
X253316998Y-137195000D01*
X253317998Y-137193000D01*
X253319998Y-137191000D01*
X253320998Y-137189000D01*
X253322998Y-137187000D01*
X253324998Y-137185000D01*
X253326998Y-137183000D01*
X253328998Y-137181000D01*
X253330998Y-137180000D01*
X253332998Y-137178000D01*
X253334998Y-137177000D01*
X253336998Y-137175000D01*
X253339998Y-137174000D01*
X253341998Y-137173000D01*
X253344998Y-137172000D01*
X253346998Y-137172000D01*
X253349998Y-137171000D01*
X253351998Y-137171000D01*
X253354998Y-137170000D01*
X253356998Y-137170000D01*
X253359998Y-137170000D01*
X254299998Y-137170000D01*
X254302998Y-137170000D01*
X254304998Y-137170000D01*
X254307998Y-137171000D01*
G36*
X254307998Y-137171000D02*
G01*
X254309998Y-137171000D01*
X254312998Y-137172000D01*
X254314998Y-137172000D01*
X254317998Y-137173000D01*
X254319998Y-137174000D01*
X254322998Y-137175000D01*
X254324998Y-137177000D01*
X254326998Y-137178000D01*
X254328998Y-137180000D01*
X254330998Y-137181000D01*
X254332998Y-137183000D01*
X254334998Y-137185000D01*
X254336998Y-137187000D01*
X254338998Y-137189000D01*
X254339998Y-137191000D01*
X254341998Y-137193000D01*
X254342998Y-137195000D01*
X254344998Y-137197000D01*
X254345998Y-137200000D01*
X254346998Y-137202000D01*
X254347998Y-137205000D01*
X254347998Y-137207000D01*
X254348998Y-137210000D01*
X254348998Y-137212000D01*
X254349998Y-137215000D01*
X254349998Y-137217000D01*
X254349998Y-137220000D01*
X254349998Y-138100000D01*
X254349998Y-138103000D01*
X254349998Y-138105000D01*
X254348998Y-138108000D01*
X254348998Y-138110000D01*
X254347998Y-138113000D01*
X254347998Y-138115000D01*
X254346998Y-138118000D01*
X254345998Y-138120000D01*
X254344998Y-138123000D01*
X254342998Y-138125000D01*
X254341998Y-138127000D01*
X254339998Y-138129000D01*
X254338998Y-138131000D01*
X254336998Y-138133000D01*
X254334998Y-138135000D01*
X254332998Y-138137000D01*
X254330998Y-138139000D01*
X254328998Y-138140000D01*
X254326998Y-138142000D01*
X254324998Y-138143000D01*
X254322998Y-138145000D01*
X254319998Y-138146000D01*
X254317998Y-138147000D01*
X254314998Y-138148000D01*
X254312998Y-138148000D01*
X254309998Y-138149000D01*
X254307998Y-138149000D01*
X254304998Y-138150000D01*
X254302998Y-138150000D01*
X254299998Y-138150000D01*
X253359998Y-138150000D01*
X253356998Y-138150000D01*
X253354998Y-138150000D01*
X253351998Y-138149000D01*
X253349998Y-138149000D01*
X253346998Y-138148000D01*
X253344998Y-138148000D01*
X253341998Y-138147000D01*
X253339998Y-138146000D01*
X253336998Y-138145000D01*
X253334998Y-138143000D01*
X253332998Y-138142000D01*
X253330998Y-138140000D01*
X253328998Y-138139000D01*
X253326998Y-138137000D01*
X253324998Y-138135000D01*
X253322998Y-138133000D01*
X253320998Y-138131000D01*
X253319998Y-138129000D01*
X253317998Y-138127000D01*
X253316998Y-138125000D01*
X253314998Y-138123000D01*
X253313998Y-138120000D01*
X253312998Y-138118000D01*
X253311998Y-138115000D01*
X253311998Y-138113000D01*
X253310998Y-138110000D01*
X253310998Y-138108000D01*
X253309998Y-138105000D01*
X253309998Y-138103000D01*
X253309998Y-138100000D01*
X253309998Y-137220000D01*
X253309998Y-137217000D01*
X253309998Y-137215000D01*
X253310998Y-137212000D01*
X253310998Y-137210000D01*
X253311998Y-137207000D01*
X253311998Y-137205000D01*
X253312998Y-137202000D01*
X253313998Y-137200000D01*
X253314998Y-137197000D01*
X253316998Y-137195000D01*
X253317998Y-137193000D01*
X253319998Y-137191000D01*
X253320998Y-137189000D01*
X253322998Y-137187000D01*
X253324998Y-137185000D01*
X253326998Y-137183000D01*
X253328998Y-137181000D01*
X253330998Y-137180000D01*
X253332998Y-137178000D01*
X253334998Y-137177000D01*
X253336998Y-137175000D01*
X253339998Y-137174000D01*
X253341998Y-137173000D01*
X253344998Y-137172000D01*
X253346998Y-137172000D01*
X253349998Y-137171000D01*
X253351998Y-137171000D01*
X253354998Y-137170000D01*
X253356998Y-137170000D01*
X253359998Y-137170000D01*
X254299998Y-137170000D01*
X254302998Y-137170000D01*
X254304998Y-137170000D01*
X254307998Y-137171000D01*
G37*
X254307998Y-138351000D02*
X254309998Y-138351000D01*
X254312998Y-138352000D01*
X254314998Y-138352000D01*
X254317998Y-138353000D01*
X254319998Y-138354000D01*
X254322998Y-138355000D01*
X254324998Y-138357000D01*
X254326998Y-138358000D01*
X254328998Y-138360000D01*
X254330998Y-138361000D01*
X254332998Y-138363000D01*
X254334998Y-138365000D01*
X254336998Y-138367000D01*
X254338998Y-138369000D01*
X254339998Y-138371000D01*
X254341998Y-138373000D01*
X254342998Y-138375000D01*
X254344998Y-138377000D01*
X254345998Y-138380000D01*
X254346998Y-138382000D01*
X254347998Y-138385000D01*
X254347998Y-138387000D01*
X254348998Y-138390000D01*
X254348998Y-138392000D01*
X254349998Y-138395000D01*
X254349998Y-138397000D01*
X254349998Y-138400000D01*
X254349998Y-139280000D01*
X254349998Y-139283000D01*
X254349998Y-139285000D01*
X254348998Y-139288000D01*
X254348998Y-139290000D01*
X254347998Y-139293000D01*
X254347998Y-139295000D01*
X254346998Y-139298000D01*
X254345998Y-139300000D01*
X254344998Y-139303000D01*
X254342998Y-139305000D01*
X254341998Y-139307000D01*
X254339998Y-139309000D01*
X254338998Y-139311000D01*
X254336998Y-139313000D01*
X254334998Y-139315000D01*
X254332998Y-139317000D01*
X254330998Y-139319000D01*
X254328998Y-139320000D01*
X254326998Y-139322000D01*
X254324998Y-139323000D01*
X254322998Y-139325000D01*
X254319998Y-139326000D01*
X254317998Y-139327000D01*
X254314998Y-139328000D01*
X254312998Y-139328000D01*
X254309998Y-139329000D01*
X254307998Y-139329000D01*
X254304998Y-139330000D01*
X254302998Y-139330000D01*
X254299998Y-139330000D01*
X253359998Y-139330000D01*
X253356998Y-139330000D01*
X253354998Y-139330000D01*
X253351998Y-139329000D01*
X253349998Y-139329000D01*
X253346998Y-139328000D01*
X253344998Y-139328000D01*
X253341998Y-139327000D01*
X253339998Y-139326000D01*
X253336998Y-139325000D01*
X253334998Y-139323000D01*
X253332998Y-139322000D01*
X253330998Y-139320000D01*
X253328998Y-139319000D01*
X253326998Y-139317000D01*
X253324998Y-139315000D01*
X253322998Y-139313000D01*
X253320998Y-139311000D01*
X253319998Y-139309000D01*
X253317998Y-139307000D01*
X253316998Y-139305000D01*
X253314998Y-139303000D01*
X253313998Y-139300000D01*
X253312998Y-139298000D01*
X253311998Y-139295000D01*
X253311998Y-139293000D01*
X253310998Y-139290000D01*
X253310998Y-139288000D01*
X253309998Y-139285000D01*
X253309998Y-139283000D01*
X253309998Y-139280000D01*
X253309998Y-138400000D01*
X253309998Y-138397000D01*
X253309998Y-138395000D01*
X253310998Y-138392000D01*
X253310998Y-138390000D01*
X253311998Y-138387000D01*
X253311998Y-138385000D01*
X253312998Y-138382000D01*
X253313998Y-138380000D01*
X253314998Y-138377000D01*
X253316998Y-138375000D01*
X253317998Y-138373000D01*
X253319998Y-138371000D01*
X253320998Y-138369000D01*
X253322998Y-138367000D01*
X253324998Y-138365000D01*
X253326998Y-138363000D01*
X253328998Y-138361000D01*
X253330998Y-138360000D01*
X253332998Y-138358000D01*
X253334998Y-138357000D01*
X253336998Y-138355000D01*
X253339998Y-138354000D01*
X253341998Y-138353000D01*
X253344998Y-138352000D01*
X253346998Y-138352000D01*
X253349998Y-138351000D01*
X253351998Y-138351000D01*
X253354998Y-138350000D01*
X253356998Y-138350000D01*
X253359998Y-138350000D01*
X254299998Y-138350000D01*
X254302998Y-138350000D01*
X254304998Y-138350000D01*
X254307998Y-138351000D01*
G36*
X254307998Y-138351000D02*
G01*
X254309998Y-138351000D01*
X254312998Y-138352000D01*
X254314998Y-138352000D01*
X254317998Y-138353000D01*
X254319998Y-138354000D01*
X254322998Y-138355000D01*
X254324998Y-138357000D01*
X254326998Y-138358000D01*
X254328998Y-138360000D01*
X254330998Y-138361000D01*
X254332998Y-138363000D01*
X254334998Y-138365000D01*
X254336998Y-138367000D01*
X254338998Y-138369000D01*
X254339998Y-138371000D01*
X254341998Y-138373000D01*
X254342998Y-138375000D01*
X254344998Y-138377000D01*
X254345998Y-138380000D01*
X254346998Y-138382000D01*
X254347998Y-138385000D01*
X254347998Y-138387000D01*
X254348998Y-138390000D01*
X254348998Y-138392000D01*
X254349998Y-138395000D01*
X254349998Y-138397000D01*
X254349998Y-138400000D01*
X254349998Y-139280000D01*
X254349998Y-139283000D01*
X254349998Y-139285000D01*
X254348998Y-139288000D01*
X254348998Y-139290000D01*
X254347998Y-139293000D01*
X254347998Y-139295000D01*
X254346998Y-139298000D01*
X254345998Y-139300000D01*
X254344998Y-139303000D01*
X254342998Y-139305000D01*
X254341998Y-139307000D01*
X254339998Y-139309000D01*
X254338998Y-139311000D01*
X254336998Y-139313000D01*
X254334998Y-139315000D01*
X254332998Y-139317000D01*
X254330998Y-139319000D01*
X254328998Y-139320000D01*
X254326998Y-139322000D01*
X254324998Y-139323000D01*
X254322998Y-139325000D01*
X254319998Y-139326000D01*
X254317998Y-139327000D01*
X254314998Y-139328000D01*
X254312998Y-139328000D01*
X254309998Y-139329000D01*
X254307998Y-139329000D01*
X254304998Y-139330000D01*
X254302998Y-139330000D01*
X254299998Y-139330000D01*
X253359998Y-139330000D01*
X253356998Y-139330000D01*
X253354998Y-139330000D01*
X253351998Y-139329000D01*
X253349998Y-139329000D01*
X253346998Y-139328000D01*
X253344998Y-139328000D01*
X253341998Y-139327000D01*
X253339998Y-139326000D01*
X253336998Y-139325000D01*
X253334998Y-139323000D01*
X253332998Y-139322000D01*
X253330998Y-139320000D01*
X253328998Y-139319000D01*
X253326998Y-139317000D01*
X253324998Y-139315000D01*
X253322998Y-139313000D01*
X253320998Y-139311000D01*
X253319998Y-139309000D01*
X253317998Y-139307000D01*
X253316998Y-139305000D01*
X253314998Y-139303000D01*
X253313998Y-139300000D01*
X253312998Y-139298000D01*
X253311998Y-139295000D01*
X253311998Y-139293000D01*
X253310998Y-139290000D01*
X253310998Y-139288000D01*
X253309998Y-139285000D01*
X253309998Y-139283000D01*
X253309998Y-139280000D01*
X253309998Y-138400000D01*
X253309998Y-138397000D01*
X253309998Y-138395000D01*
X253310998Y-138392000D01*
X253310998Y-138390000D01*
X253311998Y-138387000D01*
X253311998Y-138385000D01*
X253312998Y-138382000D01*
X253313998Y-138380000D01*
X253314998Y-138377000D01*
X253316998Y-138375000D01*
X253317998Y-138373000D01*
X253319998Y-138371000D01*
X253320998Y-138369000D01*
X253322998Y-138367000D01*
X253324998Y-138365000D01*
X253326998Y-138363000D01*
X253328998Y-138361000D01*
X253330998Y-138360000D01*
X253332998Y-138358000D01*
X253334998Y-138357000D01*
X253336998Y-138355000D01*
X253339998Y-138354000D01*
X253341998Y-138353000D01*
X253344998Y-138352000D01*
X253346998Y-138352000D01*
X253349998Y-138351000D01*
X253351998Y-138351000D01*
X253354998Y-138350000D01*
X253356998Y-138350000D01*
X253359998Y-138350000D01*
X254299998Y-138350000D01*
X254302998Y-138350000D01*
X254304998Y-138350000D01*
X254307998Y-138351000D01*
G37*
X254307998Y-139531000D02*
X254309998Y-139531000D01*
X254312998Y-139532000D01*
X254314998Y-139532000D01*
X254317998Y-139533000D01*
X254319998Y-139534000D01*
X254322998Y-139535000D01*
X254324998Y-139537000D01*
X254326998Y-139538000D01*
X254328998Y-139540000D01*
X254330998Y-139541000D01*
X254332998Y-139543000D01*
X254334998Y-139545000D01*
X254336998Y-139547000D01*
X254338998Y-139549000D01*
X254339998Y-139551000D01*
X254341998Y-139553000D01*
X254342998Y-139555000D01*
X254344998Y-139557000D01*
X254345998Y-139560000D01*
X254346998Y-139562000D01*
X254347998Y-139565000D01*
X254347998Y-139567000D01*
X254348998Y-139570000D01*
X254348998Y-139572000D01*
X254349998Y-139575000D01*
X254349998Y-139577000D01*
X254349998Y-139580000D01*
X254349998Y-140460000D01*
X254349998Y-140463000D01*
X254349998Y-140465000D01*
X254348998Y-140468000D01*
X254348998Y-140470000D01*
X254347998Y-140473000D01*
X254347998Y-140475000D01*
X254346998Y-140478000D01*
X254345998Y-140480000D01*
X254344998Y-140483000D01*
X254342998Y-140485000D01*
X254341998Y-140487000D01*
X254339998Y-140489000D01*
X254338998Y-140491000D01*
X254336998Y-140493000D01*
X254334998Y-140495000D01*
X254332998Y-140497000D01*
X254330998Y-140499000D01*
X254328998Y-140500000D01*
X254326998Y-140502000D01*
X254324998Y-140503000D01*
X254322998Y-140505000D01*
X254319998Y-140506000D01*
X254317998Y-140507000D01*
X254314998Y-140508000D01*
X254312998Y-140508000D01*
X254309998Y-140509000D01*
X254307998Y-140509000D01*
X254304998Y-140510000D01*
X254302998Y-140510000D01*
X254299998Y-140510000D01*
X253359998Y-140510000D01*
X253356998Y-140510000D01*
X253354998Y-140510000D01*
X253351998Y-140509000D01*
X253349998Y-140509000D01*
X253346998Y-140508000D01*
X253344998Y-140508000D01*
X253341998Y-140507000D01*
X253339998Y-140506000D01*
X253336998Y-140505000D01*
X253334998Y-140503000D01*
X253332998Y-140502000D01*
X253330998Y-140500000D01*
X253328998Y-140499000D01*
X253326998Y-140497000D01*
X253324998Y-140495000D01*
X253322998Y-140493000D01*
X253320998Y-140491000D01*
X253319998Y-140489000D01*
X253317998Y-140487000D01*
X253316998Y-140485000D01*
X253314998Y-140483000D01*
X253313998Y-140480000D01*
X253312998Y-140478000D01*
X253311998Y-140475000D01*
X253311998Y-140473000D01*
X253310998Y-140470000D01*
X253310998Y-140468000D01*
X253309998Y-140465000D01*
X253309998Y-140463000D01*
X253309998Y-140460000D01*
X253309998Y-139580000D01*
X253309998Y-139577000D01*
X253309998Y-139575000D01*
X253310998Y-139572000D01*
X253310998Y-139570000D01*
X253311998Y-139567000D01*
X253311998Y-139565000D01*
X253312998Y-139562000D01*
X253313998Y-139560000D01*
X253314998Y-139557000D01*
X253316998Y-139555000D01*
X253317998Y-139553000D01*
X253319998Y-139551000D01*
X253320998Y-139549000D01*
X253322998Y-139547000D01*
X253324998Y-139545000D01*
X253326998Y-139543000D01*
X253328998Y-139541000D01*
X253330998Y-139540000D01*
X253332998Y-139538000D01*
X253334998Y-139537000D01*
X253336998Y-139535000D01*
X253339998Y-139534000D01*
X253341998Y-139533000D01*
X253344998Y-139532000D01*
X253346998Y-139532000D01*
X253349998Y-139531000D01*
X253351998Y-139531000D01*
X253354998Y-139530000D01*
X253356998Y-139530000D01*
X253359998Y-139530000D01*
X254299998Y-139530000D01*
X254302998Y-139530000D01*
X254304998Y-139530000D01*
X254307998Y-139531000D01*
G36*
X254307998Y-139531000D02*
G01*
X254309998Y-139531000D01*
X254312998Y-139532000D01*
X254314998Y-139532000D01*
X254317998Y-139533000D01*
X254319998Y-139534000D01*
X254322998Y-139535000D01*
X254324998Y-139537000D01*
X254326998Y-139538000D01*
X254328998Y-139540000D01*
X254330998Y-139541000D01*
X254332998Y-139543000D01*
X254334998Y-139545000D01*
X254336998Y-139547000D01*
X254338998Y-139549000D01*
X254339998Y-139551000D01*
X254341998Y-139553000D01*
X254342998Y-139555000D01*
X254344998Y-139557000D01*
X254345998Y-139560000D01*
X254346998Y-139562000D01*
X254347998Y-139565000D01*
X254347998Y-139567000D01*
X254348998Y-139570000D01*
X254348998Y-139572000D01*
X254349998Y-139575000D01*
X254349998Y-139577000D01*
X254349998Y-139580000D01*
X254349998Y-140460000D01*
X254349998Y-140463000D01*
X254349998Y-140465000D01*
X254348998Y-140468000D01*
X254348998Y-140470000D01*
X254347998Y-140473000D01*
X254347998Y-140475000D01*
X254346998Y-140478000D01*
X254345998Y-140480000D01*
X254344998Y-140483000D01*
X254342998Y-140485000D01*
X254341998Y-140487000D01*
X254339998Y-140489000D01*
X254338998Y-140491000D01*
X254336998Y-140493000D01*
X254334998Y-140495000D01*
X254332998Y-140497000D01*
X254330998Y-140499000D01*
X254328998Y-140500000D01*
X254326998Y-140502000D01*
X254324998Y-140503000D01*
X254322998Y-140505000D01*
X254319998Y-140506000D01*
X254317998Y-140507000D01*
X254314998Y-140508000D01*
X254312998Y-140508000D01*
X254309998Y-140509000D01*
X254307998Y-140509000D01*
X254304998Y-140510000D01*
X254302998Y-140510000D01*
X254299998Y-140510000D01*
X253359998Y-140510000D01*
X253356998Y-140510000D01*
X253354998Y-140510000D01*
X253351998Y-140509000D01*
X253349998Y-140509000D01*
X253346998Y-140508000D01*
X253344998Y-140508000D01*
X253341998Y-140507000D01*
X253339998Y-140506000D01*
X253336998Y-140505000D01*
X253334998Y-140503000D01*
X253332998Y-140502000D01*
X253330998Y-140500000D01*
X253328998Y-140499000D01*
X253326998Y-140497000D01*
X253324998Y-140495000D01*
X253322998Y-140493000D01*
X253320998Y-140491000D01*
X253319998Y-140489000D01*
X253317998Y-140487000D01*
X253316998Y-140485000D01*
X253314998Y-140483000D01*
X253313998Y-140480000D01*
X253312998Y-140478000D01*
X253311998Y-140475000D01*
X253311998Y-140473000D01*
X253310998Y-140470000D01*
X253310998Y-140468000D01*
X253309998Y-140465000D01*
X253309998Y-140463000D01*
X253309998Y-140460000D01*
X253309998Y-139580000D01*
X253309998Y-139577000D01*
X253309998Y-139575000D01*
X253310998Y-139572000D01*
X253310998Y-139570000D01*
X253311998Y-139567000D01*
X253311998Y-139565000D01*
X253312998Y-139562000D01*
X253313998Y-139560000D01*
X253314998Y-139557000D01*
X253316998Y-139555000D01*
X253317998Y-139553000D01*
X253319998Y-139551000D01*
X253320998Y-139549000D01*
X253322998Y-139547000D01*
X253324998Y-139545000D01*
X253326998Y-139543000D01*
X253328998Y-139541000D01*
X253330998Y-139540000D01*
X253332998Y-139538000D01*
X253334998Y-139537000D01*
X253336998Y-139535000D01*
X253339998Y-139534000D01*
X253341998Y-139533000D01*
X253344998Y-139532000D01*
X253346998Y-139532000D01*
X253349998Y-139531000D01*
X253351998Y-139531000D01*
X253354998Y-139530000D01*
X253356998Y-139530000D01*
X253359998Y-139530000D01*
X254299998Y-139530000D01*
X254302998Y-139530000D01*
X254304998Y-139530000D01*
X254307998Y-139531000D01*
G37*
X251342998Y-135641000D02*
X251344998Y-135641000D01*
X251347998Y-135642000D01*
X251349998Y-135642000D01*
X251352998Y-135643000D01*
X251354998Y-135644000D01*
X251357998Y-135645000D01*
X251359998Y-135647000D01*
X251361998Y-135648000D01*
X251363998Y-135650000D01*
X251365998Y-135651000D01*
X251367998Y-135653000D01*
X251369998Y-135655000D01*
X251371998Y-135657000D01*
X251373998Y-135659000D01*
X251374998Y-135661000D01*
X251376998Y-135663000D01*
X251377998Y-135665000D01*
X251379998Y-135667000D01*
X251380998Y-135670000D01*
X251381998Y-135672000D01*
X251382998Y-135675000D01*
X251382998Y-135677000D01*
X251383998Y-135680000D01*
X251383998Y-135682000D01*
X251384998Y-135685000D01*
X251384998Y-135687000D01*
X251384998Y-135690000D01*
X251384998Y-136515000D01*
X251384998Y-136520000D01*
X251383998Y-136525000D01*
X251383998Y-136531000D01*
X251382998Y-136536000D01*
X251381998Y-136541000D01*
X251379998Y-136546000D01*
X251377998Y-136551000D01*
X251375998Y-136556000D01*
X251373998Y-136560000D01*
X251371998Y-136565000D01*
X251368998Y-136569000D01*
X251365998Y-136574000D01*
X251362998Y-136578000D01*
X251358998Y-136582000D01*
X251355998Y-136586000D01*
X251351998Y-136589000D01*
X251347998Y-136593000D01*
X251343998Y-136596000D01*
X251338998Y-136599000D01*
X251334998Y-136602000D01*
X251329998Y-136604000D01*
X251325998Y-136606000D01*
X251320998Y-136608000D01*
X251315998Y-136610000D01*
X251310998Y-136612000D01*
X251305998Y-136613000D01*
X251300998Y-136614000D01*
X251294998Y-136614000D01*
X251289998Y-136615000D01*
X251284998Y-136615000D01*
X250634998Y-136615000D01*
X250631998Y-136615000D01*
X250629998Y-136615000D01*
X250626998Y-136614000D01*
X250624998Y-136614000D01*
X250621998Y-136613000D01*
X250619998Y-136613000D01*
X250616998Y-136612000D01*
X250614998Y-136611000D01*
X250611998Y-136610000D01*
X250609998Y-136608000D01*
X250607998Y-136607000D01*
X250605998Y-136605000D01*
X250603998Y-136604000D01*
X250601998Y-136602000D01*
X250599998Y-136600000D01*
X250597998Y-136598000D01*
X250595998Y-136596000D01*
X250594998Y-136594000D01*
X250592998Y-136592000D01*
X250591998Y-136590000D01*
X250589998Y-136588000D01*
X250588998Y-136585000D01*
X250587998Y-136583000D01*
X250586998Y-136580000D01*
X250586998Y-136578000D01*
X250585998Y-136575000D01*
X250585998Y-136573000D01*
X250584998Y-136570000D01*
X250584998Y-136568000D01*
X250584998Y-136565000D01*
X250584998Y-136415000D01*
X250584998Y-136412000D01*
X250584998Y-136410000D01*
X250585998Y-136407000D01*
X250585998Y-136405000D01*
X250586998Y-136402000D01*
X250586998Y-136400000D01*
X250587998Y-136397000D01*
X250588998Y-136395000D01*
X250589998Y-136392000D01*
X250591998Y-136390000D01*
X250592998Y-136388000D01*
X250594998Y-136386000D01*
X250595998Y-136384000D01*
X250597998Y-136382000D01*
X250599998Y-136380000D01*
X250601998Y-136378000D01*
X250603998Y-136376000D01*
X250605998Y-136375000D01*
X250607998Y-136373000D01*
X250609998Y-136372000D01*
X250611998Y-136370000D01*
X250614998Y-136369000D01*
X250616998Y-136368000D01*
X250619998Y-136367000D01*
X250621998Y-136367000D01*
X250624998Y-136366000D01*
X250626998Y-136366000D01*
X250629998Y-136365000D01*
X250631998Y-136365000D01*
X250634998Y-136365000D01*
X251084998Y-136365000D01*
X251087998Y-136365000D01*
X251089998Y-136365000D01*
X251092998Y-136364000D01*
X251094998Y-136364000D01*
X251097998Y-136363000D01*
X251099998Y-136363000D01*
X251102998Y-136362000D01*
X251104998Y-136361000D01*
X251107998Y-136360000D01*
X251109998Y-136358000D01*
X251111998Y-136357000D01*
X251113998Y-136355000D01*
X251115998Y-136354000D01*
X251117998Y-136352000D01*
X251119998Y-136350000D01*
X251121998Y-136348000D01*
X251123998Y-136346000D01*
X251124998Y-136344000D01*
X251126998Y-136342000D01*
X251127998Y-136340000D01*
X251129998Y-136338000D01*
X251130998Y-136335000D01*
X251131998Y-136333000D01*
X251132998Y-136330000D01*
X251132998Y-136328000D01*
X251133998Y-136325000D01*
X251133998Y-136323000D01*
X251134998Y-136320000D01*
X251134998Y-136318000D01*
X251134998Y-136315000D01*
X251134998Y-135690000D01*
X251134998Y-135687000D01*
X251134998Y-135685000D01*
X251135998Y-135682000D01*
X251135998Y-135680000D01*
X251136998Y-135677000D01*
X251136998Y-135675000D01*
X251137998Y-135672000D01*
X251138998Y-135670000D01*
X251139998Y-135667000D01*
X251141998Y-135665000D01*
X251142998Y-135663000D01*
X251144998Y-135661000D01*
X251145998Y-135659000D01*
X251147998Y-135657000D01*
X251149998Y-135655000D01*
X251151998Y-135653000D01*
X251153998Y-135651000D01*
X251155998Y-135650000D01*
X251157998Y-135648000D01*
X251159998Y-135647000D01*
X251161998Y-135645000D01*
X251164998Y-135644000D01*
X251166998Y-135643000D01*
X251169998Y-135642000D01*
X251171998Y-135642000D01*
X251174998Y-135641000D01*
X251176998Y-135641000D01*
X251179998Y-135640000D01*
X251181998Y-135640000D01*
X251184998Y-135640000D01*
X251334998Y-135640000D01*
X251337998Y-135640000D01*
X251339998Y-135640000D01*
X251342998Y-135641000D01*
G36*
X251342998Y-135641000D02*
G01*
X251344998Y-135641000D01*
X251347998Y-135642000D01*
X251349998Y-135642000D01*
X251352998Y-135643000D01*
X251354998Y-135644000D01*
X251357998Y-135645000D01*
X251359998Y-135647000D01*
X251361998Y-135648000D01*
X251363998Y-135650000D01*
X251365998Y-135651000D01*
X251367998Y-135653000D01*
X251369998Y-135655000D01*
X251371998Y-135657000D01*
X251373998Y-135659000D01*
X251374998Y-135661000D01*
X251376998Y-135663000D01*
X251377998Y-135665000D01*
X251379998Y-135667000D01*
X251380998Y-135670000D01*
X251381998Y-135672000D01*
X251382998Y-135675000D01*
X251382998Y-135677000D01*
X251383998Y-135680000D01*
X251383998Y-135682000D01*
X251384998Y-135685000D01*
X251384998Y-135687000D01*
X251384998Y-135690000D01*
X251384998Y-136515000D01*
X251384998Y-136520000D01*
X251383998Y-136525000D01*
X251383998Y-136531000D01*
X251382998Y-136536000D01*
X251381998Y-136541000D01*
X251379998Y-136546000D01*
X251377998Y-136551000D01*
X251375998Y-136556000D01*
X251373998Y-136560000D01*
X251371998Y-136565000D01*
X251368998Y-136569000D01*
X251365998Y-136574000D01*
X251362998Y-136578000D01*
X251358998Y-136582000D01*
X251355998Y-136586000D01*
X251351998Y-136589000D01*
X251347998Y-136593000D01*
X251343998Y-136596000D01*
X251338998Y-136599000D01*
X251334998Y-136602000D01*
X251329998Y-136604000D01*
X251325998Y-136606000D01*
X251320998Y-136608000D01*
X251315998Y-136610000D01*
X251310998Y-136612000D01*
X251305998Y-136613000D01*
X251300998Y-136614000D01*
X251294998Y-136614000D01*
X251289998Y-136615000D01*
X251284998Y-136615000D01*
X250634998Y-136615000D01*
X250631998Y-136615000D01*
X250629998Y-136615000D01*
X250626998Y-136614000D01*
X250624998Y-136614000D01*
X250621998Y-136613000D01*
X250619998Y-136613000D01*
X250616998Y-136612000D01*
X250614998Y-136611000D01*
X250611998Y-136610000D01*
X250609998Y-136608000D01*
X250607998Y-136607000D01*
X250605998Y-136605000D01*
X250603998Y-136604000D01*
X250601998Y-136602000D01*
X250599998Y-136600000D01*
X250597998Y-136598000D01*
X250595998Y-136596000D01*
X250594998Y-136594000D01*
X250592998Y-136592000D01*
X250591998Y-136590000D01*
X250589998Y-136588000D01*
X250588998Y-136585000D01*
X250587998Y-136583000D01*
X250586998Y-136580000D01*
X250586998Y-136578000D01*
X250585998Y-136575000D01*
X250585998Y-136573000D01*
X250584998Y-136570000D01*
X250584998Y-136568000D01*
X250584998Y-136565000D01*
X250584998Y-136415000D01*
X250584998Y-136412000D01*
X250584998Y-136410000D01*
X250585998Y-136407000D01*
X250585998Y-136405000D01*
X250586998Y-136402000D01*
X250586998Y-136400000D01*
X250587998Y-136397000D01*
X250588998Y-136395000D01*
X250589998Y-136392000D01*
X250591998Y-136390000D01*
X250592998Y-136388000D01*
X250594998Y-136386000D01*
X250595998Y-136384000D01*
X250597998Y-136382000D01*
X250599998Y-136380000D01*
X250601998Y-136378000D01*
X250603998Y-136376000D01*
X250605998Y-136375000D01*
X250607998Y-136373000D01*
X250609998Y-136372000D01*
X250611998Y-136370000D01*
X250614998Y-136369000D01*
X250616998Y-136368000D01*
X250619998Y-136367000D01*
X250621998Y-136367000D01*
X250624998Y-136366000D01*
X250626998Y-136366000D01*
X250629998Y-136365000D01*
X250631998Y-136365000D01*
X250634998Y-136365000D01*
X251084998Y-136365000D01*
X251087998Y-136365000D01*
X251089998Y-136365000D01*
X251092998Y-136364000D01*
X251094998Y-136364000D01*
X251097998Y-136363000D01*
X251099998Y-136363000D01*
X251102998Y-136362000D01*
X251104998Y-136361000D01*
X251107998Y-136360000D01*
X251109998Y-136358000D01*
X251111998Y-136357000D01*
X251113998Y-136355000D01*
X251115998Y-136354000D01*
X251117998Y-136352000D01*
X251119998Y-136350000D01*
X251121998Y-136348000D01*
X251123998Y-136346000D01*
X251124998Y-136344000D01*
X251126998Y-136342000D01*
X251127998Y-136340000D01*
X251129998Y-136338000D01*
X251130998Y-136335000D01*
X251131998Y-136333000D01*
X251132998Y-136330000D01*
X251132998Y-136328000D01*
X251133998Y-136325000D01*
X251133998Y-136323000D01*
X251134998Y-136320000D01*
X251134998Y-136318000D01*
X251134998Y-136315000D01*
X251134998Y-135690000D01*
X251134998Y-135687000D01*
X251134998Y-135685000D01*
X251135998Y-135682000D01*
X251135998Y-135680000D01*
X251136998Y-135677000D01*
X251136998Y-135675000D01*
X251137998Y-135672000D01*
X251138998Y-135670000D01*
X251139998Y-135667000D01*
X251141998Y-135665000D01*
X251142998Y-135663000D01*
X251144998Y-135661000D01*
X251145998Y-135659000D01*
X251147998Y-135657000D01*
X251149998Y-135655000D01*
X251151998Y-135653000D01*
X251153998Y-135651000D01*
X251155998Y-135650000D01*
X251157998Y-135648000D01*
X251159998Y-135647000D01*
X251161998Y-135645000D01*
X251164998Y-135644000D01*
X251166998Y-135643000D01*
X251169998Y-135642000D01*
X251171998Y-135642000D01*
X251174998Y-135641000D01*
X251176998Y-135641000D01*
X251179998Y-135640000D01*
X251181998Y-135640000D01*
X251184998Y-135640000D01*
X251334998Y-135640000D01*
X251337998Y-135640000D01*
X251339998Y-135640000D01*
X251342998Y-135641000D01*
G37*
X255942998Y-141341000D02*
X255944998Y-141341000D01*
X255947998Y-141342000D01*
X255949998Y-141342000D01*
X255952998Y-141343000D01*
X255954998Y-141344000D01*
X255957998Y-141345000D01*
X255959998Y-141347000D01*
X255961998Y-141348000D01*
X255963998Y-141350000D01*
X255965998Y-141351000D01*
X255967998Y-141353000D01*
X255969998Y-141355000D01*
X255971998Y-141357000D01*
X255973998Y-141359000D01*
X255974998Y-141361000D01*
X255976998Y-141363000D01*
X255977998Y-141365000D01*
X255979998Y-141367000D01*
X255980998Y-141370000D01*
X255981998Y-141372000D01*
X255982998Y-141375000D01*
X255982998Y-141377000D01*
X255983998Y-141380000D01*
X255983998Y-141382000D01*
X255984998Y-141385000D01*
X255984998Y-141387000D01*
X255984998Y-141390000D01*
X255984998Y-141590000D01*
X255984998Y-141593000D01*
X255984998Y-141595000D01*
X255983998Y-141598000D01*
X255983998Y-141600000D01*
X255982998Y-141603000D01*
X255982998Y-141605000D01*
X255981998Y-141608000D01*
X255980998Y-141610000D01*
X255979998Y-141613000D01*
X255977998Y-141615000D01*
X255976998Y-141617000D01*
X255974998Y-141619000D01*
X255973998Y-141621000D01*
X255971998Y-141623000D01*
X255969998Y-141625000D01*
X255967998Y-141627000D01*
X255965998Y-141629000D01*
X255963998Y-141630000D01*
X255961998Y-141632000D01*
X255959998Y-141633000D01*
X255957998Y-141635000D01*
X255954998Y-141636000D01*
X255952998Y-141637000D01*
X255949998Y-141638000D01*
X255947998Y-141638000D01*
X255944998Y-141639000D01*
X255942998Y-141639000D01*
X255939998Y-141640000D01*
X255937998Y-141640000D01*
X255934998Y-141640000D01*
X255484998Y-141640000D01*
X255481998Y-141640000D01*
X255479998Y-141640000D01*
X255476998Y-141641000D01*
X255474998Y-141641000D01*
X255471998Y-141642000D01*
X255469998Y-141642000D01*
X255466998Y-141643000D01*
X255464998Y-141644000D01*
X255461998Y-141645000D01*
X255459998Y-141647000D01*
X255457998Y-141648000D01*
X255455998Y-141650000D01*
X255453998Y-141651000D01*
X255451998Y-141653000D01*
X255449998Y-141655000D01*
X255447998Y-141657000D01*
X255445998Y-141659000D01*
X255444998Y-141661000D01*
X255442998Y-141663000D01*
X255441998Y-141665000D01*
X255439998Y-141667000D01*
X255438998Y-141670000D01*
X255437998Y-141672000D01*
X255436998Y-141675000D01*
X255436998Y-141677000D01*
X255435998Y-141680000D01*
X255435998Y-141682000D01*
X255434998Y-141685000D01*
X255434998Y-141687000D01*
X255434998Y-141690000D01*
X255434998Y-141990000D01*
X255434998Y-141993000D01*
X255434998Y-141995000D01*
X255433998Y-141998000D01*
X255433998Y-142000000D01*
X255432998Y-142003000D01*
X255432998Y-142005000D01*
X255431998Y-142008000D01*
X255430998Y-142010000D01*
X255429998Y-142013000D01*
X255427998Y-142015000D01*
X255426998Y-142017000D01*
X255424998Y-142019000D01*
X255423998Y-142021000D01*
X255421998Y-142023000D01*
X255419998Y-142025000D01*
X255417998Y-142027000D01*
X255415998Y-142029000D01*
X255413998Y-142030000D01*
X255411998Y-142032000D01*
X255409998Y-142033000D01*
X255407998Y-142035000D01*
X255404998Y-142036000D01*
X255402998Y-142037000D01*
X255399998Y-142038000D01*
X255397998Y-142038000D01*
X255394998Y-142039000D01*
X255392998Y-142039000D01*
X255389998Y-142040000D01*
X255387998Y-142040000D01*
X255384998Y-142040000D01*
X255184998Y-142040000D01*
X255181998Y-142040000D01*
X255179998Y-142040000D01*
X255176998Y-142039000D01*
X255174998Y-142039000D01*
X255171998Y-142038000D01*
X255169998Y-142038000D01*
X255166998Y-142037000D01*
X255164998Y-142036000D01*
X255161998Y-142035000D01*
X255159998Y-142033000D01*
X255157998Y-142032000D01*
X255155998Y-142030000D01*
X255153998Y-142029000D01*
X255151998Y-142027000D01*
X255149998Y-142025000D01*
X255147998Y-142023000D01*
X255145998Y-142021000D01*
X255144998Y-142019000D01*
X255142998Y-142017000D01*
X255141998Y-142015000D01*
X255139998Y-142013000D01*
X255138998Y-142010000D01*
X255137998Y-142008000D01*
X255136998Y-142005000D01*
X255136998Y-142003000D01*
X255135998Y-142000000D01*
X255135998Y-141998000D01*
X255134998Y-141995000D01*
X255134998Y-141993000D01*
X255134998Y-141990000D01*
X255134998Y-141390000D01*
X255134998Y-141387000D01*
X255134998Y-141385000D01*
X255135998Y-141382000D01*
X255135998Y-141380000D01*
X255136998Y-141377000D01*
X255136998Y-141375000D01*
X255137998Y-141372000D01*
X255138998Y-141370000D01*
X255139998Y-141367000D01*
X255141998Y-141365000D01*
X255142998Y-141363000D01*
X255144998Y-141361000D01*
X255145998Y-141359000D01*
X255147998Y-141357000D01*
X255149998Y-141355000D01*
X255151998Y-141353000D01*
X255153998Y-141351000D01*
X255155998Y-141350000D01*
X255157998Y-141348000D01*
X255159998Y-141347000D01*
X255161998Y-141345000D01*
X255164998Y-141344000D01*
X255166998Y-141343000D01*
X255169998Y-141342000D01*
X255171998Y-141342000D01*
X255174998Y-141341000D01*
X255176998Y-141341000D01*
X255179998Y-141340000D01*
X255181998Y-141340000D01*
X255184998Y-141340000D01*
X255934998Y-141340000D01*
X255937998Y-141340000D01*
X255939998Y-141340000D01*
X255942998Y-141341000D01*
G36*
X255942998Y-141341000D02*
G01*
X255944998Y-141341000D01*
X255947998Y-141342000D01*
X255949998Y-141342000D01*
X255952998Y-141343000D01*
X255954998Y-141344000D01*
X255957998Y-141345000D01*
X255959998Y-141347000D01*
X255961998Y-141348000D01*
X255963998Y-141350000D01*
X255965998Y-141351000D01*
X255967998Y-141353000D01*
X255969998Y-141355000D01*
X255971998Y-141357000D01*
X255973998Y-141359000D01*
X255974998Y-141361000D01*
X255976998Y-141363000D01*
X255977998Y-141365000D01*
X255979998Y-141367000D01*
X255980998Y-141370000D01*
X255981998Y-141372000D01*
X255982998Y-141375000D01*
X255982998Y-141377000D01*
X255983998Y-141380000D01*
X255983998Y-141382000D01*
X255984998Y-141385000D01*
X255984998Y-141387000D01*
X255984998Y-141390000D01*
X255984998Y-141590000D01*
X255984998Y-141593000D01*
X255984998Y-141595000D01*
X255983998Y-141598000D01*
X255983998Y-141600000D01*
X255982998Y-141603000D01*
X255982998Y-141605000D01*
X255981998Y-141608000D01*
X255980998Y-141610000D01*
X255979998Y-141613000D01*
X255977998Y-141615000D01*
X255976998Y-141617000D01*
X255974998Y-141619000D01*
X255973998Y-141621000D01*
X255971998Y-141623000D01*
X255969998Y-141625000D01*
X255967998Y-141627000D01*
X255965998Y-141629000D01*
X255963998Y-141630000D01*
X255961998Y-141632000D01*
X255959998Y-141633000D01*
X255957998Y-141635000D01*
X255954998Y-141636000D01*
X255952998Y-141637000D01*
X255949998Y-141638000D01*
X255947998Y-141638000D01*
X255944998Y-141639000D01*
X255942998Y-141639000D01*
X255939998Y-141640000D01*
X255937998Y-141640000D01*
X255934998Y-141640000D01*
X255484998Y-141640000D01*
X255481998Y-141640000D01*
X255479998Y-141640000D01*
X255476998Y-141641000D01*
X255474998Y-141641000D01*
X255471998Y-141642000D01*
X255469998Y-141642000D01*
X255466998Y-141643000D01*
X255464998Y-141644000D01*
X255461998Y-141645000D01*
X255459998Y-141647000D01*
X255457998Y-141648000D01*
X255455998Y-141650000D01*
X255453998Y-141651000D01*
X255451998Y-141653000D01*
X255449998Y-141655000D01*
X255447998Y-141657000D01*
X255445998Y-141659000D01*
X255444998Y-141661000D01*
X255442998Y-141663000D01*
X255441998Y-141665000D01*
X255439998Y-141667000D01*
X255438998Y-141670000D01*
X255437998Y-141672000D01*
X255436998Y-141675000D01*
X255436998Y-141677000D01*
X255435998Y-141680000D01*
X255435998Y-141682000D01*
X255434998Y-141685000D01*
X255434998Y-141687000D01*
X255434998Y-141690000D01*
X255434998Y-141990000D01*
X255434998Y-141993000D01*
X255434998Y-141995000D01*
X255433998Y-141998000D01*
X255433998Y-142000000D01*
X255432998Y-142003000D01*
X255432998Y-142005000D01*
X255431998Y-142008000D01*
X255430998Y-142010000D01*
X255429998Y-142013000D01*
X255427998Y-142015000D01*
X255426998Y-142017000D01*
X255424998Y-142019000D01*
X255423998Y-142021000D01*
X255421998Y-142023000D01*
X255419998Y-142025000D01*
X255417998Y-142027000D01*
X255415998Y-142029000D01*
X255413998Y-142030000D01*
X255411998Y-142032000D01*
X255409998Y-142033000D01*
X255407998Y-142035000D01*
X255404998Y-142036000D01*
X255402998Y-142037000D01*
X255399998Y-142038000D01*
X255397998Y-142038000D01*
X255394998Y-142039000D01*
X255392998Y-142039000D01*
X255389998Y-142040000D01*
X255387998Y-142040000D01*
X255384998Y-142040000D01*
X255184998Y-142040000D01*
X255181998Y-142040000D01*
X255179998Y-142040000D01*
X255176998Y-142039000D01*
X255174998Y-142039000D01*
X255171998Y-142038000D01*
X255169998Y-142038000D01*
X255166998Y-142037000D01*
X255164998Y-142036000D01*
X255161998Y-142035000D01*
X255159998Y-142033000D01*
X255157998Y-142032000D01*
X255155998Y-142030000D01*
X255153998Y-142029000D01*
X255151998Y-142027000D01*
X255149998Y-142025000D01*
X255147998Y-142023000D01*
X255145998Y-142021000D01*
X255144998Y-142019000D01*
X255142998Y-142017000D01*
X255141998Y-142015000D01*
X255139998Y-142013000D01*
X255138998Y-142010000D01*
X255137998Y-142008000D01*
X255136998Y-142005000D01*
X255136998Y-142003000D01*
X255135998Y-142000000D01*
X255135998Y-141998000D01*
X255134998Y-141995000D01*
X255134998Y-141993000D01*
X255134998Y-141990000D01*
X255134998Y-141390000D01*
X255134998Y-141387000D01*
X255134998Y-141385000D01*
X255135998Y-141382000D01*
X255135998Y-141380000D01*
X255136998Y-141377000D01*
X255136998Y-141375000D01*
X255137998Y-141372000D01*
X255138998Y-141370000D01*
X255139998Y-141367000D01*
X255141998Y-141365000D01*
X255142998Y-141363000D01*
X255144998Y-141361000D01*
X255145998Y-141359000D01*
X255147998Y-141357000D01*
X255149998Y-141355000D01*
X255151998Y-141353000D01*
X255153998Y-141351000D01*
X255155998Y-141350000D01*
X255157998Y-141348000D01*
X255159998Y-141347000D01*
X255161998Y-141345000D01*
X255164998Y-141344000D01*
X255166998Y-141343000D01*
X255169998Y-141342000D01*
X255171998Y-141342000D01*
X255174998Y-141341000D01*
X255176998Y-141341000D01*
X255179998Y-141340000D01*
X255181998Y-141340000D01*
X255184998Y-141340000D01*
X255934998Y-141340000D01*
X255937998Y-141340000D01*
X255939998Y-141340000D01*
X255942998Y-141341000D01*
G37*
X255492998Y-135641000D02*
X255494998Y-135641000D01*
X255497998Y-135642000D01*
X255499998Y-135642000D01*
X255502998Y-135643000D01*
X255504998Y-135644000D01*
X255507998Y-135645000D01*
X255509998Y-135647000D01*
X255511998Y-135648000D01*
X255513998Y-135650000D01*
X255515998Y-135651000D01*
X255517998Y-135653000D01*
X255519998Y-135655000D01*
X255521998Y-135657000D01*
X255523998Y-135659000D01*
X255524998Y-135661000D01*
X255526998Y-135663000D01*
X255527998Y-135665000D01*
X255529998Y-135667000D01*
X255530998Y-135670000D01*
X255531998Y-135672000D01*
X255532998Y-135675000D01*
X255532998Y-135677000D01*
X255533998Y-135680000D01*
X255533998Y-135682000D01*
X255534998Y-135685000D01*
X255534998Y-135687000D01*
X255534998Y-135690000D01*
X255534998Y-136390000D01*
X255534998Y-136393000D01*
X255534998Y-136395000D01*
X255535998Y-136398000D01*
X255535998Y-136400000D01*
X255536998Y-136403000D01*
X255536998Y-136405000D01*
X255537998Y-136408000D01*
X255538998Y-136410000D01*
X255539998Y-136413000D01*
X255541998Y-136415000D01*
X255542998Y-136417000D01*
X255544998Y-136419000D01*
X255545998Y-136421000D01*
X255547998Y-136423000D01*
X255549998Y-136425000D01*
X255551998Y-136427000D01*
X255553998Y-136429000D01*
X255555998Y-136430000D01*
X255557998Y-136432000D01*
X255559998Y-136433000D01*
X255561998Y-136435000D01*
X255564998Y-136436000D01*
X255566998Y-136437000D01*
X255569998Y-136438000D01*
X255571998Y-136438000D01*
X255574998Y-136439000D01*
X255576998Y-136439000D01*
X255579998Y-136440000D01*
X255581998Y-136440000D01*
X255584998Y-136440000D01*
X255934998Y-136440000D01*
X255937998Y-136440000D01*
X255939998Y-136440000D01*
X255942998Y-136441000D01*
X255944998Y-136441000D01*
X255947998Y-136442000D01*
X255949998Y-136442000D01*
X255952998Y-136443000D01*
X255954998Y-136444000D01*
X255957998Y-136445000D01*
X255959998Y-136447000D01*
X255961998Y-136448000D01*
X255963998Y-136450000D01*
X255965998Y-136451000D01*
X255967998Y-136453000D01*
X255969998Y-136455000D01*
X255971998Y-136457000D01*
X255973998Y-136459000D01*
X255974998Y-136461000D01*
X255976998Y-136463000D01*
X255977998Y-136465000D01*
X255979998Y-136467000D01*
X255980998Y-136470000D01*
X255981998Y-136472000D01*
X255982998Y-136475000D01*
X255982998Y-136477000D01*
X255983998Y-136480000D01*
X255983998Y-136482000D01*
X255984998Y-136485000D01*
X255984998Y-136487000D01*
X255984998Y-136490000D01*
X255984998Y-136640000D01*
X255984998Y-136643000D01*
X255984998Y-136645000D01*
X255983998Y-136648000D01*
X255983998Y-136650000D01*
X255982998Y-136653000D01*
X255982998Y-136655000D01*
X255981998Y-136658000D01*
X255980998Y-136660000D01*
X255979998Y-136663000D01*
X255977998Y-136665000D01*
X255976998Y-136667000D01*
X255974998Y-136669000D01*
X255973998Y-136671000D01*
X255971998Y-136673000D01*
X255969998Y-136675000D01*
X255967998Y-136677000D01*
X255965998Y-136679000D01*
X255963998Y-136680000D01*
X255961998Y-136682000D01*
X255959998Y-136683000D01*
X255957998Y-136685000D01*
X255954998Y-136686000D01*
X255952998Y-136687000D01*
X255949998Y-136688000D01*
X255947998Y-136688000D01*
X255944998Y-136689000D01*
X255942998Y-136689000D01*
X255939998Y-136690000D01*
X255937998Y-136690000D01*
X255934998Y-136690000D01*
X255584998Y-136690000D01*
X255581998Y-136690000D01*
X255579998Y-136690000D01*
X255576998Y-136691000D01*
X255574998Y-136691000D01*
X255571998Y-136692000D01*
X255569998Y-136692000D01*
X255566998Y-136693000D01*
X255564998Y-136694000D01*
X255561998Y-136695000D01*
X255559998Y-136697000D01*
X255557998Y-136698000D01*
X255555998Y-136700000D01*
X255553998Y-136701000D01*
X255551998Y-136703000D01*
X255549998Y-136705000D01*
X255547998Y-136707000D01*
X255545998Y-136709000D01*
X255544998Y-136711000D01*
X255542998Y-136713000D01*
X255541998Y-136715000D01*
X255539998Y-136717000D01*
X255538998Y-136720000D01*
X255537998Y-136722000D01*
X255536998Y-136725000D01*
X255536998Y-136727000D01*
X255535998Y-136730000D01*
X255535998Y-136732000D01*
X255534998Y-136735000D01*
X255534998Y-136737000D01*
X255534998Y-136740000D01*
X255534998Y-136890000D01*
X255534998Y-136893000D01*
X255534998Y-136895000D01*
X255535998Y-136898000D01*
X255535998Y-136900000D01*
X255536998Y-136903000D01*
X255536998Y-136905000D01*
X255537998Y-136908000D01*
X255538998Y-136910000D01*
X255539998Y-136913000D01*
X255541998Y-136915000D01*
X255542998Y-136917000D01*
X255544998Y-136919000D01*
X255545998Y-136921000D01*
X255547998Y-136923000D01*
X255549998Y-136925000D01*
X255551998Y-136927000D01*
X255553998Y-136929000D01*
X255555998Y-136930000D01*
X255557998Y-136932000D01*
X255559998Y-136933000D01*
X255561998Y-136935000D01*
X255564998Y-136936000D01*
X255566998Y-136937000D01*
X255569998Y-136938000D01*
X255571998Y-136938000D01*
X255574998Y-136939000D01*
X255576998Y-136939000D01*
X255579998Y-136940000D01*
X255581998Y-136940000D01*
X255584998Y-136940000D01*
X255934998Y-136940000D01*
X255937998Y-136940000D01*
X255939998Y-136940000D01*
X255942998Y-136941000D01*
X255944998Y-136941000D01*
X255947998Y-136942000D01*
X255949998Y-136942000D01*
X255952998Y-136943000D01*
X255954998Y-136944000D01*
X255957998Y-136945000D01*
X255959998Y-136947000D01*
X255961998Y-136948000D01*
X255963998Y-136950000D01*
X255965998Y-136951000D01*
X255967998Y-136953000D01*
X255969998Y-136955000D01*
X255971998Y-136957000D01*
X255973998Y-136959000D01*
X255974998Y-136961000D01*
X255976998Y-136963000D01*
X255977998Y-136965000D01*
X255979998Y-136967000D01*
X255980998Y-136970000D01*
X255981998Y-136972000D01*
X255982998Y-136975000D01*
X255982998Y-136977000D01*
X255983998Y-136980000D01*
X255983998Y-136982000D01*
X255984998Y-136985000D01*
X255984998Y-136987000D01*
X255984998Y-136990000D01*
X255984998Y-137140000D01*
X255984998Y-137143000D01*
X255984998Y-137145000D01*
X255983998Y-137148000D01*
X255983998Y-137150000D01*
X255982998Y-137153000D01*
X255982998Y-137155000D01*
X255981998Y-137158000D01*
X255980998Y-137160000D01*
X255979998Y-137163000D01*
X255977998Y-137165000D01*
X255976998Y-137167000D01*
X255974998Y-137169000D01*
X255973998Y-137171000D01*
X255971998Y-137173000D01*
X255969998Y-137175000D01*
X255967998Y-137177000D01*
X255965998Y-137179000D01*
X255963998Y-137180000D01*
X255961998Y-137182000D01*
X255959998Y-137183000D01*
X255957998Y-137185000D01*
X255954998Y-137186000D01*
X255952998Y-137187000D01*
X255949998Y-137188000D01*
X255947998Y-137188000D01*
X255944998Y-137189000D01*
X255942998Y-137189000D01*
X255939998Y-137190000D01*
X255937998Y-137190000D01*
X255934998Y-137190000D01*
X255234998Y-137190000D01*
X255229998Y-137190000D01*
X255224998Y-137189000D01*
X255218998Y-137189000D01*
X255213998Y-137188000D01*
X255208998Y-137187000D01*
X255203998Y-137185000D01*
X255198998Y-137183000D01*
X255193998Y-137181000D01*
X255189998Y-137179000D01*
X255184998Y-137177000D01*
X255180998Y-137174000D01*
X255175998Y-137171000D01*
X255171998Y-137168000D01*
X255167998Y-137164000D01*
X255163998Y-137161000D01*
X255160998Y-137157000D01*
X255156998Y-137153000D01*
X255153998Y-137149000D01*
X255150998Y-137144000D01*
X255147998Y-137140000D01*
X255145998Y-137135000D01*
X255143998Y-137131000D01*
X255141998Y-137126000D01*
X255139998Y-137121000D01*
X255137998Y-137116000D01*
X255136998Y-137111000D01*
X255135998Y-137106000D01*
X255135998Y-137100000D01*
X255134998Y-137095000D01*
X255134998Y-137090000D01*
X255134998Y-135690000D01*
X255134998Y-135687000D01*
X255134998Y-135685000D01*
X255135998Y-135682000D01*
X255135998Y-135680000D01*
X255136998Y-135677000D01*
X255136998Y-135675000D01*
X255137998Y-135672000D01*
X255138998Y-135670000D01*
X255139998Y-135667000D01*
X255141998Y-135665000D01*
X255142998Y-135663000D01*
X255144998Y-135661000D01*
X255145998Y-135659000D01*
X255147998Y-135657000D01*
X255149998Y-135655000D01*
X255151998Y-135653000D01*
X255153998Y-135651000D01*
X255155998Y-135650000D01*
X255157998Y-135648000D01*
X255159998Y-135647000D01*
X255161998Y-135645000D01*
X255164998Y-135644000D01*
X255166998Y-135643000D01*
X255169998Y-135642000D01*
X255171998Y-135642000D01*
X255174998Y-135641000D01*
X255176998Y-135641000D01*
X255179998Y-135640000D01*
X255181998Y-135640000D01*
X255184998Y-135640000D01*
X255484998Y-135640000D01*
X255487998Y-135640000D01*
X255489998Y-135640000D01*
X255492998Y-135641000D01*
G36*
X255492998Y-135641000D02*
G01*
X255494998Y-135641000D01*
X255497998Y-135642000D01*
X255499998Y-135642000D01*
X255502998Y-135643000D01*
X255504998Y-135644000D01*
X255507998Y-135645000D01*
X255509998Y-135647000D01*
X255511998Y-135648000D01*
X255513998Y-135650000D01*
X255515998Y-135651000D01*
X255517998Y-135653000D01*
X255519998Y-135655000D01*
X255521998Y-135657000D01*
X255523998Y-135659000D01*
X255524998Y-135661000D01*
X255526998Y-135663000D01*
X255527998Y-135665000D01*
X255529998Y-135667000D01*
X255530998Y-135670000D01*
X255531998Y-135672000D01*
X255532998Y-135675000D01*
X255532998Y-135677000D01*
X255533998Y-135680000D01*
X255533998Y-135682000D01*
X255534998Y-135685000D01*
X255534998Y-135687000D01*
X255534998Y-135690000D01*
X255534998Y-136390000D01*
X255534998Y-136393000D01*
X255534998Y-136395000D01*
X255535998Y-136398000D01*
X255535998Y-136400000D01*
X255536998Y-136403000D01*
X255536998Y-136405000D01*
X255537998Y-136408000D01*
X255538998Y-136410000D01*
X255539998Y-136413000D01*
X255541998Y-136415000D01*
X255542998Y-136417000D01*
X255544998Y-136419000D01*
X255545998Y-136421000D01*
X255547998Y-136423000D01*
X255549998Y-136425000D01*
X255551998Y-136427000D01*
X255553998Y-136429000D01*
X255555998Y-136430000D01*
X255557998Y-136432000D01*
X255559998Y-136433000D01*
X255561998Y-136435000D01*
X255564998Y-136436000D01*
X255566998Y-136437000D01*
X255569998Y-136438000D01*
X255571998Y-136438000D01*
X255574998Y-136439000D01*
X255576998Y-136439000D01*
X255579998Y-136440000D01*
X255581998Y-136440000D01*
X255584998Y-136440000D01*
X255934998Y-136440000D01*
X255937998Y-136440000D01*
X255939998Y-136440000D01*
X255942998Y-136441000D01*
X255944998Y-136441000D01*
X255947998Y-136442000D01*
X255949998Y-136442000D01*
X255952998Y-136443000D01*
X255954998Y-136444000D01*
X255957998Y-136445000D01*
X255959998Y-136447000D01*
X255961998Y-136448000D01*
X255963998Y-136450000D01*
X255965998Y-136451000D01*
X255967998Y-136453000D01*
X255969998Y-136455000D01*
X255971998Y-136457000D01*
X255973998Y-136459000D01*
X255974998Y-136461000D01*
X255976998Y-136463000D01*
X255977998Y-136465000D01*
X255979998Y-136467000D01*
X255980998Y-136470000D01*
X255981998Y-136472000D01*
X255982998Y-136475000D01*
X255982998Y-136477000D01*
X255983998Y-136480000D01*
X255983998Y-136482000D01*
X255984998Y-136485000D01*
X255984998Y-136487000D01*
X255984998Y-136490000D01*
X255984998Y-136640000D01*
X255984998Y-136643000D01*
X255984998Y-136645000D01*
X255983998Y-136648000D01*
X255983998Y-136650000D01*
X255982998Y-136653000D01*
X255982998Y-136655000D01*
X255981998Y-136658000D01*
X255980998Y-136660000D01*
X255979998Y-136663000D01*
X255977998Y-136665000D01*
X255976998Y-136667000D01*
X255974998Y-136669000D01*
X255973998Y-136671000D01*
X255971998Y-136673000D01*
X255969998Y-136675000D01*
X255967998Y-136677000D01*
X255965998Y-136679000D01*
X255963998Y-136680000D01*
X255961998Y-136682000D01*
X255959998Y-136683000D01*
X255957998Y-136685000D01*
X255954998Y-136686000D01*
X255952998Y-136687000D01*
X255949998Y-136688000D01*
X255947998Y-136688000D01*
X255944998Y-136689000D01*
X255942998Y-136689000D01*
X255939998Y-136690000D01*
X255937998Y-136690000D01*
X255934998Y-136690000D01*
X255584998Y-136690000D01*
X255581998Y-136690000D01*
X255579998Y-136690000D01*
X255576998Y-136691000D01*
X255574998Y-136691000D01*
X255571998Y-136692000D01*
X255569998Y-136692000D01*
X255566998Y-136693000D01*
X255564998Y-136694000D01*
X255561998Y-136695000D01*
X255559998Y-136697000D01*
X255557998Y-136698000D01*
X255555998Y-136700000D01*
X255553998Y-136701000D01*
X255551998Y-136703000D01*
X255549998Y-136705000D01*
X255547998Y-136707000D01*
X255545998Y-136709000D01*
X255544998Y-136711000D01*
X255542998Y-136713000D01*
X255541998Y-136715000D01*
X255539998Y-136717000D01*
X255538998Y-136720000D01*
X255537998Y-136722000D01*
X255536998Y-136725000D01*
X255536998Y-136727000D01*
X255535998Y-136730000D01*
X255535998Y-136732000D01*
X255534998Y-136735000D01*
X255534998Y-136737000D01*
X255534998Y-136740000D01*
X255534998Y-136890000D01*
X255534998Y-136893000D01*
X255534998Y-136895000D01*
X255535998Y-136898000D01*
X255535998Y-136900000D01*
X255536998Y-136903000D01*
X255536998Y-136905000D01*
X255537998Y-136908000D01*
X255538998Y-136910000D01*
X255539998Y-136913000D01*
X255541998Y-136915000D01*
X255542998Y-136917000D01*
X255544998Y-136919000D01*
X255545998Y-136921000D01*
X255547998Y-136923000D01*
X255549998Y-136925000D01*
X255551998Y-136927000D01*
X255553998Y-136929000D01*
X255555998Y-136930000D01*
X255557998Y-136932000D01*
X255559998Y-136933000D01*
X255561998Y-136935000D01*
X255564998Y-136936000D01*
X255566998Y-136937000D01*
X255569998Y-136938000D01*
X255571998Y-136938000D01*
X255574998Y-136939000D01*
X255576998Y-136939000D01*
X255579998Y-136940000D01*
X255581998Y-136940000D01*
X255584998Y-136940000D01*
X255934998Y-136940000D01*
X255937998Y-136940000D01*
X255939998Y-136940000D01*
X255942998Y-136941000D01*
X255944998Y-136941000D01*
X255947998Y-136942000D01*
X255949998Y-136942000D01*
X255952998Y-136943000D01*
X255954998Y-136944000D01*
X255957998Y-136945000D01*
X255959998Y-136947000D01*
X255961998Y-136948000D01*
X255963998Y-136950000D01*
X255965998Y-136951000D01*
X255967998Y-136953000D01*
X255969998Y-136955000D01*
X255971998Y-136957000D01*
X255973998Y-136959000D01*
X255974998Y-136961000D01*
X255976998Y-136963000D01*
X255977998Y-136965000D01*
X255979998Y-136967000D01*
X255980998Y-136970000D01*
X255981998Y-136972000D01*
X255982998Y-136975000D01*
X255982998Y-136977000D01*
X255983998Y-136980000D01*
X255983998Y-136982000D01*
X255984998Y-136985000D01*
X255984998Y-136987000D01*
X255984998Y-136990000D01*
X255984998Y-137140000D01*
X255984998Y-137143000D01*
X255984998Y-137145000D01*
X255983998Y-137148000D01*
X255983998Y-137150000D01*
X255982998Y-137153000D01*
X255982998Y-137155000D01*
X255981998Y-137158000D01*
X255980998Y-137160000D01*
X255979998Y-137163000D01*
X255977998Y-137165000D01*
X255976998Y-137167000D01*
X255974998Y-137169000D01*
X255973998Y-137171000D01*
X255971998Y-137173000D01*
X255969998Y-137175000D01*
X255967998Y-137177000D01*
X255965998Y-137179000D01*
X255963998Y-137180000D01*
X255961998Y-137182000D01*
X255959998Y-137183000D01*
X255957998Y-137185000D01*
X255954998Y-137186000D01*
X255952998Y-137187000D01*
X255949998Y-137188000D01*
X255947998Y-137188000D01*
X255944998Y-137189000D01*
X255942998Y-137189000D01*
X255939998Y-137190000D01*
X255937998Y-137190000D01*
X255934998Y-137190000D01*
X255234998Y-137190000D01*
X255229998Y-137190000D01*
X255224998Y-137189000D01*
X255218998Y-137189000D01*
X255213998Y-137188000D01*
X255208998Y-137187000D01*
X255203998Y-137185000D01*
X255198998Y-137183000D01*
X255193998Y-137181000D01*
X255189998Y-137179000D01*
X255184998Y-137177000D01*
X255180998Y-137174000D01*
X255175998Y-137171000D01*
X255171998Y-137168000D01*
X255167998Y-137164000D01*
X255163998Y-137161000D01*
X255160998Y-137157000D01*
X255156998Y-137153000D01*
X255153998Y-137149000D01*
X255150998Y-137144000D01*
X255147998Y-137140000D01*
X255145998Y-137135000D01*
X255143998Y-137131000D01*
X255141998Y-137126000D01*
X255139998Y-137121000D01*
X255137998Y-137116000D01*
X255136998Y-137111000D01*
X255135998Y-137106000D01*
X255135998Y-137100000D01*
X255134998Y-137095000D01*
X255134998Y-137090000D01*
X255134998Y-135690000D01*
X255134998Y-135687000D01*
X255134998Y-135685000D01*
X255135998Y-135682000D01*
X255135998Y-135680000D01*
X255136998Y-135677000D01*
X255136998Y-135675000D01*
X255137998Y-135672000D01*
X255138998Y-135670000D01*
X255139998Y-135667000D01*
X255141998Y-135665000D01*
X255142998Y-135663000D01*
X255144998Y-135661000D01*
X255145998Y-135659000D01*
X255147998Y-135657000D01*
X255149998Y-135655000D01*
X255151998Y-135653000D01*
X255153998Y-135651000D01*
X255155998Y-135650000D01*
X255157998Y-135648000D01*
X255159998Y-135647000D01*
X255161998Y-135645000D01*
X255164998Y-135644000D01*
X255166998Y-135643000D01*
X255169998Y-135642000D01*
X255171998Y-135642000D01*
X255174998Y-135641000D01*
X255176998Y-135641000D01*
X255179998Y-135640000D01*
X255181998Y-135640000D01*
X255184998Y-135640000D01*
X255484998Y-135640000D01*
X255487998Y-135640000D01*
X255489998Y-135640000D01*
X255492998Y-135641000D01*
G37*
X255942998Y-138991000D02*
X255944998Y-138991000D01*
X255947998Y-138992000D01*
X255949998Y-138992000D01*
X255952998Y-138993000D01*
X255954998Y-138994000D01*
X255957998Y-138995000D01*
X255959998Y-138997000D01*
X255961998Y-138998000D01*
X255963998Y-139000000D01*
X255965998Y-139001000D01*
X255967998Y-139003000D01*
X255969998Y-139005000D01*
X255971998Y-139007000D01*
X255973998Y-139009000D01*
X255974998Y-139011000D01*
X255976998Y-139013000D01*
X255977998Y-139015000D01*
X255979998Y-139017000D01*
X255980998Y-139020000D01*
X255981998Y-139022000D01*
X255982998Y-139025000D01*
X255982998Y-139027000D01*
X255983998Y-139030000D01*
X255983998Y-139032000D01*
X255984998Y-139035000D01*
X255984998Y-139037000D01*
X255984998Y-139040000D01*
X255984998Y-139140000D01*
X255984998Y-139143000D01*
X255984998Y-139145000D01*
X255983998Y-139148000D01*
X255983998Y-139150000D01*
X255982998Y-139153000D01*
X255982998Y-139155000D01*
X255981998Y-139158000D01*
X255980998Y-139160000D01*
X255979998Y-139163000D01*
X255977998Y-139165000D01*
X255976998Y-139167000D01*
X255974998Y-139169000D01*
X255973998Y-139171000D01*
X255971998Y-139173000D01*
X255969998Y-139175000D01*
X255967998Y-139177000D01*
X255965998Y-139179000D01*
X255963998Y-139180000D01*
X255961998Y-139182000D01*
X255959998Y-139183000D01*
X255957998Y-139185000D01*
X255954998Y-139186000D01*
X255952998Y-139187000D01*
X255949998Y-139188000D01*
X255947998Y-139188000D01*
X255944998Y-139189000D01*
X255942998Y-139189000D01*
X255939998Y-139190000D01*
X255937998Y-139190000D01*
X255934998Y-139190000D01*
X255584998Y-139190000D01*
X255581998Y-139190000D01*
X255579998Y-139190000D01*
X255576998Y-139191000D01*
X255574998Y-139191000D01*
X255571998Y-139192000D01*
X255569998Y-139192000D01*
X255566998Y-139193000D01*
X255564998Y-139194000D01*
X255561998Y-139195000D01*
X255559998Y-139197000D01*
X255557998Y-139198000D01*
X255555998Y-139200000D01*
X255553998Y-139201000D01*
X255551998Y-139203000D01*
X255549998Y-139205000D01*
X255547998Y-139207000D01*
X255545998Y-139209000D01*
X255544998Y-139211000D01*
X255542998Y-139213000D01*
X255541998Y-139215000D01*
X255539998Y-139217000D01*
X255538998Y-139220000D01*
X255537998Y-139222000D01*
X255536998Y-139225000D01*
X255536998Y-139227000D01*
X255535998Y-139230000D01*
X255535998Y-139232000D01*
X255534998Y-139235000D01*
X255534998Y-139237000D01*
X255534998Y-139240000D01*
X255534998Y-139390000D01*
X255534998Y-139393000D01*
X255534998Y-139395000D01*
X255535998Y-139398000D01*
X255535998Y-139400000D01*
X255536998Y-139403000D01*
X255536998Y-139405000D01*
X255537998Y-139408000D01*
X255538998Y-139410000D01*
X255539998Y-139413000D01*
X255541998Y-139415000D01*
X255542998Y-139417000D01*
X255544998Y-139419000D01*
X255545998Y-139421000D01*
X255547998Y-139423000D01*
X255549998Y-139425000D01*
X255551998Y-139427000D01*
X255553998Y-139429000D01*
X255555998Y-139430000D01*
X255557998Y-139432000D01*
X255559998Y-139433000D01*
X255561998Y-139435000D01*
X255564998Y-139436000D01*
X255566998Y-139437000D01*
X255569998Y-139438000D01*
X255571998Y-139438000D01*
X255574998Y-139439000D01*
X255576998Y-139439000D01*
X255579998Y-139440000D01*
X255581998Y-139440000D01*
X255584998Y-139440000D01*
X255934998Y-139440000D01*
X255937998Y-139440000D01*
X255939998Y-139440000D01*
X255942998Y-139441000D01*
X255944998Y-139441000D01*
X255947998Y-139442000D01*
X255949998Y-139442000D01*
X255952998Y-139443000D01*
X255954998Y-139444000D01*
X255957998Y-139445000D01*
X255959998Y-139447000D01*
X255961998Y-139448000D01*
X255963998Y-139450000D01*
X255965998Y-139451000D01*
X255967998Y-139453000D01*
X255969998Y-139455000D01*
X255971998Y-139457000D01*
X255973998Y-139459000D01*
X255974998Y-139461000D01*
X255976998Y-139463000D01*
X255977998Y-139465000D01*
X255979998Y-139467000D01*
X255980998Y-139470000D01*
X255981998Y-139472000D01*
X255982998Y-139475000D01*
X255982998Y-139477000D01*
X255983998Y-139480000D01*
X255983998Y-139482000D01*
X255984998Y-139485000D01*
X255984998Y-139487000D01*
X255984998Y-139490000D01*
X255984998Y-139590000D01*
X255984998Y-139593000D01*
X255984998Y-139595000D01*
X255983998Y-139598000D01*
X255983998Y-139600000D01*
X255982998Y-139603000D01*
X255982998Y-139605000D01*
X255981998Y-139608000D01*
X255980998Y-139610000D01*
X255979998Y-139613000D01*
X255977998Y-139615000D01*
X255976998Y-139617000D01*
X255974998Y-139619000D01*
X255973998Y-139621000D01*
X255971998Y-139623000D01*
X255969998Y-139625000D01*
X255967998Y-139627000D01*
X255965998Y-139629000D01*
X255963998Y-139630000D01*
X255961998Y-139632000D01*
X255959998Y-139633000D01*
X255957998Y-139635000D01*
X255954998Y-139636000D01*
X255952998Y-139637000D01*
X255949998Y-139638000D01*
X255947998Y-139638000D01*
X255944998Y-139639000D01*
X255942998Y-139639000D01*
X255939998Y-139640000D01*
X255937998Y-139640000D01*
X255934998Y-139640000D01*
X255584998Y-139640000D01*
X255581998Y-139640000D01*
X255579998Y-139640000D01*
X255576998Y-139641000D01*
X255574998Y-139641000D01*
X255571998Y-139642000D01*
X255569998Y-139642000D01*
X255566998Y-139643000D01*
X255564998Y-139644000D01*
X255561998Y-139645000D01*
X255559998Y-139647000D01*
X255557998Y-139648000D01*
X255555998Y-139650000D01*
X255553998Y-139651000D01*
X255551998Y-139653000D01*
X255549998Y-139655000D01*
X255547998Y-139657000D01*
X255545998Y-139659000D01*
X255544998Y-139661000D01*
X255542998Y-139663000D01*
X255541998Y-139665000D01*
X255539998Y-139667000D01*
X255538998Y-139670000D01*
X255537998Y-139672000D01*
X255536998Y-139675000D01*
X255536998Y-139677000D01*
X255535998Y-139680000D01*
X255535998Y-139682000D01*
X255534998Y-139685000D01*
X255534998Y-139687000D01*
X255534998Y-139690000D01*
X255534998Y-139840000D01*
X255534998Y-139843000D01*
X255534998Y-139845000D01*
X255535998Y-139848000D01*
X255535998Y-139850000D01*
X255536998Y-139853000D01*
X255536998Y-139855000D01*
X255537998Y-139858000D01*
X255538998Y-139860000D01*
X255539998Y-139863000D01*
X255541998Y-139865000D01*
X255542998Y-139867000D01*
X255544998Y-139869000D01*
X255545998Y-139871000D01*
X255547998Y-139873000D01*
X255549998Y-139875000D01*
X255551998Y-139877000D01*
X255553998Y-139879000D01*
X255555998Y-139880000D01*
X255557998Y-139882000D01*
X255559998Y-139883000D01*
X255561998Y-139885000D01*
X255564998Y-139886000D01*
X255566998Y-139887000D01*
X255569998Y-139888000D01*
X255571998Y-139888000D01*
X255574998Y-139889000D01*
X255576998Y-139889000D01*
X255579998Y-139890000D01*
X255581998Y-139890000D01*
X255584998Y-139890000D01*
X255934998Y-139890000D01*
X255937998Y-139890000D01*
X255939998Y-139890000D01*
X255942998Y-139891000D01*
X255944998Y-139891000D01*
X255947998Y-139892000D01*
X255949998Y-139892000D01*
X255952998Y-139893000D01*
X255954998Y-139894000D01*
X255957998Y-139895000D01*
X255959998Y-139897000D01*
X255961998Y-139898000D01*
X255963998Y-139900000D01*
X255965998Y-139901000D01*
X255967998Y-139903000D01*
X255969998Y-139905000D01*
X255971998Y-139907000D01*
X255973998Y-139909000D01*
X255974998Y-139911000D01*
X255976998Y-139913000D01*
X255977998Y-139915000D01*
X255979998Y-139917000D01*
X255980998Y-139920000D01*
X255981998Y-139922000D01*
X255982998Y-139925000D01*
X255982998Y-139927000D01*
X255983998Y-139930000D01*
X255983998Y-139932000D01*
X255984998Y-139935000D01*
X255984998Y-139937000D01*
X255984998Y-139940000D01*
X255984998Y-140040000D01*
X255984998Y-140043000D01*
X255984998Y-140045000D01*
X255983998Y-140048000D01*
X255983998Y-140050000D01*
X255982998Y-140053000D01*
X255982998Y-140055000D01*
X255981998Y-140058000D01*
X255980998Y-140060000D01*
X255979998Y-140063000D01*
X255977998Y-140065000D01*
X255976998Y-140067000D01*
X255974998Y-140069000D01*
X255973998Y-140071000D01*
X255971998Y-140073000D01*
X255969998Y-140075000D01*
X255967998Y-140077000D01*
X255965998Y-140079000D01*
X255963998Y-140080000D01*
X255961998Y-140082000D01*
X255959998Y-140083000D01*
X255957998Y-140085000D01*
X255954998Y-140086000D01*
X255952998Y-140087000D01*
X255949998Y-140088000D01*
X255947998Y-140088000D01*
X255944998Y-140089000D01*
X255942998Y-140089000D01*
X255939998Y-140090000D01*
X255937998Y-140090000D01*
X255934998Y-140090000D01*
X255584998Y-140090000D01*
X255581998Y-140090000D01*
X255579998Y-140090000D01*
X255576998Y-140091000D01*
X255574998Y-140091000D01*
X255571998Y-140092000D01*
X255569998Y-140092000D01*
X255566998Y-140093000D01*
X255564998Y-140094000D01*
X255561998Y-140095000D01*
X255559998Y-140097000D01*
X255557998Y-140098000D01*
X255555998Y-140100000D01*
X255553998Y-140101000D01*
X255551998Y-140103000D01*
X255549998Y-140105000D01*
X255547998Y-140107000D01*
X255545998Y-140109000D01*
X255544998Y-140111000D01*
X255542998Y-140113000D01*
X255541998Y-140115000D01*
X255539998Y-140117000D01*
X255538998Y-140120000D01*
X255537998Y-140122000D01*
X255536998Y-140125000D01*
X255536998Y-140127000D01*
X255535998Y-140130000D01*
X255535998Y-140132000D01*
X255534998Y-140135000D01*
X255534998Y-140137000D01*
X255534998Y-140140000D01*
X255534998Y-140290000D01*
X255534998Y-140293000D01*
X255534998Y-140295000D01*
X255535998Y-140298000D01*
X255535998Y-140300000D01*
X255536998Y-140303000D01*
X255536998Y-140305000D01*
X255537998Y-140308000D01*
X255538998Y-140310000D01*
X255539998Y-140313000D01*
X255541998Y-140315000D01*
X255542998Y-140317000D01*
X255544998Y-140319000D01*
X255545998Y-140321000D01*
X255547998Y-140323000D01*
X255549998Y-140325000D01*
X255551998Y-140327000D01*
X255553998Y-140329000D01*
X255555998Y-140330000D01*
X255557998Y-140332000D01*
X255559998Y-140333000D01*
X255561998Y-140335000D01*
X255564998Y-140336000D01*
X255566998Y-140337000D01*
X255569998Y-140338000D01*
X255571998Y-140338000D01*
X255574998Y-140339000D01*
X255576998Y-140339000D01*
X255579998Y-140340000D01*
X255581998Y-140340000D01*
X255584998Y-140340000D01*
X255934998Y-140340000D01*
X255937998Y-140340000D01*
X255939998Y-140340000D01*
X255942998Y-140341000D01*
X255944998Y-140341000D01*
X255947998Y-140342000D01*
X255949998Y-140342000D01*
X255952998Y-140343000D01*
X255954998Y-140344000D01*
X255957998Y-140345000D01*
X255959998Y-140347000D01*
X255961998Y-140348000D01*
X255963998Y-140350000D01*
X255965998Y-140351000D01*
X255967998Y-140353000D01*
X255969998Y-140355000D01*
X255971998Y-140357000D01*
X255973998Y-140359000D01*
X255974998Y-140361000D01*
X255976998Y-140363000D01*
X255977998Y-140365000D01*
X255979998Y-140367000D01*
X255980998Y-140370000D01*
X255981998Y-140372000D01*
X255982998Y-140375000D01*
X255982998Y-140377000D01*
X255983998Y-140380000D01*
X255983998Y-140382000D01*
X255984998Y-140385000D01*
X255984998Y-140387000D01*
X255984998Y-140390000D01*
X255984998Y-140490000D01*
X255984998Y-140493000D01*
X255984998Y-140495000D01*
X255983998Y-140498000D01*
X255983998Y-140500000D01*
X255982998Y-140503000D01*
X255982998Y-140505000D01*
X255981998Y-140508000D01*
X255980998Y-140510000D01*
X255979998Y-140513000D01*
X255977998Y-140515000D01*
X255976998Y-140517000D01*
X255974998Y-140519000D01*
X255973998Y-140521000D01*
X255971998Y-140523000D01*
X255969998Y-140525000D01*
X255967998Y-140527000D01*
X255965998Y-140529000D01*
X255963998Y-140530000D01*
X255961998Y-140532000D01*
X255959998Y-140533000D01*
X255957998Y-140535000D01*
X255954998Y-140536000D01*
X255952998Y-140537000D01*
X255949998Y-140538000D01*
X255947998Y-140538000D01*
X255944998Y-140539000D01*
X255942998Y-140539000D01*
X255939998Y-140540000D01*
X255937998Y-140540000D01*
X255934998Y-140540000D01*
X255334998Y-140540000D01*
X255329998Y-140540000D01*
X255324998Y-140539000D01*
X255318998Y-140539000D01*
X255313998Y-140538000D01*
X255308998Y-140537000D01*
X255303998Y-140535000D01*
X255298998Y-140533000D01*
X255293998Y-140531000D01*
X255289998Y-140529000D01*
X255284998Y-140527000D01*
X255280998Y-140524000D01*
X255275998Y-140521000D01*
X255271998Y-140518000D01*
X255267998Y-140514000D01*
X255263998Y-140511000D01*
X255260998Y-140507000D01*
X255256998Y-140503000D01*
X255253998Y-140499000D01*
X255250998Y-140494000D01*
X255247998Y-140490000D01*
X255245998Y-140485000D01*
X255243998Y-140481000D01*
X255241998Y-140476000D01*
X255239998Y-140471000D01*
X255237998Y-140466000D01*
X255236998Y-140461000D01*
X255235998Y-140456000D01*
X255235998Y-140450000D01*
X255234998Y-140445000D01*
X255234998Y-140440000D01*
X255234998Y-139090000D01*
X255234998Y-139085000D01*
X255235998Y-139080000D01*
X255235998Y-139074000D01*
X255236998Y-139069000D01*
X255237998Y-139064000D01*
X255239998Y-139059000D01*
X255241998Y-139054000D01*
X255243998Y-139049000D01*
X255245998Y-139045000D01*
X255247998Y-139040000D01*
X255250998Y-139036000D01*
X255253998Y-139031000D01*
X255256998Y-139027000D01*
X255260998Y-139023000D01*
X255263998Y-139019000D01*
X255267998Y-139016000D01*
X255271998Y-139012000D01*
X255275998Y-139009000D01*
X255280998Y-139006000D01*
X255284998Y-139003000D01*
X255289998Y-139001000D01*
X255293998Y-138999000D01*
X255298998Y-138997000D01*
X255303998Y-138995000D01*
X255308998Y-138993000D01*
X255313998Y-138992000D01*
X255318998Y-138991000D01*
X255324998Y-138991000D01*
X255329998Y-138990000D01*
X255334998Y-138990000D01*
X255934998Y-138990000D01*
X255937998Y-138990000D01*
X255939998Y-138990000D01*
X255942998Y-138991000D01*
G36*
X255942998Y-138991000D02*
G01*
X255944998Y-138991000D01*
X255947998Y-138992000D01*
X255949998Y-138992000D01*
X255952998Y-138993000D01*
X255954998Y-138994000D01*
X255957998Y-138995000D01*
X255959998Y-138997000D01*
X255961998Y-138998000D01*
X255963998Y-139000000D01*
X255965998Y-139001000D01*
X255967998Y-139003000D01*
X255969998Y-139005000D01*
X255971998Y-139007000D01*
X255973998Y-139009000D01*
X255974998Y-139011000D01*
X255976998Y-139013000D01*
X255977998Y-139015000D01*
X255979998Y-139017000D01*
X255980998Y-139020000D01*
X255981998Y-139022000D01*
X255982998Y-139025000D01*
X255982998Y-139027000D01*
X255983998Y-139030000D01*
X255983998Y-139032000D01*
X255984998Y-139035000D01*
X255984998Y-139037000D01*
X255984998Y-139040000D01*
X255984998Y-139140000D01*
X255984998Y-139143000D01*
X255984998Y-139145000D01*
X255983998Y-139148000D01*
X255983998Y-139150000D01*
X255982998Y-139153000D01*
X255982998Y-139155000D01*
X255981998Y-139158000D01*
X255980998Y-139160000D01*
X255979998Y-139163000D01*
X255977998Y-139165000D01*
X255976998Y-139167000D01*
X255974998Y-139169000D01*
X255973998Y-139171000D01*
X255971998Y-139173000D01*
X255969998Y-139175000D01*
X255967998Y-139177000D01*
X255965998Y-139179000D01*
X255963998Y-139180000D01*
X255961998Y-139182000D01*
X255959998Y-139183000D01*
X255957998Y-139185000D01*
X255954998Y-139186000D01*
X255952998Y-139187000D01*
X255949998Y-139188000D01*
X255947998Y-139188000D01*
X255944998Y-139189000D01*
X255942998Y-139189000D01*
X255939998Y-139190000D01*
X255937998Y-139190000D01*
X255934998Y-139190000D01*
X255584998Y-139190000D01*
X255581998Y-139190000D01*
X255579998Y-139190000D01*
X255576998Y-139191000D01*
X255574998Y-139191000D01*
X255571998Y-139192000D01*
X255569998Y-139192000D01*
X255566998Y-139193000D01*
X255564998Y-139194000D01*
X255561998Y-139195000D01*
X255559998Y-139197000D01*
X255557998Y-139198000D01*
X255555998Y-139200000D01*
X255553998Y-139201000D01*
X255551998Y-139203000D01*
X255549998Y-139205000D01*
X255547998Y-139207000D01*
X255545998Y-139209000D01*
X255544998Y-139211000D01*
X255542998Y-139213000D01*
X255541998Y-139215000D01*
X255539998Y-139217000D01*
X255538998Y-139220000D01*
X255537998Y-139222000D01*
X255536998Y-139225000D01*
X255536998Y-139227000D01*
X255535998Y-139230000D01*
X255535998Y-139232000D01*
X255534998Y-139235000D01*
X255534998Y-139237000D01*
X255534998Y-139240000D01*
X255534998Y-139390000D01*
X255534998Y-139393000D01*
X255534998Y-139395000D01*
X255535998Y-139398000D01*
X255535998Y-139400000D01*
X255536998Y-139403000D01*
X255536998Y-139405000D01*
X255537998Y-139408000D01*
X255538998Y-139410000D01*
X255539998Y-139413000D01*
X255541998Y-139415000D01*
X255542998Y-139417000D01*
X255544998Y-139419000D01*
X255545998Y-139421000D01*
X255547998Y-139423000D01*
X255549998Y-139425000D01*
X255551998Y-139427000D01*
X255553998Y-139429000D01*
X255555998Y-139430000D01*
X255557998Y-139432000D01*
X255559998Y-139433000D01*
X255561998Y-139435000D01*
X255564998Y-139436000D01*
X255566998Y-139437000D01*
X255569998Y-139438000D01*
X255571998Y-139438000D01*
X255574998Y-139439000D01*
X255576998Y-139439000D01*
X255579998Y-139440000D01*
X255581998Y-139440000D01*
X255584998Y-139440000D01*
X255934998Y-139440000D01*
X255937998Y-139440000D01*
X255939998Y-139440000D01*
X255942998Y-139441000D01*
X255944998Y-139441000D01*
X255947998Y-139442000D01*
X255949998Y-139442000D01*
X255952998Y-139443000D01*
X255954998Y-139444000D01*
X255957998Y-139445000D01*
X255959998Y-139447000D01*
X255961998Y-139448000D01*
X255963998Y-139450000D01*
X255965998Y-139451000D01*
X255967998Y-139453000D01*
X255969998Y-139455000D01*
X255971998Y-139457000D01*
X255973998Y-139459000D01*
X255974998Y-139461000D01*
X255976998Y-139463000D01*
X255977998Y-139465000D01*
X255979998Y-139467000D01*
X255980998Y-139470000D01*
X255981998Y-139472000D01*
X255982998Y-139475000D01*
X255982998Y-139477000D01*
X255983998Y-139480000D01*
X255983998Y-139482000D01*
X255984998Y-139485000D01*
X255984998Y-139487000D01*
X255984998Y-139490000D01*
X255984998Y-139590000D01*
X255984998Y-139593000D01*
X255984998Y-139595000D01*
X255983998Y-139598000D01*
X255983998Y-139600000D01*
X255982998Y-139603000D01*
X255982998Y-139605000D01*
X255981998Y-139608000D01*
X255980998Y-139610000D01*
X255979998Y-139613000D01*
X255977998Y-139615000D01*
X255976998Y-139617000D01*
X255974998Y-139619000D01*
X255973998Y-139621000D01*
X255971998Y-139623000D01*
X255969998Y-139625000D01*
X255967998Y-139627000D01*
X255965998Y-139629000D01*
X255963998Y-139630000D01*
X255961998Y-139632000D01*
X255959998Y-139633000D01*
X255957998Y-139635000D01*
X255954998Y-139636000D01*
X255952998Y-139637000D01*
X255949998Y-139638000D01*
X255947998Y-139638000D01*
X255944998Y-139639000D01*
X255942998Y-139639000D01*
X255939998Y-139640000D01*
X255937998Y-139640000D01*
X255934998Y-139640000D01*
X255584998Y-139640000D01*
X255581998Y-139640000D01*
X255579998Y-139640000D01*
X255576998Y-139641000D01*
X255574998Y-139641000D01*
X255571998Y-139642000D01*
X255569998Y-139642000D01*
X255566998Y-139643000D01*
X255564998Y-139644000D01*
X255561998Y-139645000D01*
X255559998Y-139647000D01*
X255557998Y-139648000D01*
X255555998Y-139650000D01*
X255553998Y-139651000D01*
X255551998Y-139653000D01*
X255549998Y-139655000D01*
X255547998Y-139657000D01*
X255545998Y-139659000D01*
X255544998Y-139661000D01*
X255542998Y-139663000D01*
X255541998Y-139665000D01*
X255539998Y-139667000D01*
X255538998Y-139670000D01*
X255537998Y-139672000D01*
X255536998Y-139675000D01*
X255536998Y-139677000D01*
X255535998Y-139680000D01*
X255535998Y-139682000D01*
X255534998Y-139685000D01*
X255534998Y-139687000D01*
X255534998Y-139690000D01*
X255534998Y-139840000D01*
X255534998Y-139843000D01*
X255534998Y-139845000D01*
X255535998Y-139848000D01*
X255535998Y-139850000D01*
X255536998Y-139853000D01*
X255536998Y-139855000D01*
X255537998Y-139858000D01*
X255538998Y-139860000D01*
X255539998Y-139863000D01*
X255541998Y-139865000D01*
X255542998Y-139867000D01*
X255544998Y-139869000D01*
X255545998Y-139871000D01*
X255547998Y-139873000D01*
X255549998Y-139875000D01*
X255551998Y-139877000D01*
X255553998Y-139879000D01*
X255555998Y-139880000D01*
X255557998Y-139882000D01*
X255559998Y-139883000D01*
X255561998Y-139885000D01*
X255564998Y-139886000D01*
X255566998Y-139887000D01*
X255569998Y-139888000D01*
X255571998Y-139888000D01*
X255574998Y-139889000D01*
X255576998Y-139889000D01*
X255579998Y-139890000D01*
X255581998Y-139890000D01*
X255584998Y-139890000D01*
X255934998Y-139890000D01*
X255937998Y-139890000D01*
X255939998Y-139890000D01*
X255942998Y-139891000D01*
X255944998Y-139891000D01*
X255947998Y-139892000D01*
X255949998Y-139892000D01*
X255952998Y-139893000D01*
X255954998Y-139894000D01*
X255957998Y-139895000D01*
X255959998Y-139897000D01*
X255961998Y-139898000D01*
X255963998Y-139900000D01*
X255965998Y-139901000D01*
X255967998Y-139903000D01*
X255969998Y-139905000D01*
X255971998Y-139907000D01*
X255973998Y-139909000D01*
X255974998Y-139911000D01*
X255976998Y-139913000D01*
X255977998Y-139915000D01*
X255979998Y-139917000D01*
X255980998Y-139920000D01*
X255981998Y-139922000D01*
X255982998Y-139925000D01*
X255982998Y-139927000D01*
X255983998Y-139930000D01*
X255983998Y-139932000D01*
X255984998Y-139935000D01*
X255984998Y-139937000D01*
X255984998Y-139940000D01*
X255984998Y-140040000D01*
X255984998Y-140043000D01*
X255984998Y-140045000D01*
X255983998Y-140048000D01*
X255983998Y-140050000D01*
X255982998Y-140053000D01*
X255982998Y-140055000D01*
X255981998Y-140058000D01*
X255980998Y-140060000D01*
X255979998Y-140063000D01*
X255977998Y-140065000D01*
X255976998Y-140067000D01*
X255974998Y-140069000D01*
X255973998Y-140071000D01*
X255971998Y-140073000D01*
X255969998Y-140075000D01*
X255967998Y-140077000D01*
X255965998Y-140079000D01*
X255963998Y-140080000D01*
X255961998Y-140082000D01*
X255959998Y-140083000D01*
X255957998Y-140085000D01*
X255954998Y-140086000D01*
X255952998Y-140087000D01*
X255949998Y-140088000D01*
X255947998Y-140088000D01*
X255944998Y-140089000D01*
X255942998Y-140089000D01*
X255939998Y-140090000D01*
X255937998Y-140090000D01*
X255934998Y-140090000D01*
X255584998Y-140090000D01*
X255581998Y-140090000D01*
X255579998Y-140090000D01*
X255576998Y-140091000D01*
X255574998Y-140091000D01*
X255571998Y-140092000D01*
X255569998Y-140092000D01*
X255566998Y-140093000D01*
X255564998Y-140094000D01*
X255561998Y-140095000D01*
X255559998Y-140097000D01*
X255557998Y-140098000D01*
X255555998Y-140100000D01*
X255553998Y-140101000D01*
X255551998Y-140103000D01*
X255549998Y-140105000D01*
X255547998Y-140107000D01*
X255545998Y-140109000D01*
X255544998Y-140111000D01*
X255542998Y-140113000D01*
X255541998Y-140115000D01*
X255539998Y-140117000D01*
X255538998Y-140120000D01*
X255537998Y-140122000D01*
X255536998Y-140125000D01*
X255536998Y-140127000D01*
X255535998Y-140130000D01*
X255535998Y-140132000D01*
X255534998Y-140135000D01*
X255534998Y-140137000D01*
X255534998Y-140140000D01*
X255534998Y-140290000D01*
X255534998Y-140293000D01*
X255534998Y-140295000D01*
X255535998Y-140298000D01*
X255535998Y-140300000D01*
X255536998Y-140303000D01*
X255536998Y-140305000D01*
X255537998Y-140308000D01*
X255538998Y-140310000D01*
X255539998Y-140313000D01*
X255541998Y-140315000D01*
X255542998Y-140317000D01*
X255544998Y-140319000D01*
X255545998Y-140321000D01*
X255547998Y-140323000D01*
X255549998Y-140325000D01*
X255551998Y-140327000D01*
X255553998Y-140329000D01*
X255555998Y-140330000D01*
X255557998Y-140332000D01*
X255559998Y-140333000D01*
X255561998Y-140335000D01*
X255564998Y-140336000D01*
X255566998Y-140337000D01*
X255569998Y-140338000D01*
X255571998Y-140338000D01*
X255574998Y-140339000D01*
X255576998Y-140339000D01*
X255579998Y-140340000D01*
X255581998Y-140340000D01*
X255584998Y-140340000D01*
X255934998Y-140340000D01*
X255937998Y-140340000D01*
X255939998Y-140340000D01*
X255942998Y-140341000D01*
X255944998Y-140341000D01*
X255947998Y-140342000D01*
X255949998Y-140342000D01*
X255952998Y-140343000D01*
X255954998Y-140344000D01*
X255957998Y-140345000D01*
X255959998Y-140347000D01*
X255961998Y-140348000D01*
X255963998Y-140350000D01*
X255965998Y-140351000D01*
X255967998Y-140353000D01*
X255969998Y-140355000D01*
X255971998Y-140357000D01*
X255973998Y-140359000D01*
X255974998Y-140361000D01*
X255976998Y-140363000D01*
X255977998Y-140365000D01*
X255979998Y-140367000D01*
X255980998Y-140370000D01*
X255981998Y-140372000D01*
X255982998Y-140375000D01*
X255982998Y-140377000D01*
X255983998Y-140380000D01*
X255983998Y-140382000D01*
X255984998Y-140385000D01*
X255984998Y-140387000D01*
X255984998Y-140390000D01*
X255984998Y-140490000D01*
X255984998Y-140493000D01*
X255984998Y-140495000D01*
X255983998Y-140498000D01*
X255983998Y-140500000D01*
X255982998Y-140503000D01*
X255982998Y-140505000D01*
X255981998Y-140508000D01*
X255980998Y-140510000D01*
X255979998Y-140513000D01*
X255977998Y-140515000D01*
X255976998Y-140517000D01*
X255974998Y-140519000D01*
X255973998Y-140521000D01*
X255971998Y-140523000D01*
X255969998Y-140525000D01*
X255967998Y-140527000D01*
X255965998Y-140529000D01*
X255963998Y-140530000D01*
X255961998Y-140532000D01*
X255959998Y-140533000D01*
X255957998Y-140535000D01*
X255954998Y-140536000D01*
X255952998Y-140537000D01*
X255949998Y-140538000D01*
X255947998Y-140538000D01*
X255944998Y-140539000D01*
X255942998Y-140539000D01*
X255939998Y-140540000D01*
X255937998Y-140540000D01*
X255934998Y-140540000D01*
X255334998Y-140540000D01*
X255329998Y-140540000D01*
X255324998Y-140539000D01*
X255318998Y-140539000D01*
X255313998Y-140538000D01*
X255308998Y-140537000D01*
X255303998Y-140535000D01*
X255298998Y-140533000D01*
X255293998Y-140531000D01*
X255289998Y-140529000D01*
X255284998Y-140527000D01*
X255280998Y-140524000D01*
X255275998Y-140521000D01*
X255271998Y-140518000D01*
X255267998Y-140514000D01*
X255263998Y-140511000D01*
X255260998Y-140507000D01*
X255256998Y-140503000D01*
X255253998Y-140499000D01*
X255250998Y-140494000D01*
X255247998Y-140490000D01*
X255245998Y-140485000D01*
X255243998Y-140481000D01*
X255241998Y-140476000D01*
X255239998Y-140471000D01*
X255237998Y-140466000D01*
X255236998Y-140461000D01*
X255235998Y-140456000D01*
X255235998Y-140450000D01*
X255234998Y-140445000D01*
X255234998Y-140440000D01*
X255234998Y-139090000D01*
X255234998Y-139085000D01*
X255235998Y-139080000D01*
X255235998Y-139074000D01*
X255236998Y-139069000D01*
X255237998Y-139064000D01*
X255239998Y-139059000D01*
X255241998Y-139054000D01*
X255243998Y-139049000D01*
X255245998Y-139045000D01*
X255247998Y-139040000D01*
X255250998Y-139036000D01*
X255253998Y-139031000D01*
X255256998Y-139027000D01*
X255260998Y-139023000D01*
X255263998Y-139019000D01*
X255267998Y-139016000D01*
X255271998Y-139012000D01*
X255275998Y-139009000D01*
X255280998Y-139006000D01*
X255284998Y-139003000D01*
X255289998Y-139001000D01*
X255293998Y-138999000D01*
X255298998Y-138997000D01*
X255303998Y-138995000D01*
X255308998Y-138993000D01*
X255313998Y-138992000D01*
X255318998Y-138991000D01*
X255324998Y-138991000D01*
X255329998Y-138990000D01*
X255334998Y-138990000D01*
X255934998Y-138990000D01*
X255937998Y-138990000D01*
X255939998Y-138990000D01*
X255942998Y-138991000D01*
G37*
X251317998Y-139841000D02*
X251319998Y-139841000D01*
X251322998Y-139842000D01*
X251324998Y-139842000D01*
X251327998Y-139843000D01*
X251329998Y-139844000D01*
X251332998Y-139845000D01*
X251334998Y-139847000D01*
X251336998Y-139848000D01*
X251338998Y-139850000D01*
X251340998Y-139851000D01*
X251342998Y-139853000D01*
X251344998Y-139855000D01*
X251346998Y-139857000D01*
X251348998Y-139859000D01*
X251349998Y-139861000D01*
X251351998Y-139863000D01*
X251352998Y-139865000D01*
X251354998Y-139867000D01*
X251355998Y-139870000D01*
X251356998Y-139872000D01*
X251357998Y-139875000D01*
X251357998Y-139877000D01*
X251358998Y-139880000D01*
X251358998Y-139882000D01*
X251359998Y-139885000D01*
X251359998Y-139887000D01*
X251359998Y-139890000D01*
X251359998Y-141990000D01*
X251359998Y-141993000D01*
X251359998Y-141995000D01*
X251358998Y-141998000D01*
X251358998Y-142000000D01*
X251357998Y-142003000D01*
X251357998Y-142005000D01*
X251356998Y-142008000D01*
X251355998Y-142010000D01*
X251354998Y-142013000D01*
X251352998Y-142015000D01*
X251351998Y-142017000D01*
X251349998Y-142019000D01*
X251348998Y-142021000D01*
X251346998Y-142023000D01*
X251344998Y-142025000D01*
X251342998Y-142027000D01*
X251340998Y-142029000D01*
X251338998Y-142030000D01*
X251336998Y-142032000D01*
X251334998Y-142033000D01*
X251332998Y-142035000D01*
X251329998Y-142036000D01*
X251327998Y-142037000D01*
X251324998Y-142038000D01*
X251322998Y-142038000D01*
X251319998Y-142039000D01*
X251317998Y-142039000D01*
X251314998Y-142040000D01*
X251312998Y-142040000D01*
X251309998Y-142040000D01*
X251159998Y-142040000D01*
X251156998Y-142040000D01*
X251154998Y-142040000D01*
X251151998Y-142039000D01*
X251149998Y-142039000D01*
X251146998Y-142038000D01*
X251144998Y-142038000D01*
X251141998Y-142037000D01*
X251139998Y-142036000D01*
X251136998Y-142035000D01*
X251134998Y-142033000D01*
X251132998Y-142032000D01*
X251130998Y-142030000D01*
X251128998Y-142029000D01*
X251126998Y-142027000D01*
X251124998Y-142025000D01*
X251122998Y-142023000D01*
X251120998Y-142021000D01*
X251119998Y-142019000D01*
X251117998Y-142017000D01*
X251116998Y-142015000D01*
X251114998Y-142013000D01*
X251113998Y-142010000D01*
X251112998Y-142008000D01*
X251111998Y-142005000D01*
X251111998Y-142003000D01*
X251110998Y-142000000D01*
X251110998Y-141998000D01*
X251109998Y-141995000D01*
X251109998Y-141993000D01*
X251109998Y-141990000D01*
X251109998Y-141640000D01*
X251109998Y-141637000D01*
X251109998Y-141635000D01*
X251108998Y-141632000D01*
X251108998Y-141630000D01*
X251107998Y-141627000D01*
X251107998Y-141625000D01*
X251106998Y-141622000D01*
X251105998Y-141620000D01*
X251104998Y-141617000D01*
X251102998Y-141615000D01*
X251101998Y-141613000D01*
X251099998Y-141611000D01*
X251098998Y-141609000D01*
X251096998Y-141607000D01*
X251094998Y-141605000D01*
X251092998Y-141603000D01*
X251090998Y-141601000D01*
X251088998Y-141600000D01*
X251086998Y-141598000D01*
X251084998Y-141597000D01*
X251082998Y-141595000D01*
X251079998Y-141594000D01*
X251077998Y-141593000D01*
X251074998Y-141592000D01*
X251072998Y-141592000D01*
X251069998Y-141591000D01*
X251067998Y-141591000D01*
X251064998Y-141590000D01*
X251062998Y-141590000D01*
X251059998Y-141590000D01*
X250634998Y-141590000D01*
X250631998Y-141590000D01*
X250629998Y-141590000D01*
X250626998Y-141589000D01*
X250624998Y-141589000D01*
X250621998Y-141588000D01*
X250619998Y-141588000D01*
X250616998Y-141587000D01*
X250614998Y-141586000D01*
X250611998Y-141585000D01*
X250609998Y-141583000D01*
X250607998Y-141582000D01*
X250605998Y-141580000D01*
X250603998Y-141579000D01*
X250601998Y-141577000D01*
X250599998Y-141575000D01*
X250597998Y-141573000D01*
X250595998Y-141571000D01*
X250594998Y-141569000D01*
X250592998Y-141567000D01*
X250591998Y-141565000D01*
X250589998Y-141563000D01*
X250588998Y-141560000D01*
X250587998Y-141558000D01*
X250586998Y-141555000D01*
X250586998Y-141553000D01*
X250585998Y-141550000D01*
X250585998Y-141548000D01*
X250584998Y-141545000D01*
X250584998Y-141543000D01*
X250584998Y-141540000D01*
X250584998Y-141390000D01*
X250584998Y-141387000D01*
X250584998Y-141385000D01*
X250585998Y-141382000D01*
X250585998Y-141380000D01*
X250586998Y-141377000D01*
X250586998Y-141375000D01*
X250587998Y-141372000D01*
X250588998Y-141370000D01*
X250589998Y-141367000D01*
X250591998Y-141365000D01*
X250592998Y-141363000D01*
X250594998Y-141361000D01*
X250595998Y-141359000D01*
X250597998Y-141357000D01*
X250599998Y-141355000D01*
X250601998Y-141353000D01*
X250603998Y-141351000D01*
X250605998Y-141350000D01*
X250607998Y-141348000D01*
X250609998Y-141347000D01*
X250611998Y-141345000D01*
X250614998Y-141344000D01*
X250616998Y-141343000D01*
X250619998Y-141342000D01*
X250621998Y-141342000D01*
X250624998Y-141341000D01*
X250626998Y-141341000D01*
X250629998Y-141340000D01*
X250631998Y-141340000D01*
X250634998Y-141340000D01*
X250984998Y-141340000D01*
X250987998Y-141340000D01*
X250989998Y-141340000D01*
X250992998Y-141339000D01*
X250994998Y-141339000D01*
X250997998Y-141338000D01*
X250999998Y-141338000D01*
X251002998Y-141337000D01*
X251004998Y-141336000D01*
X251007998Y-141335000D01*
X251009998Y-141333000D01*
X251011998Y-141332000D01*
X251013998Y-141330000D01*
X251015998Y-141329000D01*
X251017998Y-141327000D01*
X251019998Y-141325000D01*
X251021998Y-141323000D01*
X251023998Y-141321000D01*
X251024998Y-141319000D01*
X251026998Y-141317000D01*
X251027998Y-141315000D01*
X251029998Y-141313000D01*
X251030998Y-141310000D01*
X251031998Y-141308000D01*
X251032998Y-141305000D01*
X251032998Y-141303000D01*
X251033998Y-141300000D01*
X251033998Y-141298000D01*
X251034998Y-141295000D01*
X251034998Y-141293000D01*
X251034998Y-141290000D01*
X251034998Y-141140000D01*
X251034998Y-141137000D01*
X251034998Y-141135000D01*
X251033998Y-141132000D01*
X251033998Y-141130000D01*
X251032998Y-141127000D01*
X251032998Y-141125000D01*
X251031998Y-141122000D01*
X251030998Y-141120000D01*
X251029998Y-141117000D01*
X251027998Y-141115000D01*
X251026998Y-141113000D01*
X251024998Y-141111000D01*
X251023998Y-141109000D01*
X251021998Y-141107000D01*
X251019998Y-141105000D01*
X251017998Y-141103000D01*
X251015998Y-141101000D01*
X251013998Y-141100000D01*
X251011998Y-141098000D01*
X251009998Y-141097000D01*
X251007998Y-141095000D01*
X251004998Y-141094000D01*
X251002998Y-141093000D01*
X250999998Y-141092000D01*
X250997998Y-141092000D01*
X250994998Y-141091000D01*
X250992998Y-141091000D01*
X250989998Y-141090000D01*
X250987998Y-141090000D01*
X250984998Y-141090000D01*
X250634998Y-141090000D01*
X250631998Y-141090000D01*
X250629998Y-141090000D01*
X250626998Y-141089000D01*
X250624998Y-141089000D01*
X250621998Y-141088000D01*
X250619998Y-141088000D01*
X250616998Y-141087000D01*
X250614998Y-141086000D01*
X250611998Y-141085000D01*
X250609998Y-141083000D01*
X250607998Y-141082000D01*
X250605998Y-141080000D01*
X250603998Y-141079000D01*
X250601998Y-141077000D01*
X250599998Y-141075000D01*
X250597998Y-141073000D01*
X250595998Y-141071000D01*
X250594998Y-141069000D01*
X250592998Y-141067000D01*
X250591998Y-141065000D01*
X250589998Y-141063000D01*
X250588998Y-141060000D01*
X250587998Y-141058000D01*
X250586998Y-141055000D01*
X250586998Y-141053000D01*
X250585998Y-141050000D01*
X250585998Y-141048000D01*
X250584998Y-141045000D01*
X250584998Y-141043000D01*
X250584998Y-141040000D01*
X250584998Y-140890000D01*
X250584998Y-140887000D01*
X250584998Y-140885000D01*
X250585998Y-140882000D01*
X250585998Y-140880000D01*
X250586998Y-140877000D01*
X250586998Y-140875000D01*
X250587998Y-140872000D01*
X250588998Y-140870000D01*
X250589998Y-140867000D01*
X250591998Y-140865000D01*
X250592998Y-140863000D01*
X250594998Y-140861000D01*
X250595998Y-140859000D01*
X250597998Y-140857000D01*
X250599998Y-140855000D01*
X250601998Y-140853000D01*
X250603998Y-140851000D01*
X250605998Y-140850000D01*
X250607998Y-140848000D01*
X250609998Y-140847000D01*
X250611998Y-140845000D01*
X250614998Y-140844000D01*
X250616998Y-140843000D01*
X250619998Y-140842000D01*
X250621998Y-140842000D01*
X250624998Y-140841000D01*
X250626998Y-140841000D01*
X250629998Y-140840000D01*
X250631998Y-140840000D01*
X250634998Y-140840000D01*
X250984998Y-140840000D01*
X250987998Y-140840000D01*
X250989998Y-140840000D01*
X250992998Y-140839000D01*
X250994998Y-140839000D01*
X250997998Y-140838000D01*
X250999998Y-140838000D01*
X251002998Y-140837000D01*
X251004998Y-140836000D01*
X251007998Y-140835000D01*
X251009998Y-140833000D01*
X251011998Y-140832000D01*
X251013998Y-140830000D01*
X251015998Y-140829000D01*
X251017998Y-140827000D01*
X251019998Y-140825000D01*
X251021998Y-140823000D01*
X251023998Y-140821000D01*
X251024998Y-140819000D01*
X251026998Y-140817000D01*
X251027998Y-140815000D01*
X251029998Y-140813000D01*
X251030998Y-140810000D01*
X251031998Y-140808000D01*
X251032998Y-140805000D01*
X251032998Y-140803000D01*
X251033998Y-140800000D01*
X251033998Y-140798000D01*
X251034998Y-140795000D01*
X251034998Y-140793000D01*
X251034998Y-140790000D01*
X251034998Y-140640000D01*
X251034998Y-140637000D01*
X251034998Y-140635000D01*
X251033998Y-140632000D01*
X251033998Y-140630000D01*
X251032998Y-140627000D01*
X251032998Y-140625000D01*
X251031998Y-140622000D01*
X251030998Y-140620000D01*
X251029998Y-140617000D01*
X251027998Y-140615000D01*
X251026998Y-140613000D01*
X251024998Y-140611000D01*
X251023998Y-140609000D01*
X251021998Y-140607000D01*
X251019998Y-140605000D01*
X251017998Y-140603000D01*
X251015998Y-140601000D01*
X251013998Y-140600000D01*
X251011998Y-140598000D01*
X251009998Y-140597000D01*
X251007998Y-140595000D01*
X251004998Y-140594000D01*
X251002998Y-140593000D01*
X250999998Y-140592000D01*
X250997998Y-140592000D01*
X250994998Y-140591000D01*
X250992998Y-140591000D01*
X250989998Y-140590000D01*
X250987998Y-140590000D01*
X250984998Y-140590000D01*
X250634998Y-140590000D01*
X250631998Y-140590000D01*
X250629998Y-140590000D01*
X250626998Y-140589000D01*
X250624998Y-140589000D01*
X250621998Y-140588000D01*
X250619998Y-140588000D01*
X250616998Y-140587000D01*
X250614998Y-140586000D01*
X250611998Y-140585000D01*
X250609998Y-140583000D01*
X250607998Y-140582000D01*
X250605998Y-140580000D01*
X250603998Y-140579000D01*
X250601998Y-140577000D01*
X250599998Y-140575000D01*
X250597998Y-140573000D01*
X250595998Y-140571000D01*
X250594998Y-140569000D01*
X250592998Y-140567000D01*
X250591998Y-140565000D01*
X250589998Y-140563000D01*
X250588998Y-140560000D01*
X250587998Y-140558000D01*
X250586998Y-140555000D01*
X250586998Y-140553000D01*
X250585998Y-140550000D01*
X250585998Y-140548000D01*
X250584998Y-140545000D01*
X250584998Y-140543000D01*
X250584998Y-140540000D01*
X250584998Y-140390000D01*
X250584998Y-140387000D01*
X250584998Y-140385000D01*
X250585998Y-140382000D01*
X250585998Y-140380000D01*
X250586998Y-140377000D01*
X250586998Y-140375000D01*
X250587998Y-140372000D01*
X250588998Y-140370000D01*
X250589998Y-140367000D01*
X250591998Y-140365000D01*
X250592998Y-140363000D01*
X250594998Y-140361000D01*
X250595998Y-140359000D01*
X250597998Y-140357000D01*
X250599998Y-140355000D01*
X250601998Y-140353000D01*
X250603998Y-140351000D01*
X250605998Y-140350000D01*
X250607998Y-140348000D01*
X250609998Y-140347000D01*
X250611998Y-140345000D01*
X250614998Y-140344000D01*
X250616998Y-140343000D01*
X250619998Y-140342000D01*
X250621998Y-140342000D01*
X250624998Y-140341000D01*
X250626998Y-140341000D01*
X250629998Y-140340000D01*
X250631998Y-140340000D01*
X250634998Y-140340000D01*
X250984998Y-140340000D01*
X250987998Y-140340000D01*
X250989998Y-140340000D01*
X250992998Y-140339000D01*
X250994998Y-140339000D01*
X250997998Y-140338000D01*
X250999998Y-140338000D01*
X251002998Y-140337000D01*
X251004998Y-140336000D01*
X251007998Y-140335000D01*
X251009998Y-140333000D01*
X251011998Y-140332000D01*
X251013998Y-140330000D01*
X251015998Y-140329000D01*
X251017998Y-140327000D01*
X251019998Y-140325000D01*
X251021998Y-140323000D01*
X251023998Y-140321000D01*
X251024998Y-140319000D01*
X251026998Y-140317000D01*
X251027998Y-140315000D01*
X251029998Y-140313000D01*
X251030998Y-140310000D01*
X251031998Y-140308000D01*
X251032998Y-140305000D01*
X251032998Y-140303000D01*
X251033998Y-140300000D01*
X251033998Y-140298000D01*
X251034998Y-140295000D01*
X251034998Y-140293000D01*
X251034998Y-140290000D01*
X251034998Y-140140000D01*
X251034998Y-140137000D01*
X251034998Y-140135000D01*
X251033998Y-140132000D01*
X251033998Y-140130000D01*
X251032998Y-140127000D01*
X251032998Y-140125000D01*
X251031998Y-140122000D01*
X251030998Y-140120000D01*
X251029998Y-140117000D01*
X251027998Y-140115000D01*
X251026998Y-140113000D01*
X251024998Y-140111000D01*
X251023998Y-140109000D01*
X251021998Y-140107000D01*
X251019998Y-140105000D01*
X251017998Y-140103000D01*
X251015998Y-140101000D01*
X251013998Y-140100000D01*
X251011998Y-140098000D01*
X251009998Y-140097000D01*
X251007998Y-140095000D01*
X251004998Y-140094000D01*
X251002998Y-140093000D01*
X250999998Y-140092000D01*
X250997998Y-140092000D01*
X250994998Y-140091000D01*
X250992998Y-140091000D01*
X250989998Y-140090000D01*
X250987998Y-140090000D01*
X250984998Y-140090000D01*
X250634998Y-140090000D01*
X250631998Y-140090000D01*
X250629998Y-140090000D01*
X250626998Y-140089000D01*
X250624998Y-140089000D01*
X250621998Y-140088000D01*
X250619998Y-140088000D01*
X250616998Y-140087000D01*
X250614998Y-140086000D01*
X250611998Y-140085000D01*
X250609998Y-140083000D01*
X250607998Y-140082000D01*
X250605998Y-140080000D01*
X250603998Y-140079000D01*
X250601998Y-140077000D01*
X250599998Y-140075000D01*
X250597998Y-140073000D01*
X250595998Y-140071000D01*
X250594998Y-140069000D01*
X250592998Y-140067000D01*
X250591998Y-140065000D01*
X250589998Y-140063000D01*
X250588998Y-140060000D01*
X250587998Y-140058000D01*
X250586998Y-140055000D01*
X250586998Y-140053000D01*
X250585998Y-140050000D01*
X250585998Y-140048000D01*
X250584998Y-140045000D01*
X250584998Y-140043000D01*
X250584998Y-140040000D01*
X250584998Y-139890000D01*
X250584998Y-139887000D01*
X250584998Y-139885000D01*
X250585998Y-139882000D01*
X250585998Y-139880000D01*
X250586998Y-139877000D01*
X250586998Y-139875000D01*
X250587998Y-139872000D01*
X250588998Y-139870000D01*
X250589998Y-139867000D01*
X250591998Y-139865000D01*
X250592998Y-139863000D01*
X250594998Y-139861000D01*
X250595998Y-139859000D01*
X250597998Y-139857000D01*
X250599998Y-139855000D01*
X250601998Y-139853000D01*
X250603998Y-139851000D01*
X250605998Y-139850000D01*
X250607998Y-139848000D01*
X250609998Y-139847000D01*
X250611998Y-139845000D01*
X250614998Y-139844000D01*
X250616998Y-139843000D01*
X250619998Y-139842000D01*
X250621998Y-139842000D01*
X250624998Y-139841000D01*
X250626998Y-139841000D01*
X250629998Y-139840000D01*
X250631998Y-139840000D01*
X250634998Y-139840000D01*
X251309998Y-139840000D01*
X251312998Y-139840000D01*
X251314998Y-139840000D01*
X251317998Y-139841000D01*
G36*
X251317998Y-139841000D02*
G01*
X251319998Y-139841000D01*
X251322998Y-139842000D01*
X251324998Y-139842000D01*
X251327998Y-139843000D01*
X251329998Y-139844000D01*
X251332998Y-139845000D01*
X251334998Y-139847000D01*
X251336998Y-139848000D01*
X251338998Y-139850000D01*
X251340998Y-139851000D01*
X251342998Y-139853000D01*
X251344998Y-139855000D01*
X251346998Y-139857000D01*
X251348998Y-139859000D01*
X251349998Y-139861000D01*
X251351998Y-139863000D01*
X251352998Y-139865000D01*
X251354998Y-139867000D01*
X251355998Y-139870000D01*
X251356998Y-139872000D01*
X251357998Y-139875000D01*
X251357998Y-139877000D01*
X251358998Y-139880000D01*
X251358998Y-139882000D01*
X251359998Y-139885000D01*
X251359998Y-139887000D01*
X251359998Y-139890000D01*
X251359998Y-141990000D01*
X251359998Y-141993000D01*
X251359998Y-141995000D01*
X251358998Y-141998000D01*
X251358998Y-142000000D01*
X251357998Y-142003000D01*
X251357998Y-142005000D01*
X251356998Y-142008000D01*
X251355998Y-142010000D01*
X251354998Y-142013000D01*
X251352998Y-142015000D01*
X251351998Y-142017000D01*
X251349998Y-142019000D01*
X251348998Y-142021000D01*
X251346998Y-142023000D01*
X251344998Y-142025000D01*
X251342998Y-142027000D01*
X251340998Y-142029000D01*
X251338998Y-142030000D01*
X251336998Y-142032000D01*
X251334998Y-142033000D01*
X251332998Y-142035000D01*
X251329998Y-142036000D01*
X251327998Y-142037000D01*
X251324998Y-142038000D01*
X251322998Y-142038000D01*
X251319998Y-142039000D01*
X251317998Y-142039000D01*
X251314998Y-142040000D01*
X251312998Y-142040000D01*
X251309998Y-142040000D01*
X251159998Y-142040000D01*
X251156998Y-142040000D01*
X251154998Y-142040000D01*
X251151998Y-142039000D01*
X251149998Y-142039000D01*
X251146998Y-142038000D01*
X251144998Y-142038000D01*
X251141998Y-142037000D01*
X251139998Y-142036000D01*
X251136998Y-142035000D01*
X251134998Y-142033000D01*
X251132998Y-142032000D01*
X251130998Y-142030000D01*
X251128998Y-142029000D01*
X251126998Y-142027000D01*
X251124998Y-142025000D01*
X251122998Y-142023000D01*
X251120998Y-142021000D01*
X251119998Y-142019000D01*
X251117998Y-142017000D01*
X251116998Y-142015000D01*
X251114998Y-142013000D01*
X251113998Y-142010000D01*
X251112998Y-142008000D01*
X251111998Y-142005000D01*
X251111998Y-142003000D01*
X251110998Y-142000000D01*
X251110998Y-141998000D01*
X251109998Y-141995000D01*
X251109998Y-141993000D01*
X251109998Y-141990000D01*
X251109998Y-141640000D01*
X251109998Y-141637000D01*
X251109998Y-141635000D01*
X251108998Y-141632000D01*
X251108998Y-141630000D01*
X251107998Y-141627000D01*
X251107998Y-141625000D01*
X251106998Y-141622000D01*
X251105998Y-141620000D01*
X251104998Y-141617000D01*
X251102998Y-141615000D01*
X251101998Y-141613000D01*
X251099998Y-141611000D01*
X251098998Y-141609000D01*
X251096998Y-141607000D01*
X251094998Y-141605000D01*
X251092998Y-141603000D01*
X251090998Y-141601000D01*
X251088998Y-141600000D01*
X251086998Y-141598000D01*
X251084998Y-141597000D01*
X251082998Y-141595000D01*
X251079998Y-141594000D01*
X251077998Y-141593000D01*
X251074998Y-141592000D01*
X251072998Y-141592000D01*
X251069998Y-141591000D01*
X251067998Y-141591000D01*
X251064998Y-141590000D01*
X251062998Y-141590000D01*
X251059998Y-141590000D01*
X250634998Y-141590000D01*
X250631998Y-141590000D01*
X250629998Y-141590000D01*
X250626998Y-141589000D01*
X250624998Y-141589000D01*
X250621998Y-141588000D01*
X250619998Y-141588000D01*
X250616998Y-141587000D01*
X250614998Y-141586000D01*
X250611998Y-141585000D01*
X250609998Y-141583000D01*
X250607998Y-141582000D01*
X250605998Y-141580000D01*
X250603998Y-141579000D01*
X250601998Y-141577000D01*
X250599998Y-141575000D01*
X250597998Y-141573000D01*
X250595998Y-141571000D01*
X250594998Y-141569000D01*
X250592998Y-141567000D01*
X250591998Y-141565000D01*
X250589998Y-141563000D01*
X250588998Y-141560000D01*
X250587998Y-141558000D01*
X250586998Y-141555000D01*
X250586998Y-141553000D01*
X250585998Y-141550000D01*
X250585998Y-141548000D01*
X250584998Y-141545000D01*
X250584998Y-141543000D01*
X250584998Y-141540000D01*
X250584998Y-141390000D01*
X250584998Y-141387000D01*
X250584998Y-141385000D01*
X250585998Y-141382000D01*
X250585998Y-141380000D01*
X250586998Y-141377000D01*
X250586998Y-141375000D01*
X250587998Y-141372000D01*
X250588998Y-141370000D01*
X250589998Y-141367000D01*
X250591998Y-141365000D01*
X250592998Y-141363000D01*
X250594998Y-141361000D01*
X250595998Y-141359000D01*
X250597998Y-141357000D01*
X250599998Y-141355000D01*
X250601998Y-141353000D01*
X250603998Y-141351000D01*
X250605998Y-141350000D01*
X250607998Y-141348000D01*
X250609998Y-141347000D01*
X250611998Y-141345000D01*
X250614998Y-141344000D01*
X250616998Y-141343000D01*
X250619998Y-141342000D01*
X250621998Y-141342000D01*
X250624998Y-141341000D01*
X250626998Y-141341000D01*
X250629998Y-141340000D01*
X250631998Y-141340000D01*
X250634998Y-141340000D01*
X250984998Y-141340000D01*
X250987998Y-141340000D01*
X250989998Y-141340000D01*
X250992998Y-141339000D01*
X250994998Y-141339000D01*
X250997998Y-141338000D01*
X250999998Y-141338000D01*
X251002998Y-141337000D01*
X251004998Y-141336000D01*
X251007998Y-141335000D01*
X251009998Y-141333000D01*
X251011998Y-141332000D01*
X251013998Y-141330000D01*
X251015998Y-141329000D01*
X251017998Y-141327000D01*
X251019998Y-141325000D01*
X251021998Y-141323000D01*
X251023998Y-141321000D01*
X251024998Y-141319000D01*
X251026998Y-141317000D01*
X251027998Y-141315000D01*
X251029998Y-141313000D01*
X251030998Y-141310000D01*
X251031998Y-141308000D01*
X251032998Y-141305000D01*
X251032998Y-141303000D01*
X251033998Y-141300000D01*
X251033998Y-141298000D01*
X251034998Y-141295000D01*
X251034998Y-141293000D01*
X251034998Y-141290000D01*
X251034998Y-141140000D01*
X251034998Y-141137000D01*
X251034998Y-141135000D01*
X251033998Y-141132000D01*
X251033998Y-141130000D01*
X251032998Y-141127000D01*
X251032998Y-141125000D01*
X251031998Y-141122000D01*
X251030998Y-141120000D01*
X251029998Y-141117000D01*
X251027998Y-141115000D01*
X251026998Y-141113000D01*
X251024998Y-141111000D01*
X251023998Y-141109000D01*
X251021998Y-141107000D01*
X251019998Y-141105000D01*
X251017998Y-141103000D01*
X251015998Y-141101000D01*
X251013998Y-141100000D01*
X251011998Y-141098000D01*
X251009998Y-141097000D01*
X251007998Y-141095000D01*
X251004998Y-141094000D01*
X251002998Y-141093000D01*
X250999998Y-141092000D01*
X250997998Y-141092000D01*
X250994998Y-141091000D01*
X250992998Y-141091000D01*
X250989998Y-141090000D01*
X250987998Y-141090000D01*
X250984998Y-141090000D01*
X250634998Y-141090000D01*
X250631998Y-141090000D01*
X250629998Y-141090000D01*
X250626998Y-141089000D01*
X250624998Y-141089000D01*
X250621998Y-141088000D01*
X250619998Y-141088000D01*
X250616998Y-141087000D01*
X250614998Y-141086000D01*
X250611998Y-141085000D01*
X250609998Y-141083000D01*
X250607998Y-141082000D01*
X250605998Y-141080000D01*
X250603998Y-141079000D01*
X250601998Y-141077000D01*
X250599998Y-141075000D01*
X250597998Y-141073000D01*
X250595998Y-141071000D01*
X250594998Y-141069000D01*
X250592998Y-141067000D01*
X250591998Y-141065000D01*
X250589998Y-141063000D01*
X250588998Y-141060000D01*
X250587998Y-141058000D01*
X250586998Y-141055000D01*
X250586998Y-141053000D01*
X250585998Y-141050000D01*
X250585998Y-141048000D01*
X250584998Y-141045000D01*
X250584998Y-141043000D01*
X250584998Y-141040000D01*
X250584998Y-140890000D01*
X250584998Y-140887000D01*
X250584998Y-140885000D01*
X250585998Y-140882000D01*
X250585998Y-140880000D01*
X250586998Y-140877000D01*
X250586998Y-140875000D01*
X250587998Y-140872000D01*
X250588998Y-140870000D01*
X250589998Y-140867000D01*
X250591998Y-140865000D01*
X250592998Y-140863000D01*
X250594998Y-140861000D01*
X250595998Y-140859000D01*
X250597998Y-140857000D01*
X250599998Y-140855000D01*
X250601998Y-140853000D01*
X250603998Y-140851000D01*
X250605998Y-140850000D01*
X250607998Y-140848000D01*
X250609998Y-140847000D01*
X250611998Y-140845000D01*
X250614998Y-140844000D01*
X250616998Y-140843000D01*
X250619998Y-140842000D01*
X250621998Y-140842000D01*
X250624998Y-140841000D01*
X250626998Y-140841000D01*
X250629998Y-140840000D01*
X250631998Y-140840000D01*
X250634998Y-140840000D01*
X250984998Y-140840000D01*
X250987998Y-140840000D01*
X250989998Y-140840000D01*
X250992998Y-140839000D01*
X250994998Y-140839000D01*
X250997998Y-140838000D01*
X250999998Y-140838000D01*
X251002998Y-140837000D01*
X251004998Y-140836000D01*
X251007998Y-140835000D01*
X251009998Y-140833000D01*
X251011998Y-140832000D01*
X251013998Y-140830000D01*
X251015998Y-140829000D01*
X251017998Y-140827000D01*
X251019998Y-140825000D01*
X251021998Y-140823000D01*
X251023998Y-140821000D01*
X251024998Y-140819000D01*
X251026998Y-140817000D01*
X251027998Y-140815000D01*
X251029998Y-140813000D01*
X251030998Y-140810000D01*
X251031998Y-140808000D01*
X251032998Y-140805000D01*
X251032998Y-140803000D01*
X251033998Y-140800000D01*
X251033998Y-140798000D01*
X251034998Y-140795000D01*
X251034998Y-140793000D01*
X251034998Y-140790000D01*
X251034998Y-140640000D01*
X251034998Y-140637000D01*
X251034998Y-140635000D01*
X251033998Y-140632000D01*
X251033998Y-140630000D01*
X251032998Y-140627000D01*
X251032998Y-140625000D01*
X251031998Y-140622000D01*
X251030998Y-140620000D01*
X251029998Y-140617000D01*
X251027998Y-140615000D01*
X251026998Y-140613000D01*
X251024998Y-140611000D01*
X251023998Y-140609000D01*
X251021998Y-140607000D01*
X251019998Y-140605000D01*
X251017998Y-140603000D01*
X251015998Y-140601000D01*
X251013998Y-140600000D01*
X251011998Y-140598000D01*
X251009998Y-140597000D01*
X251007998Y-140595000D01*
X251004998Y-140594000D01*
X251002998Y-140593000D01*
X250999998Y-140592000D01*
X250997998Y-140592000D01*
X250994998Y-140591000D01*
X250992998Y-140591000D01*
X250989998Y-140590000D01*
X250987998Y-140590000D01*
X250984998Y-140590000D01*
X250634998Y-140590000D01*
X250631998Y-140590000D01*
X250629998Y-140590000D01*
X250626998Y-140589000D01*
X250624998Y-140589000D01*
X250621998Y-140588000D01*
X250619998Y-140588000D01*
X250616998Y-140587000D01*
X250614998Y-140586000D01*
X250611998Y-140585000D01*
X250609998Y-140583000D01*
X250607998Y-140582000D01*
X250605998Y-140580000D01*
X250603998Y-140579000D01*
X250601998Y-140577000D01*
X250599998Y-140575000D01*
X250597998Y-140573000D01*
X250595998Y-140571000D01*
X250594998Y-140569000D01*
X250592998Y-140567000D01*
X250591998Y-140565000D01*
X250589998Y-140563000D01*
X250588998Y-140560000D01*
X250587998Y-140558000D01*
X250586998Y-140555000D01*
X250586998Y-140553000D01*
X250585998Y-140550000D01*
X250585998Y-140548000D01*
X250584998Y-140545000D01*
X250584998Y-140543000D01*
X250584998Y-140540000D01*
X250584998Y-140390000D01*
X250584998Y-140387000D01*
X250584998Y-140385000D01*
X250585998Y-140382000D01*
X250585998Y-140380000D01*
X250586998Y-140377000D01*
X250586998Y-140375000D01*
X250587998Y-140372000D01*
X250588998Y-140370000D01*
X250589998Y-140367000D01*
X250591998Y-140365000D01*
X250592998Y-140363000D01*
X250594998Y-140361000D01*
X250595998Y-140359000D01*
X250597998Y-140357000D01*
X250599998Y-140355000D01*
X250601998Y-140353000D01*
X250603998Y-140351000D01*
X250605998Y-140350000D01*
X250607998Y-140348000D01*
X250609998Y-140347000D01*
X250611998Y-140345000D01*
X250614998Y-140344000D01*
X250616998Y-140343000D01*
X250619998Y-140342000D01*
X250621998Y-140342000D01*
X250624998Y-140341000D01*
X250626998Y-140341000D01*
X250629998Y-140340000D01*
X250631998Y-140340000D01*
X250634998Y-140340000D01*
X250984998Y-140340000D01*
X250987998Y-140340000D01*
X250989998Y-140340000D01*
X250992998Y-140339000D01*
X250994998Y-140339000D01*
X250997998Y-140338000D01*
X250999998Y-140338000D01*
X251002998Y-140337000D01*
X251004998Y-140336000D01*
X251007998Y-140335000D01*
X251009998Y-140333000D01*
X251011998Y-140332000D01*
X251013998Y-140330000D01*
X251015998Y-140329000D01*
X251017998Y-140327000D01*
X251019998Y-140325000D01*
X251021998Y-140323000D01*
X251023998Y-140321000D01*
X251024998Y-140319000D01*
X251026998Y-140317000D01*
X251027998Y-140315000D01*
X251029998Y-140313000D01*
X251030998Y-140310000D01*
X251031998Y-140308000D01*
X251032998Y-140305000D01*
X251032998Y-140303000D01*
X251033998Y-140300000D01*
X251033998Y-140298000D01*
X251034998Y-140295000D01*
X251034998Y-140293000D01*
X251034998Y-140290000D01*
X251034998Y-140140000D01*
X251034998Y-140137000D01*
X251034998Y-140135000D01*
X251033998Y-140132000D01*
X251033998Y-140130000D01*
X251032998Y-140127000D01*
X251032998Y-140125000D01*
X251031998Y-140122000D01*
X251030998Y-140120000D01*
X251029998Y-140117000D01*
X251027998Y-140115000D01*
X251026998Y-140113000D01*
X251024998Y-140111000D01*
X251023998Y-140109000D01*
X251021998Y-140107000D01*
X251019998Y-140105000D01*
X251017998Y-140103000D01*
X251015998Y-140101000D01*
X251013998Y-140100000D01*
X251011998Y-140098000D01*
X251009998Y-140097000D01*
X251007998Y-140095000D01*
X251004998Y-140094000D01*
X251002998Y-140093000D01*
X250999998Y-140092000D01*
X250997998Y-140092000D01*
X250994998Y-140091000D01*
X250992998Y-140091000D01*
X250989998Y-140090000D01*
X250987998Y-140090000D01*
X250984998Y-140090000D01*
X250634998Y-140090000D01*
X250631998Y-140090000D01*
X250629998Y-140090000D01*
X250626998Y-140089000D01*
X250624998Y-140089000D01*
X250621998Y-140088000D01*
X250619998Y-140088000D01*
X250616998Y-140087000D01*
X250614998Y-140086000D01*
X250611998Y-140085000D01*
X250609998Y-140083000D01*
X250607998Y-140082000D01*
X250605998Y-140080000D01*
X250603998Y-140079000D01*
X250601998Y-140077000D01*
X250599998Y-140075000D01*
X250597998Y-140073000D01*
X250595998Y-140071000D01*
X250594998Y-140069000D01*
X250592998Y-140067000D01*
X250591998Y-140065000D01*
X250589998Y-140063000D01*
X250588998Y-140060000D01*
X250587998Y-140058000D01*
X250586998Y-140055000D01*
X250586998Y-140053000D01*
X250585998Y-140050000D01*
X250585998Y-140048000D01*
X250584998Y-140045000D01*
X250584998Y-140043000D01*
X250584998Y-140040000D01*
X250584998Y-139890000D01*
X250584998Y-139887000D01*
X250584998Y-139885000D01*
X250585998Y-139882000D01*
X250585998Y-139880000D01*
X250586998Y-139877000D01*
X250586998Y-139875000D01*
X250587998Y-139872000D01*
X250588998Y-139870000D01*
X250589998Y-139867000D01*
X250591998Y-139865000D01*
X250592998Y-139863000D01*
X250594998Y-139861000D01*
X250595998Y-139859000D01*
X250597998Y-139857000D01*
X250599998Y-139855000D01*
X250601998Y-139853000D01*
X250603998Y-139851000D01*
X250605998Y-139850000D01*
X250607998Y-139848000D01*
X250609998Y-139847000D01*
X250611998Y-139845000D01*
X250614998Y-139844000D01*
X250616998Y-139843000D01*
X250619998Y-139842000D01*
X250621998Y-139842000D01*
X250624998Y-139841000D01*
X250626998Y-139841000D01*
X250629998Y-139840000D01*
X250631998Y-139840000D01*
X250634998Y-139840000D01*
X251309998Y-139840000D01*
X251312998Y-139840000D01*
X251314998Y-139840000D01*
X251317998Y-139841000D01*
G37*
%TO.C,U27*%
X217992500Y-85340000D02*
X217532500Y-85340000D01*
X217532500Y-85060000D01*
X217992500Y-85060000D01*
X217992500Y-85340000D01*
G36*
X217992500Y-85340000D02*
G01*
X217532500Y-85340000D01*
X217532500Y-85060000D01*
X217992500Y-85060000D01*
X217992500Y-85340000D01*
G37*
X217992500Y-85840000D02*
X217532500Y-85840000D01*
X217532500Y-85560000D01*
X217992500Y-85560000D01*
X217992500Y-85840000D01*
G36*
X217992500Y-85840000D02*
G01*
X217532500Y-85840000D01*
X217532500Y-85560000D01*
X217992500Y-85560000D01*
X217992500Y-85840000D01*
G37*
X217992500Y-86340000D02*
X217532500Y-86340000D01*
X217532500Y-86060000D01*
X217992500Y-86060000D01*
X217992500Y-86340000D01*
G36*
X217992500Y-86340000D02*
G01*
X217532500Y-86340000D01*
X217532500Y-86060000D01*
X217992500Y-86060000D01*
X217992500Y-86340000D01*
G37*
X217992500Y-86840000D02*
X217532500Y-86840000D01*
X217532500Y-86560000D01*
X217992500Y-86560000D01*
X217992500Y-86840000D01*
G36*
X217992500Y-86840000D02*
G01*
X217532500Y-86840000D01*
X217532500Y-86560000D01*
X217992500Y-86560000D01*
X217992500Y-86840000D01*
G37*
X218565000Y-85267500D02*
X218285000Y-85267500D01*
X218285000Y-84807500D01*
X218565000Y-84807500D01*
X218565000Y-85267500D01*
G36*
X218565000Y-85267500D02*
G01*
X218285000Y-85267500D01*
X218285000Y-84807500D01*
X218565000Y-84807500D01*
X218565000Y-85267500D01*
G37*
X218565000Y-87092500D02*
X218285000Y-87092500D01*
X218285000Y-86632500D01*
X218565000Y-86632500D01*
X218565000Y-87092500D01*
G36*
X218565000Y-87092500D02*
G01*
X218285000Y-87092500D01*
X218285000Y-86632500D01*
X218565000Y-86632500D01*
X218565000Y-87092500D01*
G37*
X219065000Y-85267500D02*
X218785000Y-85267500D01*
X218785000Y-84807500D01*
X219065000Y-84807500D01*
X219065000Y-85267500D01*
G36*
X219065000Y-85267500D02*
G01*
X218785000Y-85267500D01*
X218785000Y-84807500D01*
X219065000Y-84807500D01*
X219065000Y-85267500D01*
G37*
X219065000Y-87092500D02*
X218785000Y-87092500D01*
X218785000Y-86632500D01*
X219065000Y-86632500D01*
X219065000Y-87092500D01*
G36*
X219065000Y-87092500D02*
G01*
X218785000Y-87092500D01*
X218785000Y-86632500D01*
X219065000Y-86632500D01*
X219065000Y-87092500D01*
G37*
X219565000Y-85267500D02*
X219285000Y-85267500D01*
X219285000Y-84807500D01*
X219565000Y-84807500D01*
X219565000Y-85267500D01*
G36*
X219565000Y-85267500D02*
G01*
X219285000Y-85267500D01*
X219285000Y-84807500D01*
X219565000Y-84807500D01*
X219565000Y-85267500D01*
G37*
X219565000Y-87092500D02*
X219285000Y-87092500D01*
X219285000Y-86632500D01*
X219565000Y-86632500D01*
X219565000Y-87092500D01*
G36*
X219565000Y-87092500D02*
G01*
X219285000Y-87092500D01*
X219285000Y-86632500D01*
X219565000Y-86632500D01*
X219565000Y-87092500D01*
G37*
X220317500Y-85340000D02*
X219857500Y-85340000D01*
X219857500Y-85060000D01*
X220317500Y-85060000D01*
X220317500Y-85340000D01*
G36*
X220317500Y-85340000D02*
G01*
X219857500Y-85340000D01*
X219857500Y-85060000D01*
X220317500Y-85060000D01*
X220317500Y-85340000D01*
G37*
X220317500Y-85840000D02*
X219857500Y-85840000D01*
X219857500Y-85560000D01*
X220317500Y-85560000D01*
X220317500Y-85840000D01*
G36*
X220317500Y-85840000D02*
G01*
X219857500Y-85840000D01*
X219857500Y-85560000D01*
X220317500Y-85560000D01*
X220317500Y-85840000D01*
G37*
X220317500Y-86340000D02*
X219857500Y-86340000D01*
X219857500Y-86060000D01*
X220317500Y-86060000D01*
X220317500Y-86340000D01*
G36*
X220317500Y-86340000D02*
G01*
X219857500Y-86340000D01*
X219857500Y-86060000D01*
X220317500Y-86060000D01*
X220317500Y-86340000D01*
G37*
X220317500Y-86840000D02*
X219857500Y-86840000D01*
X219857500Y-86560000D01*
X220317500Y-86560000D01*
X220317500Y-86840000D01*
G36*
X220317500Y-86840000D02*
G01*
X219857500Y-86840000D01*
X219857500Y-86560000D01*
X220317500Y-86560000D01*
X220317500Y-86840000D01*
G37*
D11*
%TO.C,U5*%
G36*
X246246899Y-131042710D02*
G01*
X244443702Y-131042710D01*
X244443700Y-130585500D01*
X246246899Y-130585500D01*
X246246899Y-131042710D01*
G37*
%TD*%
D12*
%TO.C,Y2*%
X228967399Y-105952500D03*
X232013401Y-105952500D03*
%TD*%
D13*
%TO.C,D5*%
X244190000Y-116000000D03*
X242790000Y-116000000D03*
X242790000Y-118500000D03*
X244190000Y-118500000D03*
%TD*%
D14*
%TO.C,U6*%
X226500000Y-100187500D03*
X227000000Y-100187500D03*
X227500000Y-100187500D03*
X228000000Y-100187500D03*
X228500000Y-100187500D03*
X229000000Y-100187500D03*
X229500000Y-100187500D03*
X230000000Y-100187500D03*
X230500000Y-100187500D03*
X231000000Y-100187500D03*
X231500000Y-100187500D03*
X232000000Y-100187500D03*
X232500000Y-100187500D03*
X233000000Y-100187500D03*
X233500000Y-100187500D03*
X234000000Y-100187500D03*
X234500000Y-100187500D03*
X235000000Y-100187500D03*
X235500000Y-100187500D03*
X236000000Y-100187500D03*
X236500000Y-100187500D03*
X237000000Y-100187500D03*
X237500000Y-100187500D03*
X238000000Y-100187500D03*
X238500000Y-100187500D03*
X239000000Y-100187500D03*
X239500000Y-100187500D03*
X240000000Y-100187500D03*
X240500000Y-100187500D03*
X241000000Y-100187500D03*
X241500000Y-100187500D03*
X242000000Y-100187500D03*
X242500000Y-100187500D03*
X243000000Y-100187500D03*
X243500000Y-100187500D03*
X244000000Y-100187500D03*
D15*
X245912500Y-98275000D03*
X245912500Y-97775000D03*
X245912500Y-97275000D03*
X245912500Y-96775000D03*
X245912500Y-96275000D03*
X245912500Y-95775000D03*
X245912500Y-95275000D03*
X245912500Y-94775000D03*
X245912500Y-94275000D03*
X245912500Y-93775000D03*
X245912500Y-93275000D03*
X245912500Y-92775000D03*
X245912500Y-92275000D03*
X245912500Y-91775000D03*
X245912500Y-91275000D03*
X245912500Y-90775000D03*
X245912500Y-90275000D03*
X245912500Y-89775000D03*
X245912500Y-89275000D03*
X245912500Y-88775000D03*
X245912500Y-88275000D03*
X245912500Y-87775000D03*
X245912500Y-87275000D03*
X245912500Y-86775000D03*
X245912500Y-86275000D03*
X245912500Y-85775000D03*
X245912500Y-85275000D03*
X245912500Y-84775000D03*
X245912500Y-84275000D03*
X245912500Y-83775000D03*
X245912500Y-83275000D03*
X245912500Y-82775000D03*
X245912500Y-82275000D03*
X245912500Y-81775000D03*
X245912500Y-81275000D03*
X245912500Y-80775000D03*
D14*
X244000000Y-78862500D03*
X243500000Y-78862500D03*
X243000000Y-78862500D03*
X242500000Y-78862500D03*
X242000000Y-78862500D03*
X241500000Y-78862500D03*
X241000000Y-78862500D03*
X240500000Y-78862500D03*
X240000000Y-78862500D03*
X239500000Y-78862500D03*
X239000000Y-78862500D03*
X238500000Y-78862500D03*
X238000000Y-78862500D03*
X237500000Y-78862500D03*
X237000000Y-78862500D03*
X236500000Y-78862500D03*
X236000000Y-78862500D03*
X235500000Y-78862500D03*
X235000000Y-78862500D03*
X234500000Y-78862500D03*
X234000000Y-78862500D03*
X233500000Y-78862500D03*
X233000000Y-78862500D03*
X232500000Y-78862500D03*
X232000000Y-78862500D03*
X231500000Y-78862500D03*
X231000000Y-78862500D03*
X230500000Y-78862500D03*
X230000000Y-78862500D03*
X229500000Y-78862500D03*
X229000000Y-78862500D03*
X228500000Y-78862500D03*
X228000000Y-78862500D03*
X227500000Y-78862500D03*
X227000000Y-78862500D03*
X226500000Y-78862500D03*
D15*
X224587500Y-80775000D03*
X224587500Y-81275000D03*
X224587500Y-81775000D03*
X224587500Y-82275000D03*
X224587500Y-82775000D03*
X224587500Y-83275000D03*
X224587500Y-83775000D03*
X224587500Y-84275000D03*
X224587500Y-84775000D03*
X224587500Y-85275000D03*
X224587500Y-85775000D03*
X224587500Y-86275000D03*
X224587500Y-86775000D03*
X224587500Y-87275000D03*
X224587500Y-87775000D03*
X224587500Y-88275000D03*
X224587500Y-88775000D03*
X224587500Y-89275000D03*
X224587500Y-89775000D03*
X224587500Y-90275000D03*
X224587500Y-90775000D03*
X224587500Y-91275000D03*
X224587500Y-91775000D03*
X224587500Y-92275000D03*
X224587500Y-92775000D03*
X224587500Y-93275000D03*
X224587500Y-93775000D03*
X224587500Y-94275000D03*
X224587500Y-94775000D03*
X224587500Y-95275000D03*
X224587500Y-95775000D03*
X224587500Y-96275000D03*
X224587500Y-96775000D03*
X224587500Y-97275000D03*
X224587500Y-97775000D03*
X224587500Y-98275000D03*
%TD*%
D16*
%TO.C,L3*%
X216700000Y-127185000D03*
X216700000Y-124815000D03*
%TD*%
D17*
%TO.C,BZ1*%
X230750000Y-111477300D03*
X230750000Y-119122700D03*
%TD*%
D18*
%TO.C,L1*%
X222645000Y-143100000D03*
X225955000Y-143100000D03*
%TD*%
D19*
%TO.C,U21*%
X252875000Y-32700000D03*
X252875000Y-31700000D03*
X252875000Y-30700000D03*
X252875000Y-29700000D03*
X252875000Y-28700000D03*
X252875000Y-27700000D03*
X252875000Y-26700000D03*
X252875000Y-25700000D03*
X252875000Y-24700000D03*
X252875000Y-23700000D03*
D20*
X250750000Y-23775000D03*
X249750000Y-23775000D03*
X248750000Y-23775000D03*
X247750000Y-23775000D03*
X246750000Y-23775000D03*
D19*
X244625000Y-23700000D03*
X244625000Y-24700000D03*
X244625000Y-25700000D03*
X244625000Y-26700000D03*
X244625000Y-27700000D03*
X244625000Y-28700000D03*
X244625000Y-29700000D03*
X244625000Y-30700000D03*
X244625000Y-31700000D03*
X244625000Y-32700000D03*
D20*
X246750000Y-32625000D03*
X247750000Y-32625000D03*
X248750000Y-32625000D03*
X249750000Y-32625000D03*
X250750000Y-32625000D03*
D21*
X249325000Y-29920000D03*
X248175000Y-29920000D03*
X250475000Y-28770000D03*
X249325000Y-28770000D03*
X248175000Y-28770000D03*
X247025000Y-28770000D03*
X249325000Y-27620000D03*
X248175000Y-27620000D03*
X250475000Y-26470000D03*
X249325000Y-26470000D03*
X248175000Y-26470000D03*
X247025000Y-26470000D03*
%TD*%
D22*
%TO.C,C92*%
X254510000Y-25650000D03*
X254510000Y-26610000D03*
%TD*%
D23*
%TO.C,R128*%
X242770000Y-24700000D03*
X241750000Y-24700000D03*
%TD*%
D24*
%TO.C,U4*%
X218050000Y-120250000D03*
X219170000Y-120250000D03*
X220290000Y-120250000D03*
X221410000Y-120250000D03*
X218050000Y-119350000D03*
X219170000Y-119350000D03*
X220290000Y-119350000D03*
X221410000Y-119350000D03*
D25*
X217230000Y-121662500D03*
X217730000Y-121662500D03*
X218230000Y-121662500D03*
X218730000Y-121662500D03*
X219230000Y-121662500D03*
X219730000Y-121662500D03*
X220230000Y-121662500D03*
X220730000Y-121662500D03*
X221230000Y-121662500D03*
X221730000Y-121662500D03*
X222230000Y-121662500D03*
D26*
X222717500Y-120550000D03*
X222717500Y-120050000D03*
X222717500Y-119550000D03*
X222717500Y-119050000D03*
D25*
X222230000Y-117937500D03*
X221730000Y-117937500D03*
X221230000Y-117937500D03*
X220730000Y-117937500D03*
X220230000Y-117937500D03*
X219730000Y-117937500D03*
X219230000Y-117937500D03*
X218730000Y-117937500D03*
X218230000Y-117937500D03*
X217730000Y-117937500D03*
X217230000Y-117937500D03*
D26*
X216742500Y-119050000D03*
X216742500Y-119550000D03*
X216742500Y-120050000D03*
X216742500Y-120550000D03*
%TD*%
D27*
%TO.C,U7*%
X249762500Y-56500000D03*
X249762500Y-57000000D03*
X249762500Y-57500000D03*
X249762500Y-58000000D03*
X249762500Y-58500000D03*
X249762500Y-59000000D03*
X249762500Y-59500000D03*
X251112500Y-59500000D03*
X251112500Y-59000000D03*
X251112500Y-58500000D03*
X251112500Y-58000000D03*
X251112500Y-57500000D03*
X251112500Y-57000000D03*
X251112500Y-56500000D03*
%TD*%
D28*
%TO.C,R31*%
X259260000Y-136544999D03*
X259260000Y-137564999D03*
%TD*%
D29*
%TO.C,C77*%
X241550000Y-136810000D03*
X244500000Y-136810000D03*
%TD*%
D30*
%TO.C,C45*%
X252100000Y-54475000D03*
X252100000Y-52925000D03*
%TD*%
D28*
%TO.C,R23*%
X250900000Y-61560000D03*
X250900000Y-62580000D03*
%TD*%
D23*
%TO.C,R39*%
X218270000Y-88150000D03*
X217250000Y-88150000D03*
%TD*%
%TO.C,R104*%
X236000000Y-121000000D03*
X234980000Y-121000000D03*
%TD*%
D22*
%TO.C,C100*%
X227500000Y-26270000D03*
X227500000Y-27230000D03*
%TD*%
D31*
%TO.C,L5*%
X211900000Y-38735000D03*
X211900000Y-37765000D03*
%TD*%
D32*
%TO.C,C62*%
X218770000Y-83900000D03*
X219730000Y-83900000D03*
%TD*%
D29*
%TO.C,C18*%
X231500000Y-143250000D03*
X234450000Y-143250000D03*
%TD*%
D23*
%TO.C,R103*%
X241250000Y-118500000D03*
X240230000Y-118500000D03*
%TD*%
%TO.C,R79*%
X215628000Y-71240000D03*
X214608000Y-71240000D03*
%TD*%
D22*
%TO.C,C32*%
X247710000Y-79795000D03*
X247710000Y-80755000D03*
%TD*%
D33*
%TO.C,R37*%
X247700000Y-63360000D03*
X247700000Y-62340000D03*
%TD*%
D23*
%TO.C,R78*%
X215628000Y-70240000D03*
X214608000Y-70240000D03*
%TD*%
D34*
%TO.C,J9*%
X264200000Y-45395000D03*
X264200000Y-44145000D03*
X264200000Y-42895000D03*
X264200000Y-41645000D03*
D35*
X267400000Y-47245000D03*
X267400000Y-39795000D03*
%TD*%
D36*
%TO.C,C5*%
X258009998Y-138524999D03*
X258009998Y-137564999D03*
%TD*%
D37*
%TO.C,C7*%
X252400000Y-128375000D03*
X252400000Y-125425000D03*
%TD*%
D38*
%TO.C,Y1*%
X234172500Y-108202500D03*
X238172500Y-108202500D03*
X238172500Y-105802500D03*
X234172500Y-105802500D03*
%TD*%
D39*
%TO.C,R105*%
X245740000Y-116000000D03*
X246760000Y-116000000D03*
%TD*%
D40*
%TO.C,U12*%
X219930501Y-67489999D03*
D41*
X219118001Y-67477500D03*
X218618000Y-67477500D03*
X218118000Y-67477500D03*
X217617999Y-67477500D03*
D40*
X216805499Y-67489999D03*
X216805499Y-67990001D03*
X216805499Y-68490000D03*
X216805499Y-68989999D03*
X216805499Y-69490000D03*
X216805499Y-69990000D03*
X216805499Y-70490001D03*
X216805499Y-70990000D03*
X216805499Y-71489999D03*
X216805499Y-71990001D03*
D41*
X217617999Y-72002500D03*
X218118000Y-72002500D03*
X218618000Y-72002500D03*
X219118001Y-72002500D03*
D40*
X219930501Y-71990001D03*
X219930501Y-71489999D03*
X219930501Y-70990000D03*
X219930501Y-70490001D03*
X219930501Y-69990000D03*
X219930501Y-69490000D03*
X219930501Y-68989999D03*
X219930501Y-68490000D03*
X219930501Y-67990001D03*
%TD*%
D33*
%TO.C,R20*%
X233480000Y-30460000D03*
X233480000Y-29440000D03*
%TD*%
D42*
%TO.C,C22*%
X238730000Y-104275000D03*
X237770000Y-104275000D03*
%TD*%
D39*
%TO.C,R16*%
X239490000Y-103000000D03*
X240510000Y-103000000D03*
%TD*%
D36*
%TO.C,C42*%
X223000000Y-99275000D03*
X223000000Y-98315000D03*
%TD*%
D43*
%TO.C,FB2*%
X244000000Y-104075000D03*
X244000000Y-105725000D03*
%TD*%
D33*
%TO.C,R4*%
X256259998Y-144010000D03*
X256259998Y-142990000D03*
%TD*%
D23*
%TO.C,R80*%
X215638000Y-69240000D03*
X214618000Y-69240000D03*
%TD*%
D42*
%TO.C,C9*%
X245600000Y-125900000D03*
X244640000Y-125900000D03*
%TD*%
D28*
%TO.C,R40*%
X221118000Y-73240000D03*
X221118000Y-74260000D03*
%TD*%
D33*
%TO.C,R32*%
X251710000Y-133800000D03*
X251710000Y-132780000D03*
%TD*%
D44*
%TO.C,J28*%
X202780000Y-44200000D03*
X205320000Y-44200000D03*
X207860000Y-44200000D03*
X210400000Y-44200000D03*
X212940000Y-44200000D03*
X202780000Y-48640002D03*
X205320000Y-48640002D03*
X207860000Y-48640002D03*
X210400000Y-48640002D03*
X212940000Y-48640002D03*
%TD*%
D32*
%TO.C,C74*%
X248200001Y-72300000D03*
X249160001Y-72300000D03*
%TD*%
D45*
%TO.C,U23*%
X213650000Y-24250000D03*
X213650000Y-25350000D03*
X213650000Y-26450000D03*
X213650000Y-27550000D03*
X213650000Y-28650000D03*
X213650000Y-29750000D03*
X213650000Y-30850000D03*
X213650000Y-33850000D03*
X213650000Y-34950000D03*
X213650000Y-36050000D03*
X213650000Y-37150000D03*
X213650000Y-38250000D03*
X225650000Y-38250000D03*
X225650000Y-37150000D03*
X225650000Y-36050000D03*
X225650000Y-34950000D03*
X225650000Y-33850000D03*
X225650000Y-30850000D03*
X225650000Y-29750000D03*
X225650000Y-28650000D03*
X225650000Y-27550000D03*
X225650000Y-26450000D03*
X225650000Y-25350000D03*
X225650000Y-24250000D03*
%TD*%
D46*
%TO.C,C95*%
X258010000Y-25720000D03*
X258010000Y-27620000D03*
%TD*%
D28*
%TO.C,R22*%
X249800000Y-61560000D03*
X249800000Y-62580000D03*
%TD*%
D36*
%TO.C,C36*%
X247710000Y-98025000D03*
X247710000Y-97065000D03*
%TD*%
D47*
%TO.C,C54*%
X219275000Y-115750000D03*
X216325000Y-115750000D03*
%TD*%
D48*
%TO.C,C29*%
X223075000Y-132250000D03*
X221525000Y-132250000D03*
%TD*%
D42*
%TO.C,C33*%
X226730000Y-77040000D03*
X225770000Y-77040000D03*
%TD*%
D32*
%TO.C,C58*%
X219070000Y-123000000D03*
X220030000Y-123000000D03*
%TD*%
D42*
%TO.C,C64*%
X251690000Y-134800000D03*
X250730000Y-134800000D03*
%TD*%
D33*
%TO.C,R38*%
X244950001Y-75570000D03*
X244950001Y-74550000D03*
%TD*%
D32*
%TO.C,C27*%
X237620000Y-29480000D03*
X238580000Y-29480000D03*
%TD*%
D33*
%TO.C,R17*%
X222450000Y-123960000D03*
X222450000Y-122940000D03*
%TD*%
D28*
%TO.C,R1*%
X251759998Y-142990000D03*
X251759998Y-144010000D03*
%TD*%
D30*
%TO.C,C52*%
X249000000Y-81050000D03*
X249000000Y-79500000D03*
%TD*%
D49*
%TO.C,D2*%
X242200000Y-147350000D03*
X246200000Y-147350000D03*
%TD*%
D39*
%TO.C,R144*%
X247280000Y-124950000D03*
X248300000Y-124950000D03*
%TD*%
D22*
%TO.C,C81*%
X215618000Y-67260000D03*
X215618000Y-68220000D03*
%TD*%
D36*
%TO.C,C65*%
X249759998Y-136730000D03*
X249759998Y-135770000D03*
%TD*%
%TO.C,C104*%
X227500000Y-25230000D03*
X227500000Y-24270000D03*
%TD*%
D28*
%TO.C,R76*%
X253100000Y-61540000D03*
X253100000Y-62560000D03*
%TD*%
D42*
%TO.C,C37*%
X233730000Y-77100000D03*
X232770000Y-77100000D03*
%TD*%
D33*
%TO.C,R18*%
X224050000Y-120510000D03*
X224050000Y-119490000D03*
%TD*%
D42*
%TO.C,C83*%
X218868000Y-73240000D03*
X217908000Y-73240000D03*
%TD*%
%TO.C,C105*%
X212960000Y-40100000D03*
X212000000Y-40100000D03*
%TD*%
D50*
%TO.C,C17*%
X231450000Y-147750000D03*
X233000000Y-147750000D03*
%TD*%
D29*
%TO.C,C19*%
X231500000Y-145750000D03*
X234450000Y-145750000D03*
%TD*%
D47*
%TO.C,C13*%
X229450000Y-131000000D03*
X226500000Y-131000000D03*
%TD*%
D29*
%TO.C,C60*%
X221575000Y-128250000D03*
X224525000Y-128250000D03*
%TD*%
D51*
%TO.C,C48*%
X255250000Y-128375000D03*
X255250000Y-125425000D03*
%TD*%
D52*
%TO.C,C55*%
X225750000Y-123050000D03*
X223850000Y-123050000D03*
%TD*%
D32*
%TO.C,C11*%
X243770000Y-133905000D03*
X244730000Y-133905000D03*
%TD*%
D23*
%TO.C,R50*%
X229310000Y-109600000D03*
X228290000Y-109600000D03*
%TD*%
D22*
%TO.C,C41*%
X222790000Y-91110000D03*
X222790000Y-92070000D03*
%TD*%
D53*
%TO.C,U14*%
X217643000Y-59175000D03*
X217643000Y-60425000D03*
X217643000Y-61675000D03*
X217643000Y-62925000D03*
X219793000Y-62925000D03*
X219793000Y-61675000D03*
X219793000Y-60425000D03*
X219793000Y-59175000D03*
%TD*%
D39*
%TO.C,R127*%
X241750000Y-25700000D03*
X242770000Y-25700000D03*
%TD*%
D22*
%TO.C,C8*%
X247250000Y-125925000D03*
X247250000Y-126885000D03*
%TD*%
D42*
%TO.C,C47*%
X233730000Y-76100000D03*
X232770000Y-76100000D03*
%TD*%
D36*
%TO.C,C53*%
X232300000Y-109430000D03*
X232300000Y-108470000D03*
%TD*%
D29*
%TO.C,C59*%
X221575000Y-125750000D03*
X224525000Y-125750000D03*
%TD*%
D33*
%TO.C,R129*%
X243000000Y-127915000D03*
X243000000Y-126895000D03*
%TD*%
D50*
%TO.C,C75*%
X248175001Y-71050000D03*
X249725001Y-71050000D03*
%TD*%
D39*
%TO.C,R2*%
X252999998Y-147000000D03*
X254019998Y-147000000D03*
%TD*%
D50*
%TO.C,C103*%
X224125000Y-22100000D03*
X225675000Y-22100000D03*
%TD*%
D22*
%TO.C,C78*%
X250500000Y-67870000D03*
X250500000Y-68830000D03*
%TD*%
D54*
%TO.C,D1*%
X211000000Y-35850000D03*
X211000000Y-36550000D03*
%TD*%
D33*
%TO.C,R82*%
X216868000Y-74260000D03*
X216868000Y-73240000D03*
%TD*%
D39*
%TO.C,R100*%
X258200000Y-69780000D03*
X259220000Y-69780000D03*
%TD*%
D36*
%TO.C,C50*%
X216500000Y-85900000D03*
X216500000Y-84940000D03*
%TD*%
D23*
%TO.C,R102*%
X247000000Y-120500000D03*
X245980000Y-120500000D03*
%TD*%
D52*
%TO.C,C30*%
X223500000Y-130500000D03*
X221600000Y-130500000D03*
%TD*%
D39*
%TO.C,R106*%
X250980000Y-113500000D03*
X252000000Y-113500000D03*
%TD*%
D36*
%TO.C,C35*%
X247710000Y-86480000D03*
X247710000Y-85520000D03*
%TD*%
D55*
%TO.C,U1*%
X249070901Y-68700001D03*
X249070901Y-67900000D03*
X249070901Y-67099999D03*
X249070901Y-66300001D03*
X249070901Y-65500000D03*
X249070901Y-64700001D03*
D56*
X247700000Y-64981502D03*
D55*
X246329099Y-64699999D03*
X246329099Y-65500000D03*
X246329099Y-66300001D03*
X246329099Y-67099999D03*
X246329099Y-67900000D03*
X246329099Y-68699999D03*
D56*
X247700000Y-68418498D03*
%TD*%
D39*
%TO.C,R108*%
X247980000Y-112000000D03*
X249000000Y-112000000D03*
%TD*%
D57*
%TO.C,C67*%
X250700001Y-75800000D03*
X250700001Y-73900000D03*
%TD*%
D42*
%TO.C,C24*%
X232980000Y-104275000D03*
X232020000Y-104275000D03*
%TD*%
D28*
%TO.C,R57*%
X245250000Y-100990000D03*
X245250000Y-102010000D03*
%TD*%
D39*
%TO.C,R33*%
X249700000Y-133800000D03*
X250720000Y-133800000D03*
%TD*%
D33*
%TO.C,R10*%
X234225000Y-138010000D03*
X234225000Y-136990000D03*
%TD*%
D58*
%TO.C,U11*%
X252784998Y-141715000D03*
X253284998Y-141715000D03*
X253784998Y-141715000D03*
X254284998Y-141715000D03*
D59*
X254784998Y-141715000D03*
D60*
X255609998Y-138615000D03*
X255609998Y-137565000D03*
D58*
X254209998Y-135965000D03*
X253709998Y-135965000D03*
X253209998Y-135965000D03*
X252709998Y-135965000D03*
X252209998Y-135965000D03*
X251709998Y-135965000D03*
D61*
X250884998Y-136990000D03*
X250884998Y-137490000D03*
X250884998Y-137990000D03*
X250884998Y-138490000D03*
D62*
X251734998Y-141390000D03*
%TD*%
D33*
%TO.C,R6*%
X248250000Y-126915000D03*
X248250000Y-125895000D03*
%TD*%
D50*
%TO.C,C63*%
X218200000Y-82600000D03*
X219750000Y-82600000D03*
%TD*%
D23*
%TO.C,R19*%
X225010000Y-121500000D03*
X223990000Y-121500000D03*
%TD*%
D63*
%TO.C,Q6*%
X237552500Y-119050000D03*
X237552500Y-120950000D03*
X239427500Y-120000000D03*
%TD*%
D33*
%TO.C,R77*%
X217368000Y-66260000D03*
X217368000Y-65240000D03*
%TD*%
D23*
%TO.C,R107*%
X239000000Y-122500000D03*
X237980000Y-122500000D03*
%TD*%
D32*
%TO.C,C46*%
X252720000Y-134800000D03*
X253680000Y-134800000D03*
%TD*%
D47*
%TO.C,C56*%
X219275000Y-113250000D03*
X216325000Y-113250000D03*
%TD*%
D33*
%TO.C,R130*%
X243500000Y-125665000D03*
X243500000Y-124645000D03*
%TD*%
D29*
%TO.C,C97*%
X241550000Y-141810000D03*
X244500000Y-141810000D03*
%TD*%
D64*
%TO.C,U9*%
X246200002Y-74049999D03*
X246200002Y-74550000D03*
X246200002Y-75050000D03*
X246200002Y-75550001D03*
D65*
X246725000Y-76074999D03*
X247225001Y-76074999D03*
X247725001Y-76074999D03*
X248225002Y-76074999D03*
D64*
X248750000Y-75550001D03*
X248750000Y-75050000D03*
X248750000Y-74550000D03*
X248750000Y-74049999D03*
D65*
X248225002Y-73525001D03*
X247725001Y-73525001D03*
X247225001Y-73525001D03*
X246725000Y-73525001D03*
%TD*%
D66*
%TO.C,Q8*%
X249365000Y-115450000D03*
X249365000Y-113550000D03*
X247490000Y-114500000D03*
%TD*%
D33*
%TO.C,R11*%
X232750000Y-141500000D03*
X232750000Y-140480000D03*
%TD*%
D67*
%TO.C,J3*%
X257250000Y-59265000D03*
X257250000Y-58165000D03*
X257250000Y-57065000D03*
X257250000Y-55965000D03*
X257250000Y-54865000D03*
X257250000Y-53765000D03*
X257250000Y-52665000D03*
D68*
X257250000Y-51615000D03*
D69*
X263400000Y-61900000D03*
X267100000Y-61900000D03*
D70*
X257375000Y-61725000D03*
D71*
X268075000Y-58400000D03*
X268075000Y-52430000D03*
D72*
X257600000Y-50405000D03*
%TD*%
D52*
%TO.C,C16*%
X235950000Y-139550000D03*
X234050000Y-139550000D03*
%TD*%
D33*
%TO.C,R81*%
X215618000Y-73250000D03*
X215618000Y-72230000D03*
%TD*%
D39*
%TO.C,R101*%
X245730000Y-118500000D03*
X246750000Y-118500000D03*
%TD*%
D22*
%TO.C,C15*%
X231100000Y-140520000D03*
X231100000Y-141480000D03*
%TD*%
D36*
%TO.C,C93*%
X254510000Y-24610000D03*
X254510000Y-23650000D03*
%TD*%
D39*
%TO.C,R7*%
X243740000Y-134905000D03*
X244760000Y-134905000D03*
%TD*%
D30*
%TO.C,C26*%
X242500000Y-105675000D03*
X242500000Y-104125000D03*
%TD*%
D63*
%TO.C,Q7*%
X248552500Y-118550000D03*
X248552500Y-120450000D03*
X250427500Y-119500000D03*
%TD*%
D33*
%TO.C,R56*%
X245250000Y-104060000D03*
X245250000Y-103040000D03*
%TD*%
D24*
%TO.C,U3*%
X228295000Y-137812500D03*
X229415000Y-137812500D03*
X230535000Y-137812500D03*
X231655000Y-137812500D03*
X228295000Y-136912500D03*
X229415000Y-136912500D03*
X230535000Y-136912500D03*
X231655000Y-136912500D03*
D25*
X227475000Y-139225000D03*
X227975000Y-139225000D03*
X228475000Y-139225000D03*
X228975000Y-139225000D03*
X229475000Y-139225000D03*
X229975000Y-139225000D03*
X230475000Y-139225000D03*
X230975000Y-139225000D03*
X231475000Y-139225000D03*
X231975000Y-139225000D03*
X232475000Y-139225000D03*
D26*
X232962500Y-138112500D03*
X232962500Y-137612500D03*
X232962500Y-137112500D03*
X232962500Y-136612500D03*
D25*
X232475000Y-135500000D03*
X231975000Y-135500000D03*
X231475000Y-135500000D03*
X230975000Y-135500000D03*
X230475000Y-135500000D03*
X229975000Y-135500000D03*
X229475000Y-135500000D03*
X228975000Y-135500000D03*
X228475000Y-135500000D03*
X227975000Y-135500000D03*
X227475000Y-135500000D03*
D26*
X226987500Y-136612500D03*
X226987500Y-137112500D03*
X226987500Y-137612500D03*
X226987500Y-138112500D03*
%TD*%
D22*
%TO.C,C66*%
X259260000Y-139520000D03*
X259260000Y-140480000D03*
%TD*%
D28*
%TO.C,R28*%
X232780000Y-35680000D03*
X232780000Y-36700000D03*
%TD*%
D50*
%TO.C,C61*%
X221525000Y-133750000D03*
X223075000Y-133750000D03*
%TD*%
%TO.C,C76*%
X244975000Y-132655000D03*
X246525000Y-132655000D03*
%TD*%
D32*
%TO.C,C2*%
X253779998Y-144000000D03*
X254739998Y-144000000D03*
%TD*%
D22*
%TO.C,C57*%
X221000000Y-122970000D03*
X221000000Y-123930000D03*
%TD*%
D39*
%TO.C,R3*%
X253749998Y-145000000D03*
X254769998Y-145000000D03*
%TD*%
D28*
%TO.C,R35*%
X248759998Y-135740000D03*
X248759998Y-136760000D03*
%TD*%
D36*
%TO.C,C20*%
X229000000Y-102890000D03*
X229000000Y-101930000D03*
%TD*%
D23*
%TO.C,R21*%
X263372500Y-63565000D03*
X262352500Y-63565000D03*
%TD*%
D73*
%TO.C,J2*%
X238480000Y-27695000D03*
X237680000Y-27695000D03*
D74*
X236480000Y-27695000D03*
X235480000Y-27695000D03*
X234980000Y-27695000D03*
X233980000Y-27695000D03*
D73*
X232780000Y-27695000D03*
X231980000Y-27695000D03*
X231980000Y-27695000D03*
X232780000Y-27695000D03*
D74*
X233480000Y-27695000D03*
X234480000Y-27695000D03*
X235980000Y-27695000D03*
X236980000Y-27695000D03*
D73*
X237680000Y-27695000D03*
X238480000Y-27695000D03*
%TD*%
D47*
%TO.C,C12*%
X229475000Y-133500000D03*
X226525000Y-133500000D03*
%TD*%
D39*
%TO.C,R125*%
X241750000Y-26700000D03*
X242770000Y-26700000D03*
%TD*%
D23*
%TO.C,R9*%
X236210000Y-137960000D03*
X235190000Y-137960000D03*
%TD*%
D29*
%TO.C,C96*%
X241550000Y-139310000D03*
X244500000Y-139310000D03*
%TD*%
D36*
%TO.C,C68*%
X216210500Y-61450000D03*
X216210500Y-60490000D03*
%TD*%
D75*
%TO.C,U5*%
X246945300Y-128330000D03*
X246545301Y-128330000D03*
X246145299Y-128330000D03*
X245745300Y-128330000D03*
X245345301Y-128330000D03*
X244945299Y-128330000D03*
X244545300Y-128330000D03*
D76*
X245250000Y-129404999D03*
D77*
X244545300Y-131030000D03*
D78*
X244945299Y-131030000D03*
D79*
X245345301Y-131030000D03*
D80*
X245745300Y-131030000D03*
D81*
X246145299Y-131030000D03*
D75*
X246545301Y-131030000D03*
X246945300Y-131030000D03*
D76*
X246240600Y-129955082D03*
%TD*%
D39*
%TO.C,R12*%
X221810000Y-95275000D03*
X222830000Y-95275000D03*
%TD*%
D22*
%TO.C,C40*%
X222790000Y-86025000D03*
X222790000Y-86985000D03*
%TD*%
D42*
%TO.C,C34*%
X239250000Y-77040000D03*
X238290000Y-77040000D03*
%TD*%
D37*
%TO.C,C6*%
X250000000Y-128375000D03*
X250000000Y-125425000D03*
%TD*%
D57*
%TO.C,C21*%
X221250000Y-100525000D03*
X221250000Y-98625000D03*
%TD*%
D39*
%TO.C,R5*%
X244610000Y-124900000D03*
X245630000Y-124900000D03*
%TD*%
D33*
%TO.C,R126*%
X254510000Y-28640000D03*
X254510000Y-27620000D03*
%TD*%
D30*
%TO.C,C80*%
X251850000Y-66075000D03*
X251850000Y-64525000D03*
%TD*%
D32*
%TO.C,C1*%
X253029998Y-146000000D03*
X253989998Y-146000000D03*
%TD*%
D28*
%TO.C,R41*%
X219868000Y-73230000D03*
X219868000Y-74250000D03*
%TD*%
D32*
%TO.C,C3*%
X254279998Y-143000000D03*
X255239998Y-143000000D03*
%TD*%
D28*
%TO.C,R27*%
X232780000Y-33670000D03*
X232780000Y-34690000D03*
%TD*%
D44*
%TO.C,J29*%
X267680000Y-35935852D03*
X265140000Y-35935852D03*
X262600000Y-35935852D03*
X260060000Y-35935852D03*
X257520000Y-35935852D03*
X267680000Y-31495850D03*
X265140000Y-31495850D03*
X262600000Y-31495850D03*
X260060000Y-31495850D03*
X257520000Y-31495850D03*
%TD*%
D36*
%TO.C,C79*%
X250500000Y-65630000D03*
X250500000Y-64670000D03*
%TD*%
D28*
%TO.C,R26*%
X254200000Y-61560000D03*
X254200000Y-62580000D03*
%TD*%
D32*
%TO.C,C82*%
X218388000Y-66240000D03*
X219348000Y-66240000D03*
%TD*%
D36*
%TO.C,C43*%
X247710000Y-91525000D03*
X247710000Y-90565000D03*
%TD*%
D82*
%TO.C,L2*%
X239650000Y-129980000D03*
X239650000Y-134020000D03*
%TD*%
D28*
%TO.C,R25*%
X252000000Y-61560000D03*
X252000000Y-62580000D03*
%TD*%
D83*
%TO.C,FB1*%
X256000000Y-27275000D03*
X256000000Y-25625000D03*
%TD*%
D84*
%TO.C,C94*%
X260000000Y-25675000D03*
X260000000Y-27225000D03*
%TD*%
D36*
%TO.C,C10*%
X248250000Y-129385000D03*
X248250000Y-128425000D03*
%TD*%
D48*
%TO.C,C51*%
X227005000Y-75750000D03*
X225455000Y-75750000D03*
%TD*%
D32*
%TO.C,C25*%
X228000000Y-104275000D03*
X228960000Y-104275000D03*
%TD*%
D43*
%TO.C,FB4*%
X228900000Y-26475000D03*
X228900000Y-28125000D03*
%TD*%
D23*
%TO.C,R99*%
X259220000Y-71780000D03*
X258200000Y-71780000D03*
%TD*%
D32*
%TO.C,C31*%
X233860000Y-101960000D03*
X234820000Y-101960000D03*
%TD*%
D28*
%TO.C,R34*%
X248759998Y-137740000D03*
X248759998Y-138760000D03*
%TD*%
D42*
%TO.C,C39*%
X241480000Y-101960000D03*
X240520000Y-101960000D03*
%TD*%
D22*
%TO.C,C44*%
X253550000Y-53320000D03*
X253550000Y-54280000D03*
%TD*%
D42*
%TO.C,C28*%
X222280000Y-135000000D03*
X221320000Y-135000000D03*
%TD*%
D39*
%TO.C,R8*%
X246240000Y-133905000D03*
X247260000Y-133905000D03*
%TD*%
D28*
%TO.C,R15*%
X236650000Y-29440000D03*
X236650000Y-30460000D03*
%TD*%
D39*
%TO.C,R51*%
X228290000Y-120900000D03*
X229310000Y-120900000D03*
%TD*%
D85*
%TO.C,U2*%
X242162500Y-63900000D03*
X242162500Y-64850000D03*
X242162500Y-65800000D03*
X244437500Y-65800000D03*
X244437500Y-63900000D03*
%TD*%
D32*
%TO.C,C14*%
X229190000Y-140750000D03*
X230150000Y-140750000D03*
%TD*%
D23*
%TO.C,R133*%
X214960000Y-40100000D03*
X213940000Y-40100000D03*
%TD*%
D42*
%TO.C,C23*%
X236730000Y-104275000D03*
X235770000Y-104275000D03*
%TD*%
D29*
%TO.C,C98*%
X241550000Y-144310000D03*
X244500000Y-144310000D03*
%TD*%
D32*
%TO.C,C38*%
X241520000Y-102900000D03*
X242480000Y-102900000D03*
%TD*%
D86*
%TO.C,C4*%
X258400000Y-143425000D03*
X258400000Y-146375000D03*
%TD*%
D23*
%TO.C,R110*%
X250000000Y-122000000D03*
X248980000Y-122000000D03*
%TD*%
M02*
