%TF.GenerationSoftware,KiCad,Pcbnew,9.0.7*%
%TF.CreationDate,2026-08-13T23:42:52-07:00*%
%TF.ProjectId,Atlas,41746c61-732e-46b6-9963-61645f706362,1.0*%
%TF.SameCoordinates,Original*%
%TF.FileFunction,Copper,L6,Bot*%
%TF.FilePolarity,Positive*%
%FSLAX46Y46*%
G04 Gerber Fmt 4.6, Leading zero omitted, Abs format (unit mm)*
G04 Created by KiCad (PCBNEW 9.0.7) date 2026-08-13 23:42:52*
%MOMM*%
%LPD*%
G01*
G04 APERTURE LIST*
G04 Aperture macros list*
%AMRoundRect*
0 Rectangle with rounded corners*
0 $1 Rounding radius*
0 $2 $3 $4 $5 $6 $7 $8 $9 X,Y pos of 4 corners*
0 Add a 4 corners polygon primitive as box body*
4,1,4,$2,$3,$4,$5,$6,$7,$8,$9,$2,$3,0*
0 Add four circle primitives for the rounded corners*
1,1,$1+$1,$2,$3*
1,1,$1+$1,$4,$5*
1,1,$1+$1,$6,$7*
1,1,$1+$1,$8,$9*
0 Add four rect primitives between the rounded corners*
20,1,$1+$1,$2,$3,$4,$5,0*
20,1,$1+$1,$4,$5,$6,$7,0*
20,1,$1+$1,$6,$7,$8,$9,0*
20,1,$1+$1,$8,$9,$2,$3,0*%
G04 Aperture macros list end*
%TA.AperFunction,HeatsinkPad*%
%ADD10C,0.600000*%
%TD*%
%TA.AperFunction,HeatsinkPad*%
%ADD11R,4.500000X1.800000*%
%TD*%
%TA.AperFunction,ComponentPad*%
%ADD12C,1.600200*%
%TD*%
%TA.AperFunction,ComponentPad*%
%ADD13RoundRect,1.500000X1.500000X-1.500000X1.500000X1.500000X-1.500000X1.500000X-1.500000X-1.500000X0*%
%TD*%
%TA.AperFunction,ComponentPad*%
%ADD14C,6.000000*%
%TD*%
%TA.AperFunction,ComponentPad*%
%ADD15R,1.700000X1.700000*%
%TD*%
%TA.AperFunction,ComponentPad*%
%ADD16C,1.700000*%
%TD*%
%TA.AperFunction,ComponentPad*%
%ADD17C,0.600000*%
%TD*%
%TA.AperFunction,ComponentPad*%
%ADD18C,5.600000*%
%TD*%
%TA.AperFunction,HeatsinkPad*%
%ADD19O,1.000000X2.100000*%
%TD*%
%TA.AperFunction,HeatsinkPad*%
%ADD20O,1.000000X1.600000*%
%TD*%
%TA.AperFunction,ComponentPad*%
%ADD21C,2.050000*%
%TD*%
%TA.AperFunction,ComponentPad*%
%ADD22C,2.250000*%
%TD*%
%TA.AperFunction,ComponentPad*%
%ADD23O,3.500000X2.200000*%
%TD*%
%TA.AperFunction,ComponentPad*%
%ADD24R,2.500000X1.500000*%
%TD*%
%TA.AperFunction,ComponentPad*%
%ADD25O,2.500000X1.500000*%
%TD*%
%TA.AperFunction,SMDPad,CuDef*%
%ADD26R,0.558800X1.473200*%
%TD*%
%TA.AperFunction,SMDPad,CuDef*%
%ADD27RoundRect,0.135000X0.135000X0.185000X-0.135000X0.185000X-0.135000X-0.185000X0.135000X-0.185000X0*%
%TD*%
%TA.AperFunction,SMDPad,CuDef*%
%ADD28RoundRect,0.135000X0.185000X-0.135000X0.185000X0.135000X-0.185000X0.135000X-0.185000X-0.135000X0*%
%TD*%
%TA.AperFunction,SMDPad,CuDef*%
%ADD29RoundRect,0.250000X0.250000X0.475000X-0.250000X0.475000X-0.250000X-0.475000X0.250000X-0.475000X0*%
%TD*%
%TA.AperFunction,SMDPad,CuDef*%
%ADD30RoundRect,0.135000X-0.135000X-0.185000X0.135000X-0.185000X0.135000X0.185000X-0.135000X0.185000X0*%
%TD*%
%TA.AperFunction,SMDPad,CuDef*%
%ADD31RoundRect,0.150000X-0.587500X-0.150000X0.587500X-0.150000X0.587500X0.150000X-0.587500X0.150000X0*%
%TD*%
%TA.AperFunction,SMDPad,CuDef*%
%ADD32RoundRect,0.150000X0.150000X0.200000X-0.150000X0.200000X-0.150000X-0.200000X0.150000X-0.200000X0*%
%TD*%
%TA.AperFunction,SMDPad,CuDef*%
%ADD33RoundRect,0.140000X0.140000X0.170000X-0.140000X0.170000X-0.140000X-0.170000X0.140000X-0.170000X0*%
%TD*%
%TA.AperFunction,SMDPad,CuDef*%
%ADD34RoundRect,0.150000X-0.150000X0.512500X-0.150000X-0.512500X0.150000X-0.512500X0.150000X0.512500X0*%
%TD*%
%TA.AperFunction,SMDPad,CuDef*%
%ADD35RoundRect,0.135000X-0.185000X0.135000X-0.185000X-0.135000X0.185000X-0.135000X0.185000X0.135000X0*%
%TD*%
%TA.AperFunction,SMDPad,CuDef*%
%ADD36RoundRect,0.062500X-0.117500X-0.062500X0.117500X-0.062500X0.117500X0.062500X-0.117500X0.062500X0*%
%TD*%
%TA.AperFunction,SMDPad,CuDef*%
%ADD37RoundRect,0.250000X-0.900000X1.000000X-0.900000X-1.000000X0.900000X-1.000000X0.900000X1.000000X0*%
%TD*%
%TA.AperFunction,SMDPad,CuDef*%
%ADD38RoundRect,0.075000X0.075000X0.200000X-0.075000X0.200000X-0.075000X-0.200000X0.075000X-0.200000X0*%
%TD*%
%TA.AperFunction,SMDPad,CuDef*%
%ADD39RoundRect,0.250000X0.325000X0.650000X-0.325000X0.650000X-0.325000X-0.650000X0.325000X-0.650000X0*%
%TD*%
%TA.AperFunction,ViaPad*%
%ADD40C,1.000000*%
%TD*%
%TA.AperFunction,ViaPad*%
%ADD41C,0.800000*%
%TD*%
%TA.AperFunction,ViaPad*%
%ADD42C,0.600000*%
%TD*%
%TA.AperFunction,ViaPad*%
%ADD43C,1.200000*%
%TD*%
%TA.AperFunction,Conductor*%
%ADD44C,0.200000*%
%TD*%
%TA.AperFunction,Conductor*%
%ADD45C,0.500000*%
%TD*%
%TA.AperFunction,Conductor*%
%ADD46C,1.500000*%
%TD*%
%TA.AperFunction,Conductor*%
%ADD47C,0.170000*%
%TD*%
%TA.AperFunction,Conductor*%
%ADD48C,2.000000*%
%TD*%
%TA.AperFunction,Conductor*%
%ADD49C,0.300000*%
%TD*%
G04 APERTURE END LIST*
D10*
%TO.P,U4,31,AGND*%
%TO.N,GND*%
X217730000Y-120450000D03*
X218730000Y-120450000D03*
X219730000Y-120450000D03*
X220730000Y-120450000D03*
X221730000Y-120450000D03*
X217730000Y-119800000D03*
X218730000Y-119800000D03*
X219730000Y-119800000D03*
D11*
X219730000Y-119800000D03*
D10*
X220730000Y-119800000D03*
X221730000Y-119800000D03*
X217730000Y-119150000D03*
X218730000Y-119150000D03*
X219730000Y-119150000D03*
X220730000Y-119150000D03*
X221730000Y-119150000D03*
%TD*%
D12*
%TO.P,J5,1,Pin_1*%
%TO.N,/01_power_input/VIN_RAW*%
X265546200Y-127740800D03*
%TO.P,J5,2,Pin_2*%
%TO.N,/07_pyro/PYRO_VBAT_ARMED*%
X265546200Y-124240798D03*
%TD*%
%TO.P,J23,1,Pin_1*%
%TO.N,GND*%
X204953800Y-110395800D03*
%TO.P,J23,2,Pin_2*%
%TO.N,Net-(D7-K)*%
X204953800Y-113895802D03*
%TD*%
D13*
%TO.P,J1,1,Pin_1*%
%TO.N,GND*%
X264600000Y-143150000D03*
D14*
%TO.P,J1,2,Pin_2*%
%TO.N,/01_power_input/VIN_RAW*%
X264600000Y-135950000D03*
%TD*%
D12*
%TO.P,J14,1,Pin_1*%
%TO.N,/07_pyro/PYRO_VBAT_ARMED*%
X265546200Y-81617800D03*
%TO.P,J14,2,Pin_2*%
%TO.N,Net-(J14-Pin_2)*%
X265546200Y-78117798D03*
%TD*%
D15*
%TO.P,J6,1,Pin_1*%
%TO.N,GND*%
X239270000Y-151650000D03*
D16*
%TO.P,J6,2,Pin_2*%
%TO.N,/02_power_regulators/8V4_PWM*%
X239270000Y-154190000D03*
%TO.P,J6,3,Pin_3*%
%TO.N,Net-(J6-Pin_3)*%
X239270000Y-156730000D03*
%TD*%
D12*
%TO.P,J13,1,Pin_1*%
%TO.N,/07_pyro/PYRO_VBAT_ARMED*%
X265546200Y-90842400D03*
%TO.P,J13,2,Pin_2*%
%TO.N,Net-(J13-Pin_2)*%
X265546200Y-87342398D03*
%TD*%
%TO.P,J26,1,Pin_1*%
%TO.N,/02_power_regulators/3V3_SYS*%
X204953800Y-85743097D03*
%TO.P,J26,2,Pin_2*%
%TO.N,GND*%
X204953800Y-89243100D03*
%TO.P,J26,3,Pin_3*%
%TO.N,Net-(J26-Pin_3)*%
X204953800Y-92743101D03*
%TO.P,J26,4,Pin_4*%
%TO.N,Net-(J26-Pin_4)*%
X204953800Y-96243102D03*
%TO.P,J26,5,Pin_5*%
%TO.N,Net-(J26-Pin_5)*%
X204953800Y-99743102D03*
%TO.P,J26,6,Pin_6*%
%TO.N,Net-(J26-Pin_6)*%
X204953800Y-103243103D03*
%TD*%
%TO.P,J12,1,Pin_1*%
%TO.N,/07_pyro/PYRO_VBAT_ARMED*%
X265546200Y-100067000D03*
%TO.P,J12,2,Pin_2*%
%TO.N,Net-(J12-Pin_2)*%
X265546200Y-96566998D03*
%TD*%
D15*
%TO.P,J17,1,Pin_1*%
%TO.N,GND*%
X219003333Y-151650000D03*
D16*
%TO.P,J17,2,Pin_2*%
%TO.N,/02_power_regulators/8V4_PWM*%
X219003333Y-154190000D03*
%TO.P,J17,3,Pin_3*%
%TO.N,Net-(J17-Pin_3)*%
X219003333Y-156730000D03*
%TD*%
D15*
%TO.P,J18,1,Pin_1*%
%TO.N,GND*%
X212890000Y-151650000D03*
D16*
%TO.P,J18,2,Pin_2*%
%TO.N,/02_power_regulators/8V4_PWM*%
X212890000Y-154190000D03*
%TO.P,J18,3,Pin_3*%
%TO.N,Net-(J18-Pin_3)*%
X212890000Y-156730000D03*
%TD*%
D15*
%TO.P,J21,1,Pin_1*%
%TO.N,GND*%
X245383333Y-151650000D03*
D16*
%TO.P,J21,2,Pin_2*%
%TO.N,/02_power_regulators/8V4_PWM*%
X245383333Y-154190000D03*
%TO.P,J21,3,Pin_3*%
%TO.N,Net-(J21-Pin_3)*%
X245383333Y-156730000D03*
%TD*%
D15*
%TO.P,J15,1,Pin_1*%
%TO.N,GND*%
X231230000Y-151650000D03*
D16*
%TO.P,J15,2,Pin_2*%
%TO.N,/02_power_regulators/8V4_PWM*%
X231230000Y-154190000D03*
%TO.P,J15,3,Pin_3*%
%TO.N,Net-(J15-Pin_3)*%
X231230000Y-156730000D03*
%TD*%
D12*
%TO.P,J24,1,Pin_1*%
%TO.N,GND*%
X204953800Y-54250899D03*
%TO.P,J24,2,Pin_2*%
%TO.N,Net-(J24-Pin_2)*%
X204953800Y-57750900D03*
%TO.P,J24,3,Pin_3*%
%TO.N,Net-(J24-Pin_3)*%
X204953800Y-61250900D03*
%TD*%
%TO.P,J7,1,Pin_1*%
%TO.N,GND*%
X204953800Y-142240800D03*
%TO.P,J7,2,Pin_2*%
%TO.N,Net-(D6-A2)*%
X204953800Y-145740802D03*
%TD*%
D17*
%TO.P,U11,25*%
%TO.N,/01_power_input/VIN_RAW*%
X252409998Y-140290000D03*
%TO.P,U11,26*%
X252409998Y-139430000D03*
%TO.P,U11,27*%
X252409998Y-138250000D03*
%TO.P,U11,28*%
X252409998Y-137390000D03*
%TO.P,U11,29*%
X253209998Y-140290000D03*
%TO.P,U11,30*%
X253209998Y-139430000D03*
%TO.P,U11,31*%
X253209998Y-138250000D03*
%TO.P,U11,32*%
X253209998Y-137390000D03*
%TO.P,U11,33*%
X254009998Y-140290000D03*
%TO.P,U11,34*%
X254009998Y-139430000D03*
%TO.P,U11,35*%
X254009998Y-138250000D03*
%TO.P,U11,36*%
X254009998Y-137390000D03*
%TD*%
D18*
%TO.P,H4,1*%
%TO.N,N/C*%
X206250000Y-153250000D03*
%TD*%
D12*
%TO.P,J10,1,Pin_1*%
%TO.N,/07_pyro/PYRO_VBAT_ARMED*%
X265546200Y-118516200D03*
%TO.P,J10,2,Pin_2*%
%TO.N,Net-(J10-Pin_2)*%
X265546200Y-115016198D03*
%TD*%
D18*
%TO.P,H2,1*%
%TO.N,N/C*%
X264257359Y-25492641D03*
%TD*%
%TO.P,H1,1*%
%TO.N,N/C*%
X206250000Y-25500000D03*
%TD*%
D12*
%TO.P,J8,1,Pin_1*%
%TO.N,GND*%
X204953800Y-131625800D03*
%TO.P,J8,2,Pin_2*%
%TO.N,Net-(D8-A2)*%
X204953800Y-135125802D03*
%TD*%
%TO.P,J25,1,Pin_1*%
%TO.N,/02_power_regulators/3V3_SYS*%
X204953800Y-68248300D03*
%TO.P,J25,2,Pin_2*%
%TO.N,GND*%
X204953800Y-71748301D03*
%TO.P,J25,3,Pin_3*%
%TO.N,Net-(J25-Pin_3)*%
X204953800Y-75248301D03*
%TO.P,J25,4,Pin_4*%
%TO.N,Net-(J25-Pin_4)*%
X204953800Y-78748302D03*
%TD*%
D15*
%TO.P,J20,1,Pin_1*%
%TO.N,GND*%
X251496667Y-151650000D03*
D16*
%TO.P,J20,2,Pin_2*%
%TO.N,/02_power_regulators/8V4_PWM*%
X251496667Y-154190000D03*
%TO.P,J20,3,Pin_3*%
%TO.N,Net-(J20-Pin_3)*%
X251496667Y-156730000D03*
%TD*%
D10*
%TO.P,U3,31,AGND*%
%TO.N,GND*%
X227975000Y-138012500D03*
X228975000Y-138012500D03*
X229975000Y-138012500D03*
X230975000Y-138012500D03*
X231975000Y-138012500D03*
X227975000Y-137362500D03*
X228975000Y-137362500D03*
X229975000Y-137362500D03*
D11*
X229975000Y-137362500D03*
D10*
X230975000Y-137362500D03*
X231975000Y-137362500D03*
X227975000Y-136712500D03*
X228975000Y-136712500D03*
X229975000Y-136712500D03*
X230975000Y-136712500D03*
X231975000Y-136712500D03*
%TD*%
D12*
%TO.P,J22,1,Pin_1*%
%TO.N,GND*%
X204953800Y-121010800D03*
%TO.P,J22,2,Pin_2*%
%TO.N,Net-(D4-K)*%
X204953800Y-124510802D03*
%TD*%
D19*
%TO.P,J2,S1,SHIELD*%
%TO.N,GND*%
X239550000Y-26780000D03*
D20*
X239550000Y-22600000D03*
D19*
X230910000Y-26780000D03*
D20*
X230910000Y-22600000D03*
%TD*%
D15*
%TO.P,J16,1,Pin_1*%
%TO.N,GND*%
X225116667Y-151650000D03*
D16*
%TO.P,J16,2,Pin_2*%
%TO.N,/02_power_regulators/8V4_PWM*%
X225116667Y-154190000D03*
%TO.P,J16,3,Pin_3*%
%TO.N,Net-(J16-Pin_3)*%
X225116667Y-156730000D03*
%TD*%
D12*
%TO.P,J11,1,Pin_1*%
%TO.N,/07_pyro/PYRO_VBAT_ARMED*%
X265546200Y-109291600D03*
%TO.P,J11,2,Pin_2*%
%TO.N,Net-(J11-Pin_2)*%
X265546200Y-105791598D03*
%TD*%
D15*
%TO.P,J19,1,Pin_1*%
%TO.N,GND*%
X257610000Y-151650000D03*
D16*
%TO.P,J19,2,Pin_2*%
%TO.N,/02_power_regulators/8V4_PWM*%
X257610000Y-154190000D03*
%TO.P,J19,3,Pin_3*%
%TO.N,Net-(J19-Pin_3)*%
X257610000Y-156730000D03*
%TD*%
D21*
%TO.P,J27,1,In*%
%TO.N,Net-(D1-A2)*%
X205960000Y-35330000D03*
D22*
%TO.P,J27,2,Ext*%
%TO.N,GND*%
X203420000Y-32790000D03*
X203420000Y-37870000D03*
X208500000Y-32790000D03*
X208500000Y-37870000D03*
%TD*%
D18*
%TO.P,H3,1*%
%TO.N,N/C*%
X264250000Y-153378700D03*
%TD*%
D23*
%TO.P,SW2,*%
%TO.N,*%
X262550000Y-73900000D03*
X262550000Y-65700000D03*
D24*
%TO.P,SW2,1,A*%
%TO.N,Net-(SW2-A)*%
X262550000Y-71800000D03*
D25*
%TO.P,SW2,2,B*%
%TO.N,Net-(SW2-B)*%
X262550000Y-69800000D03*
%TO.P,SW2,3,C*%
%TO.N,GND*%
X262550000Y-67800000D03*
%TD*%
D26*
%TO.P,U20,1,IN*%
%TO.N,/02_power_regulators/3V3_SYS*%
X212478001Y-115009400D03*
%TO.P,U20,2,GND*%
%TO.N,GND*%
X211528000Y-115009400D03*
%TO.P,U20,3,EN*%
%TO.N,Net-(U20-EN)*%
X210577999Y-115009400D03*
%TO.P,U20,4,\u002AFAULT*%
%TO.N,unconnected-(U20-\u002AFAULT-Pad4)*%
X210577999Y-112774200D03*
%TO.P,U20,5,ILIM*%
%TO.N,Net-(U20-ILIM)*%
X211528000Y-112774200D03*
%TO.P,U20,6,OUT*%
%TO.N,Net-(D7-K)*%
X212478001Y-112774200D03*
%TD*%
D27*
%TO.P,R74,1*%
%TO.N,/03_mcu_core/PYRO_CONT4*%
X259830000Y-89470000D03*
%TO.P,R74,2*%
%TO.N,GND*%
X258810000Y-89470000D03*
%TD*%
D28*
%TO.P,R140,1*%
%TO.N,/03_mcu_core/GPIO_IN6*%
X256882500Y-41880000D03*
%TO.P,R140,2*%
%TO.N,Net-(J29-PadB4)*%
X256882500Y-40860000D03*
%TD*%
D27*
%TO.P,R63,1*%
%TO.N,/03_mcu_core/PYRO_CONT2*%
X259745700Y-108367800D03*
%TO.P,R63,2*%
%TO.N,GND*%
X258725700Y-108367800D03*
%TD*%
D29*
%TO.P,C84,1*%
%TO.N,GND*%
X212348800Y-121009400D03*
%TO.P,C84,2*%
%TO.N,Net-(D4-K)*%
X210448800Y-121009400D03*
%TD*%
D30*
%TO.P,R117,1*%
%TO.N,Net-(U15-EN)*%
X210629199Y-149250000D03*
%TO.P,R117,2*%
%TO.N,/02_power_regulators/5V_SYS*%
X211649199Y-149250000D03*
%TD*%
D31*
%TO.P,Q5,1,G*%
%TO.N,Net-(Q5-G)*%
X258298200Y-78770000D03*
%TO.P,Q5,2,D*%
%TO.N,GND*%
X258298200Y-76870000D03*
%TO.P,Q5,3,S*%
%TO.N,Net-(J14-Pin_2)*%
X260173200Y-77820000D03*
%TD*%
D32*
%TO.P,D4,1,K*%
%TO.N,Net-(D4-K)*%
X210248800Y-118200000D03*
%TO.P,D4,2,A*%
%TO.N,GND*%
X211648800Y-118200000D03*
%TD*%
D28*
%TO.P,R96,1*%
%TO.N,GND*%
X248440000Y-156560000D03*
%TO.P,R96,2*%
%TO.N,Net-(J20-Pin_3)*%
X248440000Y-155540000D03*
%TD*%
%TO.P,R143,1*%
%TO.N,/03_mcu_core/GPIO_IN1*%
X210400000Y-51260000D03*
%TO.P,R143,2*%
%TO.N,Net-(J28-PadB4)*%
X210400000Y-50240000D03*
%TD*%
%TO.P,R122,1*%
%TO.N,Net-(U20-ILIM)*%
X213948800Y-112769400D03*
%TO.P,R122,2*%
%TO.N,GND*%
X213948800Y-111749400D03*
%TD*%
D30*
%TO.P,R124,1*%
%TO.N,Net-(U20-EN)*%
X211458001Y-116759400D03*
%TO.P,R124,2*%
%TO.N,/02_power_regulators/3V3_SYS*%
X212478001Y-116759400D03*
%TD*%
D28*
%TO.P,R131,1*%
%TO.N,/03_mcu_core/GPIO_OUT3*%
X267680000Y-38410000D03*
%TO.P,R131,2*%
%TO.N,Net-(J29-PadA1)*%
X267680000Y-37390000D03*
%TD*%
D27*
%TO.P,R47,1*%
%TO.N,/03_mcu_core/PYRO_CONT1*%
X259745700Y-117617800D03*
%TO.P,R47,2*%
%TO.N,GND*%
X258725700Y-117617800D03*
%TD*%
D33*
%TO.P,C85,1*%
%TO.N,GND*%
X211088800Y-119509400D03*
%TO.P,C85,2*%
%TO.N,Net-(D4-K)*%
X210128800Y-119509400D03*
%TD*%
D30*
%TO.P,R116,1*%
%TO.N,Net-(J26-Pin_3)*%
X213500000Y-92736197D03*
%TO.P,R116,2*%
%TO.N,/03_mcu_core/SPI3_SCK*%
X214520000Y-92736197D03*
%TD*%
%TO.P,R42,1*%
%TO.N,/03_mcu_core/I2C2_SCL*%
X211920000Y-75250000D03*
%TO.P,R42,2*%
%TO.N,/02_power_regulators/3V3_SYS*%
X212940000Y-75250000D03*
%TD*%
D28*
%TO.P,R89,1*%
%TO.N,Net-(J17-Pin_3)*%
X222060000Y-154590000D03*
%TO.P,R89,2*%
%TO.N,/03_mcu_core/PWM5*%
X222060000Y-153570000D03*
%TD*%
%TO.P,R58,1*%
%TO.N,Net-(U6-PF11)*%
X243900000Y-92310000D03*
%TO.P,R58,2*%
%TO.N,/02_power_regulators/VIN_PROT*%
X243900000Y-91290000D03*
%TD*%
D34*
%TO.P,U16,1,I/O1*%
%TO.N,/04_usb_sd/D+*%
X234300000Y-34112500D03*
%TO.P,U16,2,GND*%
%TO.N,GND*%
X235250000Y-34112500D03*
%TO.P,U16,3,I/O2*%
%TO.N,/04_usb_sd/D-*%
X236200000Y-34112500D03*
%TO.P,U16,4,I/O2*%
%TO.N,/03_mcu_core/USB_D-*%
X236200000Y-36387500D03*
%TO.P,U16,5,VBUS*%
%TO.N,Net-(U16-VBUS)*%
X235250000Y-36387500D03*
%TO.P,U16,6,I/O1*%
%TO.N,/03_mcu_core/USB_D+*%
X234300000Y-36387500D03*
%TD*%
D35*
%TO.P,R68,1*%
%TO.N,GND*%
X256673200Y-86472000D03*
%TO.P,R68,2*%
%TO.N,Net-(Q4-G)*%
X256673200Y-87492000D03*
%TD*%
%TO.P,R64,1*%
%TO.N,GND*%
X256673200Y-95696600D03*
%TO.P,R64,2*%
%TO.N,Net-(Q3-G)*%
X256673200Y-96716600D03*
%TD*%
D27*
%TO.P,R73,1*%
%TO.N,Net-(J14-Pin_2)*%
X260940000Y-82720000D03*
%TO.P,R73,2*%
%TO.N,/03_mcu_core/PYRO_CONT5*%
X259920000Y-82720000D03*
%TD*%
D36*
%TO.P,D6,1,A1*%
%TO.N,GND*%
X210920000Y-140250000D03*
%TO.P,D6,2,A2*%
%TO.N,Net-(D6-A2)*%
X210080000Y-140250000D03*
%TD*%
D37*
%TO.P,D3,1,A1*%
%TO.N,/07_pyro/PYRO_VBAT_ARMED*%
X258500000Y-123850000D03*
%TO.P,D3,2,A2*%
%TO.N,GND*%
X258500000Y-128150000D03*
%TD*%
D28*
%TO.P,R86,1*%
%TO.N,GND*%
X234286667Y-156560000D03*
%TO.P,R86,2*%
%TO.N,Net-(J15-Pin_3)*%
X234286667Y-155540000D03*
%TD*%
D29*
%TO.P,C86,1*%
%TO.N,GND*%
X212348800Y-110509400D03*
%TO.P,C86,2*%
%TO.N,Net-(D7-K)*%
X210448800Y-110509400D03*
%TD*%
D27*
%TO.P,R49,1*%
%TO.N,/03_mcu_core/PYRO_ARM_SENSE*%
X257510000Y-121750000D03*
%TO.P,R49,2*%
%TO.N,GND*%
X256490000Y-121750000D03*
%TD*%
D28*
%TO.P,R91,1*%
%TO.N,Net-(J18-Pin_3)*%
X215946667Y-154590000D03*
%TO.P,R91,2*%
%TO.N,/03_mcu_core/PWM6*%
X215946667Y-153570000D03*
%TD*%
D33*
%TO.P,C73,1*%
%TO.N,/03_mcu_core/PYRO_CONT5*%
X259820000Y-81460000D03*
%TO.P,C73,2*%
%TO.N,GND*%
X258860000Y-81460000D03*
%TD*%
D27*
%TO.P,R72,1*%
%TO.N,Net-(Q5-G)*%
X255683200Y-78280000D03*
%TO.P,R72,2*%
%TO.N,/03_mcu_core/PYRO_FIRE5*%
X254663200Y-78280000D03*
%TD*%
%TO.P,R71,1*%
%TO.N,Net-(J13-Pin_2)*%
X260940000Y-91970000D03*
%TO.P,R71,2*%
%TO.N,/03_mcu_core/PYRO_CONT4*%
X259920000Y-91970000D03*
%TD*%
%TO.P,R75,1*%
%TO.N,/03_mcu_core/PYRO_CONT5*%
X259830000Y-80220000D03*
%TO.P,R75,2*%
%TO.N,GND*%
X258810000Y-80220000D03*
%TD*%
D26*
%TO.P,U18,1,IN*%
%TO.N,/02_power_regulators/5V_SYS*%
X212529201Y-136867600D03*
%TO.P,U18,2,GND*%
%TO.N,GND*%
X211579200Y-136867600D03*
%TO.P,U18,3,EN*%
%TO.N,Net-(U18-EN)*%
X210629199Y-136867600D03*
%TO.P,U18,4,\u002AFAULT*%
%TO.N,unconnected-(U18-\u002AFAULT-Pad4)*%
X210629199Y-134632400D03*
%TO.P,U18,5,ILIM*%
%TO.N,Net-(U18-ILIM)*%
X211579200Y-134632400D03*
%TO.P,U18,6,OUT*%
%TO.N,Net-(D8-A2)*%
X212529201Y-134632400D03*
%TD*%
D27*
%TO.P,R52,1*%
%TO.N,Net-(U6-PC1)*%
X239010000Y-95900000D03*
%TO.P,R52,2*%
%TO.N,GND*%
X237990000Y-95900000D03*
%TD*%
D35*
%TO.P,R69,1*%
%TO.N,GND*%
X256673200Y-77310000D03*
%TO.P,R69,2*%
%TO.N,Net-(Q5-G)*%
X256673200Y-78330000D03*
%TD*%
D38*
%TO.P,U10,1,D1+*%
%TO.N,Net-(J26-Pin_3)*%
X212000000Y-89250000D03*
%TO.P,U10,2,D1-*%
%TO.N,Net-(J26-Pin_4)*%
X211500000Y-89250000D03*
%TO.P,U10,3,GND*%
%TO.N,GND*%
X211000000Y-89250000D03*
%TO.P,U10,4,D2+*%
%TO.N,Net-(J26-Pin_5)*%
X210500000Y-89250000D03*
%TO.P,U10,5,D2-*%
%TO.N,Net-(J26-Pin_6)*%
X210000000Y-89250000D03*
%TO.P,U10,6,NC*%
%TO.N,unconnected-(U10-NC-Pad6)*%
X210000000Y-88480000D03*
%TO.P,U10,7,NC*%
%TO.N,unconnected-(U10-NC-Pad7)*%
X210500000Y-88480000D03*
%TO.P,U10,8,GND*%
%TO.N,GND*%
X211000000Y-88480000D03*
%TO.P,U10,9,NC*%
%TO.N,unconnected-(U10-NC-Pad9)*%
X211500000Y-88480000D03*
%TO.P,U10,10,NC*%
%TO.N,unconnected-(U10-NC-Pad10)*%
X212000000Y-88480000D03*
%TD*%
D28*
%TO.P,R119,1*%
%TO.N,Net-(U18-ILIM)*%
X214000000Y-135010000D03*
%TO.P,R119,2*%
%TO.N,GND*%
X214000000Y-133990000D03*
%TD*%
D30*
%TO.P,R29,1*%
%TO.N,Net-(J28-PadA2)*%
X215090000Y-43100000D03*
%TO.P,R29,2*%
%TO.N,/03_mcu_core/SWDIO*%
X216110000Y-43100000D03*
%TD*%
%TO.P,R30,1*%
%TO.N,Net-(J28-PadA4)*%
X215090000Y-44100000D03*
%TO.P,R30,2*%
%TO.N,/03_mcu_core/SWCLK*%
X216110000Y-44100000D03*
%TD*%
D28*
%TO.P,R83,1*%
%TO.N,Net-(J6-Pin_3)*%
X236213333Y-154590000D03*
%TO.P,R83,2*%
%TO.N,/03_mcu_core/PWM2*%
X236213333Y-153570000D03*
%TD*%
D27*
%TO.P,R66,1*%
%TO.N,Net-(J12-Pin_2)*%
X260910000Y-101600000D03*
%TO.P,R66,2*%
%TO.N,/03_mcu_core/PYRO_CONT3*%
X259890000Y-101600000D03*
%TD*%
D28*
%TO.P,R118,1*%
%TO.N,Net-(U15-ILIM)*%
X214000000Y-145760000D03*
%TO.P,R118,2*%
%TO.N,GND*%
X214000000Y-144740000D03*
%TD*%
D27*
%TO.P,R70,1*%
%TO.N,Net-(Q4-G)*%
X255683200Y-87442000D03*
%TO.P,R70,2*%
%TO.N,/03_mcu_core/PYRO_FIRE4*%
X254663200Y-87442000D03*
%TD*%
D33*
%TO.P,C72,1*%
%TO.N,/03_mcu_core/PYRO_CONT4*%
X259820000Y-90710000D03*
%TO.P,C72,2*%
%TO.N,GND*%
X258860000Y-90710000D03*
%TD*%
D27*
%TO.P,R61,1*%
%TO.N,Net-(Q2-G)*%
X255683200Y-105891200D03*
%TO.P,R61,2*%
%TO.N,/03_mcu_core/PYRO_FIRE2*%
X254663200Y-105891200D03*
%TD*%
%TO.P,R67,1*%
%TO.N,/03_mcu_core/PYRO_CONT3*%
X259745700Y-99117800D03*
%TO.P,R67,2*%
%TO.N,GND*%
X258725700Y-99117800D03*
%TD*%
D30*
%TO.P,R55,1*%
%TO.N,GND*%
X237990000Y-97000000D03*
%TO.P,R55,2*%
%TO.N,Net-(U6-PC0)*%
X239010000Y-97000000D03*
%TD*%
D28*
%TO.P,R92,1*%
%TO.N,GND*%
X215946667Y-156560000D03*
%TO.P,R92,2*%
%TO.N,Net-(J18-Pin_3)*%
X215946667Y-155540000D03*
%TD*%
%TO.P,R59,1*%
%TO.N,Net-(U6-PF11)*%
X242800000Y-92310000D03*
%TO.P,R59,2*%
%TO.N,GND*%
X242800000Y-91290000D03*
%TD*%
%TO.P,R84,1*%
%TO.N,GND*%
X236213333Y-156560000D03*
%TO.P,R84,2*%
%TO.N,Net-(J6-Pin_3)*%
X236213333Y-155540000D03*
%TD*%
%TO.P,R137,1*%
%TO.N,/03_mcu_core/GPIO_IN3*%
X260130000Y-41880000D03*
%TO.P,R137,2*%
%TO.N,Net-(J29-PadB1)*%
X260130000Y-40860000D03*
%TD*%
D39*
%TO.P,C88,1*%
%TO.N,GND*%
X213525000Y-143000000D03*
%TO.P,C88,2*%
%TO.N,Net-(D6-A2)*%
X210575000Y-143000000D03*
%TD*%
D28*
%TO.P,R88,1*%
%TO.N,GND*%
X228173333Y-156560000D03*
%TO.P,R88,2*%
%TO.N,Net-(J16-Pin_3)*%
X228173333Y-155540000D03*
%TD*%
D39*
%TO.P,C91,1*%
%TO.N,GND*%
X213525000Y-132250000D03*
%TO.P,C91,2*%
%TO.N,Net-(D8-A2)*%
X210575000Y-132250000D03*
%TD*%
D28*
%TO.P,R94,1*%
%TO.N,GND*%
X254553333Y-156560000D03*
%TO.P,R94,2*%
%TO.N,Net-(J19-Pin_3)*%
X254553333Y-155540000D03*
%TD*%
%TO.P,R121,1*%
%TO.N,Net-(U19-ILIM)*%
X213948800Y-123269400D03*
%TO.P,R121,2*%
%TO.N,GND*%
X213948800Y-122249400D03*
%TD*%
D30*
%TO.P,R13,1*%
%TO.N,Net-(J24-Pin_3)*%
X212000000Y-61250899D03*
%TO.P,R13,2*%
%TO.N,/03_mcu_core/UART_TX_EXT*%
X213020000Y-61250899D03*
%TD*%
D28*
%TO.P,R111,1*%
%TO.N,/03_mcu_core/GPIO_OUT2*%
X205320000Y-51260000D03*
%TO.P,R111,2*%
%TO.N,Net-(J28-PadB2)*%
X205320000Y-50240000D03*
%TD*%
%TO.P,R132,1*%
%TO.N,/03_mcu_core/GPIO_OUT4*%
X265140000Y-38410000D03*
%TO.P,R132,2*%
%TO.N,Net-(J29-PadA2)*%
X265140000Y-37390000D03*
%TD*%
%TO.P,R36,1*%
%TO.N,/03_mcu_core/SPI_CS_EXT*%
X215520000Y-103293103D03*
%TO.P,R36,2*%
%TO.N,/02_power_regulators/3V3_SYS*%
X215520000Y-102273103D03*
%TD*%
D30*
%TO.P,R53,1*%
%TO.N,/02_power_regulators/5V_SYS*%
X237990000Y-94800000D03*
%TO.P,R53,2*%
%TO.N,Net-(U6-PC1)*%
X239010000Y-94800000D03*
%TD*%
D33*
%TO.P,C90,1*%
%TO.N,GND*%
X211140000Y-130500000D03*
%TO.P,C90,2*%
%TO.N,Net-(D8-A2)*%
X210180000Y-130500000D03*
%TD*%
D28*
%TO.P,R136,1*%
%TO.N,/03_mcu_core/GPIO_OUT7*%
X257520000Y-38410000D03*
%TO.P,R136,2*%
%TO.N,Net-(J29-PadA5)*%
X257520000Y-37390000D03*
%TD*%
D26*
%TO.P,U19,1,IN*%
%TO.N,/02_power_regulators/3V3_SYS*%
X212478001Y-125509400D03*
%TO.P,U19,2,GND*%
%TO.N,GND*%
X211528000Y-125509400D03*
%TO.P,U19,3,EN*%
%TO.N,Net-(U19-EN)*%
X210577999Y-125509400D03*
%TO.P,U19,4,\u002AFAULT*%
%TO.N,unconnected-(U19-\u002AFAULT-Pad4)*%
X210577999Y-123274200D03*
%TO.P,U19,5,ILIM*%
%TO.N,Net-(U19-ILIM)*%
X211528000Y-123274200D03*
%TO.P,U19,6,OUT*%
%TO.N,Net-(D4-K)*%
X212478001Y-123274200D03*
%TD*%
D28*
%TO.P,R90,1*%
%TO.N,GND*%
X222060000Y-156560000D03*
%TO.P,R90,2*%
%TO.N,Net-(J17-Pin_3)*%
X222060000Y-155540000D03*
%TD*%
D33*
%TO.P,C71,1*%
%TO.N,/03_mcu_core/PYRO_CONT3*%
X259715700Y-100367800D03*
%TO.P,C71,2*%
%TO.N,GND*%
X258755700Y-100367800D03*
%TD*%
D27*
%TO.P,R46,1*%
%TO.N,Net-(J10-Pin_2)*%
X260910000Y-120000000D03*
%TO.P,R46,2*%
%TO.N,/03_mcu_core/PYRO_CONT1*%
X259890000Y-120000000D03*
%TD*%
D28*
%TO.P,R87,1*%
%TO.N,Net-(J16-Pin_3)*%
X228173333Y-154590000D03*
%TO.P,R87,2*%
%TO.N,/03_mcu_core/PWM4*%
X228173333Y-153570000D03*
%TD*%
D30*
%TO.P,R114,1*%
%TO.N,Net-(J26-Pin_5)*%
X213500000Y-99743102D03*
%TO.P,R114,2*%
%TO.N,/03_mcu_core/SPI3_MISO*%
X214520000Y-99743102D03*
%TD*%
D33*
%TO.P,C70,1*%
%TO.N,/03_mcu_core/PYRO_CONT2*%
X259715700Y-109617800D03*
%TO.P,C70,2*%
%TO.N,GND*%
X258755700Y-109617800D03*
%TD*%
D27*
%TO.P,R43,1*%
%TO.N,/02_power_regulators/3V3_SYS*%
X212940000Y-78748302D03*
%TO.P,R43,2*%
%TO.N,/03_mcu_core/I2C2_SDA*%
X211920000Y-78748302D03*
%TD*%
D38*
%TO.P,U17,1,D1+*%
%TO.N,Net-(J24-Pin_2)*%
X212000000Y-53475000D03*
%TO.P,U17,2,D1-*%
%TO.N,Net-(J24-Pin_3)*%
X211500000Y-53475000D03*
%TO.P,U17,3,GND*%
%TO.N,GND*%
X211000000Y-53475000D03*
%TO.P,U17,4,D2+*%
%TO.N,Net-(J25-Pin_4)*%
X210500000Y-53475000D03*
%TO.P,U17,5,D2-*%
%TO.N,Net-(J25-Pin_3)*%
X210000000Y-53475000D03*
%TO.P,U17,6,NC*%
%TO.N,unconnected-(U17-NC-Pad6)*%
X210000000Y-52705000D03*
%TO.P,U17,7,NC*%
%TO.N,unconnected-(U17-NC-Pad7)*%
X210500000Y-52705000D03*
%TO.P,U17,8,GND*%
%TO.N,GND*%
X211000000Y-52705000D03*
%TO.P,U17,9,NC*%
%TO.N,unconnected-(U17-NC-Pad9)*%
X211500000Y-52705000D03*
%TO.P,U17,10,NC*%
%TO.N,unconnected-(U17-NC-Pad10)*%
X212000000Y-52705000D03*
%TD*%
D27*
%TO.P,R65,1*%
%TO.N,Net-(Q3-G)*%
X255683200Y-96666600D03*
%TO.P,R65,2*%
%TO.N,/03_mcu_core/PYRO_FIRE3*%
X254663200Y-96666600D03*
%TD*%
D30*
%TO.P,R113,1*%
%TO.N,Net-(J26-Pin_6)*%
X213500000Y-103243103D03*
%TO.P,R113,2*%
%TO.N,/03_mcu_core/SPI_CS_EXT*%
X214520000Y-103243103D03*
%TD*%
D28*
%TO.P,R138,1*%
%TO.N,/03_mcu_core/GPIO_IN4*%
X259047500Y-41880000D03*
%TO.P,R138,2*%
%TO.N,Net-(J29-PadB2)*%
X259047500Y-40860000D03*
%TD*%
D30*
%TO.P,R115,1*%
%TO.N,Net-(J26-Pin_4)*%
X213500000Y-96243102D03*
%TO.P,R115,2*%
%TO.N,/03_mcu_core/SPI3_MOSI*%
X214520000Y-96243102D03*
%TD*%
D28*
%TO.P,R135,1*%
%TO.N,/03_mcu_core/GPIO_OUT6*%
X260060000Y-38410000D03*
%TO.P,R135,2*%
%TO.N,Net-(J29-PadA4)*%
X260060000Y-37390000D03*
%TD*%
D35*
%TO.P,R45,1*%
%TO.N,GND*%
X256673200Y-114145800D03*
%TO.P,R45,2*%
%TO.N,Net-(Q1-G)*%
X256673200Y-115165800D03*
%TD*%
D30*
%TO.P,R112,1*%
%TO.N,Net-(J25-Pin_3)*%
X209920000Y-75250000D03*
%TO.P,R112,2*%
%TO.N,/03_mcu_core/I2C2_SCL*%
X210940000Y-75250000D03*
%TD*%
D28*
%TO.P,R141,1*%
%TO.N,/03_mcu_core/GPIO_IN7*%
X255800000Y-41880000D03*
%TO.P,R141,2*%
%TO.N,Net-(J29-PadB5)*%
X255800000Y-40860000D03*
%TD*%
%TO.P,R93,1*%
%TO.N,Net-(J19-Pin_3)*%
X254553333Y-154590000D03*
%TO.P,R93,2*%
%TO.N,/03_mcu_core/PWM7*%
X254553333Y-153570000D03*
%TD*%
D27*
%TO.P,R54,1*%
%TO.N,Net-(U6-PC0)*%
X239010000Y-98100000D03*
%TO.P,R54,2*%
%TO.N,/02_power_regulators/8V4_PWM*%
X237990000Y-98100000D03*
%TD*%
D33*
%TO.P,C87,1*%
%TO.N,GND*%
X211088800Y-109009400D03*
%TO.P,C87,2*%
%TO.N,Net-(D7-K)*%
X210128800Y-109009400D03*
%TD*%
D28*
%TO.P,R85,1*%
%TO.N,Net-(J15-Pin_3)*%
X234286667Y-154590000D03*
%TO.P,R85,2*%
%TO.N,/03_mcu_core/PWM3*%
X234286667Y-153570000D03*
%TD*%
D31*
%TO.P,Q2,1,G*%
%TO.N,Net-(Q2-G)*%
X258298200Y-106381200D03*
%TO.P,Q2,2,D*%
%TO.N,GND*%
X258298200Y-104481200D03*
%TO.P,Q2,3,S*%
%TO.N,Net-(J11-Pin_2)*%
X260173200Y-105431200D03*
%TD*%
D27*
%TO.P,R44,1*%
%TO.N,Net-(Q1-G)*%
X255683200Y-115115800D03*
%TO.P,R44,2*%
%TO.N,/03_mcu_core/PYRO_FIRE1*%
X254663200Y-115115800D03*
%TD*%
D28*
%TO.P,R95,1*%
%TO.N,Net-(J20-Pin_3)*%
X248440000Y-154590000D03*
%TO.P,R95,2*%
%TO.N,/03_mcu_core/PWM8*%
X248440000Y-153570000D03*
%TD*%
D33*
%TO.P,C89,1*%
%TO.N,GND*%
X211140000Y-141250000D03*
%TO.P,C89,2*%
%TO.N,Net-(D6-A2)*%
X210180000Y-141250000D03*
%TD*%
D28*
%TO.P,R98,1*%
%TO.N,GND*%
X242326667Y-156560000D03*
%TO.P,R98,2*%
%TO.N,Net-(J21-Pin_3)*%
X242326667Y-155540000D03*
%TD*%
%TO.P,R139,1*%
%TO.N,/03_mcu_core/GPIO_IN5*%
X257965000Y-41880000D03*
%TO.P,R139,2*%
%TO.N,Net-(J29-PadB3)*%
X257965000Y-40860000D03*
%TD*%
D35*
%TO.P,R48,1*%
%TO.N,/07_pyro/PYRO_VBAT_ARMED*%
X258500000Y-120740000D03*
%TO.P,R48,2*%
%TO.N,/03_mcu_core/PYRO_ARM_SENSE*%
X258500000Y-121760000D03*
%TD*%
D28*
%TO.P,R97,1*%
%TO.N,Net-(J21-Pin_3)*%
X242326667Y-154590000D03*
%TO.P,R97,2*%
%TO.N,/03_mcu_core/PWM1*%
X242326667Y-153570000D03*
%TD*%
D31*
%TO.P,Q4,1,G*%
%TO.N,Net-(Q4-G)*%
X258298200Y-87932000D03*
%TO.P,Q4,2,D*%
%TO.N,GND*%
X258298200Y-86032000D03*
%TO.P,Q4,3,S*%
%TO.N,Net-(J13-Pin_2)*%
X260173200Y-86982000D03*
%TD*%
D30*
%TO.P,R14,1*%
%TO.N,Net-(J24-Pin_2)*%
X212000000Y-57750899D03*
%TO.P,R14,2*%
%TO.N,/03_mcu_core/UART_RX_EXT*%
X213020000Y-57750899D03*
%TD*%
D27*
%TO.P,R62,1*%
%TO.N,Net-(J11-Pin_2)*%
X260910000Y-110800000D03*
%TO.P,R62,2*%
%TO.N,/03_mcu_core/PYRO_CONT2*%
X259890000Y-110800000D03*
%TD*%
D31*
%TO.P,Q1,1,G*%
%TO.N,Net-(Q1-G)*%
X258298200Y-115605800D03*
%TO.P,Q1,2,D*%
%TO.N,GND*%
X258298200Y-113705800D03*
%TO.P,Q1,3,S*%
%TO.N,Net-(J10-Pin_2)*%
X260173200Y-114655800D03*
%TD*%
D28*
%TO.P,R109,1*%
%TO.N,/03_mcu_core/GPIO_OUT1*%
X202780000Y-51260000D03*
%TO.P,R109,2*%
%TO.N,Net-(J28-PadB1)*%
X202780000Y-50240000D03*
%TD*%
D26*
%TO.P,U15,1,IN*%
%TO.N,/02_power_regulators/5V_SYS*%
X212529201Y-147750000D03*
%TO.P,U15,2,GND*%
%TO.N,GND*%
X211579200Y-147750000D03*
%TO.P,U15,3,EN*%
%TO.N,Net-(U15-EN)*%
X210629199Y-147750000D03*
%TO.P,U15,4,\u002AFAULT*%
%TO.N,unconnected-(U15-\u002AFAULT-Pad4)*%
X210629199Y-145514800D03*
%TO.P,U15,5,ILIM*%
%TO.N,Net-(U15-ILIM)*%
X211579200Y-145514800D03*
%TO.P,U15,6,OUT*%
%TO.N,Net-(D6-A2)*%
X212529201Y-145514800D03*
%TD*%
D35*
%TO.P,R60,1*%
%TO.N,GND*%
X256673200Y-104921200D03*
%TO.P,R60,2*%
%TO.N,Net-(Q2-G)*%
X256673200Y-105941200D03*
%TD*%
D30*
%TO.P,R120,1*%
%TO.N,Net-(U18-EN)*%
X210629199Y-138500000D03*
%TO.P,R120,2*%
%TO.N,/02_power_regulators/5V_SYS*%
X211649199Y-138500000D03*
%TD*%
D28*
%TO.P,R142,1*%
%TO.N,/03_mcu_core/GPIO_IN2*%
X207860000Y-51260000D03*
%TO.P,R142,2*%
%TO.N,Net-(J28-PadB3)*%
X207860000Y-50240000D03*
%TD*%
D32*
%TO.P,D7,1,K*%
%TO.N,Net-(D7-K)*%
X210248800Y-107700000D03*
%TO.P,D7,2,A*%
%TO.N,GND*%
X211648800Y-107700000D03*
%TD*%
D30*
%TO.P,R24,1*%
%TO.N,Net-(J25-Pin_4)*%
X209920000Y-78748302D03*
%TO.P,R24,2*%
%TO.N,/03_mcu_core/I2C2_SDA*%
X210940000Y-78748302D03*
%TD*%
D28*
%TO.P,R134,1*%
%TO.N,/03_mcu_core/GPIO_OUT5*%
X262600000Y-38410000D03*
%TO.P,R134,2*%
%TO.N,Net-(J29-PadA3)*%
X262600000Y-37390000D03*
%TD*%
D36*
%TO.P,D8,1,A1*%
%TO.N,GND*%
X210920000Y-129500000D03*
%TO.P,D8,2,A2*%
%TO.N,Net-(D8-A2)*%
X210080000Y-129500000D03*
%TD*%
D30*
%TO.P,R123,1*%
%TO.N,Net-(U19-EN)*%
X211458001Y-127259400D03*
%TO.P,R123,2*%
%TO.N,/02_power_regulators/3V3_SYS*%
X212478001Y-127259400D03*
%TD*%
D31*
%TO.P,Q3,1,G*%
%TO.N,Net-(Q3-G)*%
X258298200Y-97156600D03*
%TO.P,Q3,2,D*%
%TO.N,GND*%
X258298200Y-95256600D03*
%TO.P,Q3,3,S*%
%TO.N,Net-(J12-Pin_2)*%
X260173200Y-96206600D03*
%TD*%
D33*
%TO.P,C69,1*%
%TO.N,/03_mcu_core/PYRO_CONT1*%
X259715700Y-118867800D03*
%TO.P,C69,2*%
%TO.N,GND*%
X258755700Y-118867800D03*
%TD*%
D40*
%TO.N,/02_power_regulators/5V_SYS*%
X242790000Y-116000000D03*
X264200000Y-45395000D03*
D41*
X215500000Y-140600000D03*
X214100000Y-139300000D03*
X215500000Y-136900000D03*
D42*
X238000000Y-94800000D03*
D41*
X215500000Y-138100000D03*
X215500000Y-139300000D03*
X214100000Y-140600000D03*
D40*
X228900000Y-147200000D03*
D41*
X214100000Y-136900000D03*
X214100000Y-138100000D03*
D42*
X236200000Y-138000000D03*
%TO.N,GND*%
X214000000Y-134000000D03*
X248250000Y-128450000D03*
X235770000Y-104275000D03*
X247025000Y-28770000D03*
X251850000Y-66100000D03*
X258350000Y-146400000D03*
X219348000Y-66240000D03*
X217700000Y-68400000D03*
X212950000Y-40100000D03*
X247913909Y-74486091D03*
X242500000Y-105700000D03*
D40*
X250000000Y-125425000D03*
D42*
X222000000Y-156600000D03*
X211000000Y-87600000D03*
X256700000Y-114100000D03*
X211000000Y-35000000D03*
D40*
X216300000Y-115800000D03*
D42*
X221200000Y-100500000D03*
X252900000Y-27800000D03*
X211100000Y-130500000D03*
X256500000Y-121800000D03*
X224100000Y-119500000D03*
X241520000Y-102900000D03*
X223100000Y-132300000D03*
X247025000Y-26470000D03*
X249700000Y-71050000D03*
X213650000Y-38250000D03*
X249000000Y-79500000D03*
X254500000Y-23700000D03*
X201300000Y-36133333D03*
X247700000Y-79800000D03*
X222300000Y-135000000D03*
X258300000Y-76900000D03*
X254750000Y-144000000D03*
X245250000Y-100990000D03*
D43*
X218200000Y-82600000D03*
D42*
X249050000Y-66300000D03*
X205166667Y-39900000D03*
X249759998Y-135770000D03*
X248175000Y-29920000D03*
X256673200Y-77310000D03*
X215600000Y-67200000D03*
X249150000Y-72300000D03*
X205166667Y-30700000D03*
X267100000Y-61900000D03*
D40*
X225750000Y-123050000D03*
D42*
X211640600Y-118208200D03*
X203500000Y-30700000D03*
X258009998Y-138524999D03*
X206833333Y-30700000D03*
X229000000Y-102890000D03*
X244975000Y-132655000D03*
X252100000Y-52925000D03*
X258755700Y-100367800D03*
X257250000Y-53750000D03*
X264200000Y-41645000D03*
X232800000Y-36700000D03*
D40*
X234450000Y-143250000D03*
X244500000Y-141800000D03*
D42*
X238000000Y-97000000D03*
D40*
X244500000Y-144300000D03*
D42*
X236650000Y-30460000D03*
X211600000Y-136900000D03*
X211600000Y-115500000D03*
X210900000Y-140300000D03*
X249325000Y-26470000D03*
X225600000Y-38300000D03*
X233000000Y-147800000D03*
X250475000Y-26470000D03*
X211528000Y-125509400D03*
D40*
X245400000Y-131100000D03*
X259100000Y-128850000D03*
D42*
X203500000Y-39900000D03*
X250000000Y-122000000D03*
X256673200Y-95696600D03*
X201300000Y-34466667D03*
X249325000Y-28770000D03*
X206833333Y-39900000D03*
X248250000Y-126900000D03*
X223000000Y-99275000D03*
D40*
X234450000Y-145750000D03*
D42*
X235250000Y-34100000D03*
X258725700Y-99117800D03*
X258000000Y-27600000D03*
X258810000Y-89470000D03*
X254500000Y-156600000D03*
X216200000Y-61500000D03*
X237750000Y-104250000D03*
X235650000Y-105650000D03*
X225675000Y-22100000D03*
X227500000Y-27250000D03*
X248800000Y-58500000D03*
X258300000Y-113700000D03*
X258700000Y-108400000D03*
D43*
X226500000Y-131000000D03*
D40*
X255250000Y-125425000D03*
D42*
X247260000Y-133905000D03*
X258298200Y-86032000D03*
X247750000Y-23775000D03*
X211600000Y-147800000D03*
X248175000Y-28770000D03*
X248175000Y-27620000D03*
X258700000Y-117600000D03*
X211648800Y-107700000D03*
D40*
X213600000Y-143000000D03*
D42*
X233450000Y-30450000D03*
X233730000Y-77130000D03*
D40*
X216300000Y-113200000D03*
D42*
X232750000Y-141500000D03*
X259260000Y-140480000D03*
X212400000Y-121000000D03*
X207450000Y-36350000D03*
X249325000Y-29920000D03*
X258800000Y-80200000D03*
X232980000Y-104275000D03*
D40*
X257900000Y-128850000D03*
D42*
X239500000Y-120000000D03*
X217600000Y-62900000D03*
D40*
X244500000Y-139400000D03*
D42*
X254500000Y-26600000D03*
X254750000Y-145000000D03*
X213600000Y-36000000D03*
X247710000Y-86480000D03*
X250750000Y-32625000D03*
X208100000Y-34500000D03*
X208500000Y-39900000D03*
X216000000Y-156500000D03*
X247710000Y-91525000D03*
X232300000Y-109450000D03*
X222790000Y-86025000D03*
X234200000Y-137000000D03*
X236200000Y-156600000D03*
X249750000Y-23775000D03*
X213900000Y-110600000D03*
X231980000Y-27695000D03*
X242300000Y-156600000D03*
X255250000Y-143000000D03*
X218850000Y-69350000D03*
X221810000Y-95275000D03*
X246750000Y-32625000D03*
X258860000Y-90710000D03*
X221000000Y-86000000D03*
X211100000Y-119500000D03*
X239250000Y-77040000D03*
D40*
X257900000Y-127450000D03*
D43*
X223500000Y-130500000D03*
D42*
X222450000Y-123950000D03*
X241750000Y-24700000D03*
X238580000Y-29480000D03*
X254000000Y-147000000D03*
D40*
X213500000Y-132200000D03*
D42*
X256673200Y-104921200D03*
X250500000Y-67870000D03*
X219800000Y-62900000D03*
X248000000Y-112000000D03*
D43*
X224600000Y-128300000D03*
D42*
X228000000Y-104275000D03*
X214000000Y-144800000D03*
X211100000Y-109000000D03*
X260000000Y-27250000D03*
X238000000Y-95900000D03*
D43*
X226500000Y-133500000D03*
D40*
X259100000Y-127450000D03*
D42*
X227500000Y-24250000D03*
X248440000Y-156560000D03*
X207900000Y-44200000D03*
X225700000Y-24250000D03*
X208500000Y-30700000D03*
X210900000Y-129500000D03*
X218900000Y-85900000D03*
X245600000Y-125900000D03*
X258298200Y-104481200D03*
X221000000Y-123950000D03*
X242800000Y-91300000D03*
X250730000Y-134800000D03*
X247710000Y-98025000D03*
X233860000Y-101960000D03*
X249700000Y-133800000D03*
X258800000Y-118900000D03*
X228100000Y-156600000D03*
X231100000Y-141450000D03*
X253550000Y-53320000D03*
D40*
X234400000Y-141300000D03*
D42*
X225450000Y-75750000D03*
X213900000Y-122300000D03*
X239000000Y-122500000D03*
X216500000Y-85900000D03*
X251750000Y-144000000D03*
X258298200Y-95256600D03*
X249325000Y-27620000D03*
X248175000Y-26470000D03*
D40*
X252400000Y-125425000D03*
D42*
X217600000Y-61700000D03*
X211550000Y-51850000D03*
X218770000Y-83900000D03*
X223100000Y-133800000D03*
X234300000Y-156600000D03*
X248759998Y-135740000D03*
D40*
X244500000Y-136800000D03*
D42*
X211100000Y-141300000D03*
D43*
X224600000Y-125800000D03*
D42*
X226730000Y-77040000D03*
D40*
X246200000Y-147350000D03*
D42*
X217900000Y-73300000D03*
X256250000Y-144000000D03*
X222790000Y-91110000D03*
X201300000Y-37800000D03*
X258860000Y-81460000D03*
X253700000Y-134800000D03*
X247500000Y-114500000D03*
X238172500Y-108202500D03*
X250400000Y-119500000D03*
X256673200Y-86472000D03*
X249070901Y-65500000D03*
X254000000Y-146000000D03*
X212900000Y-45100000D03*
X250475000Y-28770000D03*
X201300000Y-32800000D03*
X250700001Y-73900000D03*
X241500000Y-101940000D03*
X258800000Y-109600000D03*
X242150000Y-65800000D03*
X212400000Y-110500000D03*
X213650000Y-30850000D03*
D41*
%TO.N,/02_power_regulators/VIN_PROT*%
X256900000Y-141900000D03*
X256900000Y-139700000D03*
D40*
X223700000Y-116100000D03*
D41*
X254000000Y-131600000D03*
D40*
X232300000Y-134000000D03*
X235200000Y-131600000D03*
D41*
X257700000Y-130500000D03*
D40*
X221400000Y-116100000D03*
D41*
X256300000Y-130250000D03*
X252900000Y-130250000D03*
X258100000Y-140800000D03*
X250950000Y-131650000D03*
X259200000Y-141900000D03*
X256900000Y-140800000D03*
X249550000Y-131650000D03*
D40*
X235200000Y-128900000D03*
D41*
X256900000Y-138600000D03*
X249550000Y-130250000D03*
D40*
X233800000Y-130300000D03*
X223700000Y-112900000D03*
D41*
X250950000Y-130250000D03*
D42*
X243900000Y-91300000D03*
D41*
X258100000Y-141900000D03*
D40*
X235200000Y-130300000D03*
D41*
X252900000Y-131600000D03*
D40*
X231200000Y-133000000D03*
D41*
X256300000Y-131600000D03*
X255100000Y-130250000D03*
D40*
X233800000Y-128900000D03*
X221400000Y-114500000D03*
D41*
X255100000Y-131600000D03*
X258100000Y-139700000D03*
X251900000Y-130900000D03*
D40*
X223700000Y-114500000D03*
D41*
X254000000Y-130250000D03*
D40*
X221400000Y-112900000D03*
D42*
%TO.N,Net-(C11-Pad2)*%
X243000000Y-127900000D03*
X244730000Y-133905000D03*
%TO.N,Net-(U5-SW)*%
X248300000Y-130200000D03*
X244610000Y-124900000D03*
%TO.N,Net-(U5-FB)*%
X245759319Y-126711337D03*
X243000000Y-126895000D03*
%TO.N,/02_power_regulators/3V3_SYS*%
X202800000Y-44200000D03*
X243500000Y-124645000D03*
X218500000Y-68600000D03*
D40*
X254600000Y-55200000D03*
D42*
X240510000Y-103000000D03*
X225770000Y-77040000D03*
X262300000Y-63600000D03*
X225000000Y-121500000D03*
D40*
X213500000Y-116800000D03*
D41*
X218800000Y-74300000D03*
D42*
X217400000Y-65200000D03*
D41*
X244000000Y-105700000D03*
D40*
X213600000Y-127300000D03*
D42*
X247710000Y-80755000D03*
D40*
X247700000Y-61000000D03*
D42*
X258200000Y-71800000D03*
D41*
X215600000Y-74200000D03*
X219800000Y-81400000D03*
D40*
X252150000Y-68200000D03*
D42*
X215500000Y-102300000D03*
X231800000Y-121500000D03*
D41*
X216400000Y-59500000D03*
D42*
X247710000Y-85520000D03*
X222790000Y-92070000D03*
D40*
X253850000Y-64450000D03*
D42*
X217300000Y-88200000D03*
X213000000Y-78800000D03*
X222790000Y-86985000D03*
X216500000Y-84900000D03*
D41*
X214600000Y-72400000D03*
D42*
X247280000Y-124950000D03*
X238290000Y-77040000D03*
X244950001Y-74550000D03*
X234820000Y-101960000D03*
X232770000Y-77100000D03*
X241130704Y-98300001D03*
X244450000Y-63900000D03*
X229000000Y-101930000D03*
D40*
X253850000Y-66050000D03*
D42*
X247710000Y-90565000D03*
X247710000Y-97065000D03*
D41*
X219700000Y-98600000D03*
D42*
X212900000Y-75200000D03*
%TO.N,/03_mcu_core/GPIO_IN2*%
X207860000Y-51260000D03*
X225871715Y-101076814D03*
%TO.N,/03_mcu_core/UART_RX_EXT*%
X213020000Y-57750899D03*
%TO.N,/03_mcu_core/CS_ADXL375*%
X244820000Y-64850000D03*
X247700000Y-63360000D03*
X226368360Y-89570024D03*
%TO.N,/03_mcu_core/PWM8*%
X248440000Y-153600000D03*
X243976848Y-94400372D03*
%TO.N,/03_mcu_core/SDMMC_CLK*%
X252200000Y-58400000D03*
X256200000Y-55000000D03*
X226945301Y-82542026D03*
X247650000Y-58050000D03*
%TO.N,/03_mcu_core/SDMMC_D2*%
X255000000Y-59800000D03*
X248434419Y-56400000D03*
X251985783Y-56109742D03*
X225823000Y-81402063D03*
%TO.N,/03_mcu_core/PWM6*%
X233800000Y-84250000D03*
X233800000Y-83150000D03*
X215946667Y-153600000D03*
%TO.N,/03_mcu_core/BLE_RX*%
X225754540Y-88127734D03*
X232800000Y-69900000D03*
%TO.N,/03_mcu_core/I2C1_SCL*%
X219800000Y-59200000D03*
X225798603Y-95526095D03*
X219868000Y-73230000D03*
X219094689Y-70200904D03*
%TO.N,/03_mcu_core/LED_G*%
X245980000Y-120500000D03*
X226368360Y-94570024D03*
%TO.N,/03_mcu_core/LORA_TX*%
X241000000Y-70950000D03*
X241097915Y-61750000D03*
%TO.N,/03_mcu_core/PWM4*%
X228173333Y-153600000D03*
X242400000Y-85250000D03*
%TO.N,/03_mcu_core/EXT_SWITCH*%
X252400000Y-71000000D03*
X244775612Y-91675000D03*
%TO.N,/03_mcu_core/PWM7*%
X244726847Y-94398105D03*
X254553333Y-153600000D03*
%TO.N,/03_mcu_core/PWM5*%
X234448663Y-82773519D03*
X222060000Y-153570000D03*
X234548823Y-84190497D03*
%TO.N,Net-(U21-VCC)*%
X254510000Y-25650000D03*
X254510000Y-28640000D03*
X241750000Y-27950000D03*
%TO.N,/03_mcu_core/I2C1_SDA*%
X221118000Y-73240000D03*
X226315659Y-96136552D03*
%TO.N,/03_mcu_core/GPIO_IN1*%
X225900000Y-100200000D03*
X210400000Y-51260000D03*
%TO.N,/03_mcu_core/PYRO_FIRE4*%
X240315350Y-81979439D03*
X249900000Y-84800000D03*
%TO.N,/03_mcu_core/SWCLK*%
X216110000Y-44100000D03*
%TO.N,/03_mcu_core/PYRO_CONT4*%
X259920000Y-91970000D03*
%TO.N,/03_mcu_core/USB_D+*%
X234825000Y-38500000D03*
%TO.N,/03_mcu_core/PYRO_CONT3*%
X259890000Y-101600000D03*
%TO.N,/03_mcu_core/LED_R*%
X252000000Y-113500000D03*
X225805461Y-94001563D03*
%TO.N,/03_mcu_core/BNO085_H_INTN*%
X244274000Y-80914482D03*
X243700000Y-71051470D03*
X217700000Y-71000000D03*
X242975735Y-69075735D03*
%TO.N,/03_mcu_core/SPI2_MISO*%
X246950000Y-75350000D03*
X246329099Y-67900000D03*
X246300000Y-77200000D03*
X243036767Y-80454658D03*
%TO.N,/03_mcu_core/SDMMC_D3*%
X252110263Y-56900000D03*
X247650433Y-56852287D03*
X226373203Y-81982822D03*
X255800000Y-58848527D03*
X252000000Y-60450000D03*
X253804368Y-56895632D03*
%TO.N,/03_mcu_core/PYRO_FIRE5*%
X248800000Y-84899000D03*
X239944602Y-82688347D03*
%TO.N,/03_mcu_core/SPI3_MOSI*%
X225966872Y-87066872D03*
X218684471Y-92136197D03*
X241500000Y-92911000D03*
X218600000Y-93336197D03*
X227274265Y-88974265D03*
X220200000Y-87900000D03*
X223124265Y-88175000D03*
%TO.N,/03_mcu_core/GPIO_OUT1*%
X202800000Y-51250000D03*
X231500000Y-102250000D03*
X213920000Y-102000000D03*
%TO.N,/03_mcu_core/SDMMC_D0*%
X251100000Y-60500000D03*
X256000000Y-52600000D03*
%TO.N,/03_mcu_core/LED_B*%
X239412000Y-93900000D03*
X240090000Y-104100000D03*
%TO.N,/03_mcu_core/BLE_TX*%
X225800000Y-80500000D03*
X233400000Y-66900000D03*
%TO.N,/03_mcu_core/LSM6DSV16BTR_INT1*%
X221100000Y-85200000D03*
X229366872Y-83666872D03*
D40*
%TO.N,/02_power_regulators/3V3_AUX*%
X243600000Y-102800000D03*
X256000000Y-27300000D03*
X228900000Y-28100000D03*
D42*
%TO.N,/03_mcu_core/SPI3_SCK*%
X221600000Y-92736197D03*
X219284265Y-88175000D03*
%TO.N,/03_mcu_core/PYRO_CONT1*%
X259745700Y-117617800D03*
%TO.N,/03_mcu_core/CS_MMC5983*%
X244950001Y-75570000D03*
X225805461Y-89001563D03*
%TO.N,/03_mcu_core/GPIO_OUT2*%
X205320000Y-51260000D03*
X226525473Y-101826000D03*
%TO.N,/03_mcu_core/PWM2*%
X236213333Y-153600000D03*
X244189911Y-86798796D03*
%TO.N,/03_mcu_core/I2C2_SCL*%
X216556166Y-92136197D03*
X231244593Y-98800334D03*
%TO.N,/03_mcu_core/PYRO_CONT5*%
X259920000Y-82720000D03*
%TO.N,/03_mcu_core/PWM1*%
X244250000Y-88000000D03*
X242326667Y-153600000D03*
%TO.N,/03_mcu_core/PYRO_FIRE1*%
X254663200Y-115115800D03*
X241780539Y-80082197D03*
%TO.N,/03_mcu_core/USB_BUS*%
X232780000Y-35680000D03*
X232811765Y-42211765D03*
%TO.N,/03_mcu_core/PYRO_FIRE3*%
X250500000Y-96100000D03*
X240795428Y-81339494D03*
%TO.N,/03_mcu_core/SWITCH1*%
X236321710Y-69121710D03*
X236248915Y-66648915D03*
%TO.N,/03_mcu_core/UART_TX_EXT*%
X213020000Y-61250899D03*
%TO.N,/03_mcu_core/SPI2_MOSI*%
X247100000Y-74450000D03*
X244274000Y-80065955D03*
X246750002Y-72300000D03*
X245200000Y-71800000D03*
%TO.N,/03_mcu_core/GNSS_PPS*%
X224000000Y-54524265D03*
X224007815Y-52192185D03*
%TO.N,Net-(U6-PC0)*%
X239010000Y-98100000D03*
%TO.N,/03_mcu_core/GNSS_RX*%
X231218831Y-41471242D03*
X241800000Y-70000000D03*
X237000000Y-45800003D03*
X237373180Y-65524650D03*
%TO.N,/03_mcu_core/USB_D-*%
X235675000Y-38500000D03*
%TO.N,/03_mcu_core/SWITCH2*%
X236200000Y-70200000D03*
X234600000Y-65600000D03*
%TO.N,/03_mcu_core/BLE_DSR*%
X234900000Y-70600000D03*
X235148915Y-67748915D03*
%TO.N,/03_mcu_core/NRST*%
X232200000Y-98800000D03*
X212940000Y-48640002D03*
%TO.N,/03_mcu_core/SD_DET*%
X226368360Y-84570024D03*
X256500000Y-63600000D03*
%TO.N,/03_mcu_core/PYRO_FIRE2*%
X241251108Y-80681953D03*
X251100000Y-105400000D03*
%TO.N,/03_mcu_core/GNSS_TX*%
X237000000Y-45000000D03*
X231845037Y-40845037D03*
X238000000Y-64897833D03*
X241945466Y-68900000D03*
%TO.N,/03_mcu_core/PYRO_ARM_SENSE*%
X257520000Y-121760000D03*
X248205025Y-102194975D03*
X257100000Y-112300000D03*
%TO.N,/03_mcu_core/PYRO_CONT2*%
X259890000Y-110800000D03*
%TO.N,/03_mcu_core/SPI3_MISO*%
X223365465Y-93565906D03*
X221100000Y-87700000D03*
%TO.N,/03_mcu_core/BLE_RESET*%
X230948915Y-71948915D03*
X226935139Y-85134618D03*
%TO.N,/03_mcu_core/SDMMC_D1*%
X245921710Y-59600000D03*
X249800000Y-60500000D03*
X244173180Y-59573180D03*
X250598000Y-55600000D03*
%TO.N,/03_mcu_core/PWM3*%
X234286667Y-153600000D03*
X244250000Y-85830409D03*
%TO.N,/03_mcu_core/SDMMC_CMD*%
X225805461Y-84001563D03*
X246600000Y-57500000D03*
%TO.N,Net-(U6-PC1)*%
X239010000Y-95900000D03*
%TO.N,/03_mcu_core/SWDIO*%
X216110000Y-43100000D03*
%TO.N,Net-(U6-PF11)*%
X243900000Y-92310000D03*
%TO.N,/03_mcu_core/I2C2_SDA*%
X230297865Y-98702135D03*
X215600000Y-92136197D03*
%TO.N,/03_mcu_core/SPI_CS_EXT*%
X214520000Y-103243103D03*
%TO.N,/03_mcu_core/BLE_RTS*%
X233421710Y-72021710D03*
X232198915Y-70698915D03*
%TO.N,/03_mcu_core/BLE_CTS*%
X226769926Y-80378604D03*
X231600000Y-69599360D03*
%TO.N,/03_mcu_core/BLE_DTR*%
X235800000Y-64800000D03*
X227893474Y-80389596D03*
%TO.N,/04_usb_sd/D+*%
X234825000Y-31800000D03*
%TO.N,/04_usb_sd/D-*%
X235675000Y-31800000D03*
%TO.N,/02_power_regulators/8V4_PWM*%
X238000000Y-98100000D03*
%TO.N,/01_power_input/PGOOD*%
X249800000Y-137500000D03*
X248250000Y-125895000D03*
X246481792Y-126510000D03*
%TO.N,/03_mcu_core/GPIO_IN6*%
X256882500Y-41880000D03*
X252692461Y-73587650D03*
%TO.N,/03_mcu_core/GPIO_OUT5*%
X256300000Y-73526298D03*
%TO.N,/03_mcu_core/GPIO_OUT4*%
X253974265Y-88574265D03*
X256900000Y-74216667D03*
X255500000Y-85351473D03*
D41*
%TO.N,Net-(J24-Pin_3)*%
X211999550Y-61250450D03*
%TO.N,Net-(J24-Pin_2)*%
X212000000Y-57750000D03*
%TO.N,Net-(J25-Pin_4)*%
X209920000Y-78748302D03*
X210700000Y-62500000D03*
%TO.N,Net-(J26-Pin_4)*%
X213500000Y-96243102D03*
%TO.N,Net-(J26-Pin_3)*%
X213500000Y-92736197D03*
%TO.N,Net-(J26-Pin_6)*%
X213486197Y-103243103D03*
%TO.N,Net-(J26-Pin_5)*%
X213500000Y-99743102D03*
D42*
%TO.N,/03_mcu_core/BNO085_NRST*%
X242400000Y-67300000D03*
X218200000Y-70300000D03*
%TO.N,/03_mcu_core/GPIO_IN5*%
X257965000Y-41880000D03*
X253300000Y-74216667D03*
%TO.N,/03_mcu_core/GPIO_OUT3*%
X256100000Y-84751473D03*
X257500000Y-73500000D03*
X252300000Y-92570000D03*
%TO.N,/03_mcu_core/GPIO_IN7*%
X255800000Y-41880000D03*
X252342000Y-77400000D03*
%TO.N,/03_mcu_core/GPIO_OUT6*%
X244720499Y-89577895D03*
X255700000Y-74216667D03*
X248600000Y-89100000D03*
%TO.N,/03_mcu_core/GPIO_IN4*%
X253893461Y-73484819D03*
X259047500Y-41880000D03*
%TO.N,/03_mcu_core/GPIO_OUT7*%
X255094461Y-73500000D03*
X244774914Y-90376044D03*
X249900000Y-88100000D03*
%TO.N,/03_mcu_core/GPIO_IN3*%
X260130000Y-41880000D03*
X254500000Y-74237414D03*
%TO.N,Net-(J28-PadA4)*%
X210390000Y-44300000D03*
%TO.N,Net-(J28-PadA2)*%
X205320000Y-44200000D03*
%TO.N,Net-(J28-PadB1)*%
X202780000Y-48640002D03*
%TO.N,Net-(J28-PadB3)*%
X207860000Y-48640002D03*
%TO.N,Net-(J28-PadB4)*%
X210400000Y-48640002D03*
%TO.N,Net-(J28-PadB2)*%
X205320000Y-48640002D03*
%TO.N,Net-(J29-PadB3)*%
X257965000Y-40860000D03*
X262666600Y-31495850D03*
%TO.N,Net-(J29-PadB4)*%
X256882500Y-40860000D03*
X260126600Y-31495850D03*
%TO.N,Net-(J29-PadA1)*%
X267680000Y-35935852D03*
%TO.N,Net-(J29-PadA5)*%
X257520000Y-35935852D03*
%TO.N,Net-(J29-PadB2)*%
X265206600Y-31495850D03*
X259047500Y-40860000D03*
%TO.N,Net-(J29-PadB1)*%
X267746600Y-31495850D03*
X260130000Y-40860000D03*
%TO.N,Net-(J29-PadA3)*%
X262600000Y-35935852D03*
%TO.N,Net-(J29-PadA4)*%
X260060000Y-35935852D03*
%TO.N,Net-(J29-PadB5)*%
X255800000Y-40860000D03*
X257586600Y-31495850D03*
%TO.N,Net-(J29-PadA2)*%
X265140000Y-35935852D03*
%TO.N,Net-(U16-VBUS)*%
X235250000Y-36400000D03*
%TD*%
D44*
%TO.N,/02_power_regulators/5V_SYS*%
X237990000Y-94800000D02*
X238000000Y-94800000D01*
D45*
%TO.N,Net-(J10-Pin_2)*%
X260910000Y-115392600D02*
X260173200Y-114655800D01*
D46*
X265185802Y-114655800D02*
X265546200Y-115016198D01*
X260173200Y-114655800D02*
X265185802Y-114655800D01*
D45*
X260910000Y-120000000D02*
X260910000Y-115392600D01*
%TO.N,Net-(Q1-G)*%
X258298200Y-115605800D02*
X257113200Y-115605800D01*
X255733200Y-115165800D02*
X255683200Y-115115800D01*
X257113200Y-115605800D02*
X256673200Y-115165800D01*
X256673200Y-115165800D02*
X255733200Y-115165800D01*
D44*
%TO.N,GND*%
X258755700Y-109617800D02*
X258782200Y-109617800D01*
X258755700Y-118867800D02*
X258767800Y-118867800D01*
X237990000Y-97000000D02*
X238000000Y-97000000D01*
X211000000Y-88480000D02*
X211000000Y-87600000D01*
X211579200Y-136879200D02*
X211600000Y-136900000D01*
X228173333Y-156560000D02*
X228140000Y-156560000D01*
X210920000Y-140280000D02*
X210900000Y-140300000D01*
X212348800Y-110509400D02*
X212390600Y-110509400D01*
X212348800Y-121009400D02*
X212390600Y-121009400D01*
X228140000Y-156560000D02*
X228100000Y-156600000D01*
X222060000Y-156560000D02*
X222040000Y-156560000D01*
X236213333Y-156560000D02*
X236213333Y-156586667D01*
X213948800Y-122249400D02*
X213948800Y-122251200D01*
X258298200Y-113701800D02*
X258300000Y-113700000D01*
X234286667Y-156586667D02*
X234300000Y-156600000D01*
X256490000Y-121750000D02*
X256490000Y-121790000D01*
X258782200Y-109617800D02*
X258800000Y-109600000D01*
X242326667Y-156573333D02*
X242300000Y-156600000D01*
X211088800Y-119509400D02*
X211090600Y-119509400D01*
D45*
X211648800Y-118200000D02*
X211640600Y-118208200D01*
D44*
X222040000Y-156560000D02*
X222000000Y-156600000D01*
X211528000Y-115009400D02*
X211528000Y-115028000D01*
X211528000Y-115428000D02*
X211600000Y-115500000D01*
X242800000Y-91290000D02*
X242800000Y-91300000D01*
X256673200Y-114126800D02*
X256700000Y-114100000D01*
X211579200Y-136867600D02*
X211579200Y-136879200D01*
X258725700Y-108374300D02*
X258700000Y-108400000D01*
X258810000Y-80210000D02*
X258800000Y-80200000D01*
X258717800Y-117617800D02*
X258700000Y-117600000D01*
X211140000Y-130500000D02*
X211100000Y-130500000D01*
X211000000Y-52705000D02*
X211000000Y-52400000D01*
X210920000Y-129500000D02*
X210900000Y-129500000D01*
X211648800Y-107700000D02*
X211700000Y-107700000D01*
X258725700Y-117617800D02*
X258717800Y-117617800D01*
X237990000Y-95900000D02*
X238000000Y-95900000D01*
X212390600Y-110509400D02*
X212400000Y-110500000D01*
X212390600Y-121009400D02*
X212400000Y-121000000D01*
X254540000Y-156560000D02*
X254500000Y-156600000D01*
X211140000Y-141260000D02*
X211100000Y-141300000D01*
X254553333Y-156560000D02*
X254540000Y-156560000D01*
X242326667Y-156560000D02*
X242326667Y-156573333D01*
X258298200Y-76870000D02*
X258298200Y-76898200D01*
X236213333Y-156586667D02*
X236200000Y-156600000D01*
X234286667Y-156560000D02*
X234286667Y-156586667D01*
X214000000Y-144740000D02*
X214000000Y-144800000D01*
X211528000Y-115009400D02*
X211528000Y-115428000D01*
X214000000Y-133990000D02*
X214000000Y-134000000D01*
X258725700Y-108367800D02*
X258725700Y-108374300D01*
X213948800Y-111749400D02*
X213948800Y-110648800D01*
X258298200Y-76898200D02*
X258300000Y-76900000D01*
X211528000Y-115028000D02*
X211644975Y-115144975D01*
X211088800Y-109009400D02*
X211090600Y-109009400D01*
X211640600Y-118259400D02*
X211600000Y-118300000D01*
X256673200Y-114145800D02*
X256673200Y-114126800D01*
X213948800Y-110648800D02*
X213900000Y-110600000D01*
X258767800Y-118867800D02*
X258800000Y-118900000D01*
X211090600Y-109009400D02*
X211100000Y-109000000D01*
X211000000Y-89250000D02*
X211000000Y-88480000D01*
X211000000Y-52400000D02*
X211550000Y-51850000D01*
X211579200Y-147750000D02*
X211579200Y-147779200D01*
X211579200Y-147779200D02*
X211600000Y-147800000D01*
X210920000Y-140250000D02*
X210920000Y-140280000D01*
X211140000Y-141250000D02*
X211140000Y-141260000D01*
X235250000Y-34100000D02*
X235250000Y-34112500D01*
X215946667Y-156553333D02*
X216000000Y-156500000D01*
X256490000Y-121790000D02*
X256500000Y-121800000D01*
X258810000Y-80220000D02*
X258810000Y-80210000D01*
X211000000Y-53475000D02*
X211000000Y-52705000D01*
X215946667Y-156560000D02*
X215946667Y-156553333D01*
X211090600Y-119509400D02*
X211100000Y-119500000D01*
X211640600Y-118208200D02*
X211640600Y-118259400D01*
X213948800Y-122251200D02*
X213900000Y-122300000D01*
X258298200Y-113705800D02*
X258298200Y-113701800D01*
D45*
%TO.N,Net-(Q2-G)*%
X255733200Y-105941200D02*
X255683200Y-105891200D01*
X257113200Y-106381200D02*
X256673200Y-105941200D01*
X258298200Y-106381200D02*
X257113200Y-106381200D01*
X256673200Y-105941200D02*
X255733200Y-105941200D01*
%TO.N,Net-(J11-Pin_2)*%
X260910000Y-106168000D02*
X260173200Y-105431200D01*
D46*
X265185802Y-105431200D02*
X265546200Y-105791598D01*
D45*
X260910000Y-110800000D02*
X260910000Y-106168000D01*
D46*
X260173200Y-105431200D02*
X265185802Y-105431200D01*
D45*
%TO.N,Net-(Q3-G)*%
X256673200Y-96716600D02*
X255733200Y-96716600D01*
X257113200Y-97156600D02*
X256673200Y-96716600D01*
X258298200Y-97156600D02*
X257113200Y-97156600D01*
X255733200Y-96716600D02*
X255683200Y-96666600D01*
%TO.N,Net-(J12-Pin_2)*%
X260910000Y-101600000D02*
X260910000Y-96943400D01*
X260910000Y-96943400D02*
X260173200Y-96206600D01*
D46*
X265185802Y-96206600D02*
X265546200Y-96566998D01*
X260173200Y-96206600D02*
X265185802Y-96206600D01*
D45*
%TO.N,Net-(J13-Pin_2)*%
X260940000Y-91970000D02*
X260940000Y-87748800D01*
D46*
X260173200Y-86982000D02*
X265185802Y-86982000D01*
X265185802Y-86982000D02*
X265546200Y-87342398D01*
D45*
X260940000Y-87748800D02*
X260173200Y-86982000D01*
%TO.N,Net-(Q4-G)*%
X258298200Y-87932000D02*
X257113200Y-87932000D01*
X257113200Y-87932000D02*
X256673200Y-87492000D01*
X255733200Y-87492000D02*
X255683200Y-87442000D01*
X256673200Y-87492000D02*
X255733200Y-87492000D01*
%TO.N,Net-(J14-Pin_2)*%
X260940000Y-78586800D02*
X260173200Y-77820000D01*
X260940000Y-82720000D02*
X260940000Y-78586800D01*
D46*
X265248402Y-77820000D02*
X265546200Y-78117798D01*
X260173200Y-77820000D02*
X265248402Y-77820000D01*
D45*
%TO.N,Net-(Q5-G)*%
X255733200Y-78330000D02*
X255683200Y-78280000D01*
X256673200Y-78330000D02*
X255733200Y-78330000D01*
X258298200Y-78770000D02*
X257113200Y-78770000D01*
X257113200Y-78770000D02*
X256673200Y-78330000D01*
%TO.N,/02_power_regulators/VIN_PROT*%
X243900000Y-91290000D02*
X243900000Y-91300000D01*
%TO.N,Net-(C11-Pad2)*%
X243000000Y-127900000D02*
X243000000Y-132175000D01*
X243000000Y-132175000D02*
X244730000Y-133905000D01*
D47*
%TO.N,Net-(U5-FB)*%
X243004464Y-126899464D02*
X243000000Y-126895000D01*
D44*
X243195000Y-126700000D02*
X243000000Y-126895000D01*
X245747982Y-126700000D02*
X243195000Y-126700000D01*
X245759319Y-126711337D02*
X245747982Y-126700000D01*
D45*
%TO.N,/02_power_regulators/3V3_SYS*%
X213459400Y-116759400D02*
X213500000Y-116800000D01*
X212478001Y-116759400D02*
X213459400Y-116759400D01*
D44*
X215520000Y-102273103D02*
X215520000Y-102280000D01*
D47*
X212940000Y-75250000D02*
X212940000Y-75240000D01*
D44*
X215520000Y-102280000D02*
X215500000Y-102300000D01*
D45*
X212478001Y-127259400D02*
X212478001Y-125509400D01*
X212478001Y-116759400D02*
X212478001Y-115009400D01*
X212478001Y-127259400D02*
X213559400Y-127259400D01*
D47*
X212948302Y-78748302D02*
X213000000Y-78800000D01*
X212940000Y-78748302D02*
X212948302Y-78748302D01*
X212940000Y-75240000D02*
X212900000Y-75200000D01*
D44*
X225000000Y-121500000D02*
X231800000Y-121500000D01*
D45*
X213559400Y-127259400D02*
X213600000Y-127300000D01*
D44*
%TO.N,/03_mcu_core/CS_ADXL375*%
X245910000Y-63360000D02*
X247700000Y-63360000D01*
X226500000Y-89438384D02*
X226500000Y-88900000D01*
X244820000Y-64850000D02*
X244820000Y-64450000D01*
X236500000Y-77100000D02*
X244820000Y-68780000D01*
X236500000Y-78900000D02*
X236500000Y-77100000D01*
X244820000Y-68780000D02*
X244820000Y-64850000D01*
X226500000Y-88900000D02*
X236500000Y-78900000D01*
X226368360Y-89570024D02*
X226500000Y-89438384D01*
X244820000Y-64450000D02*
X245910000Y-63360000D01*
%TO.N,/03_mcu_core/PWM8*%
X248430000Y-153570000D02*
X248400000Y-153600000D01*
X248440000Y-153570000D02*
X248430000Y-153570000D01*
%TO.N,/03_mcu_core/SDMMC_CLK*%
X252200000Y-58400000D02*
X252750057Y-58400000D01*
X256400000Y-56400000D02*
X256200000Y-56200000D01*
X254750057Y-60400000D02*
X255350000Y-60400000D01*
X256200000Y-56200000D02*
X256200000Y-55000000D01*
X255350000Y-60400000D02*
X256400000Y-59350000D01*
X256400000Y-59350000D02*
X256400000Y-56400000D01*
X252750057Y-58400000D02*
X254750057Y-60400000D01*
%TO.N,/03_mcu_core/SDMMC_D2*%
X255000000Y-58939794D02*
X252169948Y-56109742D01*
X255000000Y-59800000D02*
X255000000Y-58939794D01*
X252169948Y-56109742D02*
X251985783Y-56109742D01*
%TO.N,/03_mcu_core/PWM6*%
X215946667Y-153570000D02*
X215970000Y-153570000D01*
X215970000Y-153570000D02*
X216000000Y-153600000D01*
X233800000Y-83150000D02*
X233800000Y-84250000D01*
%TO.N,/03_mcu_core/BLE_RX*%
X231349915Y-82532359D02*
X231349915Y-79900000D01*
X231349915Y-79900000D02*
X231597915Y-79652000D01*
X225754540Y-88127734D02*
X231349915Y-82532359D01*
X231597915Y-79652000D02*
X231597915Y-70449972D01*
X232147887Y-69900000D02*
X232800000Y-69900000D01*
X231597915Y-70449972D02*
X232147887Y-69900000D01*
%TO.N,/03_mcu_core/I2C1_SCL*%
X219800000Y-59200000D02*
X220700000Y-60100000D01*
X220700000Y-68595593D02*
X219094689Y-70200904D01*
X220700000Y-60100000D02*
X220700000Y-68595593D01*
%TO.N,/03_mcu_core/LED_G*%
X228819967Y-94570024D02*
X232800000Y-98550057D01*
X235700000Y-108700000D02*
X238600000Y-111600000D01*
X238600000Y-111600000D02*
X245700000Y-111600000D01*
X246200000Y-120280000D02*
X245980000Y-120500000D01*
X233600000Y-103900000D02*
X233600000Y-107800000D01*
X234500000Y-108700000D02*
X235700000Y-108700000D01*
X246200000Y-112100000D02*
X246200000Y-120280000D01*
X245700000Y-111600000D02*
X246200000Y-112100000D01*
X226368360Y-94570024D02*
X228819967Y-94570024D01*
X233600000Y-107800000D02*
X234500000Y-108700000D01*
X232800000Y-98550057D02*
X232800000Y-103100000D01*
X232800000Y-103100000D02*
X233600000Y-103900000D01*
%TO.N,/03_mcu_core/LORA_TX*%
X241150000Y-61750000D02*
X241097915Y-61750000D01*
X241100000Y-61800000D02*
X241150000Y-61750000D01*
%TO.N,/03_mcu_core/PWM4*%
X228173333Y-153570000D02*
X228173333Y-153573333D01*
X228173333Y-153573333D02*
X228200000Y-153600000D01*
%TO.N,/03_mcu_core/EXT_SWITCH*%
X244521000Y-91093073D02*
X244521000Y-91420388D01*
X244400000Y-90920372D02*
X244471000Y-90991372D01*
X252400000Y-71000000D02*
X249550000Y-73850000D01*
X244267927Y-90719000D02*
X244400000Y-90851073D01*
X244900000Y-80141100D02*
X244900000Y-82900000D01*
X244267927Y-90667927D02*
X244267927Y-90719000D01*
X244471000Y-90991372D02*
X244471000Y-91043073D01*
X244471000Y-91043073D02*
X244521000Y-91093073D01*
X244521000Y-91420388D02*
X244775612Y-91675000D01*
X243600000Y-90000000D02*
X244267927Y-90667927D01*
X249550000Y-75491100D02*
X244900000Y-80141100D01*
X249550000Y-73850000D02*
X249550000Y-75491100D01*
X244900000Y-82900000D02*
X243600000Y-84200000D01*
X243600000Y-84200000D02*
X243600000Y-90000000D01*
X244400000Y-90851073D02*
X244400000Y-90920372D01*
%TO.N,/03_mcu_core/PWM7*%
X254553333Y-153570000D02*
X254570000Y-153570000D01*
X254570000Y-153570000D02*
X254600000Y-153600000D01*
%TO.N,/03_mcu_core/PWM5*%
X222060000Y-153790000D02*
X222010000Y-153790000D01*
X234448663Y-84090337D02*
X234548823Y-84190497D01*
X222010000Y-153790000D02*
X222000000Y-153800000D01*
X234448663Y-82773519D02*
X234448663Y-84090337D01*
D45*
%TO.N,Net-(U21-VCC)*%
X241100000Y-28600000D02*
X241100000Y-33000000D01*
X244700000Y-36600000D02*
X252100000Y-36600000D01*
X254500000Y-34200000D02*
X254500000Y-28650000D01*
D44*
X254510000Y-25650000D02*
X254550000Y-25650000D01*
X255100000Y-26200000D02*
X255100000Y-28500000D01*
D45*
X254500000Y-28650000D02*
X254510000Y-28640000D01*
D44*
X254550000Y-25650000D02*
X255100000Y-26200000D01*
X254960000Y-28640000D02*
X254510000Y-28640000D01*
D45*
X252100000Y-36600000D02*
X254500000Y-34200000D01*
X241100000Y-33000000D02*
X244700000Y-36600000D01*
X241750000Y-27950000D02*
X241100000Y-28600000D01*
D44*
X255100000Y-28500000D02*
X254960000Y-28640000D01*
%TO.N,/03_mcu_core/PYRO_FIRE4*%
X252542000Y-87442000D02*
X254663200Y-87442000D01*
X249900000Y-84800000D02*
X252542000Y-87442000D01*
D45*
%TO.N,/03_mcu_core/PYRO_CONT4*%
X259830000Y-90700000D02*
X259820000Y-90710000D01*
X259820000Y-90710000D02*
X259820000Y-91870000D01*
X259820000Y-91870000D02*
X259920000Y-91970000D01*
X259830000Y-89470000D02*
X259830000Y-90700000D01*
D44*
%TO.N,/03_mcu_core/USB_D+*%
X234300000Y-37381251D02*
X235024999Y-38106250D01*
X235024999Y-38300001D02*
X234825000Y-38500000D01*
X235024999Y-38106250D02*
X235024999Y-38300001D01*
X234300000Y-36387500D02*
X234300000Y-37381251D01*
D45*
%TO.N,/03_mcu_core/PYRO_CONT3*%
X259715700Y-100367800D02*
X259715700Y-101425700D01*
X259745700Y-100337800D02*
X259715700Y-100367800D01*
X259715700Y-101425700D02*
X259890000Y-101600000D01*
X259745700Y-99117800D02*
X259745700Y-100337800D01*
D44*
%TO.N,/03_mcu_core/LED_R*%
X233201000Y-98383957D02*
X233201000Y-102933900D01*
X235833550Y-108266450D02*
X238767100Y-111200000D01*
X228786067Y-93969024D02*
X233201000Y-98383957D01*
X234000000Y-107632900D02*
X234633550Y-108266450D01*
X225805461Y-94001563D02*
X225838000Y-93969024D01*
X238767100Y-111200000D02*
X249700000Y-111200000D01*
X249700000Y-111200000D02*
X252000000Y-113500000D01*
X234633550Y-108266450D02*
X235833550Y-108266450D01*
X225838000Y-93969024D02*
X228786067Y-93969024D01*
X233201000Y-102933900D02*
X234000000Y-103732900D01*
X234000000Y-103732900D02*
X234000000Y-107632900D01*
%TO.N,/03_mcu_core/BNO085_H_INTN*%
X238052110Y-64100000D02*
X241300000Y-67347890D01*
X235300000Y-64100000D02*
X238052110Y-64100000D01*
X243700000Y-71051470D02*
X243700000Y-79500000D01*
X219466100Y-71301000D02*
X226666100Y-64101000D01*
X218001000Y-71301000D02*
X219466100Y-71301000D01*
X243673000Y-80313482D02*
X244274000Y-80914482D01*
X241300000Y-67347890D02*
X241300000Y-67400000D01*
X235001000Y-64101000D02*
X235002000Y-64100000D01*
X226666100Y-64101000D02*
X235001000Y-64101000D01*
X243673000Y-79527000D02*
X243673000Y-80313482D01*
X241300000Y-67400000D02*
X243100000Y-69200000D01*
X235002000Y-64100000D02*
X235300000Y-64100000D01*
X243100000Y-69200000D02*
X242975735Y-69075735D01*
X243700000Y-79500000D02*
X243673000Y-79527000D01*
X217700000Y-71000000D02*
X218001000Y-71301000D01*
%TO.N,/03_mcu_core/SPI2_MISO*%
X245778099Y-74178099D02*
X245778099Y-68451000D01*
X246950000Y-75350000D02*
X245778099Y-74178099D01*
X245778099Y-68451000D02*
X246329099Y-67900000D01*
%TO.N,/03_mcu_core/SDMMC_D3*%
X252300000Y-60150000D02*
X252300000Y-59300000D01*
X251599000Y-57411263D02*
X252110263Y-56900000D01*
X251599000Y-58599000D02*
X251599000Y-57411263D01*
X255800000Y-58848527D02*
X255757263Y-58848527D01*
X252300000Y-59300000D02*
X251599000Y-58599000D01*
X252000000Y-60450000D02*
X252300000Y-60150000D01*
X255757263Y-58848527D02*
X253804368Y-56895632D01*
%TO.N,/03_mcu_core/PYRO_FIRE5*%
X248800000Y-84899000D02*
X254663200Y-79035800D01*
X254663200Y-79035800D02*
X254663200Y-78280000D01*
%TO.N,/03_mcu_core/SPI3_MOSI*%
X223124265Y-88175000D02*
X224858744Y-88175000D01*
X241500000Y-92911000D02*
X231211000Y-92911000D01*
X231211000Y-92911000D02*
X227274265Y-88974265D01*
X219035322Y-87574000D02*
X218684471Y-87924851D01*
X218600000Y-93336197D02*
X215693095Y-96243102D01*
X220200000Y-87900000D02*
X219874000Y-87574000D01*
X218684471Y-87924851D02*
X218684471Y-92136197D01*
X224858744Y-88175000D02*
X225966872Y-87066872D01*
X219874000Y-87574000D02*
X219035322Y-87574000D01*
X215693095Y-96243102D02*
X214520000Y-96243102D01*
%TO.N,/03_mcu_core/GPIO_OUT1*%
X214220000Y-101700000D02*
X213920000Y-102000000D01*
X230100000Y-103650000D02*
X231500000Y-102250000D01*
X227086036Y-103650000D02*
X230100000Y-103650000D01*
X223551470Y-101700000D02*
X214220000Y-101700000D01*
X202780000Y-51260000D02*
X202790000Y-51260000D01*
X225136036Y-101700000D02*
X227086036Y-103650000D01*
X223551470Y-101700000D02*
X225136036Y-101700000D01*
X202790000Y-51260000D02*
X202800000Y-51250000D01*
%TO.N,/03_mcu_core/SDMMC_D0*%
X251198000Y-60402000D02*
X251198000Y-52102000D01*
X251198000Y-52102000D02*
X251300000Y-52000000D01*
X251300000Y-52000000D02*
X255400000Y-52000000D01*
X255400000Y-52000000D02*
X256000000Y-52600000D01*
X251100000Y-60500000D02*
X251198000Y-60402000D01*
%TO.N,/03_mcu_core/LED_B*%
X239500000Y-103700000D02*
X239500000Y-99900000D01*
X239500000Y-99900000D02*
X240000000Y-99400000D01*
X240090000Y-104100000D02*
X239900000Y-104100000D01*
X240000000Y-99400000D02*
X240000000Y-94488000D01*
X239900000Y-104100000D02*
X239500000Y-103700000D01*
X240000000Y-94488000D02*
X239412000Y-93900000D01*
%TO.N,/03_mcu_core/BLE_TX*%
X229800000Y-70500000D02*
X233400000Y-66900000D01*
X229800000Y-76500000D02*
X229800000Y-70500000D01*
X225800000Y-80500000D02*
X229800000Y-76500000D01*
%TO.N,/03_mcu_core/LSM6DSV16BTR_INT1*%
X229366872Y-83666874D02*
X227233746Y-85800000D01*
X229366872Y-83666872D02*
X229366872Y-83666874D01*
X223800000Y-85800000D02*
X223200000Y-85200000D01*
X223200000Y-85200000D02*
X221100000Y-85200000D01*
X227233746Y-85800000D02*
X223800000Y-85800000D01*
%TO.N,/03_mcu_core/SPI3_SCK*%
X219284265Y-88175000D02*
X219284265Y-92120462D01*
X221600000Y-92736197D02*
X219900000Y-92736197D01*
X219284265Y-92120462D02*
X219900000Y-92736197D01*
X219900000Y-92736197D02*
X214520000Y-92736197D01*
D45*
%TO.N,/03_mcu_core/PYRO_CONT1*%
X259745700Y-117617800D02*
X259745700Y-118837800D01*
X259715700Y-119825700D02*
X259890000Y-120000000D01*
X259745700Y-118837800D02*
X259715700Y-118867800D01*
X259715700Y-118867800D02*
X259715700Y-119825700D01*
D44*
%TO.N,/03_mcu_core/PWM2*%
X236213333Y-153570000D02*
X236213333Y-153586667D01*
X236213333Y-153586667D02*
X236200000Y-153600000D01*
%TO.N,/03_mcu_core/I2C2_SCL*%
X210940000Y-75250000D02*
X211920000Y-75250000D01*
X213700000Y-77030000D02*
X213700000Y-89300000D01*
X213700000Y-89300000D02*
X214500000Y-90100000D01*
X216536197Y-92136197D02*
X216556166Y-92136197D01*
X211920000Y-75250000D02*
X213700000Y-77030000D01*
X214500000Y-90100000D02*
X216536197Y-92136197D01*
D45*
%TO.N,/03_mcu_core/PYRO_CONT5*%
X259820000Y-81460000D02*
X259820000Y-82620000D01*
X259830000Y-80220000D02*
X259830000Y-81450000D01*
X259830000Y-81450000D02*
X259820000Y-81460000D01*
X259820000Y-82620000D02*
X259920000Y-82720000D01*
D44*
%TO.N,/03_mcu_core/PWM1*%
X242326667Y-153570000D02*
X242230000Y-153570000D01*
X242230000Y-153570000D02*
X242200000Y-153600000D01*
%TO.N,/03_mcu_core/USB_BUS*%
X233500000Y-41523530D02*
X232811765Y-42211765D01*
X233500000Y-36400000D02*
X233500000Y-41523530D01*
X232780000Y-35680000D02*
X233500000Y-36400000D01*
%TO.N,/03_mcu_core/PYRO_FIRE3*%
X250933400Y-96666600D02*
X254663200Y-96666600D01*
X250500000Y-96100000D02*
X250500000Y-96233200D01*
X250500000Y-96233200D02*
X250933400Y-96666600D01*
%TO.N,/03_mcu_core/SWITCH1*%
X236248915Y-66648915D02*
X236248915Y-69048915D01*
X236248915Y-69048915D02*
X236321710Y-69121710D01*
%TO.N,/03_mcu_core/SPI2_MOSI*%
X248050000Y-75400000D02*
X247100000Y-74450000D01*
X244274000Y-80065955D02*
X244408045Y-80065955D01*
X244408045Y-80065955D02*
X248050000Y-76424000D01*
X248050000Y-76424000D02*
X248050000Y-75400000D01*
%TO.N,/03_mcu_core/GNSS_PPS*%
X224000000Y-52800000D02*
X224000000Y-54524265D01*
X224007815Y-52192185D02*
X224007815Y-52792185D01*
X224007815Y-52792185D02*
X224000000Y-52800000D01*
%TO.N,Net-(U6-PC0)*%
X239010000Y-97000000D02*
X239010000Y-98100000D01*
%TO.N,/03_mcu_core/GNSS_RX*%
X240964074Y-69115544D02*
X237373180Y-65524650D01*
X241015544Y-69115544D02*
X240964074Y-69115544D01*
X231218831Y-42035874D02*
X234982960Y-45800003D01*
X234982960Y-45800003D02*
X237000000Y-45800003D01*
X241800000Y-69900000D02*
X241015544Y-69115544D01*
X231218831Y-41471242D02*
X231218831Y-42035874D01*
X241800000Y-70000000D02*
X241800000Y-69900000D01*
%TO.N,/03_mcu_core/USB_D-*%
X236200000Y-37381251D02*
X235475001Y-38106250D01*
X236200000Y-36387500D02*
X236200000Y-37381251D01*
X235475001Y-38106250D02*
X235475001Y-38300001D01*
X235475001Y-38300001D02*
X235675000Y-38500000D01*
%TO.N,/03_mcu_core/SWITCH2*%
X236049943Y-65600000D02*
X237000000Y-66550057D01*
X234600000Y-65600000D02*
X236049943Y-65600000D01*
X237000000Y-69200000D02*
X237000000Y-69400000D01*
X237000000Y-66550057D02*
X237000000Y-69200000D01*
X237000000Y-69400000D02*
X236200000Y-70200000D01*
%TO.N,/03_mcu_core/BLE_DSR*%
X234900000Y-67997830D02*
X234900000Y-70600000D01*
X235148915Y-67748915D02*
X234900000Y-67997830D01*
%TO.N,/03_mcu_core/PYRO_FIRE2*%
X251117600Y-105400000D02*
X251608800Y-105891200D01*
X251608800Y-105891200D02*
X254663200Y-105891200D01*
X251100000Y-105400000D02*
X251117600Y-105400000D01*
%TO.N,/03_mcu_core/GNSS_TX*%
X234750057Y-45000000D02*
X237000000Y-45000000D01*
X241945466Y-68843299D02*
X238000000Y-64897833D01*
X231845037Y-42094980D02*
X234750057Y-45000000D01*
X241945466Y-68900000D02*
X241945466Y-68843299D01*
X231845037Y-40845037D02*
X231845037Y-42094980D01*
%TO.N,/03_mcu_core/PYRO_ARM_SENSE*%
X249900000Y-103900000D02*
X248205025Y-102205025D01*
D45*
X257510000Y-121750000D02*
X258490000Y-121750000D01*
X258490000Y-121750000D02*
X258500000Y-121760000D01*
D44*
X248205025Y-102205025D02*
X248205025Y-102194975D01*
X257100000Y-112300000D02*
X249900000Y-105100000D01*
X249900000Y-105100000D02*
X249900000Y-103900000D01*
D45*
%TO.N,/03_mcu_core/PYRO_CONT2*%
X259715700Y-109617800D02*
X259715700Y-110625700D01*
X259715700Y-110625700D02*
X259890000Y-110800000D01*
X259745700Y-109587800D02*
X259715700Y-109617800D01*
X259745700Y-108367800D02*
X259745700Y-109587800D01*
D44*
%TO.N,/03_mcu_core/SPI3_MISO*%
X221100000Y-87700000D02*
X221300000Y-87900000D01*
X224300000Y-92631371D02*
X223365465Y-93565906D01*
X224300000Y-91300000D02*
X224300000Y-92631371D01*
X214520000Y-99743102D02*
X214520000Y-99080000D01*
X221300000Y-87900000D02*
X221300000Y-88300000D01*
X214520000Y-99080000D02*
X220000000Y-93600000D01*
X223331371Y-93600000D02*
X223365465Y-93565906D01*
X221300000Y-88300000D02*
X224300000Y-91300000D01*
X220000000Y-93600000D02*
X223331371Y-93600000D01*
%TO.N,/03_mcu_core/BLE_RESET*%
X226935139Y-85134618D02*
X230948915Y-81120842D01*
X230948915Y-81120842D02*
X230948915Y-71948915D01*
%TO.N,/03_mcu_core/SDMMC_D1*%
X244200000Y-59600000D02*
X244173180Y-59573180D01*
X249800000Y-60500000D02*
X249983500Y-60500000D01*
X250598000Y-59885500D02*
X250598000Y-55600000D01*
X245921710Y-59600000D02*
X244200000Y-59600000D01*
X249983500Y-60500000D02*
X250598000Y-59885500D01*
%TO.N,/03_mcu_core/PWM3*%
X234370000Y-153570000D02*
X234400000Y-153600000D01*
X234286667Y-153570000D02*
X234370000Y-153570000D01*
%TO.N,Net-(U6-PC1)*%
X239010000Y-94800000D02*
X239010000Y-95900000D01*
%TO.N,Net-(U6-PF11)*%
X242800000Y-92310000D02*
X243900000Y-92310000D01*
%TO.N,/03_mcu_core/I2C2_SDA*%
X215436197Y-92136197D02*
X215600000Y-92136197D01*
X212800000Y-89500000D02*
X215436197Y-92136197D01*
X210940000Y-78748302D02*
X211920000Y-78748302D01*
X211920000Y-78748302D02*
X212800000Y-79628302D01*
X212800000Y-79628302D02*
X212800000Y-89500000D01*
%TO.N,/03_mcu_core/SPI_CS_EXT*%
X214520000Y-103243103D02*
X215470000Y-103243103D01*
X215470000Y-103243103D02*
X215520000Y-103293103D01*
%TO.N,/03_mcu_core/BLE_RTS*%
X232198915Y-70698915D02*
X233421710Y-71921710D01*
X233421710Y-71921710D02*
X233421710Y-72021710D01*
%TO.N,/03_mcu_core/BLE_CTS*%
X230347915Y-76752085D02*
X230347915Y-70851445D01*
X230347915Y-70851445D02*
X231600000Y-69599360D01*
X226769926Y-80378604D02*
X226769926Y-80330074D01*
X226769926Y-80330074D02*
X230347915Y-76752085D01*
%TO.N,/04_usb_sd/D+*%
X234300000Y-33828744D02*
X235024999Y-33103745D01*
X235024999Y-31999999D02*
X234825000Y-31800000D01*
X234300000Y-34112500D02*
X234300000Y-33828744D01*
X235024999Y-33103745D02*
X235024999Y-31999999D01*
%TO.N,/04_usb_sd/D-*%
X236200000Y-33828744D02*
X235475001Y-33103745D01*
X235475001Y-33103745D02*
X235475001Y-31999999D01*
X235475001Y-31999999D02*
X235675000Y-31800000D01*
X236200000Y-34112500D02*
X236200000Y-33828744D01*
D45*
%TO.N,/02_power_regulators/8V4_PWM*%
X237990000Y-98100000D02*
X238000000Y-98100000D01*
%TO.N,/07_pyro/PYRO_VBAT_ARMED*%
X258500000Y-123850000D02*
X259221000Y-123129000D01*
X258819999Y-120740000D02*
X258500000Y-120740000D01*
X259221000Y-121141001D02*
X258819999Y-120740000D01*
X259221000Y-123129000D02*
X259221000Y-121141001D01*
D48*
X258500000Y-123850000D02*
X265155402Y-123850000D01*
X265155402Y-123850000D02*
X265546200Y-124240798D01*
D44*
%TO.N,/01_power_input/PGOOD*%
X248050000Y-135809234D02*
X249740766Y-137500000D01*
D47*
X246481792Y-126510000D02*
X247635000Y-126510000D01*
D44*
X246481792Y-126510000D02*
X246481792Y-131331792D01*
X246481792Y-131331792D02*
X248050000Y-132900000D01*
D47*
X247635000Y-126510000D02*
X248250000Y-125895000D01*
D44*
X249740766Y-137500000D02*
X249800000Y-137500000D01*
X248050000Y-132900000D02*
X248050000Y-135809234D01*
D45*
%TO.N,Net-(J6-Pin_3)*%
X238080000Y-155540000D02*
X239270000Y-156730000D01*
X236213333Y-154590000D02*
X236213333Y-155540000D01*
X236213333Y-155540000D02*
X238080000Y-155540000D01*
%TO.N,Net-(J15-Pin_3)*%
X234286667Y-155540000D02*
X232420000Y-155540000D01*
X232420000Y-155540000D02*
X231230000Y-156730000D01*
X234286667Y-154590000D02*
X234286667Y-155540000D01*
%TO.N,Net-(J16-Pin_3)*%
X226306667Y-155540000D02*
X225116667Y-156730000D01*
X228173333Y-154590000D02*
X228173333Y-155540000D01*
X228173333Y-155540000D02*
X226306667Y-155540000D01*
%TO.N,Net-(J17-Pin_3)*%
X220193333Y-155540000D02*
X222060000Y-155540000D01*
X219003333Y-156730000D02*
X220193333Y-155540000D01*
X222060000Y-155540000D02*
X222060000Y-154590000D01*
%TO.N,Net-(J18-Pin_3)*%
X215946667Y-155540000D02*
X214080000Y-155540000D01*
X214080000Y-155540000D02*
X212890000Y-156730000D01*
X215946667Y-154590000D02*
X215946667Y-155540000D01*
%TO.N,Net-(J19-Pin_3)*%
X254553333Y-155540000D02*
X256420000Y-155540000D01*
X254553333Y-154590000D02*
X254553333Y-155540000D01*
X256420000Y-155540000D02*
X257610000Y-156730000D01*
%TO.N,Net-(J20-Pin_3)*%
X250306667Y-155540000D02*
X251496667Y-156730000D01*
X248440000Y-155540000D02*
X250306667Y-155540000D01*
X248440000Y-154590000D02*
X248440000Y-155540000D01*
%TO.N,Net-(J21-Pin_3)*%
X244193333Y-155540000D02*
X245383333Y-156730000D01*
X242326667Y-155540000D02*
X244193333Y-155540000D01*
X242326667Y-154590000D02*
X242326667Y-155540000D01*
D44*
%TO.N,/03_mcu_core/GPIO_OUT5*%
X256498000Y-73102000D02*
X256498000Y-73084957D01*
X261798000Y-39802000D02*
X262600000Y-39000000D01*
X256300000Y-73300000D02*
X256498000Y-73102000D01*
X256698000Y-65867800D02*
X261798000Y-60767800D01*
X262600000Y-39000000D02*
X262600000Y-38410000D01*
X256300000Y-73526298D02*
X256300000Y-73300000D01*
X256498000Y-73084957D02*
X256698000Y-72884957D01*
X261798000Y-60767800D02*
X261798000Y-39802000D01*
X256698000Y-72884957D02*
X256698000Y-65867800D01*
%TO.N,/03_mcu_core/GPIO_OUT4*%
X264038000Y-38410000D02*
X265140000Y-38410000D01*
X256899000Y-73300997D02*
X256899000Y-73251057D01*
X262199000Y-40249000D02*
X264038000Y-38410000D01*
X256900000Y-74216667D02*
X256900000Y-73301997D01*
X262199000Y-60933900D02*
X262199000Y-40249000D01*
X256899000Y-73251057D02*
X257099000Y-73051057D01*
X256900000Y-73301997D02*
X256899000Y-73300997D01*
X257099000Y-73051057D02*
X257099000Y-66033900D01*
X257099000Y-66033900D02*
X262199000Y-60933900D01*
D45*
%TO.N,Net-(D4-K)*%
X210128800Y-119509400D02*
X210128800Y-118379400D01*
D49*
X212478001Y-122506201D02*
X212158400Y-122186600D01*
D45*
X210128800Y-119509400D02*
X210128800Y-120689400D01*
D49*
X212478001Y-123274200D02*
X212478001Y-122506201D01*
D46*
X206947398Y-124510802D02*
X210448800Y-121009400D01*
X204953800Y-124510802D02*
X206947398Y-124510802D01*
D49*
X211626000Y-122186600D02*
X210448800Y-121009400D01*
X212158400Y-122186600D02*
X211626000Y-122186600D01*
D45*
X210248800Y-118259400D02*
X210248800Y-118200000D01*
X210128800Y-120689400D02*
X210448800Y-121009400D01*
X210128800Y-118379400D02*
X210248800Y-118259400D01*
%TO.N,Net-(D7-K)*%
X210128800Y-109009400D02*
X210128800Y-107879400D01*
D49*
X211626000Y-111686600D02*
X210448800Y-110509400D01*
D46*
X204953800Y-113895802D02*
X207062398Y-113895802D01*
D45*
X210128800Y-109009400D02*
X210128800Y-110189400D01*
D49*
X212478001Y-111737600D02*
X212427001Y-111686600D01*
D45*
X210248800Y-107759400D02*
X210248800Y-107700000D01*
D49*
X212478001Y-112774200D02*
X212478001Y-111737600D01*
D45*
X210128800Y-110189400D02*
X210448800Y-110509400D01*
D49*
X212427001Y-111686600D02*
X211626000Y-111686600D01*
D46*
X207062398Y-113895802D02*
X210448800Y-110509400D01*
D45*
X210128800Y-107879400D02*
X210248800Y-107759400D01*
%TO.N,Net-(D6-A2)*%
X212529201Y-145514800D02*
X212529201Y-144546801D01*
X210982400Y-143000000D02*
X210575000Y-143000000D01*
X210180000Y-142605000D02*
X210575000Y-143000000D01*
X210180000Y-141250000D02*
X210180000Y-142605000D01*
D48*
X204953800Y-145740802D02*
X207694602Y-143000000D01*
D49*
X210080000Y-141150000D02*
X210180000Y-141250000D01*
X210080000Y-140250000D02*
X210080000Y-141150000D01*
D45*
X212529201Y-144546801D02*
X210982400Y-143000000D01*
D48*
X207694602Y-143000000D02*
X210575000Y-143000000D01*
D45*
%TO.N,Net-(D8-A2)*%
X212529201Y-134632400D02*
X212529201Y-133664401D01*
X212529201Y-133664401D02*
X211114800Y-132250000D01*
D48*
X204953800Y-135125802D02*
X207829602Y-132250000D01*
D45*
X210180000Y-130500000D02*
X210180000Y-131855000D01*
D48*
X207829602Y-132250000D02*
X210575000Y-132250000D01*
D49*
X210080000Y-129500000D02*
X210080000Y-130400000D01*
D45*
X210180000Y-131855000D02*
X210575000Y-132250000D01*
X211114800Y-132250000D02*
X210575000Y-132250000D01*
D49*
X210080000Y-130400000D02*
X210180000Y-130500000D01*
D44*
%TO.N,Net-(J24-Pin_3)*%
X211250000Y-60500899D02*
X211999550Y-61250450D01*
X211500000Y-55250000D02*
X211250000Y-55500000D01*
X211500000Y-53475000D02*
X211500000Y-55250000D01*
X211250000Y-55500000D02*
X211250000Y-60500899D01*
X211999550Y-61250450D02*
X212000000Y-61250899D01*
%TO.N,Net-(J24-Pin_2)*%
X212000000Y-57750000D02*
X212000000Y-53475000D01*
X212000000Y-57750899D02*
X212000000Y-57750000D01*
%TO.N,Net-(J25-Pin_4)*%
X204953800Y-78748302D02*
X209920000Y-78748302D01*
X210500000Y-62500000D02*
X210700000Y-62500000D01*
X210500000Y-53475000D02*
X210500000Y-62500000D01*
%TO.N,Net-(J25-Pin_3)*%
X204953800Y-75248301D02*
X209918301Y-75248301D01*
X210000000Y-53475000D02*
X210000000Y-75170000D01*
X210000000Y-75170000D02*
X209920000Y-75250000D01*
X209918301Y-75248301D02*
X209920000Y-75250000D01*
%TO.N,Net-(J26-Pin_4)*%
X213493102Y-96243102D02*
X211500000Y-94250000D01*
X211500000Y-94250000D02*
X211500000Y-89250000D01*
X213500000Y-96243102D02*
X213493102Y-96243102D01*
%TO.N,Net-(J26-Pin_3)*%
X212000000Y-91236197D02*
X213500000Y-92736197D01*
X212000000Y-89250000D02*
X212000000Y-91236197D01*
%TO.N,Net-(J26-Pin_6)*%
X213486197Y-103236197D02*
X213486197Y-103243103D01*
X213486197Y-103236197D02*
X213500000Y-103236197D01*
X210000000Y-99750000D02*
X213486197Y-103236197D01*
X210000000Y-89250000D02*
X210000000Y-99750000D01*
%TO.N,Net-(J26-Pin_5)*%
X210500000Y-89250000D02*
X210500000Y-96743102D01*
X210500000Y-96743102D02*
X213500000Y-99743102D01*
%TO.N,/03_mcu_core/BNO085_NRST*%
X219300000Y-70900000D02*
X218800000Y-70900000D01*
X219343632Y-70801904D02*
X219343632Y-70856368D01*
X219343632Y-70856368D02*
X219300000Y-70900000D01*
X218800000Y-70900000D02*
X218200000Y-70300000D01*
X226445536Y-63700000D02*
X219343632Y-70801904D01*
X242400000Y-67300000D02*
X242300000Y-67300000D01*
X242300000Y-67300000D02*
X238700000Y-63700000D01*
X238700000Y-63700000D02*
X226445536Y-63700000D01*
D45*
%TO.N,Net-(U15-EN)*%
X210629199Y-149250000D02*
X210629199Y-147750000D01*
D49*
%TO.N,Net-(U15-ILIM)*%
X214000000Y-145760000D02*
X213157600Y-146602400D01*
X213157600Y-146602400D02*
X211630200Y-146602400D01*
X211579200Y-146551400D02*
X211579200Y-145514800D01*
X211630200Y-146602400D02*
X211579200Y-146551400D01*
%TO.N,Net-(U18-ILIM)*%
X211898801Y-135720000D02*
X213290000Y-135720000D01*
X211579200Y-135400399D02*
X211898801Y-135720000D01*
X213290000Y-135720000D02*
X214000000Y-135010000D01*
X211579200Y-134632400D02*
X211579200Y-135400399D01*
D45*
%TO.N,Net-(U18-EN)*%
X210629199Y-138500000D02*
X210629199Y-136867600D01*
D49*
%TO.N,Net-(U19-ILIM)*%
X213948800Y-123801200D02*
X213948800Y-123269400D01*
X211528000Y-124042199D02*
X211847601Y-124361800D01*
X211847601Y-124361800D02*
X213388200Y-124361800D01*
X213388200Y-124361800D02*
X213948800Y-123801200D01*
X211528000Y-123274200D02*
X211528000Y-124042199D01*
%TO.N,Net-(U20-ILIM)*%
X213388200Y-113861800D02*
X213948800Y-113301200D01*
X211528000Y-113542199D02*
X211847601Y-113861800D01*
X211847601Y-113861800D02*
X213388200Y-113861800D01*
X211528000Y-112774200D02*
X211528000Y-113542199D01*
X213948800Y-113301200D02*
X213948800Y-112769400D01*
D45*
%TO.N,Net-(U19-EN)*%
X211458001Y-127259400D02*
X210577999Y-126379398D01*
X210577999Y-126379398D02*
X210577999Y-125509400D01*
%TO.N,Net-(U20-EN)*%
X211458001Y-116759400D02*
X210577999Y-115879398D01*
X210577999Y-115879398D02*
X210577999Y-115009400D01*
D44*
%TO.N,/03_mcu_core/GPIO_OUT3*%
X262600000Y-61100000D02*
X257500000Y-66200000D01*
X264013388Y-38931000D02*
X262600000Y-40344388D01*
X257500000Y-66200000D02*
X257500000Y-73500000D01*
X267680000Y-38410000D02*
X267159000Y-38931000D01*
X267159000Y-38931000D02*
X264013388Y-38931000D01*
X262600000Y-40344388D02*
X262600000Y-61100000D01*
%TO.N,/03_mcu_core/GPIO_OUT6*%
X248300000Y-88800000D02*
X248600000Y-89100000D01*
X261397000Y-41203000D02*
X261400000Y-41200000D01*
X244500000Y-89357396D02*
X244500000Y-89100000D01*
X244720499Y-89577895D02*
X244500000Y-89357396D01*
X255700000Y-73776241D02*
X255699000Y-73775241D01*
X261400000Y-41200000D02*
X261400000Y-39750000D01*
X255697997Y-73302003D02*
X255699000Y-73301000D01*
X261400000Y-39750000D02*
X260060000Y-38410000D01*
X255697997Y-73467097D02*
X255697997Y-73302003D01*
X261397000Y-60601700D02*
X261397000Y-41203000D01*
X256297000Y-72403000D02*
X256297000Y-65701700D01*
X255699000Y-73468100D02*
X255697997Y-73467097D01*
X255699000Y-73775241D02*
X255699000Y-73468100D01*
X255699000Y-73301000D02*
X255699000Y-73001000D01*
X244800000Y-88800000D02*
X248300000Y-88800000D01*
X256297000Y-65701700D02*
X261397000Y-60601700D01*
X244500000Y-89100000D02*
X244800000Y-88800000D01*
X255700000Y-74084343D02*
X255700000Y-73776241D01*
X255699000Y-73001000D02*
X256297000Y-72403000D01*
%TO.N,/03_mcu_core/GPIO_IN4*%
X253893461Y-73484819D02*
X253893461Y-73283957D01*
%TO.N,/03_mcu_core/GPIO_OUT7*%
X261000000Y-40600000D02*
X258810000Y-38410000D01*
X249900000Y-88100000D02*
X249500000Y-88100000D01*
X244099000Y-89806339D02*
X244668705Y-90376044D01*
X244668705Y-90376044D02*
X244774914Y-90376044D01*
X260996000Y-40604000D02*
X261000000Y-40600000D01*
X244099000Y-88933900D02*
X244099000Y-89806339D01*
X255896000Y-72204000D02*
X255896000Y-65535600D01*
X255094461Y-73561537D02*
X255094461Y-73005539D01*
X258810000Y-38410000D02*
X257520000Y-38410000D01*
X244633900Y-88399000D02*
X244099000Y-88933900D01*
X255094461Y-73005539D02*
X255896000Y-72204000D01*
X249201000Y-88399000D02*
X244633900Y-88399000D01*
X249500000Y-88100000D02*
X249201000Y-88399000D01*
X260996000Y-60435600D02*
X260996000Y-40604000D01*
X255896000Y-65535600D02*
X260996000Y-60435600D01*
%TO.N,Net-(J28-PadA4)*%
X210390000Y-44210000D02*
X210400000Y-44200000D01*
X215090000Y-44100000D02*
X210590000Y-44100000D01*
X210590000Y-44100000D02*
X210390000Y-44300000D01*
X210390000Y-44300000D02*
X210390000Y-44390000D01*
X210390000Y-44300000D02*
X210390000Y-44210000D01*
%TO.N,Net-(J28-PadA2)*%
X205390000Y-44200000D02*
X205320000Y-44200000D01*
X206420000Y-43100000D02*
X205320000Y-44200000D01*
X215090000Y-43100000D02*
X206420000Y-43100000D01*
%TO.N,Net-(J28-PadB1)*%
X202780000Y-50240000D02*
X202780000Y-48640002D01*
%TO.N,Net-(J28-PadB3)*%
X207860000Y-50240000D02*
X207860000Y-48640002D01*
%TO.N,Net-(J28-PadB4)*%
X210400000Y-50240000D02*
X210400000Y-48640002D01*
%TO.N,Net-(J28-PadB2)*%
X205320000Y-50240000D02*
X205320000Y-48640002D01*
%TO.N,Net-(J29-PadA1)*%
X267680000Y-37390000D02*
X267680000Y-35935852D01*
%TO.N,Net-(J29-PadA5)*%
X257520000Y-37390000D02*
X257520000Y-35935852D01*
X257586600Y-35935852D02*
X257520000Y-35935852D01*
X257520000Y-36002452D02*
X257586600Y-35935852D01*
%TO.N,Net-(J29-PadA3)*%
X262600000Y-37390000D02*
X262600000Y-35935852D01*
%TO.N,Net-(J29-PadA4)*%
X260126600Y-35935852D02*
X260060000Y-35935852D01*
X260060000Y-37390000D02*
X260060000Y-35935852D01*
%TO.N,Net-(J29-PadA2)*%
X265140000Y-37390000D02*
X265140000Y-35935852D01*
%TO.N,Net-(U16-VBUS)*%
X235250000Y-36400000D02*
X235250000Y-36387500D01*
%TD*%
%TA.AperFunction,Conductor*%
%TO.N,/02_power_regulators/5V_SYS*%
G36*
X216003700Y-136001070D02*
G01*
X216135344Y-136018483D01*
X216166740Y-136026937D01*
X216281725Y-136074811D01*
X216309846Y-136091137D01*
X216408434Y-136167264D01*
X216431338Y-136190335D01*
X216506747Y-136289482D01*
X216522866Y-136317718D01*
X216569899Y-136433048D01*
X216578125Y-136464511D01*
X216594576Y-136596276D01*
X216595528Y-136612543D01*
X216562774Y-141100000D01*
X216504595Y-149070589D01*
X216504595Y-149070591D01*
X216504407Y-149096293D01*
X216503238Y-149112394D01*
X216485192Y-149242718D01*
X216476664Y-149273789D01*
X216428812Y-149387549D01*
X216412565Y-149415375D01*
X216337022Y-149512961D01*
X216314155Y-149535661D01*
X216216016Y-149610492D01*
X216188074Y-149626534D01*
X216073974Y-149673552D01*
X216042841Y-149681854D01*
X215932875Y-149696264D01*
X215912383Y-149698949D01*
X215896275Y-149700000D01*
X211608126Y-149700000D01*
X211591941Y-149698939D01*
X211578917Y-149697224D01*
X211486775Y-149685093D01*
X211455508Y-149676715D01*
X211365081Y-149639259D01*
X211337048Y-149623074D01*
X211259398Y-149563491D01*
X211236508Y-149540601D01*
X211232717Y-149535661D01*
X211176925Y-149462951D01*
X211160740Y-149434918D01*
X211123284Y-149344491D01*
X211114906Y-149313224D01*
X211109714Y-149273789D01*
X211102130Y-149216179D01*
X211102130Y-149183820D01*
X211114906Y-149086773D01*
X211123284Y-149055508D01*
X211160740Y-148965081D01*
X211176923Y-148937050D01*
X211236513Y-148859392D01*
X211259392Y-148836513D01*
X211337050Y-148776923D01*
X211365079Y-148760740D01*
X211455509Y-148723283D01*
X211486775Y-148714906D01*
X211591941Y-148701061D01*
X211608126Y-148700000D01*
X212100000Y-148700000D01*
X212100000Y-147867758D01*
X212100500Y-147865892D01*
X212100500Y-147734108D01*
X212100000Y-147732241D01*
X212100000Y-147508127D01*
X212101061Y-147491942D01*
X212118314Y-147360893D01*
X212126690Y-147329631D01*
X212174140Y-147215076D01*
X212190320Y-147187052D01*
X212265802Y-147088681D01*
X212288681Y-147065802D01*
X212387050Y-146990321D01*
X212415082Y-146974138D01*
X212443568Y-146962339D01*
X212491020Y-146952900D01*
X213203742Y-146952900D01*
X213203744Y-146952900D01*
X213292888Y-146929014D01*
X213314367Y-146916612D01*
X213376367Y-146900000D01*
X214600000Y-146900000D01*
X214600000Y-141700000D01*
X214000000Y-141700000D01*
X212708127Y-141700000D01*
X212691941Y-141698939D01*
X212560892Y-141681685D01*
X212529625Y-141673307D01*
X212415082Y-141625862D01*
X212387049Y-141609677D01*
X212288687Y-141534202D01*
X212265799Y-141511314D01*
X212190322Y-141412950D01*
X212174137Y-141384917D01*
X212126691Y-141270370D01*
X212118314Y-141239106D01*
X212101061Y-141108057D01*
X212100000Y-141091872D01*
X212100000Y-139100000D01*
X211608126Y-139100000D01*
X211591941Y-139098939D01*
X211578917Y-139097224D01*
X211486775Y-139085093D01*
X211455508Y-139076715D01*
X211365081Y-139039259D01*
X211337048Y-139023074D01*
X211259398Y-138963491D01*
X211236508Y-138940601D01*
X211176925Y-138862951D01*
X211160740Y-138834918D01*
X211123284Y-138744491D01*
X211114906Y-138713223D01*
X211101061Y-138608059D01*
X211100000Y-138591874D01*
X211100000Y-138308125D01*
X211101061Y-138291940D01*
X211114906Y-138186776D01*
X211123284Y-138155508D01*
X211160740Y-138065081D01*
X211176923Y-138037050D01*
X211236513Y-137959392D01*
X211259392Y-137936513D01*
X211337050Y-137876923D01*
X211365079Y-137860740D01*
X211455509Y-137823283D01*
X211486775Y-137814906D01*
X211526363Y-137809694D01*
X211556241Y-137805761D01*
X211572426Y-137804700D01*
X211878348Y-137804700D01*
X211889997Y-137802382D01*
X211914189Y-137800000D01*
X212100000Y-137800000D01*
X212100000Y-136967758D01*
X212100500Y-136965892D01*
X212100500Y-136834108D01*
X212100000Y-136832241D01*
X212100000Y-136608127D01*
X212101061Y-136591942D01*
X212118314Y-136460893D01*
X212126690Y-136429631D01*
X212174140Y-136315076D01*
X212190320Y-136287052D01*
X212265802Y-136188681D01*
X212288681Y-136165802D01*
X212379490Y-136096123D01*
X212444659Y-136070930D01*
X212454975Y-136070500D01*
X213336142Y-136070500D01*
X213336144Y-136070500D01*
X213425288Y-136046614D01*
X213459370Y-136026937D01*
X213477253Y-136016613D01*
X213539252Y-136000000D01*
X215987441Y-136000000D01*
X216003700Y-136001070D01*
G37*
%TD.AperFunction*%
%TD*%
M02*
