M48
; DRILL file {KiCad 9.0.7} date 2026-08-13T23:42:53-0700
; FORMAT={-:-/ absolute / metric / decimal}
; #@! TF.CreationDate,2026-08-13T23:42:53-07:00
; #@! TF.GenerationSoftware,Kicad,Pcbnew,9.0.7
; #@! TF.FileFunction,Plated,1,6,PTH
FMAT,2
METRIC
; #@! TA.AperFunction,Plated,PTH,ViaDrill
T1C0.300
; #@! TA.AperFunction,Plated,PTH,ComponentDrill
T2C0.300
; #@! TA.AperFunction,Plated,PTH,ViaDrill
T3C0.400
; #@! TA.AperFunction,Plated,PTH,ViaDrill
T4C0.500
; #@! TA.AperFunction,Plated,PTH,ViaDrill
T5C0.600
; #@! TA.AperFunction,Plated,PTH,ComponentDrill
T6C0.600
; #@! TA.AperFunction,Plated,PTH,ComponentDrill
T7C0.900
; #@! TA.AperFunction,Plated,PTH,ComponentDrill
T8C1.000
; #@! TA.AperFunction,Plated,PTH,ComponentDrill
T9C1.092
; #@! TA.AperFunction,Plated,PTH,ComponentDrill
T10C1.500
; #@! TA.AperFunction,Plated,PTH,ComponentDrill
T11C1.700
; #@! TA.AperFunction,Plated,PTH,ComponentDrill
T12C3.200
; #@! TA.AperFunction,Plated,PTH,ComponentDrill
T13C4.500
%
G90
G05
T1
X201.3Y-32.8
X201.3Y-34.467
X201.3Y-36.133
X201.3Y-37.8
X202.78Y-48.64
X202.8Y-44.2
X202.8Y-51.25
X203.5Y-30.7
X203.5Y-39.9
X205.167Y-30.7
X205.167Y-39.9
X205.32Y-44.2
X205.32Y-48.64
X205.32Y-51.26
X206.833Y-30.7
X206.833Y-39.9
X207.45Y-36.35
X207.86Y-48.64
X207.86Y-51.26
X207.9Y-44.2
X208.1Y-34.5
X208.5Y-30.7
X208.5Y-39.9
X210.39Y-44.3
X210.4Y-48.64
X210.4Y-51.26
X210.9Y-129.5
X210.9Y-140.3
X211.0Y-35.0
X211.0Y-87.6
X211.1Y-109.0
X211.1Y-119.5
X211.1Y-130.5
X211.1Y-141.3
X211.528Y-125.509
X211.55Y-51.85
X211.6Y-115.5
X211.6Y-136.9
X211.6Y-147.8
X211.641Y-118.208
X211.649Y-107.7
X212.4Y-110.5
X212.4Y-121.0
X212.9Y-45.1
X212.9Y-75.2
X212.94Y-48.64
X212.95Y-40.1
X213.0Y-78.8
X213.02Y-57.751
X213.02Y-61.251
X213.6Y-36.0
X213.65Y-30.85
X213.65Y-38.25
X213.9Y-110.6
X213.9Y-122.3
X213.92Y-102.0
X214.0Y-134.0
X214.0Y-144.8
X214.52Y-103.243
X215.5Y-102.3
X215.6Y-67.2
X215.6Y-92.136
X215.947Y-153.6
X216.0Y-156.5
X216.11Y-43.1
X216.11Y-44.1
X216.2Y-61.5
X216.5Y-84.9
X216.5Y-85.9
X216.556Y-92.136
X217.3Y-88.2
X217.4Y-65.2
X217.6Y-61.7
X217.6Y-62.9
X217.7Y-68.4
X217.7Y-71.0
X217.9Y-73.3
X218.2Y-70.3
X218.5Y-68.6
X218.6Y-93.336
X218.684Y-92.136
X218.77Y-83.9
X218.85Y-69.35
X218.9Y-85.9
X219.095Y-70.201
X219.284Y-88.175
X219.348Y-66.24
X219.8Y-59.2
X219.8Y-62.9
X219.868Y-73.23
X220.2Y-87.9
X221.0Y-86.0
X221.0Y-123.95
X221.1Y-85.2
X221.1Y-87.7
X221.118Y-73.24
X221.2Y-100.5
X221.6Y-92.736
X221.81Y-95.275
X222.0Y-156.6
X222.06Y-153.57
X222.3Y-135.0
X222.45Y-123.95
X222.79Y-86.025
X222.79Y-86.985
X222.79Y-91.11
X222.79Y-92.07
X223.0Y-99.275
X223.1Y-132.3
X223.1Y-133.8
X223.124Y-88.175
X223.365Y-93.566
X224.0Y-54.524
X224.008Y-52.192
X224.1Y-119.5
X225.0Y-121.5
X225.45Y-75.75
X225.6Y-38.3
X225.675Y-22.1
X225.7Y-24.25
X225.755Y-88.128
X225.77Y-77.04
X225.799Y-95.526
X225.8Y-80.5
X225.805Y-84.002
X225.805Y-89.002
X225.805Y-94.002
X225.823Y-81.402
X225.872Y-101.077
X225.9Y-100.2
X225.967Y-87.067
X226.316Y-96.137
X226.368Y-84.57
X226.368Y-89.57
X226.368Y-94.57
X226.373Y-81.983
X226.525Y-101.826
X226.73Y-77.04
X226.77Y-80.379
X226.935Y-85.135
X226.945Y-82.542
X227.274Y-88.974
X227.5Y-24.25
X227.5Y-27.25
X227.893Y-80.39
X228.0Y-104.275
X228.1Y-156.6
X228.173Y-153.6
X229.0Y-101.93
X229.0Y-102.89
X229.367Y-83.667
X230.298Y-98.702
X230.949Y-71.949
X231.1Y-141.45
X231.219Y-41.471
X231.245Y-98.8
X231.5Y-102.25
X231.6Y-69.599
X231.8Y-121.5
X231.845Y-40.845
X231.98Y-27.695
X232.199Y-70.699
X232.2Y-98.8
X232.3Y-109.45
X232.75Y-141.5
X232.77Y-77.1
X232.78Y-35.68
X232.8Y-36.7
X232.8Y-69.9
X232.812Y-42.212
X232.98Y-104.275
X233.0Y-147.8
X233.4Y-66.9
X233.422Y-72.022
X233.45Y-30.45
X233.73Y-77.13
X233.8Y-83.15
X233.8Y-84.25
X233.86Y-101.96
X234.2Y-137.0
X234.287Y-153.6
X234.3Y-156.6
X234.449Y-82.774
X234.549Y-84.19
X234.6Y-65.6
X234.82Y-101.96
X234.825Y-31.8
X234.825Y-38.5
X234.9Y-70.6
X235.149Y-67.749
X235.25Y-34.1
X235.25Y-36.4
X235.65Y-105.65
X235.675Y-31.8
X235.675Y-38.5
X235.77Y-104.275
X235.8Y-64.8
X236.2Y-70.2
X236.2Y-138.0
X236.2Y-156.6
X236.213Y-153.6
X236.249Y-66.649
X236.322Y-69.122
X236.65Y-30.46
X237.0Y-45.0
X237.0Y-45.8
X237.373Y-65.525
X237.75Y-104.25
X238.0Y-64.898
X238.0Y-94.8
X238.0Y-95.9
X238.0Y-97.0
X238.0Y-98.1
X238.172Y-108.203
X238.29Y-77.04
X238.58Y-29.48
X239.0Y-122.5
X239.01Y-95.9
X239.01Y-98.1
X239.25Y-77.04
X239.412Y-93.9
X239.5Y-120.0
X239.945Y-82.688
X240.09Y-104.1
X240.315Y-81.979
X240.51Y-103.0
X240.795Y-81.339
X241.0Y-70.95
X241.098Y-61.75
X241.131Y-98.3
X241.251Y-80.682
X241.5Y-92.911
X241.5Y-101.94
X241.52Y-102.9
X241.75Y-24.7
X241.75Y-27.95
X241.781Y-80.082
X241.8Y-70.0
X241.945Y-68.9
X242.15Y-65.8
X242.3Y-156.6
X242.327Y-153.6
X242.4Y-67.3
X242.4Y-85.25
X242.5Y-105.7
X242.8Y-91.3
X242.976Y-69.076
X243.0Y-126.895
X243.0Y-127.9
X243.037Y-80.455
X243.5Y-124.645
X243.7Y-71.051
X243.9Y-91.3
X243.9Y-92.31
X243.977Y-94.4
X244.173Y-59.573
X244.19Y-86.799
X244.25Y-85.83
X244.25Y-88.0
X244.274Y-80.066
X244.274Y-80.914
X244.45Y-63.9
X244.61Y-124.9
X244.72Y-89.578
X244.727Y-94.398
X244.73Y-133.905
X244.775Y-90.376
X244.776Y-91.675
X244.82Y-64.85
X244.95Y-74.55
X244.95Y-75.57
X244.975Y-132.655
X245.2Y-71.8
X245.25Y-100.99
X245.6Y-125.9
X245.759Y-126.711
X245.922Y-59.6
X245.98Y-120.5
X246.3Y-77.2
X246.329Y-67.9
X246.482Y-126.51
X246.6Y-57.5
X246.75Y-32.625
X246.75Y-72.3
X246.95Y-75.35
X247.025Y-26.47
X247.025Y-28.77
X247.1Y-74.45
X247.26Y-133.905
X247.28Y-124.95
X247.5Y-114.5
X247.65Y-58.05
X247.65Y-56.852
X247.7Y-63.36
X247.7Y-79.8
X247.71Y-80.755
X247.71Y-85.52
X247.71Y-86.48
X247.71Y-90.565
X247.71Y-91.525
X247.71Y-97.065
X247.71Y-98.025
X247.75Y-23.775
X247.914Y-74.486
X248.0Y-112.0
X248.175Y-26.47
X248.175Y-27.62
X248.175Y-28.77
X248.175Y-29.92
X248.205Y-102.195
X248.25Y-125.895
X248.25Y-126.9
X248.25Y-128.45
X248.3Y-130.2
X248.434Y-56.4
X248.44Y-153.6
X248.44Y-156.56
X248.6Y-89.1
X248.76Y-135.74
X248.8Y-58.5
X248.8Y-84.899
X249.0Y-79.5
X249.05Y-66.3
X249.071Y-65.5
X249.15Y-72.3
X249.325Y-26.47
X249.325Y-27.62
X249.325Y-28.77
X249.325Y-29.92
X249.7Y-71.05
X249.7Y-133.8
X249.75Y-23.775
X249.76Y-135.77
X249.8Y-60.5
X249.8Y-137.5
X249.9Y-84.8
X249.9Y-88.1
X250.0Y-122.0
X250.4Y-119.5
X250.475Y-26.47
X250.475Y-28.77
X250.5Y-67.87
X250.5Y-96.1
X250.598Y-55.6
X250.7Y-73.9
X250.73Y-134.8
X250.75Y-32.625
X251.1Y-60.5
X251.1Y-105.4
X251.75Y-144.0
X251.85Y-66.1
X251.986Y-56.11
X252.0Y-60.45
X252.0Y-113.5
X252.1Y-52.925
X252.11Y-56.9
X252.2Y-58.4
X252.3Y-92.57
X252.342Y-77.4
X252.4Y-71.0
X252.692Y-73.588
X252.9Y-27.8
X253.3Y-74.217
X253.55Y-53.32
X253.7Y-134.8
X253.804Y-56.896
X253.893Y-73.485
X253.974Y-88.574
X254.0Y-146.0
X254.0Y-147.0
X254.5Y-23.7
X254.5Y-26.6
X254.5Y-74.237
X254.5Y-156.6
X254.51Y-25.65
X254.51Y-28.64
X254.553Y-153.6
X254.663Y-115.116
X254.75Y-144.0
X254.75Y-145.0
X255.0Y-59.8
X255.094Y-73.5
X255.25Y-143.0
X255.5Y-85.351
X255.7Y-74.217
X255.8Y-40.86
X255.8Y-41.88
X255.8Y-58.849
X256.0Y-52.6
X256.1Y-84.751
X256.2Y-55.0
X256.25Y-144.0
X256.3Y-73.526
X256.5Y-63.6
X256.5Y-121.8
X256.673Y-77.31
X256.673Y-86.472
X256.673Y-95.697
X256.673Y-104.921
X256.7Y-114.1
X256.882Y-40.86
X256.882Y-41.88
X256.9Y-74.217
X257.1Y-112.3
X257.25Y-53.75
X257.5Y-73.5
X257.52Y-35.936
X257.52Y-121.76
X257.587Y-31.496
X257.965Y-40.86
X257.965Y-41.88
X258.0Y-27.6
X258.01Y-138.525
X258.2Y-71.8
X258.298Y-86.032
X258.298Y-95.257
X258.298Y-104.481
X258.3Y-76.9
X258.3Y-113.7
X258.35Y-146.4
X258.7Y-108.4
X258.7Y-117.6
X258.726Y-99.118
X258.756Y-100.368
X258.8Y-80.2
X258.8Y-109.6
X258.8Y-118.9
X258.81Y-89.47
X258.86Y-81.46
X258.86Y-90.71
X259.048Y-40.86
X259.048Y-41.88
X259.26Y-140.48
X259.746Y-117.618
X259.89Y-101.6
X259.89Y-110.8
X259.92Y-82.72
X259.92Y-91.97
X260.0Y-27.25
X260.06Y-35.936
X260.127Y-31.496
X260.13Y-40.86
X260.13Y-41.88
X262.3Y-63.6
X262.6Y-35.936
X262.667Y-31.496
X264.2Y-41.645
X265.14Y-35.936
X265.207Y-31.496
X267.1Y-61.9
X267.68Y-35.936
X267.747Y-31.496
T2
X217.73Y-119.15
X217.73Y-119.8
X217.73Y-120.45
X218.73Y-119.15
X218.73Y-119.8
X218.73Y-120.45
X219.73Y-119.15
X219.73Y-119.8
X219.73Y-120.45
X220.73Y-119.15
X220.73Y-119.8
X220.73Y-120.45
X221.73Y-119.15
X221.73Y-119.8
X221.73Y-120.45
X227.975Y-136.713
X227.975Y-137.362
X227.975Y-138.012
X228.975Y-136.713
X228.975Y-137.362
X228.975Y-138.012
X229.975Y-136.713
X229.975Y-137.362
X229.975Y-138.012
X230.975Y-136.713
X230.975Y-137.362
X230.975Y-138.012
X231.975Y-136.713
X231.975Y-137.362
X231.975Y-138.012
X252.41Y-137.39
X252.41Y-138.25
X252.41Y-139.43
X252.41Y-140.29
X253.21Y-137.39
X253.21Y-138.25
X253.21Y-139.43
X253.21Y-140.29
X254.01Y-137.39
X254.01Y-138.25
X254.01Y-139.43
X254.01Y-140.29
T3
X209.92Y-78.748
X210.7Y-62.5
X212.0Y-61.25
X212.0Y-57.75
X213.486Y-103.243
X213.5Y-92.736
X213.5Y-96.243
X213.5Y-99.743
X214.1Y-136.9
X214.1Y-138.1
X214.1Y-139.3
X214.1Y-140.6
X214.6Y-72.4
X215.5Y-136.9
X215.5Y-138.1
X215.5Y-139.3
X215.5Y-140.6
X215.6Y-74.2
X216.4Y-59.5
X218.8Y-74.3
X219.7Y-98.6
X219.8Y-81.4
X244.0Y-105.7
X249.55Y-130.25
X249.55Y-131.65
X250.95Y-130.25
X250.95Y-131.65
X251.9Y-130.9
X252.9Y-130.25
X252.9Y-131.6
X254.0Y-130.25
X254.0Y-131.6
X255.1Y-130.25
X255.1Y-131.6
X256.3Y-130.25
X256.3Y-131.6
X256.9Y-138.6
X256.9Y-139.7
X256.9Y-140.8
X256.9Y-141.9
X257.7Y-130.5
X258.1Y-139.7
X258.1Y-140.8
X258.1Y-141.9
X259.2Y-141.9
T4
X213.5Y-116.8
X213.5Y-132.2
X213.6Y-127.3
X213.6Y-143.0
X216.3Y-113.2
X216.3Y-115.8
X221.4Y-112.9
X221.4Y-114.5
X221.4Y-116.1
X223.7Y-112.9
X223.7Y-114.5
X223.7Y-116.1
X225.75Y-123.05
X228.9Y-28.1
X228.9Y-147.2
X231.2Y-133.0
X232.3Y-134.0
X233.8Y-128.9
X233.8Y-130.3
X234.4Y-141.3
X234.45Y-143.25
X234.45Y-145.75
X235.2Y-128.9
X235.2Y-130.3
X235.2Y-131.6
X242.79Y-116.0
X243.6Y-102.8
X244.5Y-136.8
X244.5Y-139.4
X244.5Y-141.8
X244.5Y-144.3
X245.4Y-131.1
X246.2Y-147.35
X247.7Y-61.0
X250.0Y-125.425
X252.15Y-68.2
X252.4Y-125.425
X253.85Y-64.45
X253.85Y-66.05
X254.6Y-55.2
X255.25Y-125.425
X256.0Y-27.3
X257.9Y-127.45
X257.9Y-128.85
X259.1Y-127.45
X259.1Y-128.85
X264.2Y-45.395
T5
X218.2Y-82.6
X223.5Y-130.5
X224.6Y-125.8
X224.6Y-128.3
X226.5Y-131.0
X226.5Y-133.5
T7
X262.55Y-67.8
X262.55Y-69.8
X262.55Y-71.8
T8
X212.89Y-151.65
X212.89Y-154.19
X212.89Y-156.73
X219.003Y-151.65
X219.003Y-154.19
X219.003Y-156.73
X225.117Y-151.65
X225.117Y-154.19
X225.117Y-156.73
X231.23Y-151.65
X231.23Y-154.19
X231.23Y-156.73
X239.27Y-151.65
X239.27Y-154.19
X239.27Y-156.73
X245.383Y-151.65
X245.383Y-154.19
X245.383Y-156.73
X251.497Y-151.65
X251.497Y-154.19
X251.497Y-156.73
X257.61Y-151.65
X257.61Y-154.19
X257.61Y-156.73
T9
X204.954Y-54.251
X204.954Y-57.751
X204.954Y-61.251
X204.954Y-68.248
X204.954Y-71.748
X204.954Y-75.248
X204.954Y-78.748
X204.954Y-85.743
X204.954Y-89.243
X204.954Y-92.743
X204.954Y-96.243
X204.954Y-99.743
X204.954Y-103.243
X204.954Y-110.396
X204.954Y-113.896
X204.954Y-121.011
X204.954Y-124.511
X204.954Y-131.626
X204.954Y-135.126
X204.954Y-142.241
X204.954Y-145.741
X265.546Y-78.118
X265.546Y-81.618
X265.546Y-87.342
X265.546Y-90.842
X265.546Y-96.567
X265.546Y-100.067
X265.546Y-105.792
X265.546Y-109.292
X265.546Y-115.016
X265.546Y-118.516
X265.546Y-124.241
X265.546Y-127.741
T10
X205.96Y-35.33
X262.55Y-65.7
X262.55Y-73.9
T11
X203.42Y-32.79
X203.42Y-37.87
X208.5Y-32.79
X208.5Y-37.87
T12
X206.25Y-25.5
X206.25Y-153.25
X264.25Y-153.379
X264.257Y-25.493
T13
X264.6Y-135.95
X264.6Y-143.15
T6
G00X230.91Y-22.9
M15
G01X230.91Y-22.3
M16
G05
G00X230.91Y-27.33
M15
G01X230.91Y-26.23
M16
G05
G00X239.55Y-22.9
M15
G01X239.55Y-22.3
M16
G05
G00X239.55Y-27.33
M15
G01X239.55Y-26.23
M16
G05
M30
